<svg width="878" height="858" viewBox="0 0 878 858" fill="none" xmlns="http://www.w3.org/2000/svg">
<g id="Main-Logo" filter="url(#filter0_d)">
<g id="Compass">
<path id="Vector" d="M512.085 430.988V411.638C502.03 408.123 495.678 407.136 492.48 399.55V399.544C489.271 391.934 493.089 386.768 497.639 377.35L483.722 363.669C474.215 368.112 468.904 371.902 461.145 368.74H461.139C453.41 365.591 452.399 359.305 448.842 349.468H429.158C425.613 359.257 424.596 365.585 416.861 368.74H416.855C409.114 371.902 403.87 368.154 394.278 363.669L380.361 377.35C384.899 386.738 388.736 391.922 385.52 399.544C382.31 407.154 375.873 408.153 365.915 411.638V430.988C375.854 434.461 382.31 435.472 385.52 443.076C388.748 450.751 384.826 456.044 380.361 465.27L394.278 478.957C403.791 474.508 409.102 470.724 416.855 473.885H416.861C424.596 477.035 425.607 483.339 429.158 493.158H448.842C452.387 483.363 453.41 477.053 461.188 473.868H461.194C468.88 470.73 474.105 474.472 483.716 478.963L497.633 465.276C493.101 455.918 489.258 450.71 492.468 443.088C495.678 435.478 502.14 434.467 512.085 430.988ZM439 445.261C425.546 445.261 414.638 434.538 414.638 421.313C414.638 408.087 425.546 397.365 439 397.365C452.454 397.365 463.362 408.087 463.362 421.313C463.362 434.538 452.454 445.261 439 445.261Z" fill="url(#paint0_radial)"/>
<path id="Ellipse 7" d="M482.43 420.943C482.43 444.726 462.818 464.006 438.624 464.006C414.431 464.006 394.818 444.726 394.818 420.943C394.818 397.16 414.431 377.88 438.624 377.88C462.818 377.88 482.43 397.16 482.43 420.943Z" fill="#1D1D1D"/>
<g id="wing">
<path id="Polygon 114" d="M5 419.91L365.915 376.964V465.661L5 419.91Z" fill="url(#paint1_linear)"/>
<path id="Polygon 115" d="M5 419.982L185.457 398.252L365.915 420.426L185.457 442.6L5 419.982Z" fill="url(#paint2_linear)"/>
</g>
<g id="wing_2">
<path id="Polygon 114_2" d="M873 421.828L512.085 464.775V376.077L873 421.828Z" fill="url(#paint3_linear)"/>
<path id="Polygon 115_2" d="M873 421.756L692.543 443.487L512.085 421.313L692.543 399.138L873 421.756Z" fill="url(#paint4_linear)"/>
</g>
<g id="wing_3">
<path id="Polygon 114_3" d="M439.524 0L483.212 354.79H392.984L439.524 0Z" fill="url(#paint5_linear)"/>
<path id="Polygon 115_3" d="M439.451 0L461.557 177.395L439 354.79L416.443 177.395L439.451 0Z" fill="url(#paint6_linear)"/>
</g>
<g id="wing_4">
<path id="Polygon 114_4" d="M436.671 847.947L392.983 493.158H483.212L436.671 847.947Z" fill="url(#paint7_linear)"/>
<path id="Polygon 115_4" d="M436.744 847.948L414.638 670.553L437.195 493.158L459.752 670.553L436.744 847.948Z" fill="url(#paint8_linear)"/>
</g>
<path id="Polygon 107" d="M223.1 212.005L437.982 377.081L389.493 424.747L223.1 212.005Z" fill="url(#paint9_linear)"/>
<path id="Polygon 106" d="M655.415 213.512L487.489 424.747L439 377.081L655.415 213.512Z" fill="url(#paint10_linear)"/>
<path id="Polygon 108" d="M653.882 628.733L439 463.657L487.489 415.991L653.882 628.733Z" fill="url(#paint11_linear)"/>
<path id="Polygon 109" d="M222.47 628.113L390.396 416.878L438.885 464.544L222.47 628.113Z" fill="url(#paint12_linear)"/>
</g>
<g id="K">
<path id="Vector_2" d="M412.015 439.905C412.015 437.529 412.04 435.184 412.015 432.822C411.994 432.399 412.061 431.975 412.213 431.578C412.365 431.181 412.599 430.819 412.899 430.515C424.229 418.386 435.548 406.246 446.855 394.095C447.156 393.738 447.537 393.454 447.967 393.265C448.397 393.075 448.866 392.985 449.337 393.002C453.766 393.036 458.199 393.022 462.628 393.002C463.684 393.002 464.623 393.161 465.093 394.237C465.562 395.313 465.141 396.151 464.371 396.976C448.319 414.19 432.279 431.404 416.251 448.616C415.423 449.509 414.553 450.072 413.327 449.611C412.102 449.149 411.995 448.104 412.005 446.987C412.033 444.629 412.015 442.267 412.015 439.905Z" fill="url(#paint13_linear)"/>
<path id="Vector_3" d="M453.99 449.78C451.753 449.78 449.502 449.756 447.282 449.78C446.85 449.797 446.419 449.715 446.023 449.542C445.628 449.369 445.278 449.109 445 448.782C441.607 445.114 438.186 441.466 434.789 437.801C433.791 436.722 433.802 435.649 434.813 434.55C437.066 432.113 439.331 429.684 441.607 427.264C442.715 426.086 444.024 426.076 445.149 427.264C450.992 433.521 456.832 439.785 462.669 446.054C463 446.365 463.225 446.769 463.313 447.211C463.401 447.653 463.347 448.111 463.159 448.521C462.79 449.397 462.027 449.767 461.067 449.763L453.99 449.78Z" fill="url(#paint14_linear)"/>
<path id="Vector_4" d="M412.015 407.594C412.015 403.603 412.015 399.614 412.015 395.625C412.015 393.724 412.705 393.025 414.607 393.019C417.921 393.005 421.234 393.005 424.546 393.019C426.421 393.019 427.17 393.779 427.173 395.618C427.173 399.772 427.173 403.926 427.173 408.076C427.183 408.479 427.11 408.879 426.957 409.253C426.805 409.627 426.576 409.967 426.286 410.251C422.873 413.849 419.484 417.468 416.119 421.111C415.35 421.949 414.48 422.397 413.382 422.017C412.284 421.637 411.98 420.66 412.001 419.553C412.032 415.573 412.015 411.599 412.015 407.594Z" fill="url(#paint15_linear)"/>
</g>
</g>
<defs>
<filter id="filter0_d" x="0.284153" y="0" width="877.432" height="857.379" filterUnits="userSpaceOnUse" color-interpolation-filters="sRGB">
<feFlood flood-opacity="0" result="BackgroundImageFix"/>
<feColorMatrix in="SourceAlpha" type="matrix" values="0 0 0 0 0 0 0 0 0 0 0 0 0 0 0 0 0 0 127 0"/>
<feOffset dy="4.71585"/>
<feGaussianBlur stdDeviation="2.35792"/>
<feColorMatrix type="matrix" values="0 0 0 0 0 0 0 0 0 0 0 0 0 0 0 0 0 0 0.25 0"/>
<feBlend mode="normal" in2="BackgroundImageFix" result="effect1_dropShadow"/>
<feBlend mode="normal" in="SourceGraphic" in2="effect1_dropShadow" result="shape"/>
</filter>
<radialGradient id="paint0_radial" cx="0" cy="0" r="1" gradientUnits="userSpaceOnUse" gradientTransform="translate(439 421.313) rotate(90) scale(71.8449 73.0852)">
<stop stop-color="#0D0D0D" stop-opacity="0"/>
<stop offset="1" stop-color="#00FFFF"/>
</radialGradient>
<linearGradient id="paint1_linear" x1="14.3988" y1="894.205" x2="375.314" y2="894.205" gradientUnits="userSpaceOnUse">
<stop stop-color="#00FFFF"/>
<stop offset="0.9999" stop-color="#00FFFF" stop-opacity="0"/>
<stop offset="1" stop-color="#00FFFF" stop-opacity="0"/>
</linearGradient>
<linearGradient id="paint2_linear" x1="5" y1="420.426" x2="365.915" y2="420.426" gradientUnits="userSpaceOnUse">
<stop stop-color="#17FFFF"/>
<stop offset="1" stop-opacity="0.72"/>
</linearGradient>
<linearGradient id="paint3_linear" x1="863.601" y1="-52.4666" x2="502.686" y2="-52.4666" gradientUnits="userSpaceOnUse">
<stop stop-color="#00FFFF"/>
<stop offset="0.9999" stop-color="#00FFFF" stop-opacity="0"/>
<stop offset="1" stop-color="#00FFFF" stop-opacity="0"/>
</linearGradient>
<linearGradient id="paint4_linear" x1="873" y1="421.313" x2="512.085" y2="421.313" gradientUnits="userSpaceOnUse">
<stop stop-color="#17FFFF"/>
<stop offset="1" stop-opacity="0.72"/>
</linearGradient>
<linearGradient id="paint5_linear" x1="-42.9583" y1="9.23931" x2="-42.9583" y2="364.029" gradientUnits="userSpaceOnUse">
<stop stop-color="#00FFFF"/>
<stop offset="0.9999" stop-color="#00FFFF" stop-opacity="0"/>
<stop offset="1" stop-color="#00FFFF" stop-opacity="0"/>
</linearGradient>
<linearGradient id="paint6_linear" x1="439" y1="0" x2="439" y2="354.79" gradientUnits="userSpaceOnUse">
<stop stop-color="#17FFFF"/>
<stop offset="1" stop-opacity="0.72"/>
</linearGradient>
<linearGradient id="paint7_linear" x1="919.154" y1="838.708" x2="919.154" y2="483.918" gradientUnits="userSpaceOnUse">
<stop stop-color="#00FFFF"/>
<stop offset="0.9999" stop-color="#00FFFF" stop-opacity="0"/>
<stop offset="1" stop-color="#00FFFF" stop-opacity="0"/>
</linearGradient>
<linearGradient id="paint8_linear" x1="437.195" y1="847.948" x2="437.195" y2="493.158" gradientUnits="userSpaceOnUse">
<stop stop-color="#17FFFF"/>
<stop offset="1" stop-opacity="0.72"/>
</linearGradient>
<linearGradient id="paint9_linear" x1="222.334" y1="212.759" x2="410.462" y2="404.135" gradientUnits="userSpaceOnUse">
<stop stop-color="#00FFFF"/>
<stop offset="1" stop-color="#00FFFF" stop-opacity="0"/>
</linearGradient>
<linearGradient id="paint10_linear" x1="654.648" y1="212.759" x2="466.52" y2="404.134" gradientUnits="userSpaceOnUse">
<stop stop-color="#00FFFF"/>
<stop offset="1" stop-color="#00FFFF" stop-opacity="0"/>
</linearGradient>
<linearGradient id="paint11_linear" x1="685.326" y1="657.906" x2="497.198" y2="466.53" gradientUnits="userSpaceOnUse">
<stop stop-color="#00FFFF"/>
<stop offset="1" stop-color="#00FFFF" stop-opacity="0"/>
</linearGradient>
<linearGradient id="paint12_linear" x1="198.759" y1="653.471" x2="386.887" y2="462.096" gradientUnits="userSpaceOnUse">
<stop stop-color="#00FFFF"/>
<stop offset="1" stop-color="#00FFFF" stop-opacity="0"/>
</linearGradient>
<linearGradient id="paint13_linear" x1="438.647" y1="393" x2="438.647" y2="449.776" gradientUnits="userSpaceOnUse">
<stop stop-color="#00FFFF"/>
<stop offset="1" stop-color="#77D9D9" stop-opacity="0"/>
</linearGradient>
<linearGradient id="paint14_linear" x1="448.701" y1="426.377" x2="448.701" y2="449.782" gradientUnits="userSpaceOnUse">
<stop stop-color="#00FFFF"/>
<stop offset="1" stop-color="#66E2E2" stop-opacity="0"/>
</linearGradient>
<linearGradient id="paint15_linear" x1="419.587" y1="393.008" x2="419.587" y2="422.154" gradientUnits="userSpaceOnUse">
<stop stop-color="#00FFFF"/>
<stop offset="1" stop-color="#ADF4F4" stop-opacity="0"/>
</linearGradient>
</defs>
</svg>
