<svg width="178" height="179" viewBox="0 0 178 179" fill="none" xmlns="http://www.w3.org/2000/svg">
<path d="M174.59 89.1955C174.59 136.384 136.275 174.647 89 174.647C41.7249 174.647 3.40996 136.384 3.40996 89.1955C3.40996 42.0069 41.7249 3.74395 89 3.74395C136.275 3.74395 174.59 42.0069 174.59 89.1955Z" fill="#DD7272" stroke="#5C5C5C" stroke-width="6.81992"/>
<path d="M6.81993 88.9231C6.81993 99.7264 8.94779 110.424 13.082 120.405C17.2162 130.386 23.2758 139.454 30.9149 147.094C38.5539 154.733 47.6228 160.792 57.6037 164.926C67.5846 169.061 78.282 171.188 89.0853 171.188C99.8885 171.188 110.586 169.061 120.567 164.926C130.548 160.792 139.617 154.733 147.256 147.094C154.895 139.454 160.954 130.386 165.089 120.405C169.223 110.424 171.351 99.7264 171.351 88.9231L89.0853 88.9231H6.81993Z" fill="#00FFFF" fill-opacity="0.6"/>
<circle cx="88.6593" cy="85.9396" r="28.1322" fill="#C0C0C0" stroke="#5C5C5C" stroke-width="6.81992"/>
<circle cx="89.0854" cy="85.5132" r="14.0661" fill="white" stroke="#5C5C5C" stroke-width="6.81992"/>
<line x1="117.644" y1="88.4973" x2="177.318" y2="88.4973" stroke="#5C5C5C" stroke-width="6.81992"/>
<line x1="3.41016" y1="88.4973" x2="63.0845" y2="88.4973" stroke="#5C5C5C" stroke-width="6.81992"/>
</svg>
