<svg width="216" height="195" viewBox="0 0 216 195" fill="none" xmlns="http://www.w3.org/2000/svg">
<path d="M205.41 180.357V180.57C205.41 180.626 205.41 180.684 205.405 180.74C205.351 183.646 204.337 186.452 202.52 188.721C202.428 188.84 202.332 188.954 202.233 189.069C202.085 189.243 201.933 189.411 201.776 189.577C201.762 189.591 201.749 189.607 201.733 189.62L201.727 189.627C201.709 189.645 201.691 189.665 201.673 189.683C201.397 189.967 201.108 190.24 200.805 190.501C200.745 190.553 200.682 190.606 200.617 190.658C198.276 192.602 195.335 193.676 192.293 193.698C192.27 193.7 192.246 193.7 192.223 193.7H192.145C192.122 193.7 192.1 193.7 192.078 193.698C191.999 193.698 191.923 193.696 191.845 193.693C188.802 193.621 185.877 192.497 183.57 190.512C183.507 190.461 183.444 190.407 183.384 190.351C183.144 190.14 182.913 189.918 182.691 189.689C182.673 189.672 182.655 189.651 182.637 189.633L182.631 189.627C182.615 189.613 182.601 189.598 182.588 189.584C182.4 189.387 182.218 189.183 182.043 188.974C181.947 188.86 181.853 188.743 181.761 188.625C179.99 186.373 179.004 183.604 178.952 180.74C178.947 180.686 178.947 180.63 178.947 180.574V180.366C178.947 180.341 178.947 180.316 178.95 180.292C178.981 177.422 179.95 174.641 181.709 172.374C181.801 172.255 181.895 172.138 181.992 172.024C182.169 171.809 182.355 171.6 182.545 171.396C182.559 171.38 182.572 171.367 182.588 171.351C182.588 171.349 182.59 171.347 182.592 171.345C182.61 171.327 182.628 171.307 182.649 171.289C182.897 171.031 183.157 170.783 183.426 170.544C183.487 170.488 183.55 170.434 183.613 170.383C185.972 168.373 188.965 167.259 192.064 167.238C192.087 167.235 192.111 167.235 192.134 167.235H192.279C195.307 167.254 198.236 168.315 200.574 170.239C200.637 170.293 200.7 170.345 200.762 170.399C201.09 170.677 201.404 170.972 201.702 171.282C201.72 171.3 201.738 171.32 201.756 171.338L201.76 171.342C201.776 171.356 201.791 171.374 201.805 171.387C201.971 171.562 202.13 171.744 202.285 171.927C202.383 172.042 202.477 172.156 202.572 172.275C204.378 174.56 205.376 177.379 205.408 180.292C205.409 180.313 205.41 180.335 205.41 180.357Z" fill="#E49E15"/>
<path d="M192.292 167.289H191.844V180.516V193.743H192.292V167.289Z" fill="black"/>
<path d="M205.41 180.292H178.842V180.74H205.41V180.292Z" fill="black"/>
<path d="M186.459 180.292C186.424 178.658 186.001 177.057 185.224 175.619C184.447 174.181 183.339 172.949 181.991 172.024C181.895 172.139 181.801 172.255 181.709 172.374C183.004 173.257 184.071 174.435 184.819 175.812C185.568 177.189 185.977 178.725 186.013 180.292C186.016 180.366 186.016 180.44 186.016 180.516C186.016 180.593 186.016 180.667 186.013 180.741C185.977 182.297 185.573 183.823 184.833 185.193C184.094 186.564 183.041 187.74 181.761 188.625C181.852 188.744 181.947 188.861 182.043 188.975C183.376 188.047 184.471 186.818 185.238 185.387C186.006 183.956 186.424 182.364 186.459 180.741C186.464 180.667 186.464 180.59 186.464 180.516C186.464 180.442 186.464 180.366 186.459 180.292Z" fill="black"/>
<path d="M198.123 180.74C198.121 180.666 198.121 180.592 198.121 180.516C198.121 180.44 198.121 180.366 198.123 180.292C198.16 178.695 198.585 177.132 199.359 175.735C200.134 174.339 201.236 173.152 202.571 172.275C202.477 172.156 202.383 172.042 202.284 171.928C200.899 172.847 199.756 174.087 198.953 175.544C198.151 177.001 197.713 178.63 197.677 180.292C197.673 180.366 197.673 180.442 197.673 180.516C197.673 180.59 197.673 180.666 197.677 180.74C197.713 182.392 198.146 184.011 198.939 185.461C199.731 186.91 200.861 188.148 202.233 189.069C202.331 188.954 202.428 188.84 202.52 188.721C201.199 187.843 200.11 186.658 199.344 185.269C198.579 183.88 198.16 182.326 198.123 180.74Z" fill="black"/>
<path d="M216 193.617H0V194.119H216V193.617Z" fill="#FFEFEF"/>
<path d="M87.6456 157.919L87.0244 170.343L93.547 171.586L95.4106 159.783L87.6456 157.919Z" fill="#9D616A"/>
<path d="M119.948 161.957L121.501 172.207H127.403L126.16 161.336L119.948 161.957Z" fill="#9D616A"/>
<path d="M88.8882 134.003L87.6457 148.291L86.4033 160.404C86.4033 160.404 91.0624 158.541 95.4108 161.336C95.4108 161.336 98.2063 160.715 97.5851 148.601L100.381 135.867L88.8882 134.003Z" fill="#878080"/>
<path d="M114.047 138.661C114.047 138.661 115.911 149.843 116.842 150.775C116.842 150.775 118.381 160.774 119.128 163.302C119.173 163.482 119.24 163.657 119.327 163.82C119.948 164.752 126.782 166.926 127.092 163.199C127.403 159.472 128.335 153.26 125.229 148.601L123.365 136.798L114.047 138.661Z" fill="#878080"/>
<path d="M132.838 137.264C132.528 140.681 115.445 140.06 112.339 140.06C111.357 140.06 110.096 139.907 109.469 138.211C108.394 135.313 107.804 131.08 107.605 129.424C107.524 130.959 106.816 134.674 105.046 137.053C103.968 138.507 102.185 138.218 100.225 137.885C96.9699 137.332 90.5 135.32 88.7327 135.711C85.9372 136.332 82.5734 136.394 82.5206 135.711C82.4964 135.338 82.4985 134.963 82.5268 134.59C82.9368 128.166 88.888 110.754 88.888 109.465C88.888 107.912 91.6834 101.389 91.6834 101.389L120.259 97.9727C120.259 97.9727 131.577 128.505 133.134 136.022C133.267 136.671 132.863 136.994 132.838 137.264Z" fill="#4B4242"/>
<path d="M94.479 170.033L86.4033 168.479L87.1798 181.37L93.5472 185.873C93.5472 185.873 92.926 173.449 94.479 170.033Z" fill="#EFEFEF"/>
<path d="M127.403 169.102C127.403 169.102 123.365 171.586 119.948 169.102L122.744 180.594L127.403 179.973C127.403 179.973 129.577 173.139 127.403 169.102Z" fill="#EFEFEF"/>
<path d="M128.334 178.729C128.334 178.729 121.812 179.04 121.812 179.661V189.911C121.812 190.843 123.054 192.085 122.743 192.707C122.433 193.328 124.607 194.881 129.577 193.949C134.546 193.017 132.683 189.911 132.683 189.911C132.683 189.911 127.713 181.214 128.334 178.729Z" fill="#2F2E41"/>
<path d="M86.2472 178.886C86.2472 178.886 93.7017 179.041 93.7017 179.662V189.912C93.7017 190.844 92.4593 192.086 92.7699 192.708C93.0805 193.329 90.9063 194.882 85.9366 193.95C80.967 193.018 82.8306 189.912 82.8306 189.912C82.8306 189.912 86.8684 181.371 86.2472 178.886Z" fill="#2F2E41"/>
<path d="M133.305 137.419C132.994 140.836 114.979 141.146 111.873 141.146C110.891 141.146 110.096 139.907 109.469 138.211C112.802 137.549 127.136 134.85 133.134 136.021C133.248 136.478 133.306 136.948 133.305 137.419Z" fill="#7D7D7D"/>
<path d="M105.046 137.052C103.968 138.506 102.496 139.46 100.536 139.127C97.2805 138.574 90.5 137.183 88.7327 137.574C85.9372 138.195 82.5734 136.394 82.5206 135.711C82.4964 135.337 82.4985 134.962 82.5268 134.589C89.065 134.412 100.644 134.49 105.046 137.052Z" fill="#7D7D7D"/>
<path d="M92.926 60.389C92.926 60.389 87.3351 58.5254 82.3654 64.1163L81.4336 65.9799C81.4336 65.9799 74.2897 68.1541 72.1155 69.7072C72.1155 69.7072 65.5928 68.1541 57.5171 69.7072L49.4414 67.8435C49.4414 67.8435 33.9112 56.9724 32.3582 63.8057C30.8051 70.6389 46.9566 73.1238 46.9566 73.1238L60.3125 76.851C60.3125 76.851 70.5625 79.3359 74.6003 77.4722C74.6003 77.4722 86.0927 76.851 88.2669 72.5026L92.926 74.6768V60.389Z" fill="#9D616A"/>
<path d="M112.183 58.8367C112.183 58.8367 123.675 57.5942 128.024 63.4957L137.031 65.9806C137.031 65.9806 146.97 64.1169 150.698 65.0488L158.773 62.8745C158.773 62.8745 166.538 50.4504 170.887 53.867C175.235 57.2836 160.637 68.1548 160.637 68.1548L141.069 74.6775C141.069 74.6775 125.849 75.9199 122.743 70.329L119.327 78.0941L106.281 74.9881L112.183 58.8367Z" fill="#9D616A"/>
<path d="M101.312 57.2834C105.944 57.2834 109.698 53.5287 109.698 48.8971C109.698 44.2654 105.944 40.5107 101.312 40.5107C96.6805 40.5107 92.9258 44.2654 92.9258 48.8971C92.9258 53.5287 96.6805 57.2834 101.312 57.2834Z" fill="#9D616A"/>
<path d="M96.9629 53.8669V60.7002L100.069 71.5714L109.387 60.7002C109.387 60.7002 106.902 53.2457 106.902 52.0033C106.902 50.7609 96.9629 53.8669 96.9629 53.8669Z" fill="#9D616A"/>
<path d="M121.657 98.7496C121.657 98.7496 121.505 99.8709 120.091 99.9734C117.262 100.182 112.497 100.663 109.388 101.7C104.729 103.253 90.7517 103.253 90.7517 103.253L89.8447 75.1188L90.2858 72.9695C89.9752 70.4846 92.46 60.5453 92.46 60.5453L94.2739 59.2066L95.973 58.8401L96.4979 59.3029C96.4979 63.4402 100.536 67.3786 100.536 67.3786C106.437 64.5832 108.922 58.3711 108.922 58.3711L110.671 58.1133L112.5 58.3183L114.156 58.5046L113.581 58.9923L113.27 59.6135C113.286 59.5762 113.252 59.6508 113.27 59.6135C108.748 69.2081 114.209 73.5472 117.619 75.4543C119.032 76.2495 119.172 77.0073 119.172 77.0073C119.172 77.0073 120.449 76.6253 120.414 77.9392C120.312 82.1913 119.539 91.7921 120.725 94.4012C122.278 97.8178 121.657 98.7496 121.657 98.7496Z" fill="#BD3838"/>
<path d="M92.46 43.2273C92.661 42.5382 92.8974 41.8598 93.1681 41.195C93.5222 40.3821 93.1681 37.9433 93.5222 37.9433H94.9386L96.709 36.3174L97.7713 37.1303L99.1877 36.3174L100.958 37.1303L102.729 36.3174L105.561 38.3497L106.269 37.9433L106.978 39.1627H107.332L108.748 41.195H109.456V43.2273H110.164V48.5114L109.233 52.1582L108.922 50.3688C108.922 50.3444 108.914 50.3206 108.899 50.3011C108.885 50.2816 108.864 50.2673 108.841 50.2604C108.817 50.2535 108.792 50.2544 108.77 50.2629C108.747 50.2715 108.727 50.2872 108.714 50.3077L108.04 51.3567L107.607 49.7019C106.985 47.2234 105.523 45.0369 103.471 43.514C100.851 41.6127 97.0631 40.7072 93.1681 46.0726L92.46 43.2273Z" fill="#2F2E41"/>
<path d="M94.2734 59.2061C93.6833 62.7935 91.9005 72.7142 89.8443 75.1183L89.8194 74.3666C89.5088 71.8818 91.6831 59.7682 91.6831 59.7682L94.2734 59.2061Z" fill="#EAC33A"/>
<path d="M110.671 58.1126C109.111 61.0571 104.645 68.6576 100.38 68.1544C96.2648 67.6699 95.9231 61.5261 95.9729 58.8394L96.9637 58.6251C96.9637 62.7623 100.691 66.2908 100.691 66.2908C106.592 63.4953 108.472 57.8672 108.472 57.8672L110.671 58.1126Z" fill="#EAC33A"/>
<path d="M120.88 75.9193C120.88 75.9193 120.846 76.7517 120.811 78.0656C119.947 78.0191 119.09 77.8859 118.252 77.6681C108.657 75.1366 111.462 62.1068 112.5 58.3174L114.155 58.5038H114.158C114.205 58.5473 114.254 58.5938 114.304 58.6404C109.782 68.235 114.941 72.9003 118.351 74.8074C119.152 75.2669 120 75.6397 120.88 75.9193Z" fill="#EAC33A"/>
<path d="M122.433 99.8361C122.433 99.8361 121.505 99.8703 120.091 99.9728C119.383 97.3717 118.816 94.7339 118.396 92.071C117.986 89.201 118.116 82.141 118.253 77.6683C118.29 76.4973 118.324 75.5003 118.352 74.8076C119.153 75.2672 120 75.6399 120.88 75.9196C120.88 75.9196 120.846 76.752 120.812 78.0658C120.71 82.318 120.626 91.6362 121.812 94.2452C123.365 97.6619 122.433 99.8361 122.433 99.8361Z" fill="#EAC33A"/>
<path d="M93.3916 78.5354C93.3916 78.5354 103.331 73.78 112.96 78.5354H93.3916Z" fill="#7A7A7A"/>
<path d="M91.2959 103.348L101.384 103.796L120.44 99.9854" fill="#989898"/>
<path d="M52.069 53.2454V53.4584C52.069 53.5145 52.069 53.5727 52.0645 53.6288C52.0106 56.5347 50.9961 59.3411 49.1793 61.6097C49.0873 61.7285 48.9909 61.8428 48.8923 61.9572C48.7443 62.132 48.5919 62.3002 48.435 62.4661C48.4215 62.4795 48.4081 62.4952 48.3924 62.5087L48.3857 62.5154C48.3677 62.5333 48.3498 62.5535 48.3319 62.5714C48.0561 62.8561 47.7669 63.1289 47.4643 63.3897C47.4037 63.4413 47.341 63.4951 47.2759 63.5466C44.9353 65.4903 41.9944 66.5643 38.952 66.5865C38.9296 66.5888 38.905 66.5888 38.8825 66.5888H38.8041C38.7817 66.5888 38.7592 66.5888 38.7368 66.5865C38.6584 66.5865 38.5821 66.5843 38.5037 66.5821C35.4607 66.5101 32.5367 65.3859 30.2291 63.4009C30.1664 63.3493 30.1036 63.2955 30.043 63.2395C29.8032 63.0288 29.5722 62.8068 29.3503 62.5782C29.3324 62.5602 29.3144 62.5401 29.2965 62.5221L29.2898 62.5154C29.2741 62.5019 29.2606 62.4862 29.2472 62.4728C29.0589 62.2755 28.8773 62.0715 28.7024 61.863C28.606 61.7487 28.5119 61.6321 28.42 61.5133C26.6492 59.2616 25.6628 56.4929 25.6109 53.6288C25.6064 53.575 25.6064 53.5189 25.6064 53.4629V53.2544C25.6064 53.2297 25.6064 53.2051 25.6087 53.1804C25.6405 50.3107 26.6096 47.5301 28.3684 45.2623C28.4603 45.1435 28.5544 45.0269 28.6508 44.9126C28.828 44.6974 29.014 44.4889 29.2046 44.2849C29.218 44.2692 29.2315 44.2557 29.2472 44.24C29.2472 44.2378 29.2494 44.2355 29.2516 44.2333C29.2696 44.2154 29.2875 44.1952 29.3077 44.1772C29.5566 43.9194 29.8159 43.6713 30.0856 43.433C30.1461 43.3769 30.2089 43.3231 30.2717 43.2716C32.6313 41.2617 35.6239 40.148 38.7234 40.1263C38.7458 40.124 38.7705 40.124 38.7929 40.124H38.9386C41.9665 40.143 44.8955 41.2038 47.2333 43.1281C47.2961 43.1819 47.3589 43.2334 47.4217 43.2872C47.749 43.5652 48.0628 43.8611 48.361 44.1705C48.3789 44.1885 48.3969 44.2086 48.4148 44.2266L48.4193 44.2311C48.435 44.2445 48.4507 44.2624 48.4641 44.2759C48.63 44.4508 48.7892 44.6323 48.9439 44.8162C49.0425 44.9305 49.1367 45.0448 49.2308 45.1637C51.0374 47.4484 52.0348 50.2679 52.0667 53.1804C52.0686 53.202 52.0693 53.2237 52.069 53.2454Z" fill="#E49E15"/>
<path d="M38.9513 40.1777H38.5029V66.6313H38.9513V40.1777Z" fill="black"/>
<path d="M52.0689 53.1797H25.501V53.6281H52.0689V53.1797Z" fill="black"/>
<path d="M33.1186 53.18C33.0834 51.5462 32.6598 49.9442 31.8829 48.5066C31.106 47.0689 29.998 45.8368 28.6506 44.9121C28.5542 45.0264 28.4601 45.143 28.3682 45.2618C29.6636 46.1443 30.7299 47.323 31.4784 48.7001C32.227 50.0772 32.6364 51.613 32.6725 53.18C32.6747 53.2539 32.6747 53.3279 32.6747 53.4042C32.6747 53.4804 32.6747 53.5544 32.6725 53.6283C32.6361 55.1849 32.2318 56.7108 31.4927 58.0812C30.7535 59.4515 29.7005 60.6275 28.4197 61.5128C28.5116 61.6317 28.6058 61.7482 28.7022 61.8626C30.0351 60.9352 31.13 59.7058 31.8975 58.2749C32.665 56.8439 33.0834 55.2518 33.1186 53.6283C33.1231 53.5544 33.1231 53.4781 33.1231 53.4042C33.1231 53.3302 33.1231 53.2539 33.1186 53.18Z" fill="black"/>
<path d="M44.7826 53.629C44.7804 53.555 44.7804 53.4811 44.7804 53.4048C44.7804 53.3286 44.7804 53.2546 44.7826 53.1807C44.8197 51.5842 45.2438 50.0205 46.0185 48.6241C46.7932 47.2277 47.8955 46.0403 49.2304 45.1639C49.1363 45.0451 49.0421 44.9307 48.9435 44.8164C47.5577 45.7354 46.4149 46.9762 45.6126 48.4327C44.8104 49.8892 44.3726 51.5182 44.3365 53.1807C44.332 53.2546 44.332 53.3309 44.332 53.4048C44.332 53.4788 44.332 53.555 44.3365 53.629C44.3723 55.2808 44.8049 56.8997 45.5977 58.3492C46.3905 59.7987 47.5204 61.0363 48.8919 61.9574C48.9905 61.8431 49.0869 61.7287 49.1789 61.6099C47.8581 60.7314 46.7689 59.5471 46.0035 58.1578C45.2382 56.7684 44.8194 55.2148 44.7826 53.629Z" fill="black"/>
</svg>
