<svg width="123" height="175" viewBox="0 0 123 175" fill="none" xmlns="http://www.w3.org/2000/svg">
<rect width="122.22" height="174.2" rx="15" fill="#000E29"/>
<rect x="19" y="20" width="84" height="133" fill="#00FFFF" fill-opacity="0.74"/>
<path d="M121.359 10.446C120.84 8.75139 120.014 7.16409 118.923 5.76118C118.533 5.25985 118.113 4.78349 117.663 4.33509C116.283 2.96025 114.643 1.86939 112.836 1.12533C111.029 0.381271 109.09 -0.00119583 107.133 2.80867e-06H14.8664C10.9248 0.00399829 7.14582 1.55594 4.35869 4.31522C1.57156 7.07459 0.00399716 10.816 0 14.7182V159.282C0.00399716 163.184 1.57156 166.925 4.35869 169.685C7.14582 172.444 10.9248 173.996 14.8664 174H107.133C111.075 173.996 114.854 172.444 117.641 169.685C120.428 166.925 121.996 163.184 122 159.282V14.7182C122.001 13.2706 121.785 11.8308 121.359 10.446ZM121.396 159.282C121.391 163.025 119.887 166.614 117.213 169.261C114.54 171.908 110.914 173.398 107.133 173.402H14.8664C11.0852 173.398 7.46012 171.908 4.78637 169.261C2.11263 166.614 0.608514 163.025 0.603958 159.282V14.7182C0.608514 10.9747 2.11263 7.38574 4.78637 4.73864C7.46012 2.09163 11.0852 0.602421 14.8664 0.597926H107.133C109.07 0.597127 110.985 0.987485 112.764 1.74523C114.542 2.50297 116.146 3.61211 117.476 5.00474C117.624 5.16026 117.769 5.31868 117.91 5.4801C120.158 8.0433 121.396 11.3238 121.396 14.7182V159.282Z" fill="#171717"/>
<path d="M60.9338 32.3691L60.4297 34.8206V106.012L60.9338 106.734L84.015 87.208L60.9338 32.3691Z" fill="#C9C9C9"/>
<path d="M61.3568 32.4902L38.2656 87.3039L61.3568 106.83V32.4902Z" fill="#B3B3B3"/>
<path d="M61.4565 113.653L61.1709 114.158V139.489L61.4565 140.674L84.5546 94.1328L61.4565 113.653Z" fill="#949494"/>
<path d="M61.3568 140.311V113.285L38.2656 93.7695L61.3568 140.311Z" fill="#A9A9A9"/>
<path d="M61.1709 107.107L84.255 87.586L61.1709 72.5703V107.107Z" fill="#6A6A6A"/>
<path d="M38.2656 87.581L61.3568 107.107V72.5703L38.2656 87.581Z" fill="#8A8A8A"/>
</svg>
