<svg width="237" height="195" viewBox="0 0 237 195" fill="none" xmlns="http://www.w3.org/2000/svg">
<path d="M182.002 194.171C180.616 194.17 179.238 193.982 177.904 193.611L122.534 178.948L122.696 178.372L178.067 193.035C179.348 193.391 180.672 193.572 182.002 193.572C188.518 193.572 194.297 189.837 196.056 183.631L235.471 44.5676H235.471L235.557 44.2649C236.592 40.5801 236.109 36.6396 234.214 33.3065C232.318 29.9734 229.164 27.5195 225.444 26.4823L136.442 1.79075C132.716 0.762028 128.73 1.23728 125.358 3.11226C121.985 4.98724 119.502 8.10889 118.453 11.7925L115.361 22.7053L114.778 22.5437L117.871 11.6309C118.963 7.7944 121.549 4.54319 125.061 2.59042C128.573 0.637657 132.725 0.142788 136.605 1.21436L225.607 25.9059C229.434 26.9726 232.688 29.4795 234.67 32.8897C236.653 36.2999 237.207 40.3426 236.214 44.1521L236.217 44.1528L236.135 44.441L196.639 183.793C194.807 190.256 188.788 194.171 182.002 194.171Z" fill="white"/>
<path d="M179.722 172.798L179.431 172.717L122.404 156.896L122.567 156.32L179.303 172.06L215.162 45.544L135.202 23.3611L123.006 66.391L122.424 66.2294L134.783 22.623L135.074 22.7039L215.908 45.1295L215.826 45.4174L179.722 172.798Z" fill="white"/>
<path d="M122.276 30.784C121.755 29.0875 120.928 27.4984 119.834 26.0938C119.445 25.5919 119.023 25.115 118.573 24.6661C117.191 23.2897 115.547 22.1976 113.737 21.4528C111.926 20.7079 109.984 20.325 108.023 20.3262H15.5888C11.64 20.3301 7.85414 21.8838 5.06193 24.6463C2.26973 27.4088 0.699317 31.1543 0.695312 35.0611V179.788C0.699317 183.695 2.26973 187.44 5.06193 190.203C7.85414 192.965 11.64 194.519 15.5888 194.523H108.023C111.972 194.519 115.758 192.965 118.55 190.203C121.342 187.44 122.913 183.695 122.917 179.788V35.0611C122.918 33.6118 122.702 32.1704 122.276 30.784V30.784ZM122.312 179.788C122.307 183.536 120.8 187.129 118.122 189.779C115.443 192.429 111.812 193.92 108.023 193.924H15.5888C11.8007 193.92 8.169 192.429 5.49039 189.779C2.81178 187.129 1.30493 183.536 1.30037 179.788V35.0611C1.30493 31.3133 2.81178 27.7203 5.49039 25.0702C8.169 22.4201 11.8007 20.9293 15.5888 20.9248H108.023C109.963 20.9239 111.882 21.3148 113.664 22.0734C115.446 22.832 117.052 23.9424 118.385 25.3366C118.533 25.4922 118.678 25.6509 118.821 25.8125C121.073 28.3785 122.312 31.6628 122.312 35.0611V179.788Z" fill="white"/>
<path d="M79.1227 172.689C79.1892 172.886 79.2467 173.087 79.2981 173.287H81.5429C81.7243 173.1 81.8921 172.9 82.0451 172.689H79.1227ZM19.8301 41.293V173.287H103.479V41.293H19.8301ZM102.874 172.689H20.4351V41.8916H102.874V172.689ZM79.1227 172.689C79.1892 172.886 79.2467 173.087 79.2981 173.287H81.5429C81.7243 173.1 81.8921 172.9 82.0451 172.689H79.1227Z" fill="white"/>
<path d="M61.6291 53.0293L61.125 55.4807V126.672L61.6291 127.394L84.7103 107.868L61.6291 53.0293Z" fill="#B1B1B1"/>
<path d="M62.0521 53.1504L38.9609 107.964L62.0521 127.49V53.1504Z" fill="#9A9A9A"/>
<path d="M61.8656 133.13L61.5801 133.634V158.965L61.8656 160.151L84.9638 113.609L61.8656 133.13Z" fill="#8D8D8D"/>
<path d="M62.0521 160.971V133.945L38.9609 114.43L62.0521 160.971Z" fill="#9B9B9B"/>
<path d="M61.8662 127.767L84.9503 108.247L61.8662 93.2305V127.767Z" fill="#CACACA"/>
<path d="M38.9609 108.242L62.0521 127.767V93.2305L38.9609 108.242Z" fill="#B0B0B0"/>
<path d="M142.1 38.5697L141.9 38.5156L138.974 49.0906L139.174 49.1448L142.1 38.5697Z" fill="white"/>
<path d="M138.301 52.2924L138.102 52.2383L135.527 61.5433L135.727 61.5974L138.301 52.2924Z" fill="white"/>
<path d="M150.302 67.1369L134.818 62.9434L134.764 63.141L150.247 67.3346L150.302 67.1369Z" fill="white"/>
<path d="M127.686 63.8803L127.486 63.8262L125.162 72.2269L125.362 72.281L127.686 63.8803Z" fill="white"/>
<path d="M150.026 80.5572L126.551 74.1992L126.496 74.3969L149.972 80.7549L150.026 80.5572Z" fill="white"/>
<path d="M181.72 42.0736L181.521 42.0195L178.759 52.0016L178.958 52.0557L181.72 42.0736Z" fill="white"/>
<path d="M176.821 53.1792L162.133 49.2012L162.078 49.3988L176.766 53.3769L176.821 53.1792Z" fill="white"/>
<path d="M160.202 50.3783L160.002 50.3242L156.31 63.6665L156.51 63.7206L160.202 50.3783Z" fill="white"/>
<path d="M138.171 52.3788C137.835 52.2879 137.534 52.1004 137.306 51.8401C137.077 51.5799 136.932 51.2585 136.889 50.9167C136.845 50.5749 136.905 50.228 137.061 49.9198C137.216 49.6116 137.461 49.3561 137.764 49.1854C138.066 49.0148 138.413 48.9367 138.76 48.9611C139.108 48.9855 139.44 49.1112 139.715 49.3224C139.99 49.5336 140.196 49.8208 140.306 50.1477C140.416 50.4745 140.426 50.8263 140.334 51.1586C140.21 51.6039 139.913 51.9825 139.507 52.2112C139.102 52.44 138.621 52.5003 138.171 52.3788V52.3788ZM139.046 49.2162C138.75 49.1359 138.436 49.1444 138.144 49.2406C137.853 49.3367 137.597 49.5162 137.408 49.7564C137.22 49.9966 137.108 50.2866 137.086 50.5899C137.064 50.8931 137.134 51.1959 137.286 51.46C137.438 51.7241 137.666 51.9376 137.941 52.0735C138.216 52.2094 138.525 52.2617 138.83 52.2236C139.135 52.1856 139.422 52.0589 139.654 51.8597C139.886 51.6605 140.053 51.3977 140.134 51.1045C140.242 50.7113 140.189 50.2917 139.985 49.9377C139.781 49.5837 139.443 49.3242 139.046 49.2162V49.2162Z" fill="white"/>
<path d="M124.46 75.5468C124.124 75.4558 123.823 75.2684 123.595 75.0081C123.367 74.7479 123.221 74.4265 123.178 74.0847C123.134 73.7429 123.194 73.3959 123.35 73.0878C123.506 72.7796 123.75 72.524 124.053 72.3534C124.355 72.1827 124.702 72.1047 125.049 72.1291C125.397 72.1534 125.729 72.2792 126.004 72.4904C126.279 72.7016 126.485 72.9888 126.595 73.3156C126.705 73.6425 126.715 73.9943 126.623 74.3266C126.499 74.7719 126.202 75.1505 125.796 75.3792C125.391 75.608 124.91 75.6682 124.46 75.5468V75.5468ZM125.335 72.3842C125.039 72.3039 124.725 72.3124 124.433 72.4085C124.142 72.5047 123.886 72.6842 123.697 72.9244C123.509 73.1646 123.397 73.4546 123.375 73.7578C123.353 74.0611 123.423 74.3639 123.575 74.628C123.727 74.892 123.955 75.1055 124.23 75.2415C124.505 75.3774 124.814 75.4296 125.119 75.3916C125.424 75.3535 125.711 75.2269 125.943 75.0277C126.175 74.8285 126.342 74.5657 126.423 74.2725C126.531 73.8793 126.478 73.4597 126.274 73.1057C126.07 72.7517 125.732 72.4922 125.335 72.3842V72.3842Z" fill="white"/>
<path d="M134.853 64.7596C135.736 64.9986 136.647 64.4845 136.889 63.6111C137.131 62.7378 136.611 61.836 135.728 61.5969C134.845 61.3579 133.934 61.872 133.692 62.7454C133.451 63.6187 133.97 64.5205 134.853 64.7596Z" fill="#757575"/>
<path d="M196.602 66.29L180.02 61.7988L179.965 61.9965L196.548 66.4877L196.602 66.29Z" fill="white"/>
<path d="M178.061 63.06L177.861 63.0059L175.287 72.3108L175.486 72.3649L178.061 63.06Z" fill="white"/>
<path d="M173.277 73.3601L159.991 69.7617L159.937 69.9594L173.223 73.5577L173.277 73.3601Z" fill="white"/>
<path d="M196.907 80.718L183.121 76.9844L183.066 77.182L196.852 80.9157L196.907 80.718Z" fill="white"/>
<path d="M181.231 78.3822L181.031 78.3281L178.707 86.7288L178.907 86.783L181.231 78.3822Z" fill="white"/>
<path d="M176.697 87.7759L153.222 81.418L153.167 81.6156L176.642 87.9736L176.697 87.7759Z" fill="white"/>
<path d="M153.83 73.4057L153.63 73.3516L151.934 79.4791L152.134 79.5333L153.83 73.4057Z" fill="white"/>
<path d="M177.956 63.0486C178.838 63.2877 179.75 62.7735 179.992 61.9002C180.233 61.0269 179.713 60.1251 178.831 59.886C177.948 59.6469 177.037 60.1611 176.795 61.0344C176.553 61.9078 177.073 62.8096 177.956 63.0486Z" fill="#757575"/>
<path d="M177.956 55.2929C177.62 55.2019 177.319 55.0145 177.091 54.7542C176.863 54.4939 176.718 54.1726 176.674 53.8308C176.63 53.489 176.69 53.142 176.846 52.8339C177.002 52.5257 177.246 52.2701 177.549 52.0995C177.851 51.9288 178.198 51.8508 178.545 51.8751C178.893 51.8995 179.225 52.0253 179.5 52.2365C179.775 52.4477 179.981 52.7349 180.091 53.0617C180.201 53.3886 180.211 53.7404 180.119 54.0727C179.995 54.518 179.698 54.8966 179.293 55.1253C178.887 55.3541 178.406 55.4143 177.956 55.2929V55.2929ZM178.831 52.1303C178.535 52.05 178.221 52.0585 177.929 52.1546C177.638 52.2508 177.382 52.4303 177.193 52.6705C177.005 52.9107 176.893 53.2007 176.871 53.5039C176.849 53.8072 176.919 54.11 177.071 54.374C177.223 54.6381 177.451 54.8516 177.726 54.9876C178.001 55.1235 178.31 55.1757 178.615 55.1377C178.92 55.0996 179.207 54.973 179.439 54.7738C179.671 54.5746 179.838 54.3118 179.919 54.0186C180.028 53.6254 179.974 53.2058 179.77 52.8518C179.566 52.4978 179.228 52.2383 178.831 52.1303V52.1303Z" fill="white"/>
<path d="M160.074 50.4491C159.738 50.3582 159.437 50.1707 159.209 49.9104C158.981 49.6502 158.836 49.3288 158.792 48.987C158.749 48.6452 158.808 48.2983 158.964 47.9901C159.12 47.6819 159.364 47.4264 159.667 47.2557C159.969 47.0851 160.316 47.007 160.664 47.0314C161.011 47.0558 161.343 47.1815 161.618 47.3928C161.894 47.604 162.099 47.8911 162.209 48.218C162.319 48.5448 162.329 48.8966 162.237 49.2289C162.113 49.6742 161.816 50.0528 161.411 50.2816C161.005 50.5103 160.524 50.5706 160.074 50.4491V50.4491ZM160.949 47.2865C160.653 47.2062 160.339 47.2147 160.048 47.3109C159.756 47.407 159.5 47.5866 159.312 47.8267C159.123 48.0669 159.011 48.3569 158.989 48.6602C158.968 48.9634 159.037 49.2662 159.189 49.5303C159.342 49.7944 159.57 50.0079 159.844 50.1438C160.119 50.2797 160.429 50.332 160.733 50.2939C161.038 50.2559 161.325 50.1292 161.557 49.93C161.789 49.7308 161.956 49.468 162.037 49.1748C162.146 48.7817 162.092 48.362 161.888 48.008C161.684 47.654 161.346 47.3945 160.949 47.2865V47.2865Z" fill="white"/>
<path d="M181.003 78.4276C180.667 78.3367 180.366 78.1492 180.138 77.889C179.909 77.6287 179.764 77.3074 179.721 76.9655C179.677 76.6237 179.737 76.2768 179.893 75.9686C180.049 75.6605 180.293 75.4049 180.596 75.2342C180.898 75.0636 181.245 74.9855 181.592 75.0099C181.94 75.0343 182.272 75.1601 182.547 75.3713C182.822 75.5825 183.028 75.8697 183.138 76.1965C183.248 76.5233 183.258 76.8751 183.166 77.2074C183.042 77.6528 182.745 78.0313 182.339 78.2601C181.934 78.4888 181.453 78.5491 181.003 78.4276V78.4276ZM181.878 75.265C181.582 75.1848 181.268 75.1932 180.976 75.2894C180.685 75.3856 180.429 75.5651 180.24 75.8052C180.052 76.0454 179.94 76.3355 179.918 76.6387C179.896 76.9419 179.966 77.2447 180.118 77.5088C180.27 77.7729 180.498 77.9864 180.773 78.1223C181.048 78.2583 181.357 78.3105 181.662 78.2724C181.967 78.2344 182.254 78.1078 182.486 77.9086C182.718 77.7094 182.885 77.4465 182.966 77.1533C183.074 76.7602 183.021 76.3406 182.817 75.9866C182.613 75.6325 182.275 75.3731 181.878 75.265V75.265Z" fill="white"/>
<path d="M177.832 89.8904C178.714 90.1295 179.626 89.6153 179.868 88.742C180.109 87.8687 179.589 86.9669 178.707 86.7278C177.824 86.4887 176.913 87.0029 176.671 87.8762C176.429 88.7496 176.949 89.6514 177.832 89.8904Z" fill="#757575"/>
<path d="M151.132 82.7655C150.796 82.6746 150.495 82.4871 150.267 82.2269C150.038 81.9666 149.893 81.6452 149.85 81.3034C149.806 80.9616 149.866 80.6147 150.022 80.3065C150.177 79.9983 150.422 79.7428 150.725 79.5721C151.027 79.4015 151.374 79.3234 151.721 79.3478C152.069 79.3722 152.401 79.4979 152.676 79.7092C152.951 79.9204 153.157 80.2075 153.267 80.5344C153.377 80.8612 153.387 81.213 153.295 81.5453C153.171 81.9906 152.874 82.3692 152.468 82.598C152.063 82.8267 151.582 82.887 151.132 82.7655V82.7655ZM152.007 79.6029C151.71 79.5226 151.397 79.5311 151.105 79.6273C150.814 79.7234 150.558 79.903 150.369 80.1431C150.181 80.3833 150.069 80.6734 150.047 80.9766C150.025 81.2798 150.095 81.5826 150.247 81.8467C150.399 82.1108 150.627 82.3243 150.902 82.4602C151.177 82.5961 151.486 82.6484 151.791 82.6103C152.096 82.5723 152.383 82.4456 152.615 82.2465C152.847 82.0473 153.014 81.7844 153.095 81.4912C153.203 81.0981 153.15 80.6784 152.946 80.3244C152.742 79.9704 152.404 79.7109 152.007 79.6029V79.6029Z" fill="white"/>
<path d="M174.383 75.5702C174.047 75.4793 173.746 75.2918 173.518 75.0315C173.289 74.7713 173.144 74.4499 173.101 74.1081C173.057 73.7663 173.117 73.4194 173.273 73.1112C173.428 72.803 173.673 72.5475 173.975 72.3768C174.278 72.2062 174.625 72.1281 174.972 72.1525C175.32 72.1769 175.652 72.3026 175.927 72.5138C176.202 72.7251 176.408 73.0122 176.518 73.3391C176.628 73.6659 176.638 74.0177 176.546 74.35C176.422 74.7953 176.125 75.1739 175.719 75.4027C175.314 75.6314 174.833 75.6917 174.383 75.5702ZM175.258 72.4076C174.961 72.3273 174.648 72.3358 174.356 72.432C174.065 72.5281 173.809 72.7077 173.62 72.9478C173.432 73.188 173.32 73.478 173.298 73.7813C173.276 74.0845 173.346 74.3873 173.498 74.6514C173.65 74.9155 173.878 75.129 174.153 75.2649C174.428 75.4008 174.737 75.4531 175.042 75.415C175.347 75.377 175.633 75.2503 175.866 75.0511C176.098 74.8519 176.265 74.5891 176.346 74.2959C176.454 73.9027 176.401 73.4831 176.197 73.1291C175.993 72.7751 175.655 72.5156 175.258 72.4076Z" fill="white"/>
<path d="M129.055 58.9395C128.659 58.8325 128.241 58.8438 127.852 58.972C127.464 59.1003 127.122 59.3396 126.871 59.6598C126.62 59.9801 126.47 60.3668 126.441 60.7711C126.412 61.1754 126.505 61.5791 126.708 61.9313C126.911 62.2834 127.215 62.568 127.581 62.7493C127.948 62.9305 128.36 63.0002 128.767 62.9494C129.173 62.8987 129.555 62.7299 129.865 62.4643C130.174 62.1987 130.397 61.8482 130.506 61.4573C130.649 60.9331 130.577 60.3741 130.305 59.9023C130.033 59.4306 129.584 59.0845 129.055 58.9395V58.9395ZM128.89 59.5325C129.009 59.5646 129.115 59.6308 129.196 59.7227C129.276 59.8145 129.328 59.9279 129.343 60.0486C129.358 60.1692 129.337 60.2917 129.282 60.4004C129.227 60.5092 129.141 60.5994 129.034 60.6596C128.927 60.7198 128.805 60.7474 128.682 60.7388C128.56 60.7302 128.443 60.6858 128.345 60.6113C128.248 60.5367 128.176 60.4354 128.137 60.32C128.098 60.2046 128.095 60.0805 128.127 59.9632C128.171 59.8062 128.276 59.6729 128.419 59.5922C128.562 59.5115 128.732 59.49 128.89 59.5325V59.5325ZM128.101 62.3873C127.864 62.3221 127.647 62.2008 127.469 62.0339C127.291 61.867 127.156 61.6596 127.077 61.4297C127.196 61.037 128.046 61.0332 128.445 61.1414C128.845 61.2496 129.574 61.6811 129.474 62.079C129.288 62.2369 129.065 62.3475 128.826 62.4012C128.587 62.4549 128.338 62.4501 128.101 62.3873V62.3873Z" fill="white"/>
<path d="M143.412 33.8243C143.017 33.7173 142.598 33.7286 142.21 33.8568C141.821 33.985 141.48 34.2244 141.229 34.5446C140.977 34.8648 140.828 35.2516 140.799 35.6559C140.77 36.0602 140.863 36.4639 141.066 36.816C141.268 37.1681 141.572 37.4528 141.939 37.634C142.305 37.8153 142.718 37.8849 143.124 37.8342C143.531 37.7835 143.913 37.6146 144.222 37.349C144.532 37.0834 144.755 36.733 144.863 36.3421C145.006 35.8179 144.934 35.2588 144.662 34.7871C144.39 34.3154 143.941 33.9692 143.412 33.8243V33.8243ZM143.248 34.4173C143.366 34.4494 143.473 34.5156 143.553 34.6074C143.634 34.6993 143.685 34.8127 143.7 34.9333C143.716 35.054 143.695 35.1764 143.64 35.2852C143.585 35.394 143.498 35.4842 143.392 35.5444C143.285 35.6046 143.162 35.6322 143.04 35.6236C142.917 35.615 142.8 35.5706 142.703 35.496C142.606 35.4215 142.533 35.3201 142.494 35.2048C142.455 35.0894 142.452 34.9652 142.484 34.848C142.528 34.691 142.633 34.5576 142.776 34.4769C142.919 34.3963 143.089 34.3748 143.248 34.4173V34.4173ZM142.458 37.272C142.222 37.2068 142.005 37.0855 141.826 36.9187C141.648 36.7518 141.513 36.5444 141.434 36.3145C141.553 35.9217 142.403 35.9179 142.803 36.0262C143.202 36.1344 143.932 36.5659 143.832 36.9638C143.645 37.1217 143.423 37.2322 143.183 37.2859C142.944 37.3396 142.695 37.3349 142.458 37.272V37.272Z" fill="white"/>
<path d="M182.96 37.2052C182.565 37.0981 182.146 37.1095 181.758 37.2377C181.369 37.3659 181.028 37.6052 180.776 37.9255C180.525 38.2457 180.376 38.6324 180.347 39.0367C180.318 39.441 180.411 39.8448 180.613 40.1969C180.816 40.549 181.12 40.8337 181.487 41.0149C181.853 41.1961 182.266 41.2658 182.672 41.2151C183.079 41.1643 183.461 40.9955 183.77 40.7299C184.08 40.4643 184.303 40.1139 184.411 39.7229C184.554 39.1987 184.482 38.6397 184.21 38.168C183.938 37.6962 183.489 37.3501 182.96 37.2052V37.2052ZM182.796 37.7982C182.914 37.8303 183.021 37.8964 183.101 37.9883C183.182 38.0801 183.233 38.1936 183.248 38.3142C183.264 38.4348 183.242 38.5573 183.188 38.6661C183.133 38.7748 183.046 38.865 182.939 38.9252C182.833 38.9855 182.71 39.013 182.588 39.0044C182.465 38.9958 182.348 38.9514 182.251 38.8769C182.154 38.8023 182.081 38.701 182.042 38.5856C182.003 38.4703 182 38.3461 182.032 38.2288C182.076 38.0719 182.181 37.9385 182.324 37.8578C182.467 37.7771 182.637 37.7557 182.796 37.7982V37.7982ZM182.006 40.6529C181.769 40.5877 181.553 40.4664 181.374 40.2995C181.196 40.1327 181.061 39.9253 180.982 39.6953C181.101 39.3026 181.951 39.2988 182.351 39.407C182.75 39.5153 183.48 39.9467 183.38 40.3446C183.193 40.5025 182.971 40.6131 182.731 40.6668C182.492 40.7205 182.243 40.7157 182.006 40.6529Z" fill="white"/>
<path d="M199.948 65.0724C199.553 64.9653 199.135 64.9766 198.746 65.1049C198.357 65.2331 198.016 65.4724 197.765 65.7927C197.513 66.1129 197.364 66.4996 197.335 66.9039C197.306 67.3082 197.399 67.712 197.602 68.0641C197.805 68.4162 198.109 68.7009 198.475 68.8821C198.841 69.0633 199.254 69.133 199.66 69.0822C200.067 69.0315 200.449 68.8627 200.759 68.5971C201.068 68.3315 201.291 67.981 201.399 67.5901C201.542 67.0659 201.47 66.5069 201.198 66.0351C200.927 65.5634 200.477 65.2173 199.948 65.0724ZM199.784 65.6653C199.903 65.6975 200.009 65.7636 200.089 65.8555C200.17 65.9473 200.221 66.0607 200.236 66.1814C200.252 66.302 200.231 66.4245 200.176 66.5332C200.121 66.642 200.035 66.7322 199.928 66.7924C199.821 66.8527 199.699 66.8802 199.576 66.8716C199.453 66.863 199.336 66.8186 199.239 66.7441C199.142 66.6695 199.069 66.5682 199.03 66.4528C198.992 66.3375 198.988 66.2133 199.021 66.096C199.065 65.939 199.17 65.8057 199.313 65.725C199.456 65.6443 199.625 65.6229 199.784 65.6653ZM198.994 68.5201C198.758 68.4549 198.541 68.3336 198.362 68.1667C198.184 67.9998 198.05 67.7925 197.971 67.5625C198.09 67.1698 198.939 67.166 199.339 67.2742C199.738 67.3824 200.468 67.8139 200.368 68.2118C200.182 68.3697 199.959 68.4803 199.72 68.534C199.48 68.5877 199.231 68.5829 198.994 68.5201V68.5201Z" fill="white"/>
<path d="M200.051 79.4434C199.656 79.3364 199.237 79.3477 198.848 79.476C198.46 79.6042 198.118 79.8435 197.867 80.1637C197.616 80.484 197.467 80.8707 197.437 81.275C197.408 81.6793 197.501 82.0831 197.704 82.4352C197.907 82.7873 198.211 83.072 198.578 83.2532C198.944 83.4344 199.357 83.5041 199.763 83.4533C200.169 83.4026 200.552 83.2338 200.861 82.9682C201.171 82.7026 201.393 82.3521 201.502 81.9612C201.645 81.437 201.573 80.878 201.301 80.4062C201.029 79.9345 200.58 79.5884 200.051 79.4434V79.4434ZM199.887 80.0364C200.005 80.0685 200.111 80.1347 200.192 80.2266C200.272 80.3184 200.324 80.4318 200.339 80.5525C200.354 80.6731 200.333 80.7956 200.278 80.9043C200.223 81.0131 200.137 81.1033 200.03 81.1635C199.924 81.2238 199.801 81.2513 199.679 81.2427C199.556 81.2341 199.439 81.1897 199.342 81.1152C199.244 81.0406 199.172 80.9393 199.133 80.8239C199.094 80.7086 199.091 80.5844 199.123 80.4671C199.167 80.3101 199.272 80.1768 199.415 80.0961C199.558 80.0154 199.728 79.994 199.887 80.0364V80.0364ZM199.097 82.8912C198.86 82.826 198.643 82.7047 198.465 82.5378C198.287 82.3709 198.152 82.1635 198.073 81.9336C198.192 81.5409 199.042 81.5371 199.441 81.6453C199.841 81.7535 200.57 82.185 200.471 82.5829C200.284 82.7408 200.062 82.8514 199.822 82.9051C199.583 82.9588 199.334 82.954 199.097 82.8912V82.8912Z" fill="white"/>
<path d="M155.535 67.3523L155.105 68.1088C155.322 68.2289 155.972 68.656 156.215 68.2279C156.469 67.7816 155.751 67.4724 155.535 67.3523Z" fill="#666666"/>
<path d="M154.889 68.4889L154.415 69.323C154.675 69.4669 155.459 69.9726 155.726 69.502C156.004 69.0114 155.148 68.6331 154.889 68.4889Z" fill="#666666"/>
<path d="M157.13 65.1843C156.46 64.8123 155.694 64.6452 154.928 64.704C154.163 64.7628 153.432 65.045 152.828 65.5148C152.224 65.9845 151.775 66.6208 151.537 67.3432C151.299 68.0656 151.283 68.8417 151.49 69.5732C151.698 70.3047 152.12 70.9589 152.704 71.453C153.287 71.9471 154.006 72.2589 154.768 72.349C155.531 72.4391 156.303 72.3035 156.988 71.9593C157.673 71.6151 158.239 71.0777 158.615 70.4151C158.865 69.9752 159.024 69.491 159.085 68.99C159.145 68.489 159.105 67.9811 158.968 67.4954C158.83 67.0096 158.596 66.5555 158.281 66.159C157.966 65.7624 157.575 65.4312 157.13 65.1843V65.1843ZM157.026 68.4536C156.873 68.8 156.622 68.9201 156.336 68.9085C156.653 69.1983 156.76 69.5405 156.441 69.9971C156.046 70.5641 155.504 70.4743 154.84 70.1532L154.483 70.7816L154.1 70.569L154.452 69.949C154.35 69.8925 154.248 69.8349 154.147 69.7763L153.794 70.3991L153.412 70.1865L153.769 69.557C153.679 69.5067 153.589 69.4544 153.496 69.4028L152.998 69.1259L153.331 68.7158C153.331 68.7158 153.612 68.8776 153.609 68.8705C153.626 68.8816 153.645 68.8892 153.666 68.8929C153.686 68.8965 153.706 68.8962 153.726 68.892C153.746 68.8878 153.765 68.8796 153.782 68.8681C153.799 68.8566 153.813 68.8419 153.824 68.8249L154.388 67.8316C154.402 67.8393 154.416 67.8469 154.428 67.854C154.416 67.8448 154.403 67.8364 154.389 67.8289L154.792 67.1197C154.813 67.0649 154.812 67.004 154.788 66.9501C154.765 66.8962 154.721 66.8536 154.666 66.8315C154.673 66.8289 154.388 66.6772 154.388 66.6772L154.617 66.2724L155.145 66.566L155.144 66.568C155.224 66.612 155.306 66.6556 155.39 66.7L155.743 66.0779L156.126 66.2904L155.78 66.9005C155.883 66.9552 155.987 67.0104 156.088 67.0663L156.432 66.4603L156.815 66.6729L156.461 67.2954C156.931 67.6127 157.237 67.9806 157.026 68.4536V68.4536Z" fill="#636363"/>
<g clip-path="url(#clip0)">
<path d="M132.146 141.624L131.859 141.318C131.831 141.289 131.805 141.258 131.778 141.228C132.549 141.303 133.323 141.115 133.972 140.697C134.621 140.279 135.108 139.654 135.351 138.926C135.594 138.198 135.579 137.41 135.31 136.691C135.04 135.973 134.531 135.366 133.867 134.971L133.512 136.319L133.171 134.657L133.161 134.654C132.734 134.517 132.285 134.464 131.838 134.499C131.391 134.534 130.955 134.656 130.556 134.857C130.157 135.059 129.801 135.336 129.51 135.673C129.219 136.011 128.998 136.402 128.86 136.823C128.839 136.885 128.826 136.947 128.809 137.008C128.631 136.645 128.481 136.268 128.421 135.881C128.298 135.1 128.511 134.309 128.801 133.358C129.376 131.471 129.989 129.58 130.624 127.701C131.426 127.826 132.247 127.664 132.939 127.244C133.632 126.824 134.15 126.174 134.401 125.41C134.433 125.312 134.459 125.213 134.483 125.115C134.49 125.09 134.497 125.066 134.499 125.041C134.519 124.944 134.536 124.848 134.547 124.752C134.551 124.737 134.55 124.721 134.551 124.705C134.56 124.623 134.564 124.541 134.567 124.46C134.568 124.429 134.568 124.401 134.569 124.368C134.568 124.279 134.565 124.192 134.558 124.102C134.556 124.072 134.552 124.041 134.548 124.014C134.542 123.948 134.533 123.882 134.522 123.817C134.516 123.783 134.511 123.749 134.504 123.715C134.502 123.706 134.501 123.697 134.499 123.688C134.339 122.915 133.911 122.221 133.287 121.728C132.664 121.235 131.886 120.973 131.088 120.989L130.626 122.742L130.289 121.099C129.587 121.279 128.962 121.675 128.505 122.231C128.048 122.786 127.782 123.472 127.746 124.188L127.743 124.187C127.741 124.211 127.742 124.235 127.741 124.26C127.74 124.306 127.739 124.351 127.739 124.397C127.74 124.456 127.742 124.515 127.745 124.574C127.748 124.618 127.75 124.661 127.755 124.705C127.761 124.769 127.771 124.832 127.781 124.895C127.787 124.932 127.79 124.969 127.798 125.005C127.816 125.101 127.839 125.196 127.866 125.289C127.875 125.322 127.887 125.353 127.898 125.386C127.918 125.45 127.938 125.514 127.964 125.575C127.979 125.614 127.996 125.651 128.012 125.689C128.035 125.744 128.06 125.799 128.085 125.852C128.103 125.89 128.123 125.927 128.143 125.965C128.172 126.018 128.202 126.07 128.234 126.122C128.254 126.156 128.274 126.191 128.298 126.224C128.335 126.28 128.374 126.334 128.414 126.388C128.435 126.415 128.454 126.443 128.475 126.469C128.538 126.545 128.603 126.621 128.671 126.698C128.684 126.712 128.699 126.724 128.712 126.738C128.771 126.797 128.83 126.854 128.893 126.909C128.92 126.933 128.949 126.955 128.977 126.977C129.029 127.02 129.081 127.064 129.137 127.101C129.169 127.125 129.202 127.147 129.236 127.17C129.291 127.206 129.348 127.242 129.405 127.274C129.439 127.294 129.473 127.314 129.507 127.333C129.57 127.367 129.635 127.399 129.701 127.429L129.714 127.436C129.446 128.228 129.183 129.022 128.924 129.819C128.839 129.366 128.66 128.937 128.401 128.555C128.141 128.174 127.805 127.849 127.414 127.6C127.023 127.352 126.584 127.185 126.126 127.11C125.667 127.036 125.197 127.055 124.746 127.166L124.892 128.902L124.009 127.434C123.207 127.841 122.6 128.547 122.323 129.395C122.224 129.693 122.169 130.003 122.158 130.316C122.133 130.992 122.314 131.66 122.677 132.233C123.04 132.807 123.569 133.259 124.195 133.531C124.821 133.804 125.515 133.884 126.188 133.761C126.86 133.638 127.48 133.318 127.967 132.843C127.944 132.924 127.916 133.005 127.891 133.086C127.635 133.926 127.316 134.971 127.483 136.026C127.595 136.741 127.917 137.384 128.245 137.971C128.46 138.354 128.689 138.73 128.929 139.098C129.126 139.598 129.441 140.044 129.847 140.4C130.258 140.939 130.695 141.459 131.158 141.956L131.447 142.264C131.708 142.541 131.974 142.826 132.232 143.116C132.179 143.096 132.125 143.075 132.071 143.058C131.382 142.836 130.639 142.838 129.951 143.061C129.263 143.285 128.664 143.719 128.242 144.302L129.841 146.515L127.721 145.383C127.57 145.934 127.561 146.514 127.698 147.069C127.834 147.624 128.11 148.136 128.501 148.557C128.891 148.977 129.383 149.293 129.93 149.475C130.477 149.657 131.062 149.698 131.63 149.595C131.562 149.645 131.494 149.694 131.425 149.742C131.29 149.839 131.155 149.936 131.023 150.032C129.22 151.347 128.407 152.839 128.733 154.233L129.659 154.02C129.341 152.664 130.73 151.414 131.586 150.789C131.717 150.694 131.848 150.599 131.982 150.504C133.13 149.682 134.429 148.754 134.81 147.285C135.384 145.072 133.586 143.16 132.146 141.624Z" fill="#D8D8D8"/>
<path d="M165.833 143.607L166.238 143.488C166.276 143.477 166.315 143.464 166.353 143.452C165.652 143.128 165.082 142.576 164.739 141.889C164.396 141.201 164.3 140.419 164.466 139.67C164.632 138.921 165.05 138.251 165.652 137.768C166.255 137.286 167.005 137.021 167.78 137.016L167.391 138.354L168.54 137.096L168.55 137.098C168.987 137.195 169.401 137.376 169.768 137.632C170.134 137.887 170.446 138.211 170.686 138.586C170.926 138.96 171.089 139.378 171.166 139.815C171.243 140.252 171.232 140.7 171.134 141.133C171.12 141.195 171.1 141.256 171.083 141.318C171.423 141.095 171.746 140.845 171.996 140.543C172.504 139.932 172.729 139.145 172.969 138.18C173.445 136.267 173.892 134.33 174.312 132.393C173.557 132.096 172.934 131.543 172.555 130.833C172.175 130.123 172.064 129.302 172.241 128.518C172.264 128.418 172.293 128.32 172.322 128.223C172.329 128.198 172.336 128.174 172.346 128.151C172.379 128.058 172.414 127.967 172.454 127.878C172.459 127.863 172.468 127.85 172.475 127.836C172.51 127.761 172.548 127.688 172.588 127.617C172.603 127.59 172.617 127.566 172.633 127.537C172.679 127.461 172.727 127.387 172.779 127.313C172.797 127.289 172.816 127.264 172.833 127.242C172.873 127.189 172.914 127.137 172.957 127.087C172.98 127.06 173.002 127.033 173.026 127.008C173.032 127.001 173.037 126.994 173.043 126.987C173.579 126.402 174.304 126.021 175.094 125.911C175.884 125.8 176.688 125.967 177.366 126.383L176.861 128.124L177.997 126.88C178.509 127.388 178.842 128.044 178.95 128.753C179.058 129.461 178.934 130.185 178.596 130.819L178.599 130.82C178.588 130.842 178.575 130.862 178.563 130.884C178.54 130.924 178.518 130.964 178.494 131.003C178.463 131.053 178.431 131.103 178.397 131.152C178.373 131.188 178.348 131.225 178.322 131.261C178.283 131.312 178.243 131.361 178.202 131.411C178.178 131.439 178.155 131.469 178.131 131.497C178.065 131.57 177.997 131.64 177.926 131.707C177.901 131.73 177.875 131.751 177.848 131.774C177.798 131.819 177.748 131.864 177.694 131.904C177.662 131.929 177.628 131.953 177.594 131.978C177.545 132.013 177.496 132.048 177.448 132.081C177.412 132.105 177.376 132.126 177.339 132.149C177.288 132.18 177.235 132.209 177.181 132.238C177.145 132.257 177.111 132.277 177.072 132.294C177.012 132.323 176.95 132.35 176.888 132.376C176.857 132.389 176.826 132.403 176.794 132.416C176.701 132.449 176.605 132.482 176.508 132.511C176.49 132.516 176.471 132.519 176.453 132.525C176.372 132.546 176.291 132.565 176.208 132.581C176.173 132.587 176.137 132.592 176.101 132.597C176.035 132.608 175.967 132.619 175.9 132.623C175.86 132.627 175.82 132.63 175.779 132.632C175.713 132.636 175.646 132.638 175.58 132.637C175.541 132.637 175.501 132.637 175.462 132.636C175.39 132.633 175.318 132.628 175.245 132.621L175.232 132.617C175.054 133.435 174.872 134.251 174.684 135.066C174.991 134.72 175.366 134.44 175.786 134.242C176.205 134.045 176.662 133.935 177.126 133.918C177.591 133.901 178.054 133.979 178.487 134.146C178.92 134.313 179.315 134.566 179.645 134.889L178.627 136.309L180.139 135.496C180.62 136.251 180.779 137.163 180.58 138.034C180.512 138.339 180.401 138.634 180.249 138.908C179.922 139.503 179.423 139.987 178.815 140.297C178.207 140.608 177.519 140.73 176.84 140.649C176.161 140.568 175.523 140.287 175.007 139.843C174.492 139.398 174.123 138.811 173.949 138.156C173.926 138.238 173.91 138.321 173.889 138.404C173.677 139.255 173.413 140.315 172.727 141.14C172.262 141.698 171.654 142.09 171.069 142.429C170.687 142.651 170.296 142.858 169.901 143.055C169.473 143.386 168.973 143.611 168.44 143.712C167.809 143.969 167.165 144.196 166.511 144.39L166.103 144.51C165.737 144.617 165.361 144.728 164.989 144.848C165.046 144.857 165.102 144.866 165.158 144.879C165.865 145.035 166.503 145.411 166.981 145.95C167.458 146.489 167.749 147.165 167.813 147.879L165.298 148.978L167.704 149.072C167.551 149.622 167.259 150.126 166.856 150.534C166.453 150.943 165.952 151.245 165.4 151.41C164.847 151.575 164.261 151.599 163.697 151.48C163.132 151.36 162.608 151.101 162.172 150.727C162.205 150.804 162.238 150.88 162.272 150.957C162.339 151.108 162.405 151.259 162.47 151.409C163.344 153.449 163.276 155.143 162.277 156.177L161.59 155.528C162.562 154.521 162.01 152.745 161.595 151.776C161.532 151.629 161.467 151.481 161.401 151.332C160.837 150.049 160.197 148.595 160.625 147.139C161.272 144.943 163.801 144.203 165.833 143.607Z" fill="#D8D8D8"/>
<path d="M151.163 162.506C166.206 166.581 178.624 169.079 178.898 168.088C179.172 167.096 167.2 162.989 152.156 158.914C137.113 154.84 124.695 152.341 124.421 153.333C124.147 154.325 136.119 158.432 151.163 162.506Z" fill="#D8D8D8"/>
<path d="M152.561 161.009L142.794 158.23L142.891 157.989L144.501 154.015L153.109 156.347L152.607 160.621L152.569 160.945L152.561 161.009Z" fill="#878787"/>
<path opacity="0.1" d="M152.568 160.943L147.676 159.619L142.793 158.229L142.89 157.988L152.605 160.62L152.568 160.943Z" fill="#D1BDBD"/>
<path d="M154.215 161.124L141.209 157.602L141.123 157.912L154.129 161.435L154.215 161.124Z" fill="#B8B8B8"/>
<path d="M174.599 135.676C174.629 135.57 174.637 135.459 174.624 135.349C174.61 135.24 174.575 135.134 174.52 135.038C174.466 134.942 174.392 134.858 174.305 134.79C174.217 134.722 174.117 134.672 174.01 134.642L137.687 124.804C137.58 124.776 137.467 124.769 137.357 124.783C137.247 124.797 137.14 124.833 137.044 124.888C136.947 124.943 136.862 125.016 136.795 125.104C136.727 125.191 136.677 125.291 136.648 125.397L130.621 147.18L168.571 157.458L174.599 135.676Z" fill="#B8B8B8"/>
<path d="M130.681 146.963L129.975 149.514C129.916 149.728 129.945 149.956 130.056 150.148C130.166 150.341 130.35 150.482 130.566 150.54L166.888 160.378C167.104 160.436 167.335 160.407 167.529 160.298C167.724 160.188 167.866 160.006 167.925 159.793L168.631 157.241L130.681 146.963Z" fill="#B8B8B8"/>
<path d="M173.062 135.858L138.064 126.379L132.646 145.96L167.643 155.439L173.062 135.858Z" fill="#878787"/>
<path d="M149.18 154.541C149.309 154.576 149.444 154.582 149.575 154.557C149.706 154.533 149.829 154.48 149.936 154.401C149.969 154.377 150 154.351 150.029 154.323L149.584 154.121L150.087 154.261C150.164 154.17 150.221 154.065 150.256 153.951C150.29 153.838 150.301 153.718 150.287 153.601L149.516 153.764L150.264 153.48C150.233 153.365 150.178 153.257 150.103 153.164C150.029 153.07 149.935 152.993 149.829 152.937C149.722 152.88 149.606 152.846 149.485 152.837C149.365 152.827 149.244 152.842 149.13 152.88C149.016 152.919 148.911 152.98 148.822 153.06C148.733 153.14 148.661 153.238 148.612 153.347C148.562 153.456 148.536 153.573 148.535 153.693C148.533 153.812 148.556 153.93 148.603 154.04V154.04C148.654 154.161 148.733 154.27 148.833 154.356C148.933 154.443 149.052 154.506 149.18 154.541Z" fill="#B4B4B4"/>
<path opacity="0.1" d="M149.763 155.738L152.598 160.683L153.073 156.635L149.763 155.738Z" fill="#D1BDBD"/>
<path opacity="0.3" d="M138.692 134.673L137.528 134.357L137.432 134.707L138.595 135.022L138.692 134.673Z" fill="#B4B4B4"/>
<path opacity="0.3" d="M169.732 143.089L168.568 142.773L168.472 143.123L169.635 143.438L169.732 143.089Z" fill="#B4B4B4"/>
<path opacity="0.3" d="M138.025 137.132L136.861 136.816L136.765 137.166L137.928 137.481L138.025 137.132Z" fill="#B4B4B4"/>
<path opacity="0.3" d="M137.353 139.585L136.189 139.27L136.093 139.619L137.256 139.934L137.353 139.585Z" fill="#B4B4B4"/>
<path opacity="0.3" d="M136.684 142.044L135.521 141.729L135.424 142.078L136.587 142.393L136.684 142.044Z" fill="#B4B4B4"/>
<g opacity="0.2">
<path opacity="0.2" d="M138.977 134.925L138.646 134.836L138.643 134.85L138.973 134.939L138.977 134.925Z" fill="#D8D8D8"/>
<path opacity="0.2" d="M167.522 142.672L166.873 142.496L166.877 142.483L167.525 142.658L167.522 142.672ZM166.224 142.321L165.575 142.145L165.579 142.131L166.228 142.307L166.224 142.321ZM164.926 141.969L164.277 141.793L164.281 141.78L164.93 141.955L164.926 141.969ZM163.629 141.618L162.98 141.442L162.983 141.428L163.632 141.604L163.629 141.618ZM162.331 141.266L161.682 141.09L161.686 141.077L162.335 141.253L162.331 141.266ZM161.033 140.915L160.384 140.739L160.388 140.725L161.037 140.901L161.033 140.915ZM159.735 140.563L159.086 140.387L159.09 140.374L159.739 140.55L159.735 140.563ZM158.438 140.212L157.789 140.036L157.792 140.022L158.441 140.198L158.438 140.212ZM157.14 139.86L156.491 139.684L156.495 139.671L157.144 139.847L157.14 139.86ZM155.842 139.509L155.193 139.333L155.197 139.319L155.846 139.495L155.842 139.509ZM154.544 139.157L153.895 138.981L153.899 138.968L154.548 139.144L154.544 139.157ZM153.247 138.806L152.598 138.63L152.601 138.616L153.25 138.792L153.247 138.806ZM151.949 138.454L151.3 138.279L151.304 138.265L151.953 138.441L151.949 138.454ZM150.651 138.103L150.002 137.927L150.006 137.913L150.655 138.089L150.651 138.103ZM149.353 137.751L148.705 137.576L148.708 137.562L149.357 137.738L149.353 137.751ZM148.056 137.4L147.409 137.225L147.412 137.211L148.062 137.387L148.056 137.4ZM146.758 137.048L146.109 136.873L146.113 136.859L146.762 137.035L146.758 137.048ZM145.46 136.697L144.811 136.521L144.815 136.508L145.464 136.683L145.46 136.697ZM144.162 136.345L143.514 136.17L143.517 136.156L144.167 136.332L144.162 136.345ZM142.865 135.994L142.215 135.818L142.219 135.804L142.868 135.98L142.865 135.994ZM141.567 135.642L140.918 135.467L140.922 135.453L141.571 135.629L141.567 135.642ZM140.269 135.291L139.62 135.115L139.624 135.102L140.273 135.277L140.269 135.291Z" fill="#D8D8D8"/>
<path opacity="0.2" d="M168.506 142.921L168.176 142.832L168.172 142.846L168.502 142.935L168.506 142.921Z" fill="#D8D8D8"/>
<path opacity="0.2" d="M138.977 134.925L138.646 134.836L138.643 134.85L138.973 134.939L138.977 134.925Z" fill="#D8D8D8"/>
<path opacity="0.2" d="M167.522 142.672L166.873 142.496L166.877 142.483L167.525 142.658L167.522 142.672ZM166.224 142.321L165.575 142.145L165.579 142.131L166.228 142.307L166.224 142.321ZM164.926 141.969L164.277 141.793L164.281 141.78L164.93 141.955L164.926 141.969ZM163.629 141.618L162.98 141.442L162.983 141.428L163.632 141.604L163.629 141.618ZM162.331 141.266L161.682 141.09L161.686 141.077L162.335 141.253L162.331 141.266ZM161.033 140.915L160.384 140.739L160.388 140.725L161.037 140.901L161.033 140.915ZM159.735 140.563L159.086 140.387L159.09 140.374L159.739 140.55L159.735 140.563ZM158.438 140.212L157.789 140.036L157.792 140.022L158.441 140.198L158.438 140.212ZM157.14 139.86L156.491 139.684L156.495 139.671L157.144 139.847L157.14 139.86ZM155.842 139.509L155.193 139.333L155.197 139.319L155.846 139.495L155.842 139.509ZM154.544 139.157L153.895 138.981L153.899 138.968L154.548 139.144L154.544 139.157ZM153.247 138.806L152.598 138.63L152.601 138.616L153.25 138.792L153.247 138.806ZM151.949 138.454L151.3 138.279L151.304 138.265L151.953 138.441L151.949 138.454ZM150.651 138.103L150.002 137.927L150.006 137.913L150.655 138.089L150.651 138.103ZM149.353 137.751L148.705 137.576L148.708 137.562L149.357 137.738L149.353 137.751ZM148.056 137.4L147.409 137.225L147.412 137.211L148.062 137.387L148.056 137.4ZM146.758 137.048L146.109 136.873L146.113 136.859L146.762 137.035L146.758 137.048ZM145.46 136.697L144.811 136.521L144.815 136.508L145.464 136.683L145.46 136.697ZM144.162 136.345L143.514 136.17L143.517 136.156L144.167 136.332L144.162 136.345ZM142.865 135.994L142.215 135.818L142.219 135.804L142.868 135.98L142.865 135.994ZM141.567 135.642L140.918 135.467L140.922 135.453L141.571 135.629L141.567 135.642ZM140.269 135.291L139.62 135.115L139.624 135.102L140.273 135.277L140.269 135.291Z" fill="#D8D8D8"/>
<path opacity="0.2" d="M168.506 142.921L168.176 142.832L168.172 142.846L168.502 142.935L168.506 142.921Z" fill="#D8D8D8"/>
</g>
<path opacity="0.3" d="M139.369 132.221L138.206 131.906L138.109 132.256L139.273 132.571L139.369 132.221Z" fill="#B4B4B4"/>
<path opacity="0.3" d="M170.41 140.635L169.247 140.32L169.15 140.67L170.314 140.985L170.41 140.635Z" fill="#B4B4B4"/>
<g opacity="0.2">
<path opacity="0.2" d="M139.65 132.478L139.32 132.389L139.317 132.402L139.647 132.492L139.65 132.478Z" fill="#D8D8D8"/>
<path opacity="0.2" d="M168.2 140.221L167.552 140.045L167.556 140.032L168.204 140.207L168.2 140.221ZM166.903 139.869L166.254 139.694L166.258 139.68L166.906 139.856L166.903 139.869ZM165.605 139.518L164.956 139.342L164.96 139.329L165.609 139.504L165.605 139.518ZM164.307 139.166L163.658 138.991L163.662 138.977L164.311 139.153L164.307 139.166ZM163.01 138.815L162.361 138.639L162.364 138.626L163.014 138.801L163.01 138.815ZM161.712 138.463L161.063 138.288L161.067 138.274L161.715 138.45L161.712 138.463ZM160.414 138.112L159.765 137.936L159.769 137.923L160.418 138.098L160.414 138.112ZM159.116 137.761L158.467 137.585L158.471 137.571L159.12 137.747L159.116 137.761ZM157.819 137.409L157.17 137.233L157.173 137.22L157.823 137.395L157.819 137.409ZM156.521 137.057L155.872 136.882L155.876 136.868L156.524 137.044L156.521 137.057ZM155.223 136.706L154.574 136.53L154.578 136.517L155.227 136.692L155.223 136.706ZM153.925 136.355L153.276 136.179L153.28 136.165L153.929 136.341L153.925 136.355ZM152.628 136.003L151.979 135.827L151.982 135.814L152.631 135.99L152.628 136.003ZM151.33 135.652L150.681 135.476L150.685 135.462L151.333 135.638L151.33 135.652ZM150.032 135.3L149.383 135.124L149.387 135.111L150.036 135.286L150.032 135.3ZM148.734 134.949L148.087 134.773L148.091 134.76L148.74 134.936L148.734 134.949ZM147.437 134.597L146.788 134.421L146.791 134.408L147.44 134.584L147.437 134.597ZM146.139 134.246L145.49 134.07L145.494 134.056L146.142 134.232L146.139 134.246ZM144.841 133.894L144.192 133.718L144.196 133.705L144.846 133.881L144.841 133.894ZM143.543 133.543L142.894 133.367L142.898 133.353L143.547 133.529L143.543 133.543ZM142.246 133.191L141.597 133.015L141.6 133.002L142.249 133.178L142.246 133.191ZM140.948 132.84L140.299 132.664L140.303 132.65L140.951 132.826L140.948 132.84Z" fill="#D8D8D8"/>
<path opacity="0.2" d="M169.183 140.472L168.853 140.383L168.849 140.396L169.179 140.486L169.183 140.472Z" fill="#D8D8D8"/>
</g>
<path opacity="0.3" d="M169.054 145.532L167.891 145.217L167.794 145.566L168.957 145.881L169.054 145.532Z" fill="#B4B4B4"/>
<g opacity="0.2">
<path opacity="0.2" d="M138.298 137.375L137.968 137.285L137.964 137.299L138.294 137.388L138.298 137.375Z" fill="#D8D8D8"/>
<path opacity="0.2" d="M166.846 145.117L166.197 144.942L166.201 144.928L166.85 145.104L166.846 145.117ZM165.548 144.766L164.9 144.59L164.903 144.577L165.552 144.752L165.548 144.766ZM164.251 144.414L163.601 144.239L163.605 144.225L164.254 144.401L164.251 144.414ZM162.953 144.063L162.304 143.887L162.308 143.874L162.957 144.049L162.953 144.063ZM161.655 143.712L161.006 143.536L161.01 143.522L161.659 143.698L161.655 143.712ZM160.357 143.36L159.709 143.184L159.712 143.171L160.361 143.346L160.357 143.36ZM159.06 143.008L158.41 142.833L158.414 142.819L159.063 142.995L159.06 143.008ZM157.762 142.657L157.113 142.481L157.117 142.468L157.766 142.643L157.762 142.657ZM156.464 142.306L155.815 142.13L155.819 142.116L156.468 142.292L156.464 142.306ZM155.166 141.954L154.518 141.778L154.521 141.765L155.17 141.94L155.166 141.954ZM153.868 141.603L153.219 141.427L153.223 141.413L153.872 141.589L153.868 141.603ZM152.571 141.251L151.922 141.075L151.926 141.062L152.575 141.237L152.571 141.251ZM151.273 140.9L150.624 140.724L150.628 140.71L151.277 140.886L151.273 140.9ZM149.975 140.548L149.327 140.372L149.33 140.359L149.979 140.534L149.975 140.548ZM148.677 140.197L148.029 140.021L148.033 140.007L148.681 140.183L148.677 140.197ZM147.38 139.845L146.733 139.67L146.737 139.656L147.386 139.832L147.38 139.845ZM146.082 139.494L145.433 139.318L145.437 139.304L146.086 139.48L146.082 139.494ZM144.784 139.142L144.136 138.966L144.139 138.953L144.788 139.128L144.784 139.142ZM143.486 138.791L142.838 138.615L142.842 138.601L143.491 138.777L143.486 138.791ZM142.189 138.439L141.54 138.263L141.543 138.25L142.193 138.426L142.189 138.439ZM140.891 138.088L140.242 137.912L140.246 137.898L140.895 138.074L140.891 138.088ZM139.593 137.736L138.944 137.56L138.948 137.547L139.597 137.723L139.593 137.736Z" fill="#D8D8D8"/>
<path opacity="0.2" d="M167.827 145.373L167.497 145.283L167.493 145.297L167.823 145.386L167.827 145.373Z" fill="#D8D8D8"/>
<path opacity="0.2" d="M138.298 137.375L137.968 137.285L137.964 137.299L138.294 137.388L138.298 137.375Z" fill="#D8D8D8"/>
<path opacity="0.2" d="M166.846 145.117L166.197 144.942L166.201 144.928L166.85 145.104L166.846 145.117ZM165.548 144.766L164.9 144.59L164.903 144.577L165.552 144.752L165.548 144.766ZM164.251 144.414L163.601 144.239L163.605 144.225L164.254 144.401L164.251 144.414ZM162.953 144.063L162.304 143.887L162.308 143.874L162.957 144.049L162.953 144.063ZM161.655 143.712L161.006 143.536L161.01 143.522L161.659 143.698L161.655 143.712ZM160.357 143.36L159.709 143.184L159.712 143.171L160.361 143.346L160.357 143.36ZM159.06 143.008L158.41 142.833L158.414 142.819L159.063 142.995L159.06 143.008ZM157.762 142.657L157.113 142.481L157.117 142.468L157.766 142.643L157.762 142.657ZM156.464 142.306L155.815 142.13L155.819 142.116L156.468 142.292L156.464 142.306ZM155.166 141.954L154.518 141.778L154.521 141.765L155.17 141.94L155.166 141.954ZM153.868 141.603L153.219 141.427L153.223 141.413L153.872 141.589L153.868 141.603ZM152.571 141.251L151.922 141.075L151.926 141.062L152.575 141.237L152.571 141.251ZM151.273 140.9L150.624 140.724L150.628 140.71L151.277 140.886L151.273 140.9ZM149.975 140.548L149.327 140.372L149.33 140.359L149.979 140.534L149.975 140.548ZM148.677 140.197L148.029 140.021L148.033 140.007L148.681 140.183L148.677 140.197ZM147.38 139.845L146.733 139.67L146.737 139.656L147.386 139.832L147.38 139.845ZM146.082 139.494L145.433 139.318L145.437 139.304L146.086 139.48L146.082 139.494ZM144.784 139.142L144.136 138.966L144.139 138.953L144.788 139.128L144.784 139.142ZM143.486 138.791L142.838 138.615L142.842 138.601L143.491 138.777L143.486 138.791ZM142.189 138.439L141.54 138.263L141.543 138.25L142.193 138.426L142.189 138.439ZM140.891 138.088L140.242 137.912L140.246 137.898L140.895 138.074L140.891 138.088ZM139.593 137.736L138.944 137.56L138.948 137.547L139.597 137.723L139.593 137.736Z" fill="#D8D8D8"/>
<path opacity="0.2" d="M167.827 145.373L167.497 145.283L167.493 145.297L167.823 145.386L167.827 145.373Z" fill="#D8D8D8"/>
</g>
<path opacity="0.3" d="M168.378 147.979L167.215 147.664L167.118 148.013L168.282 148.329L168.378 147.979Z" fill="#B4B4B4"/>
<g opacity="0.2">
<path opacity="0.2" d="M137.623 139.82L137.293 139.73L137.289 139.744L137.619 139.833L137.623 139.82Z" fill="#D8D8D8"/>
<path opacity="0.2" d="M166.168 147.561L165.52 147.385L165.523 147.371L166.172 147.547L166.168 147.561ZM164.87 147.209L164.222 147.034L164.226 147.02L164.874 147.196L164.87 147.209ZM163.573 146.858L162.924 146.682L162.927 146.668L163.577 146.844L163.573 146.858ZM162.275 146.506L161.626 146.331L161.63 146.317L162.279 146.493L162.275 146.506ZM160.978 146.155L160.328 145.979L160.332 145.965L160.981 146.141L160.978 146.155ZM159.679 145.803L159.031 145.628L159.035 145.614L159.683 145.79L159.679 145.803ZM158.382 145.452L157.733 145.276L157.736 145.262L158.386 145.438L158.382 145.452ZM157.084 145.1L156.435 144.925L156.439 144.911L157.088 145.087L157.084 145.1ZM155.787 144.749L155.137 144.573L155.141 144.56L155.79 144.735L155.787 144.749ZM154.488 144.397L153.84 144.222L153.844 144.208L154.492 144.384L154.488 144.397ZM153.191 144.046L152.542 143.87L152.545 143.856L153.195 144.032L153.191 144.046ZM151.893 143.694L151.244 143.519L151.248 143.505L151.897 143.681L151.893 143.694ZM150.596 143.343L149.946 143.167L149.95 143.154L150.599 143.329L150.596 143.343ZM149.297 142.991L148.649 142.816L148.653 142.802L149.301 142.978L149.297 142.991ZM148 142.64L147.351 142.464L147.355 142.451L148.003 142.626L148 142.64ZM146.702 142.288L146.055 142.113L146.059 142.1L146.708 142.275L146.702 142.288ZM145.404 141.937L144.755 141.761L144.759 141.748L145.408 141.923L145.404 141.937ZM144.106 141.585L143.458 141.41L143.462 141.396L144.11 141.572L144.106 141.585ZM142.809 141.234L142.16 141.058L142.164 141.045L142.814 141.221L142.809 141.234ZM141.511 140.883L140.862 140.707L140.866 140.693L141.515 140.869L141.511 140.883ZM140.213 140.531L139.564 140.355L139.568 140.342L140.217 140.517L140.213 140.531ZM138.915 140.179L138.267 140.004L138.271 139.99L138.919 140.166L138.915 140.179Z" fill="#D8D8D8"/>
<path opacity="0.2" d="M167.153 147.812L166.823 147.723L166.819 147.736L167.15 147.826L167.153 147.812Z" fill="#D8D8D8"/>
<path opacity="0.2" d="M137.623 139.82L137.293 139.73L137.289 139.744L137.619 139.833L137.623 139.82Z" fill="#D8D8D8"/>
<path opacity="0.2" d="M166.168 147.561L165.52 147.385L165.523 147.371L166.172 147.547L166.168 147.561ZM164.87 147.209L164.222 147.034L164.226 147.02L164.874 147.196L164.87 147.209ZM163.573 146.858L162.924 146.682L162.927 146.668L163.577 146.844L163.573 146.858ZM162.275 146.506L161.626 146.331L161.63 146.317L162.279 146.493L162.275 146.506ZM160.978 146.155L160.328 145.979L160.332 145.965L160.981 146.141L160.978 146.155ZM159.679 145.803L159.031 145.628L159.035 145.614L159.683 145.79L159.679 145.803ZM158.382 145.452L157.733 145.276L157.736 145.262L158.386 145.438L158.382 145.452ZM157.084 145.1L156.435 144.925L156.439 144.911L157.088 145.087L157.084 145.1ZM155.787 144.749L155.137 144.573L155.141 144.56L155.79 144.735L155.787 144.749ZM154.488 144.397L153.84 144.222L153.844 144.208L154.492 144.384L154.488 144.397ZM153.191 144.046L152.542 143.87L152.545 143.856L153.195 144.032L153.191 144.046ZM151.893 143.694L151.244 143.519L151.248 143.505L151.897 143.681L151.893 143.694ZM150.596 143.343L149.946 143.167L149.95 143.154L150.599 143.329L150.596 143.343ZM149.297 142.991L148.649 142.816L148.653 142.802L149.301 142.978L149.297 142.991ZM148 142.64L147.351 142.464L147.355 142.451L148.003 142.626L148 142.64ZM146.702 142.288L146.055 142.113L146.059 142.1L146.708 142.275L146.702 142.288ZM145.404 141.937L144.755 141.761L144.759 141.748L145.408 141.923L145.404 141.937ZM144.106 141.585L143.458 141.41L143.462 141.396L144.11 141.572L144.106 141.585ZM142.809 141.234L142.16 141.058L142.164 141.045L142.814 141.221L142.809 141.234ZM141.511 140.883L140.862 140.707L140.866 140.693L141.515 140.869L141.511 140.883ZM140.213 140.531L139.564 140.355L139.568 140.342L140.217 140.517L140.213 140.531ZM138.915 140.179L138.267 140.004L138.271 139.99L138.919 140.166L138.915 140.179Z" fill="#D8D8D8"/>
<path opacity="0.2" d="M167.153 147.812L166.823 147.723L166.819 147.736L167.15 147.826L167.153 147.812Z" fill="#D8D8D8"/>
</g>
<path opacity="0.3" d="M167.702 150.423L166.539 150.107L166.442 150.457L167.606 150.772L167.702 150.423Z" fill="#B4B4B4"/>
<g opacity="0.2">
<path opacity="0.2" d="M136.945 142.263L136.615 142.174L136.611 142.187L136.942 142.277L136.945 142.263Z" fill="#D8D8D8"/>
<path opacity="0.2" d="M165.491 150.014L164.843 149.838L164.847 149.825L165.495 150L165.491 150.014ZM164.194 149.662L163.545 149.487L163.549 149.473L164.197 149.649L164.194 149.662ZM162.896 149.311L162.247 149.135L162.251 149.121L162.9 149.297L162.896 149.311ZM161.598 148.959L160.949 148.784L160.953 148.77L161.602 148.946L161.598 148.959ZM160.301 148.608L159.652 148.432L159.655 148.419L160.305 148.594L160.301 148.608ZM159.003 148.256L158.354 148.081L158.358 148.067L159.006 148.243L159.003 148.256ZM157.705 147.905L157.056 147.729L157.06 147.716L157.709 147.891L157.705 147.905ZM156.407 147.554L155.758 147.378L155.762 147.364L156.411 147.54L156.407 147.554ZM155.11 147.202L154.461 147.026L154.464 147.013L155.114 147.188L155.11 147.202ZM153.812 146.85L153.163 146.675L153.167 146.661L153.815 146.837L153.812 146.85ZM152.514 146.499L151.865 146.323L151.869 146.31L152.518 146.485L152.514 146.499ZM151.216 146.148L150.567 145.972L150.571 145.958L151.22 146.134L151.216 146.148ZM149.919 145.796L149.27 145.62L149.273 145.607L149.923 145.783L149.919 145.796ZM148.621 145.445L147.972 145.269L147.976 145.255L148.624 145.431L148.621 145.445ZM147.323 145.093L146.674 144.917L146.678 144.904L147.327 145.079L147.323 145.093ZM146.025 144.742L145.378 144.566L145.382 144.553L146.031 144.729L146.025 144.742ZM144.728 144.39L144.079 144.214L144.082 144.201L144.731 144.377L144.728 144.39ZM143.43 144.039L142.781 143.863L142.785 143.849L143.433 144.025L143.43 144.039ZM142.132 143.687L141.483 143.511L141.487 143.498L142.137 143.674L142.132 143.687ZM140.834 143.336L140.185 143.16L140.189 143.146L140.838 143.322L140.834 143.336ZM139.537 142.984L138.888 142.808L138.891 142.795L139.54 142.971L139.537 142.984ZM138.239 142.633L137.59 142.457L137.594 142.443L138.242 142.619L138.239 142.633Z" fill="#D8D8D8"/>
<path opacity="0.2" d="M166.475 150.259L166.145 150.17L166.141 150.184L166.471 150.273L166.475 150.259Z" fill="#D8D8D8"/>
<path opacity="0.2" d="M136.945 142.263L136.615 142.174L136.611 142.187L136.942 142.277L136.945 142.263Z" fill="#D8D8D8"/>
<path opacity="0.2" d="M165.491 150.014L164.843 149.838L164.847 149.825L165.495 150L165.491 150.014ZM164.194 149.662L163.545 149.487L163.549 149.473L164.197 149.649L164.194 149.662ZM162.896 149.311L162.247 149.135L162.251 149.121L162.9 149.297L162.896 149.311ZM161.598 148.959L160.949 148.784L160.953 148.77L161.602 148.946L161.598 148.959ZM160.301 148.608L159.652 148.432L159.655 148.419L160.305 148.594L160.301 148.608ZM159.003 148.256L158.354 148.081L158.358 148.067L159.006 148.243L159.003 148.256ZM157.705 147.905L157.056 147.729L157.06 147.716L157.709 147.891L157.705 147.905ZM156.407 147.554L155.758 147.378L155.762 147.364L156.411 147.54L156.407 147.554ZM155.11 147.202L154.461 147.026L154.464 147.013L155.114 147.188L155.11 147.202ZM153.812 146.85L153.163 146.675L153.167 146.661L153.815 146.837L153.812 146.85ZM152.514 146.499L151.865 146.323L151.869 146.31L152.518 146.485L152.514 146.499ZM151.216 146.148L150.567 145.972L150.571 145.958L151.22 146.134L151.216 146.148ZM149.919 145.796L149.27 145.62L149.273 145.607L149.923 145.783L149.919 145.796ZM148.621 145.445L147.972 145.269L147.976 145.255L148.624 145.431L148.621 145.445ZM147.323 145.093L146.674 144.917L146.678 144.904L147.327 145.079L147.323 145.093ZM146.025 144.742L145.378 144.566L145.382 144.553L146.031 144.729L146.025 144.742ZM144.728 144.39L144.079 144.214L144.082 144.201L144.731 144.377L144.728 144.39ZM143.43 144.039L142.781 143.863L142.785 143.849L143.433 144.025L143.43 144.039ZM142.132 143.687L141.483 143.511L141.487 143.498L142.137 143.674L142.132 143.687ZM140.834 143.336L140.185 143.16L140.189 143.146L140.838 143.322L140.834 143.336ZM139.537 142.984L138.888 142.808L138.891 142.795L139.54 142.971L139.537 142.984ZM138.239 142.633L137.59 142.457L137.594 142.443L138.242 142.619L138.239 142.633Z" fill="#D8D8D8"/>
<path opacity="0.2" d="M166.475 150.259L166.145 150.17L166.141 150.184L166.471 150.273L166.475 150.259Z" fill="#D8D8D8"/>
</g>
<path d="M143.111 133.434L140.398 143.24" stroke="#D8D8D8" stroke-width="0.00312704" stroke-miterlimit="10"/>
<path d="M147.125 134.518L144.412 144.324" stroke="#D8D8D8" stroke-width="0.00312704" stroke-miterlimit="10"/>
<path d="M151.143 135.607L148.429 145.414" stroke="#D8D8D8" stroke-width="0.00312704" stroke-miterlimit="10"/>
<path d="M155.156 136.693L152.443 146.5" stroke="#D8D8D8" stroke-width="0.00312704" stroke-miterlimit="10"/>
<path d="M159.174 137.779L156.46 147.586" stroke="#D8D8D8" stroke-width="0.00312704" stroke-miterlimit="10"/>
<path d="M163.188 138.869L160.475 148.675" stroke="#D8D8D8" stroke-width="0.00312704" stroke-miterlimit="10"/>
<path d="M167.203 139.957L164.49 149.763" stroke="#D8D8D8" stroke-width="0.00312704" stroke-miterlimit="10"/>
<path opacity="0.3" d="M168.255 139.531L167.665 139.88C167.653 139.887 167.642 139.896 167.633 139.907L167.187 140.41C167.169 140.431 167.146 140.445 167.12 140.452C167.093 140.459 167.066 140.457 167.04 140.448L166.951 140.416C166.925 140.407 166.902 140.391 166.886 140.369C166.87 140.346 166.861 140.32 166.861 140.293L166.856 139.967C166.856 139.939 166.846 139.911 166.829 139.889C166.812 139.866 166.788 139.849 166.76 139.841C166.732 139.833 166.703 139.834 166.676 139.843C166.649 139.853 166.625 139.87 166.609 139.894L166.343 140.283C166.327 140.306 166.304 140.324 166.278 140.333C166.251 140.343 166.222 140.344 166.195 140.337L165.63 140.184C165.599 140.175 165.572 140.156 165.554 140.13C165.536 140.104 165.528 140.072 165.531 140.04L165.645 139.009C165.648 138.981 165.642 138.953 165.628 138.928C165.614 138.903 165.592 138.884 165.566 138.872C165.54 138.861 165.511 138.857 165.483 138.863C165.455 138.869 165.429 138.884 165.41 138.905L164.15 140.28C164.137 140.295 164.121 140.306 164.103 140.314C164.086 140.321 164.066 140.325 164.047 140.324C164.028 140.324 164.008 140.319 163.991 140.311C163.974 140.303 163.958 140.291 163.946 140.276L163.553 139.805C163.532 139.779 163.502 139.762 163.469 139.757C163.435 139.752 163.401 139.76 163.373 139.778L163.131 139.939C163.124 139.944 163.117 139.949 163.111 139.955L162.386 140.664C162.368 140.682 162.344 140.694 162.319 140.7C162.293 140.705 162.267 140.703 162.243 140.693L161.951 140.583C161.931 140.575 161.909 140.572 161.887 140.575L161.589 140.608C161.555 140.611 161.521 140.601 161.493 140.58C161.466 140.56 161.448 140.529 161.443 140.495L161.421 140.346C161.417 140.319 161.405 140.294 161.386 140.275C161.368 140.255 161.344 140.241 161.317 140.235L161.006 140.166C160.987 140.162 160.967 140.161 160.948 140.166C160.928 140.17 160.91 140.178 160.895 140.19L160.777 140.279C160.757 140.293 160.734 140.302 160.71 140.305C160.686 140.308 160.661 140.304 160.639 140.294C160.617 140.284 160.598 140.268 160.584 140.249C160.57 140.229 160.562 140.206 160.56 140.181L160.535 139.844C160.534 139.823 160.527 139.803 160.516 139.785C160.505 139.767 160.49 139.752 160.472 139.74C160.454 139.729 160.434 139.722 160.413 139.72C160.392 139.718 160.37 139.721 160.351 139.729L159.721 139.975L159.016 140.28C158.992 140.29 158.965 140.293 158.939 140.289C158.913 140.285 158.889 140.273 158.87 140.255L158.485 139.904C158.464 139.885 158.438 139.873 158.411 139.87L157.468 139.749C157.44 139.746 157.413 139.75 157.388 139.763C157.364 139.775 157.343 139.795 157.33 139.819L156.977 140.468C156.966 140.488 156.95 140.505 156.931 140.517C156.911 140.53 156.889 140.537 156.865 140.538C156.842 140.539 156.819 140.534 156.798 140.524C156.777 140.514 156.76 140.498 156.747 140.479V140.479C156.735 140.463 156.72 140.449 156.702 140.438C156.684 140.428 156.664 140.422 156.644 140.421C156.623 140.42 156.602 140.423 156.583 140.43C156.564 140.438 156.547 140.45 156.534 140.465L156.342 140.677C156.328 140.693 156.31 140.705 156.29 140.712C156.27 140.72 156.249 140.723 156.227 140.721L155.934 140.691C155.915 140.689 155.895 140.691 155.877 140.697L155.354 140.869C155.329 140.878 155.301 140.878 155.276 140.871L155.068 140.815C155.043 140.808 155.02 140.794 155.002 140.775C154.985 140.755 154.974 140.731 154.97 140.705L154.951 140.56C154.948 140.542 154.942 140.525 154.933 140.51C154.923 140.495 154.911 140.482 154.896 140.471C154.882 140.461 154.865 140.453 154.848 140.449C154.83 140.445 154.812 140.445 154.794 140.448L154.252 140.54C154.23 140.544 154.207 140.542 154.186 140.536C154.165 140.529 154.146 140.517 154.131 140.501L153.947 140.31C153.93 140.293 153.908 140.28 153.885 140.274L153.399 140.142C153.373 140.135 153.346 140.136 153.321 140.144L152.748 140.331C152.726 140.339 152.703 140.34 152.68 140.336C152.657 140.331 152.636 140.321 152.618 140.306L152.427 140.144C152.404 140.125 152.376 140.114 152.347 140.112C152.318 140.11 152.289 140.118 152.264 140.134L152.127 140.224C152.109 140.236 152.088 140.243 152.067 140.246C152.045 140.248 152.024 140.245 152.003 140.237C151.983 140.23 151.965 140.217 151.951 140.201C151.937 140.185 151.926 140.166 151.921 140.145L151.905 140.082C151.901 140.065 151.893 140.048 151.882 140.034C151.871 140.02 151.858 140.008 151.842 139.999C151.826 139.99 151.809 139.984 151.791 139.981C151.773 139.979 151.755 139.98 151.738 139.985L151.295 140.106C151.272 140.111 151.248 140.111 151.225 140.105C151.202 140.099 151.182 140.087 151.165 140.07L151.032 139.941C151.017 139.927 150.998 139.916 150.978 139.909C150.958 139.903 150.937 139.901 150.916 139.905L150.747 139.932C150.729 139.935 150.709 139.933 150.691 139.929C150.672 139.924 150.655 139.915 150.64 139.903C150.626 139.891 150.613 139.876 150.605 139.859C150.596 139.842 150.591 139.824 150.59 139.805L150.572 139.493C150.571 139.465 150.561 139.438 150.543 139.415C150.525 139.393 150.501 139.377 150.473 139.37L150.332 139.332C150.31 139.326 150.29 139.314 150.273 139.298L149.814 138.859C149.795 138.841 149.772 138.829 149.746 138.824C149.721 138.819 149.694 138.821 149.67 138.831L149.192 139.017C149.165 139.028 149.135 139.029 149.107 139.022L148.608 138.887C148.583 138.88 148.555 138.88 148.53 138.889L148.42 138.925C148.401 138.931 148.382 138.933 148.363 138.931C148.344 138.929 148.325 138.923 148.309 138.914C148.292 138.904 148.278 138.891 148.267 138.876C148.255 138.86 148.248 138.843 148.244 138.824L148.234 138.774C148.229 138.75 148.217 138.727 148.2 138.709C148.183 138.69 148.161 138.677 148.137 138.671L147.887 138.603C147.867 138.597 147.846 138.597 147.826 138.601C147.805 138.604 147.786 138.613 147.77 138.625L147.56 138.779C147.543 138.792 147.523 138.801 147.502 138.804C147.48 138.808 147.458 138.806 147.438 138.799C147.417 138.793 147.398 138.781 147.383 138.766C147.368 138.751 147.357 138.732 147.35 138.711L147.325 138.632C147.315 138.598 147.292 138.57 147.261 138.553C147.23 138.537 147.194 138.533 147.16 138.542L147.01 138.584C146.984 138.591 146.957 138.59 146.932 138.582C146.907 138.574 146.885 138.559 146.868 138.539L146.452 138.026C146.445 138.017 146.436 138.009 146.427 138.002L146.064 137.738C146.036 137.718 146.001 137.71 145.966 137.715C145.932 137.72 145.9 137.738 145.879 137.765L145.409 138.369C145.402 138.378 145.396 138.387 145.392 138.397L145.131 138.985C145.12 139.01 145.102 139.031 145.078 139.045L144.828 139.198C144.802 139.213 144.772 139.22 144.742 139.216C144.712 139.213 144.684 139.2 144.662 139.179L144.378 138.905C144.364 138.891 144.347 138.88 144.329 138.874C144.31 138.867 144.29 138.865 144.27 138.867C144.251 138.869 144.232 138.875 144.215 138.885C144.198 138.895 144.183 138.908 144.172 138.925L143.789 139.482C143.781 139.494 143.775 139.507 143.771 139.522L143.663 139.909C143.656 139.934 143.642 139.957 143.622 139.974C143.603 139.991 143.578 140.002 143.552 140.006L143.17 140.063C143.149 140.066 143.128 140.064 143.108 140.057C143.087 140.05 143.069 140.038 143.054 140.023L142.839 139.804C142.818 139.783 142.789 139.769 142.759 139.765L142.292 139.707C142.265 139.704 142.24 139.693 142.22 139.675C142.2 139.658 142.185 139.634 142.179 139.609L142.138 139.46C142.129 139.427 142.109 139.4 142.08 139.382L141.894 139.264C141.872 139.25 141.847 139.242 141.821 139.242C141.795 139.242 141.77 139.249 141.748 139.263L141.378 139.498C141.349 139.516 141.314 139.523 141.28 139.517L140.853 139.438C140.833 139.434 140.813 139.435 140.793 139.44L139.949 139.657C139.923 139.664 139.896 139.662 139.87 139.653C139.844 139.644 139.822 139.628 139.806 139.606L139.645 139.387C139.627 139.362 139.601 139.345 139.571 139.336L138.788 139.124C138.768 139.119 138.75 139.11 138.735 139.096C138.719 139.083 138.707 139.067 138.699 139.048L138.569 138.751C138.562 138.733 138.55 138.717 138.535 138.704C138.521 138.692 138.503 138.682 138.485 138.676C138.466 138.671 138.446 138.669 138.427 138.672C138.407 138.674 138.389 138.681 138.372 138.692L138.062 138.889C138.034 138.906 138.014 138.934 138.005 138.966L137.107 142.211C137.098 142.245 137.102 142.282 137.12 142.313C137.138 142.344 137.167 142.366 137.202 142.376L165.461 150.029C165.478 150.034 165.496 150.035 165.513 150.033C165.531 150.031 165.548 150.025 165.563 150.016C165.579 150.007 165.592 149.996 165.603 149.982C165.614 149.968 165.622 149.952 165.627 149.935L168.455 139.684C168.463 139.658 168.462 139.63 168.454 139.605C168.445 139.579 168.429 139.557 168.408 139.54C168.386 139.524 168.36 139.514 168.333 139.512C168.306 139.511 168.279 139.517 168.255 139.531V139.531Z" fill="#B4B4B4"/>
<path opacity="0.3" d="M167.068 143.728L166.564 143.893C166.546 143.899 166.53 143.908 166.515 143.919L166.155 144.193C166.133 144.209 166.108 144.22 166.081 144.224C166.054 144.229 166.027 144.227 166.001 144.219L165.916 144.191C165.886 144.182 165.86 144.165 165.84 144.141C165.821 144.118 165.807 144.09 165.802 144.06L165.78 143.929C165.775 143.899 165.761 143.87 165.741 143.847C165.721 143.823 165.694 143.806 165.664 143.797C165.634 143.788 165.602 143.787 165.572 143.795C165.542 143.803 165.515 143.819 165.493 143.842L165.326 144.02C165.305 144.042 165.278 144.058 165.249 144.066C165.22 144.074 165.189 144.074 165.16 144.066L164.614 143.918C164.578 143.909 164.546 143.887 164.524 143.858C164.502 143.828 164.49 143.792 164.491 143.755L164.504 143.201C164.505 143.17 164.497 143.14 164.481 143.113C164.465 143.087 164.442 143.065 164.414 143.051C164.386 143.036 164.355 143.03 164.324 143.033C164.293 143.035 164.263 143.046 164.238 143.064L163.179 143.835C163.149 143.857 163.113 143.868 163.075 143.867C163.038 143.866 163.002 143.853 162.974 143.829L162.531 143.466C162.508 143.447 162.48 143.434 162.45 143.429C162.42 143.424 162.389 143.428 162.361 143.439L162.143 143.522C162.133 143.526 162.123 143.531 162.114 143.537L161.492 143.931C161.471 143.945 161.447 143.954 161.421 143.957C161.396 143.96 161.371 143.958 161.347 143.95L161.04 143.846C161.024 143.84 161.006 143.837 160.988 143.837L160.688 143.832C160.653 143.831 160.62 143.821 160.592 143.801C160.564 143.781 160.543 143.753 160.532 143.721L160.513 143.665C160.504 143.639 160.488 143.616 160.468 143.597C160.447 143.579 160.422 143.565 160.395 143.559L160.079 143.483C160.042 143.474 160.004 143.478 159.97 143.494L159.875 143.536C159.853 143.547 159.828 143.552 159.804 143.552C159.779 143.551 159.755 143.546 159.733 143.535C159.71 143.524 159.691 143.509 159.675 143.49C159.66 143.471 159.649 143.449 159.643 143.425L159.602 143.257C159.592 143.216 159.567 143.18 159.531 143.157C159.495 143.134 159.452 143.126 159.41 143.133L158.813 143.241L158.147 143.381C158.125 143.386 158.103 143.386 158.081 143.382C158.059 143.378 158.038 143.369 158.02 143.357L157.597 143.079C157.578 143.066 157.557 143.057 157.534 143.053L156.614 142.885C156.582 142.88 156.55 142.884 156.521 142.896C156.491 142.908 156.466 142.927 156.447 142.953L156.217 143.278C156.203 143.297 156.185 143.314 156.164 143.326C156.143 143.338 156.12 143.345 156.096 143.347C156.072 143.35 156.048 143.347 156.025 143.339C156.002 143.331 155.982 143.319 155.964 143.302L155.96 143.298C155.931 143.27 155.894 143.254 155.854 143.251C155.815 143.249 155.776 143.26 155.744 143.284L155.606 143.386C155.569 143.412 155.524 143.423 155.479 143.416L155.189 143.37C155.173 143.367 155.156 143.367 155.14 143.369L154.642 143.437C154.619 143.44 154.597 143.438 154.575 143.432L154.36 143.374C154.334 143.367 154.31 143.354 154.29 143.335C154.27 143.317 154.255 143.294 154.246 143.268L154.228 143.215C154.216 143.182 154.194 143.154 154.165 143.134C154.136 143.114 154.101 143.103 154.066 143.104L153.525 143.119C153.487 143.119 153.451 143.108 153.421 143.086L153.213 142.935C153.198 142.924 153.18 142.915 153.161 142.91L152.663 142.775C152.641 142.769 152.619 142.767 152.597 142.771L152.044 142.845C152.005 142.85 151.966 142.842 151.932 142.821L151.708 142.682C151.686 142.669 151.661 142.66 151.635 142.658C151.61 142.655 151.584 142.659 151.56 142.668L151.431 142.716C151.392 142.731 151.349 142.731 151.31 142.716C151.271 142.701 151.239 142.672 151.221 142.634L151.21 142.612C151.195 142.582 151.171 142.557 151.142 142.54C151.112 142.524 151.078 142.517 151.044 142.52L150.604 142.563C150.565 142.566 150.526 142.555 150.494 142.533L150.336 142.423C150.307 142.404 150.273 142.394 150.238 142.394L150.059 142.397C150.021 142.397 149.983 142.384 149.952 142.36C149.922 142.336 149.901 142.302 149.893 142.264L149.866 142.125C149.86 142.095 149.845 142.067 149.824 142.044C149.803 142.022 149.776 142.006 149.746 141.997L149.603 141.959C149.584 141.954 149.566 141.946 149.55 141.935L149.049 141.592C149.031 141.58 149.01 141.571 148.989 141.566C148.967 141.562 148.945 141.561 148.924 141.565L148.465 141.648C148.44 141.652 148.415 141.651 148.391 141.645L147.879 141.506C147.857 141.501 147.834 141.499 147.812 141.502L147.695 141.518C147.658 141.523 147.621 141.516 147.589 141.498C147.557 141.48 147.532 141.452 147.518 141.418V141.418C147.508 141.395 147.493 141.374 147.474 141.357C147.455 141.341 147.433 141.329 147.408 141.322L147.149 141.252C147.112 141.242 147.073 141.245 147.037 141.26L146.853 141.342C146.815 141.358 146.773 141.361 146.733 141.348C146.694 141.335 146.66 141.308 146.64 141.272L146.615 141.229C146.599 141.201 146.576 141.178 146.547 141.164C146.518 141.149 146.486 141.143 146.453 141.146L146.288 141.163C146.243 141.167 146.198 141.153 146.163 141.124L145.704 140.74C145.695 140.733 145.687 140.727 145.677 140.722L145.292 140.51C145.261 140.493 145.227 140.486 145.192 140.49C145.157 140.494 145.125 140.508 145.099 140.531L144.729 140.861C144.714 140.874 144.702 140.889 144.693 140.906L144.521 141.224C144.5 141.261 144.467 141.289 144.428 141.302L144.224 141.372C144.199 141.381 144.173 141.384 144.147 141.38C144.121 141.376 144.096 141.367 144.074 141.352L143.756 141.132C143.722 141.109 143.682 141.099 143.641 141.104C143.601 141.108 143.564 141.127 143.536 141.157L143.255 141.45C143.237 141.47 143.223 141.494 143.216 141.52L143.173 141.676C143.163 141.71 143.142 141.741 143.113 141.763C143.084 141.785 143.049 141.797 143.012 141.797L142.68 141.798C142.644 141.798 142.61 141.788 142.581 141.767L142.339 141.593C142.319 141.578 142.296 141.568 142.271 141.564L141.794 141.48C141.769 141.476 141.745 141.466 141.724 141.45C141.703 141.435 141.686 141.415 141.675 141.393L141.636 141.317C141.621 141.286 141.595 141.26 141.563 141.245L141.363 141.145C141.342 141.135 141.32 141.129 141.297 141.128C141.274 141.127 141.251 141.13 141.23 141.138L140.896 141.259C140.867 141.269 140.835 141.271 140.804 141.265L140.37 141.172C140.354 141.168 140.337 141.167 140.32 141.169L139.503 141.24C139.48 141.242 139.457 141.239 139.435 141.232C139.413 141.224 139.393 141.213 139.376 141.197L139.192 141.03C139.172 141.013 139.149 141 139.123 140.993L138.326 140.777C138.289 140.767 138.257 140.745 138.234 140.714L138.084 140.509C138.062 140.48 138.032 140.458 137.997 140.448C137.962 140.438 137.925 140.439 137.891 140.451L137.644 140.541C137.619 140.55 137.596 140.565 137.578 140.584C137.56 140.604 137.547 140.627 137.54 140.652L137.117 142.182C137.105 142.225 137.111 142.27 137.133 142.308C137.155 142.346 137.191 142.374 137.234 142.385L165.43 150.022C165.473 150.034 165.518 150.028 165.557 150.006C165.595 149.985 165.624 149.949 165.635 149.906L167.281 143.93C167.289 143.901 167.289 143.871 167.281 143.842C167.273 143.813 167.258 143.786 167.236 143.765C167.214 143.745 167.187 143.73 167.157 143.723C167.127 143.717 167.096 143.718 167.068 143.728V143.728Z" fill="#B4B4B4"/>
<path d="M167.086 144.099C167.299 144.156 167.519 144.032 167.577 143.822C167.635 143.612 167.51 143.394 167.297 143.337C167.085 143.279 166.865 143.403 166.807 143.613C166.748 143.824 166.874 144.041 167.086 144.099Z" fill="#B4B4B4"/>
<path opacity="0.3" d="M166.124 147.477L165.554 147.508C165.543 147.509 165.532 147.511 165.521 147.514L165.182 147.624C165.158 147.632 165.131 147.632 165.106 147.625L164.929 147.572C164.912 147.567 164.897 147.559 164.884 147.548C164.87 147.537 164.86 147.523 164.852 147.508L164.775 147.359C164.767 147.344 164.757 147.33 164.744 147.32C164.731 147.309 164.716 147.301 164.7 147.296C164.684 147.29 164.667 147.289 164.65 147.29C164.633 147.292 164.617 147.296 164.602 147.304L164.369 147.426C164.341 147.441 164.307 147.445 164.276 147.437L163.634 147.263C163.611 147.256 163.59 147.244 163.574 147.227C163.558 147.21 163.547 147.188 163.542 147.165L163.476 146.835C163.472 146.818 163.465 146.802 163.455 146.788C163.445 146.773 163.432 146.761 163.416 146.752C163.401 146.743 163.384 146.737 163.367 146.735C163.349 146.733 163.331 146.735 163.314 146.74L162.247 147.063C162.215 147.073 162.18 147.069 162.15 147.054L161.566 146.746C161.545 146.735 161.52 146.73 161.496 146.732L161.245 146.754C161.239 146.754 161.233 146.755 161.226 146.757L160.648 146.896C160.626 146.901 160.602 146.901 160.58 146.894L160.212 146.782C160.206 146.779 160.199 146.777 160.193 146.776L159.823 146.725C159.79 146.72 159.761 146.704 159.741 146.679L159.683 146.604C159.666 146.583 159.642 146.568 159.615 146.561L159.222 146.46C159.206 146.456 159.19 146.455 159.174 146.457L158.977 146.483C158.953 146.486 158.929 146.482 158.907 146.472C158.885 146.462 158.867 146.446 158.854 146.425L158.744 146.26C158.733 146.243 158.718 146.229 158.7 146.219C158.683 146.209 158.662 146.203 158.642 146.202L158 146.183L157.338 146.174C157.32 146.173 157.303 146.168 157.287 146.16L156.788 145.933C156.78 145.93 156.772 145.928 156.763 145.926L155.785 145.707C155.766 145.703 155.747 145.703 155.728 145.707C155.709 145.712 155.692 145.72 155.677 145.732L155.476 145.891C155.456 145.908 155.431 145.917 155.405 145.919C155.379 145.921 155.353 145.915 155.331 145.902L155.187 145.817C155.172 145.808 155.155 145.803 155.137 145.801C155.119 145.799 155.102 145.801 155.085 145.806L154.902 145.862C154.881 145.868 154.858 145.869 154.837 145.865L154.502 145.793C154.496 145.791 154.49 145.789 154.483 145.788L153.979 145.76C153.97 145.759 153.961 145.758 153.953 145.755L153.673 145.68C153.647 145.673 153.624 145.658 153.608 145.637L153.55 145.563C153.54 145.55 153.527 145.539 153.513 145.531C153.498 145.523 153.482 145.518 153.466 145.516L152.847 145.443C152.833 145.442 152.819 145.438 152.806 145.432L152.541 145.302C152.534 145.299 152.526 145.297 152.518 145.296L151.982 145.15C151.974 145.147 151.965 145.145 151.957 145.144L151.381 145.11C151.366 145.109 151.351 145.105 151.337 145.099L151.026 144.962C151.007 144.954 150.985 144.951 150.964 144.952L150.735 144.971C150.717 144.973 150.698 144.971 150.681 144.964C150.664 144.958 150.648 144.948 150.635 144.935L150.551 144.854C150.53 144.832 150.502 144.819 150.472 144.817L149.951 144.776C149.936 144.775 149.921 144.771 149.907 144.764L149.68 144.657C149.668 144.652 149.655 144.648 149.641 144.647L149.368 144.613C149.348 144.611 149.33 144.604 149.313 144.593C149.297 144.583 149.283 144.568 149.273 144.551L149.209 144.446C149.192 144.417 149.164 144.396 149.132 144.387L148.924 144.33C148.916 144.329 148.909 144.327 148.903 144.325L148.323 144.054C148.308 144.046 148.291 144.042 148.273 144.041L147.783 144.025C147.773 144.025 147.764 144.023 147.754 144.02L147.2 143.87C147.192 143.867 147.183 143.865 147.175 143.864L146.976 143.853C146.942 143.853 146.909 143.84 146.885 143.816L146.843 143.769C146.826 143.751 146.805 143.738 146.782 143.732L146.447 143.641C146.431 143.637 146.414 143.636 146.398 143.638L146.138 143.669C146.12 143.672 146.101 143.67 146.084 143.665C146.067 143.659 146.051 143.65 146.037 143.638L145.93 143.542C145.909 143.524 145.883 143.513 145.855 143.51L145.597 143.491C145.579 143.49 145.562 143.485 145.546 143.477L145.014 143.192L145.001 143.189L144.534 142.999C144.503 142.986 144.468 142.986 144.437 142.999L144.103 143.136C144.085 143.143 144.068 143.155 144.055 143.171L143.956 143.29C143.945 143.303 143.931 143.313 143.916 143.321C143.901 143.329 143.884 143.333 143.867 143.334L143.636 143.349C143.614 143.35 143.593 143.346 143.573 143.337L143.127 143.127C143.109 143.119 143.089 143.115 143.069 143.115C143.05 143.115 143.03 143.12 143.013 143.13L142.779 143.252C142.763 143.26 142.75 143.271 142.739 143.284C142.728 143.298 142.72 143.313 142.716 143.33C142.708 143.359 142.689 143.384 142.664 143.401C142.638 143.418 142.607 143.425 142.577 143.421L142.211 143.374C142.197 143.372 142.184 143.369 142.171 143.363L141.869 143.217C141.86 143.213 141.85 143.211 141.84 143.209L141.301 143.089C141.278 143.083 141.257 143.072 141.24 143.057L141.161 142.981C141.149 142.969 141.134 142.959 141.118 142.953L140.846 142.85C140.828 142.843 140.808 142.84 140.789 142.841L140.427 142.868C140.413 142.869 140.4 142.868 140.387 142.865L139.914 142.75C139.908 142.748 139.902 142.746 139.895 142.745L139.06 142.675C139.042 142.674 139.024 142.669 139.008 142.661L138.756 142.519C138.747 142.514 138.737 142.51 138.726 142.507L137.873 142.276C137.857 142.272 137.843 142.264 137.83 142.255L137.592 142.077C137.567 142.058 137.536 142.05 137.505 142.053L137.232 142.073C137.206 142.075 137.181 142.085 137.161 142.101C137.14 142.118 137.126 142.14 137.119 142.165L137.104 142.219C137.1 142.235 137.098 142.252 137.1 142.268C137.102 142.285 137.108 142.301 137.116 142.315C137.124 142.329 137.135 142.342 137.148 142.352C137.161 142.362 137.176 142.37 137.193 142.374L165.466 150.032C165.482 150.036 165.499 150.037 165.516 150.035C165.532 150.033 165.548 150.028 165.563 150.019C165.577 150.011 165.59 150 165.6 149.987C165.61 149.974 165.618 149.959 165.622 149.943L166.251 147.641C166.257 147.622 166.259 147.601 166.255 147.581C166.252 147.561 166.243 147.543 166.231 147.526C166.219 147.51 166.202 147.498 166.184 147.489C166.165 147.48 166.145 147.476 166.124 147.477V147.477Z" fill="#B4B4B4"/>
<path d="M145.201 140.917C145.413 140.975 145.633 140.851 145.691 140.64C145.749 140.43 145.624 140.213 145.411 140.155C145.199 140.097 144.979 140.221 144.921 140.432C144.863 140.642 144.988 140.859 145.201 140.917Z" fill="#B4B4B4"/>
<path d="M164.346 143.53C164.559 143.588 164.778 143.464 164.837 143.254C164.895 143.043 164.77 142.826 164.557 142.768C164.344 142.711 164.125 142.835 164.066 143.045C164.008 143.255 164.133 143.473 164.346 143.53Z" fill="#B4B4B4"/>
<path d="M154.068 143.499C154.28 143.557 154.5 143.433 154.558 143.222C154.616 143.012 154.491 142.795 154.279 142.737C154.066 142.68 153.846 142.803 153.788 143.014C153.73 143.224 153.855 143.441 154.068 143.499Z" fill="#B4B4B4"/>
<path d="M159.449 143.491C159.661 143.549 159.881 143.425 159.939 143.215C159.997 143.004 159.872 142.787 159.659 142.729C159.447 142.672 159.227 142.796 159.169 143.006C159.111 143.216 159.236 143.434 159.449 143.491Z" fill="#B4B4B4"/>
<path d="M167.336 143.941C167.344 143.912 167.344 143.882 167.335 143.853C167.327 143.825 167.311 143.799 167.289 143.778C167.268 143.758 167.24 143.743 167.211 143.737C167.182 143.73 167.151 143.732 167.122 143.741L166.619 143.907C166.601 143.913 166.585 143.921 166.57 143.933L166.209 144.207C166.188 144.223 166.162 144.233 166.136 144.238C166.109 144.243 166.082 144.241 166.056 144.233L165.97 144.205C165.941 144.196 165.915 144.178 165.895 144.155C165.875 144.132 165.862 144.104 165.857 144.074L165.834 143.943C165.829 143.912 165.816 143.884 165.796 143.86C165.775 143.837 165.749 143.82 165.719 143.811C165.689 143.801 165.657 143.801 165.627 143.809C165.597 143.817 165.569 143.833 165.548 143.855L165.38 144.034C165.36 144.056 165.333 144.072 165.304 144.08C165.275 144.088 165.244 144.088 165.215 144.08L164.669 143.932C164.633 143.922 164.601 143.901 164.579 143.872C164.557 143.842 164.545 143.806 164.546 143.769L164.559 143.215C164.559 143.184 164.551 143.153 164.535 143.127C164.52 143.1 164.496 143.079 164.469 143.064C164.441 143.05 164.41 143.044 164.379 143.046C164.348 143.049 164.318 143.06 164.293 143.078L163.234 143.849C163.204 143.871 163.167 143.882 163.13 143.881C163.093 143.88 163.057 143.866 163.028 143.843L162.585 143.48C162.562 143.461 162.534 143.448 162.504 143.443C162.475 143.438 162.444 143.441 162.416 143.452L162.198 143.535C162.188 143.54 162.178 143.545 162.168 143.551L161.546 143.945C161.525 143.958 161.501 143.967 161.476 143.971C161.451 143.974 161.425 143.972 161.401 143.964L161.095 143.86C161.078 143.854 161.061 143.851 161.043 143.85L160.742 143.846C160.708 143.845 160.675 143.834 160.647 143.814C160.619 143.794 160.598 143.767 160.587 143.734L160.568 143.679C160.559 143.653 160.543 143.629 160.522 143.611C160.502 143.592 160.477 143.579 160.449 143.573L160.133 143.497C160.097 143.488 160.059 143.491 160.025 143.507L159.93 143.55C159.908 143.56 159.883 143.565 159.858 143.565C159.834 143.565 159.809 143.559 159.787 143.549C159.765 143.538 159.746 143.523 159.73 143.504C159.715 143.485 159.704 143.462 159.698 143.439L159.657 143.271C159.647 143.23 159.621 143.194 159.586 143.171C159.55 143.148 159.507 143.139 159.465 143.147L158.868 143.255L158.201 143.395C158.18 143.399 158.157 143.4 158.136 143.395C158.114 143.391 158.093 143.383 158.075 143.37L157.652 143.092C157.633 143.08 157.612 143.071 157.589 143.067L156.668 142.899C156.637 142.894 156.605 142.898 156.575 142.91C156.546 142.922 156.52 142.942 156.502 142.967L156.272 143.292C156.258 143.312 156.24 143.328 156.219 143.34C156.198 143.352 156.175 143.359 156.151 143.362C156.127 143.364 156.103 143.361 156.08 143.353C156.057 143.345 156.036 143.333 156.019 143.316L156.014 143.312C155.986 143.285 155.948 143.268 155.909 143.266C155.869 143.263 155.83 143.275 155.799 143.298L155.66 143.4C155.624 143.426 155.578 143.437 155.534 143.43L155.244 143.384C155.227 143.381 155.211 143.381 155.194 143.383L154.696 143.451C154.674 143.454 154.651 143.452 154.629 143.446L154.415 143.388C154.389 143.381 154.365 143.368 154.345 143.349C154.325 143.331 154.31 143.308 154.301 143.283L154.283 143.23C154.271 143.197 154.249 143.168 154.22 143.148C154.191 143.128 154.156 143.118 154.121 143.119L153.579 143.133C153.542 143.134 153.506 143.122 153.476 143.101L153.268 142.95C153.252 142.938 153.235 142.929 153.216 142.924L152.718 142.789C152.696 142.783 152.673 142.782 152.651 142.785L152.099 142.859C152.06 142.864 152.02 142.856 151.987 142.835L151.762 142.696C151.74 142.683 151.716 142.674 151.69 142.672C151.664 142.669 151.638 142.673 151.614 142.682L151.485 142.731C151.446 142.745 151.403 142.745 151.364 142.73C151.326 142.715 151.294 142.686 151.276 142.649L151.265 142.626C151.25 142.596 151.226 142.571 151.196 142.555C151.167 142.538 151.133 142.531 151.099 142.534L150.658 142.577C150.619 142.58 150.58 142.569 150.548 142.547L150.39 142.438C150.361 142.418 150.327 142.408 150.292 142.408L150.114 142.411C150.075 142.411 150.037 142.398 150.007 142.374C149.976 142.35 149.956 142.316 149.948 142.278L149.92 142.139C149.914 142.109 149.9 142.081 149.879 142.058C149.857 142.036 149.83 142.02 149.8 142.012L149.657 141.973C149.639 141.968 149.621 141.96 149.605 141.949L149.103 141.606C149.085 141.594 149.065 141.585 149.043 141.58C149.022 141.576 149 141.576 148.978 141.579L148.519 141.662C148.495 141.667 148.469 141.666 148.445 141.659L147.933 141.521C147.911 141.515 147.889 141.513 147.866 141.516L147.75 141.532C147.713 141.537 147.676 141.53 147.644 141.512C147.612 141.494 147.587 141.466 147.573 141.432C147.563 141.409 147.548 141.388 147.529 141.372C147.51 141.355 147.487 141.343 147.463 141.336L147.204 141.266C147.167 141.256 147.127 141.259 147.092 141.274L146.908 141.356C146.87 141.373 146.827 141.375 146.788 141.362C146.748 141.349 146.715 141.322 146.695 141.286L146.67 141.243C146.654 141.215 146.63 141.193 146.601 141.178C146.573 141.163 146.54 141.157 146.508 141.16L146.342 141.177C146.297 141.181 146.252 141.167 146.218 141.138L145.758 140.754C145.75 140.747 145.741 140.741 145.732 140.736L145.346 140.524C145.316 140.507 145.281 140.5 145.246 140.504C145.212 140.508 145.179 140.522 145.154 140.545L144.783 140.876C144.769 140.888 144.757 140.903 144.748 140.92L144.575 141.239C144.555 141.275 144.522 141.303 144.483 141.317L144.279 141.387C144.254 141.395 144.227 141.398 144.201 141.394C144.175 141.391 144.15 141.381 144.129 141.366L143.81 141.146C143.777 141.123 143.736 141.113 143.696 141.118C143.655 141.122 143.618 141.141 143.591 141.171L143.31 141.465C143.291 141.485 143.278 141.509 143.27 141.535L143.227 141.69C143.218 141.725 143.197 141.755 143.168 141.777C143.139 141.799 143.103 141.811 143.067 141.811L142.734 141.812C142.699 141.813 142.664 141.802 142.636 141.781L142.394 141.607C142.374 141.593 142.35 141.583 142.325 141.578L141.849 141.494C141.823 141.49 141.799 141.48 141.779 141.465C141.758 141.449 141.741 141.43 141.729 141.407L141.691 141.332C141.675 141.3 141.649 141.274 141.617 141.259L141.417 141.159C141.397 141.149 141.374 141.143 141.351 141.142C141.329 141.141 141.306 141.144 141.284 141.152L140.951 141.273C140.921 141.283 140.889 141.286 140.858 141.279L140.425 141.186C140.408 141.182 140.391 141.181 140.375 141.183L139.557 141.254C139.534 141.256 139.511 141.253 139.489 141.246C139.468 141.239 139.448 141.227 139.431 141.211L139.246 141.044C139.227 141.027 139.203 141.014 139.178 141.007L138.38 140.791C138.343 140.781 138.311 140.759 138.289 140.728L138.138 140.523C138.117 140.494 138.086 140.473 138.052 140.462C138.017 140.452 137.98 140.453 137.945 140.465L137.698 140.555C137.673 140.564 137.651 140.579 137.633 140.598C137.615 140.618 137.602 140.641 137.595 140.667" stroke="#B4B4B4" stroke-width="0.0312704" stroke-miterlimit="10"/>
<path opacity="0.2" d="M167.03 152.854L134.851 144.139L134.849 144.144L167.028 152.86L167.03 152.854Z" fill="#D8D8D8"/>
<path opacity="0.3" d="M139.723 145.755C139.875 145.797 140.032 145.708 140.073 145.558C140.115 145.408 140.026 145.252 139.874 145.211C139.722 145.17 139.565 145.259 139.523 145.409C139.482 145.559 139.571 145.714 139.723 145.755Z" fill="#B4B4B4"/>
<path opacity="0.3" d="M143.74 146.843C143.892 146.884 144.048 146.796 144.09 146.646C144.132 146.495 144.042 146.34 143.89 146.299C143.738 146.258 143.582 146.346 143.54 146.497C143.498 146.647 143.588 146.802 143.74 146.843Z" fill="#B4B4B4"/>
<path opacity="0.3" d="M147.756 147.929C147.908 147.97 148.065 147.882 148.107 147.732C148.148 147.581 148.059 147.426 147.907 147.385C147.755 147.344 147.598 147.432 147.557 147.583C147.515 147.733 147.604 147.888 147.756 147.929Z" fill="#B4B4B4"/>
<path opacity="0.3" d="M151.772 149.019C151.924 149.06 152.081 148.972 152.122 148.821C152.164 148.671 152.074 148.516 151.922 148.475C151.771 148.434 151.614 148.522 151.572 148.672C151.531 148.823 151.62 148.978 151.772 149.019Z" fill="#B4B4B4"/>
<path opacity="0.3" d="M155.786 150.103C155.937 150.144 156.094 150.056 156.136 149.905C156.177 149.755 156.088 149.6 155.936 149.559C155.784 149.518 155.627 149.606 155.586 149.756C155.544 149.907 155.634 150.062 155.786 150.103Z" fill="#B4B4B4"/>
<path opacity="0.3" d="M159.802 151.195C159.954 151.236 160.111 151.148 160.153 150.997C160.194 150.847 160.105 150.692 159.953 150.651C159.801 150.61 159.644 150.698 159.602 150.848C159.561 150.999 159.65 151.154 159.802 151.195Z" fill="#B4B4B4"/>
<path opacity="0.3" d="M163.819 152.281C163.971 152.322 164.128 152.233 164.169 152.083C164.211 151.933 164.121 151.778 163.969 151.737C163.817 151.695 163.661 151.784 163.619 151.934C163.577 152.084 163.667 152.24 163.819 152.281Z" fill="#B4B4B4"/>
<path d="M129.678 154.021C129.596 153.677 129.885 153.36 130.172 153.151C130.46 152.942 130.797 152.735 130.886 152.391C131.013 151.899 130.568 151.467 130.22 151.094C129.962 150.817 129.738 150.51 129.553 150.18C129.473 150.051 129.417 149.909 129.386 149.761C129.352 149.546 129.415 149.329 129.478 149.121C129.691 148.426 129.919 147.738 130.163 147.054" stroke="#B8B8B8" stroke-width="0.125081" stroke-miterlimit="10"/>
<path d="M129.373 146.801C129.414 146.675 129.487 146.561 129.585 146.469C129.682 146.378 129.801 146.313 129.931 146.279L130.01 146.664L130.118 146.253C130.207 146.252 130.296 146.265 130.381 146.292C130.531 146.341 130.663 146.432 130.761 146.555C130.858 146.677 130.916 146.826 130.929 146.982C130.941 147.137 130.906 147.293 130.829 147.429C130.752 147.565 130.636 147.675 130.495 147.746C130.355 147.817 130.196 147.845 130.04 147.827C129.883 147.809 129.735 147.745 129.615 147.644C129.495 147.543 129.408 147.409 129.365 147.259C129.321 147.109 129.324 146.949 129.372 146.801L129.373 146.801Z" fill="#666666"/>
<path d="M129.32 152.343C129.358 152.521 129.457 152.68 129.599 152.794C129.741 152.908 129.919 152.97 130.102 152.969C130.285 152.969 130.463 152.907 130.605 152.793C130.747 152.678 130.845 152.519 130.883 152.342C130.92 152.165 130.895 151.98 130.812 151.819C130.728 151.658 130.591 151.53 130.423 151.457C130.256 151.384 130.068 151.37 129.891 151.417C129.715 151.465 129.56 151.571 129.453 151.718L129.828 152.237L129.331 151.972C129.298 152.093 129.294 152.221 129.32 152.343Z" fill="#666666"/>
<path d="M130.113 150.964C130.301 151.029 130.507 151.023 130.69 150.945C130.874 150.868 131.021 150.726 131.104 150.546C131.187 150.367 131.199 150.163 131.137 149.975C131.076 149.788 130.946 149.629 130.772 149.532L130.69 149.848L130.609 149.458C130.51 149.426 130.404 149.413 130.299 149.421C130.194 149.429 130.092 149.458 129.999 149.505C129.905 149.552 129.822 149.617 129.753 149.697C129.685 149.776 129.634 149.868 129.601 149.967C129.572 150.053 129.559 150.145 129.562 150.236C129.567 150.399 129.623 150.556 129.721 150.686C129.82 150.817 129.957 150.913 130.113 150.964V150.964Z" fill="#666666"/>
<path d="M128.581 149.223C128.698 149.259 128.823 149.268 128.944 149.249C129.065 149.23 129.181 149.184 129.281 149.114C129.382 149.043 129.464 148.951 129.523 148.844C129.581 148.737 129.614 148.618 129.618 148.497C129.622 148.375 129.598 148.254 129.547 148.143C129.497 148.032 129.421 147.935 129.326 147.858C129.231 147.781 129.119 147.726 128.999 147.699C128.879 147.672 128.755 147.672 128.635 147.7L128.669 148.107L128.462 147.765C128.274 147.86 128.132 148.026 128.067 148.225C128.044 148.294 128.031 148.367 128.028 148.44C128.022 148.613 128.073 148.782 128.172 148.923C128.272 149.064 128.415 149.169 128.581 149.223V149.223Z" fill="#666666"/>
<path opacity="0.1" d="M129.423 147.034C129.596 147.101 129.754 147.203 129.93 147.262C130.105 147.321 130.314 147.332 130.465 147.226C130.546 147.168 130.603 147.082 130.676 147.016C130.746 146.953 130.83 146.909 130.921 146.887C130.941 146.996 130.937 147.108 130.911 147.215C130.884 147.323 130.835 147.424 130.767 147.511C130.698 147.599 130.612 147.671 130.513 147.724C130.415 147.776 130.306 147.807 130.194 147.815C130.083 147.824 129.971 147.809 129.865 147.771C129.76 147.734 129.664 147.675 129.583 147.598C129.502 147.522 129.439 147.429 129.396 147.327C129.354 147.224 129.334 147.114 129.337 147.003C129.366 147.012 129.395 147.022 129.423 147.034Z" fill="#D1BDBD"/>
<path opacity="0.1" d="M128.581 149.221C128.712 149.264 128.852 149.272 128.988 149.245C129.123 149.218 129.249 149.157 129.354 149.067C129.458 148.978 129.537 148.863 129.583 148.734C129.629 148.605 129.641 148.466 129.616 148.332C129.544 148.356 129.477 148.394 129.419 148.443C129.341 148.51 129.281 148.596 129.196 148.654C129.037 148.762 128.819 148.752 128.635 148.693C128.451 148.634 128.285 148.533 128.106 148.466C128.08 148.459 128.056 148.448 128.029 148.441C128.023 148.612 128.074 148.781 128.173 148.922C128.273 149.063 128.416 149.168 128.581 149.221V149.221Z" fill="#D1BDBD"/>
<path opacity="0.1" d="M130.114 150.963C130.244 151.005 130.384 151.014 130.518 150.988C130.653 150.962 130.779 150.902 130.883 150.814C130.987 150.725 131.067 150.612 131.114 150.485C131.162 150.357 131.175 150.22 131.153 150.086C131.077 150.11 131.007 150.147 130.945 150.196C130.862 150.264 130.798 150.35 130.708 150.409C130.538 150.517 130.305 150.509 130.11 150.45C129.914 150.392 129.748 150.299 129.562 150.232C129.567 150.396 129.622 150.554 129.721 150.684C129.82 150.815 129.957 150.912 130.114 150.963V150.963Z" fill="#D1BDBD"/>
<path opacity="0.1" d="M129.322 152.342C129.354 152.549 129.468 152.735 129.64 152.859C129.811 152.983 130.024 153.035 130.234 153.003C130.444 152.97 130.632 152.857 130.757 152.688C130.882 152.519 130.934 152.307 130.902 152.1C130.827 152.124 130.756 152.159 130.691 152.203C130.593 152.272 130.517 152.36 130.409 152.419C130.209 152.53 129.936 152.525 129.708 152.469C129.577 152.434 129.448 152.391 129.322 152.342V152.342Z" fill="#D1BDBD"/>
<path d="M130.937 153.991C130.937 153.991 130.333 153.807 130.185 153.628C130.037 153.449 129.328 153.091 129.224 153.286C129.119 153.48 128.022 154.071 128.708 154.261C129.395 154.45 130.336 154.588 130.551 154.526C130.765 154.464 130.937 153.991 130.937 153.991Z" fill="#656380"/>
<path opacity="0.2" d="M128.716 154.185C129.402 154.377 130.343 154.513 130.558 154.45C130.721 154.404 130.86 154.117 130.917 153.983L130.937 153.989C130.937 153.989 130.764 154.464 130.552 154.528C130.339 154.591 129.396 154.453 128.709 154.263C128.511 154.209 128.462 154.119 128.494 154.017C128.503 154.085 128.568 154.144 128.716 154.185Z" fill="#D1BDBD"/>
</g>
<defs>
<clipPath id="clip0">
<rect width="64.8495" height="41.8507" fill="white" transform="matrix(0.965224 0.261423 -0.266682 0.963785 126.968 112.592)"/>
</clipPath>
</defs>
</svg>
