<svg width="216" height="161" viewBox="0 0 216 161" fill="none" xmlns="http://www.w3.org/2000/svg">
<path d="M216 160H0V160.502H216V160Z" fill="#FFEFEF"/>
<path d="M100.786 157.694C98.7731 157.692 96.7926 158.204 95.0322 159.181H106.526C104.771 158.205 102.795 157.693 100.786 157.694V157.694Z" fill="#E6E6E6"/>
<path d="M123.088 156.209C119.725 156.205 116.443 157.244 113.695 159.183H132.468C129.723 157.246 126.446 156.207 123.088 156.209V156.209Z" fill="#E6E6E6"/>
<path d="M69.0297 56.6942C69.0297 56.6942 56.9087 52.9186 58.7694 59.1304C60.6301 65.3423 70.8395 62.2045 70.8395 62.2045L69.0297 56.6942Z" fill="#9D616A"/>
<path d="M115.364 33.3788C115.364 33.3788 109.152 24.8902 103.117 33.7024C97.07 42.532 91.448 49.7805 91.448 49.7805L76.4297 54.6773L67.7412 55.4481L70.1347 63.1728L95.397 59.508C95.397 59.508 123.522 42.8012 115.364 33.3788Z" fill="#9D616A"/>
<path d="M87.6372 80.3877C87.6372 80.3877 78.2008 86.9932 78.8299 92.9696C79.459 98.946 83.5481 115.302 83.5481 115.302L92.0409 114.044C92.0409 114.044 92.9845 101.462 89.8391 96.7441L104.937 88.2514L87.6372 80.3877Z" fill="#9D616A"/>
<path d="M108.554 95.958C108.554 95.958 107.925 107.596 109.498 112.314C111.07 117.033 112.643 134.647 112.643 134.647H121.45C121.45 134.647 125.539 119.234 120.507 112.314C120.507 112.314 118.934 103.193 123.338 98.7889L108.554 95.958Z" fill="#9D616A"/>
<path d="M106.51 63.7156C106.51 63.7156 86.0645 76.612 86.0645 80.7011L102.421 94.2266L108.083 87.9357L107.454 97.3721L125.068 100.832C125.068 100.832 131.359 76.9266 131.045 75.9829C130.73 75.0393 129.786 61.1992 129.786 61.1992L106.51 63.7156Z" fill="#5A5555"/>
<path d="M92.0408 112.471L82.9189 114.358L84.5396 121.021C85.3373 124.3 85.4282 127.712 84.8062 131.029V131.029C84.8062 131.029 94.2426 133.545 94.2426 132.287C94.2426 131.029 92.0408 125.996 92.6699 122.536C93.299 119.076 92.0408 112.471 92.0408 112.471Z" fill="#7C7C7C"/>
<path d="M96.7592 136.063C96.4446 134.805 93.8312 129.1 93.7225 130.065C93.6137 131.03 88.581 132.603 86.6937 130.716C86.6937 130.716 84.1773 128.514 83.2337 130.716C82.29 132.918 80.4028 136.692 80.4028 136.692C80.4028 136.692 71.91 140.781 73.1682 142.983C73.4226 143.429 74.1277 143.616 75.0902 143.633C75.0677 143.691 75.0559 143.753 75.0555 143.815V144.038C75.0555 144.176 75.11 144.307 75.2071 144.404C75.3042 144.501 75.4358 144.556 75.5731 144.556H75.796C75.9333 144.556 76.065 144.501 76.162 144.404C76.2591 144.307 76.3136 144.176 76.3136 144.038V143.815C76.3131 143.735 76.2938 143.656 76.2571 143.585C76.5144 143.562 76.7812 143.532 77.0556 143.496C76.983 143.587 76.9432 143.699 76.9427 143.815V144.038C76.9427 144.176 76.9973 144.307 77.0944 144.404C77.1914 144.501 77.3231 144.556 77.4604 144.556H77.6833C77.8206 144.556 77.9522 144.501 78.0493 144.404C78.1464 144.307 78.2009 144.176 78.2009 144.038V143.815C78.2007 143.723 78.1757 143.633 78.1286 143.553C78.0815 143.474 78.0141 143.409 77.9332 143.365C78.6572 143.244 79.4128 143.09 80.1642 142.92C80.1149 143 80.0886 143.092 80.0882 143.186V143.409C80.0882 143.547 80.1428 143.678 80.2398 143.775C80.3369 143.872 80.4686 143.927 80.6059 143.927H80.8287C80.966 143.927 81.0977 143.872 81.1948 143.775C81.2919 143.678 81.3464 143.547 81.3464 143.409V143.186C81.3463 143.086 81.3172 142.988 81.2626 142.904C81.2079 142.821 81.1302 142.754 81.0387 142.714C81.6022 142.577 82.1545 142.433 82.6802 142.291C82.6311 142.371 82.605 142.463 82.6046 142.557V142.78C82.6046 142.917 82.6591 143.049 82.7562 143.146C82.8533 143.243 82.9849 143.298 83.1222 143.298H83.3451C83.4824 143.298 83.6141 143.243 83.7112 143.146C83.8082 143.049 83.8628 142.917 83.8628 142.78V142.557C83.8625 142.447 83.827 142.34 83.7615 142.252C83.6961 142.163 83.604 142.098 83.4988 142.065C85.346 141.545 86.6937 141.096 86.6937 141.096C86.6937 141.096 88.2587 140.526 90.1537 139.757V139.949C90.1537 140.086 90.2082 140.218 90.3053 140.315C90.4024 140.412 90.5341 140.467 90.6714 140.467H90.8942C91.0315 140.467 91.1632 140.412 91.2603 140.315C91.3574 140.218 91.4119 140.086 91.4119 139.949V139.726C91.4117 139.648 91.3935 139.57 91.3588 139.5C91.3241 139.43 91.2738 139.368 91.2117 139.32C91.5921 139.16 91.9759 138.996 92.3555 138.829V139.006C92.3555 139.143 92.4101 139.275 92.5071 139.372C92.6042 139.469 92.7359 139.523 92.8732 139.523H93.0961C93.2334 139.523 93.365 139.469 93.4621 139.372C93.5592 139.275 93.6137 139.143 93.6137 139.006V138.783C93.6137 138.699 93.5935 138.617 93.5549 138.544C93.5164 138.47 93.4605 138.406 93.3922 138.359C93.8026 138.167 94.1979 137.976 94.5624 137.789C94.5608 137.806 94.5574 137.822 94.5574 137.839V138.062C94.5574 138.199 94.6119 138.331 94.709 138.428C94.806 138.525 94.9377 138.58 95.075 138.58H95.2979C95.4352 138.58 95.5669 138.525 95.6639 138.428C95.761 138.331 95.8155 138.199 95.8155 138.062V137.839C95.8155 137.72 95.7743 137.604 95.6988 137.512C95.6233 137.419 95.5182 137.356 95.4013 137.332C96.2808 136.821 96.8354 136.368 96.7592 136.063Z" fill="#525151"/>
<path d="M122.081 133.232L112.116 132.603C112.116 132.603 112.72 142.983 111.512 146.443C110.304 149.903 110.908 151.161 110.908 151.161L119.665 151.79L122.081 133.232Z" fill="#7C7C7C"/>
<path d="M122.203 156.172C122.158 154.876 120.791 148.752 120.484 149.673C120.176 150.594 114.926 151.083 113.474 148.844C113.474 148.844 111.472 146.166 110.09 148.122C108.708 150.079 106.075 153.377 106.075 153.377C106.075 153.377 96.9163 155.606 97.6877 158.021C97.8438 158.51 98.4942 158.841 99.4321 159.058C99.3979 159.11 99.3735 159.168 99.36 159.229L99.3136 159.447C99.2849 159.581 99.3108 159.721 99.3855 159.836C99.4602 159.952 99.5776 160.032 99.7119 160.061L99.9299 160.108C100.064 160.136 100.204 160.11 100.319 160.036C100.435 159.961 100.515 159.844 100.544 159.709L100.591 159.491C100.607 159.413 100.604 159.331 100.583 159.254C100.84 159.285 101.107 159.312 101.383 159.334C101.293 159.407 101.23 159.509 101.206 159.622L101.159 159.84C101.131 159.975 101.157 160.115 101.231 160.23C101.306 160.345 101.423 160.426 101.558 160.455L101.776 160.501C101.91 160.53 102.05 160.504 102.165 160.429C102.28 160.354 102.361 160.237 102.39 160.103L102.436 159.885C102.455 159.795 102.45 159.701 102.42 159.614C102.391 159.526 102.338 159.448 102.268 159.388C103.002 159.421 103.773 159.428 104.543 159.418C104.478 159.486 104.433 159.571 104.413 159.663L104.367 159.881C104.338 160.015 104.364 160.155 104.439 160.271C104.513 160.386 104.631 160.467 104.765 160.495L104.983 160.542C105.117 160.57 105.258 160.544 105.373 160.47C105.488 160.395 105.569 160.278 105.597 160.143L105.644 159.925C105.665 159.827 105.657 159.726 105.621 159.632C105.585 159.539 105.522 159.458 105.441 159.399C106.021 159.382 106.591 159.357 107.135 159.328C107.07 159.396 107.026 159.481 107.006 159.572L106.959 159.79C106.93 159.925 106.956 160.065 107.031 160.18C107.106 160.295 107.223 160.376 107.357 160.405L107.575 160.451C107.71 160.48 107.85 160.454 107.965 160.379C108.08 160.304 108.161 160.187 108.19 160.053L108.236 159.835C108.259 159.727 108.246 159.615 108.201 159.515C108.155 159.414 108.079 159.331 107.983 159.278C109.898 159.154 111.309 158.996 111.309 158.996C111.309 158.996 112.959 158.765 114.973 158.408L114.932 158.596C114.904 158.73 114.93 158.87 115.004 158.985C115.079 159.101 115.197 159.181 115.331 159.21L115.549 159.256C115.683 159.285 115.823 159.259 115.938 159.184C116.054 159.11 116.134 158.992 116.163 158.858L116.209 158.64C116.226 158.563 116.224 158.484 116.205 158.408C116.186 158.332 116.149 158.261 116.098 158.201C116.504 158.124 116.913 158.043 117.32 157.959L117.283 158.132C117.254 158.266 117.28 158.406 117.355 158.522C117.429 158.637 117.547 158.718 117.681 158.746L117.899 158.793C118.033 158.821 118.173 158.795 118.289 158.721C118.404 158.646 118.485 158.529 118.513 158.394L118.56 158.176C118.577 158.095 118.574 158.01 118.552 157.93C118.53 157.85 118.488 157.776 118.431 157.716C118.873 157.614 119.299 157.509 119.695 157.402C119.69 157.418 119.683 157.433 119.679 157.45L119.633 157.668C119.604 157.802 119.63 157.943 119.705 158.058C119.78 158.173 119.897 158.254 120.031 158.282L120.249 158.329C120.383 158.357 120.524 158.332 120.639 158.257C120.754 158.182 120.835 158.065 120.863 157.93L120.91 157.712C120.935 157.596 120.918 157.474 120.864 157.368C120.809 157.262 120.72 157.178 120.61 157.13C121.577 156.814 122.214 156.486 122.203 156.172Z" fill="#525151"/>
<path d="M106.511 22.8257C111.548 22.8257 115.632 18.7417 115.632 13.7039C115.632 8.66603 111.548 4.58203 106.511 4.58203C101.473 4.58203 97.3887 8.66603 97.3887 13.7039C97.3887 18.7417 101.473 22.8257 106.511 22.8257Z" fill="#9D616A"/>
<path d="M114.688 12.7598C114.688 12.7598 119.721 19.0507 122.237 18.7362L111.228 27.2289C111.228 27.2289 109.97 21.8816 108.397 21.2525C106.825 20.6234 114.688 12.7598 114.688 12.7598Z" fill="#9D616A"/>
<path d="M134.652 59.3927C134.652 59.3927 134.651 24.6836 128.828 21.6937C123.009 18.7055 119.16 17 119.16 17C119.074 18.1389 118.751 19.2471 118.21 20.2531C117.669 21.2591 116.923 22.1404 116.021 22.8402C114.091 24.3298 112.169 25.565 111.095 25.5689L111.061 25.4216L110.93 25.0477L107.758 29.9826C107.758 29.9826 104.927 30.6117 103.983 32.4989C103.473 33.52 105.88 43.7984 104.455 53.1018C103.246 60.9949 98.1514 68.1201 98.007 68.9864C97.7629 70.4507 103.955 66.6141 106.744 64.8205C106.785 64.8665 106.814 64.8973 106.814 64.8973C106.814 64.8973 105.242 65.5264 108.387 64.5827C110.169 64.048 112.658 64.0184 114.48 64.093C114.478 64.6395 114.491 65.0737 114.521 65.3691C114.835 68.5145 130.563 72.9182 132.764 71.9746C134.966 71.0309 134.652 59.3927 134.652 59.3927Z" fill="#5EBC4F"/>
<path d="M123.337 71.4229C123.337 71.4229 113.901 79.9156 120.192 81.4883C126.483 83.0611 128.999 72.681 128.999 72.681L123.337 71.4229Z" fill="#9D616A"/>
<path d="M112.328 93.4407C112.328 93.4407 116.732 89.3516 119.248 91.5534C121.765 93.7552 123.337 95.3279 123.337 95.3279C123.337 95.3279 116.103 90.9243 112.328 93.4407Z" fill="#767676"/>
<path d="M107.332 39.7081C107.332 39.7081 113.867 33.6401 117.601 36.9075C121.335 40.1749 123.669 42.5087 123.669 42.5087C123.669 42.5087 112.933 35.974 107.332 39.7081Z" fill="#767676"/>
<path d="M113.473 142.369C113.473 142.369 115.955 140.064 117.373 141.305C118.791 142.546 119.678 143.433 119.678 143.433C119.678 143.433 115.6 140.951 113.473 142.369Z" fill="#525151"/>
<path d="M85.666 120.931C85.666 120.931 87.3699 118.003 89.088 118.778C90.8061 119.552 91.9121 120.143 91.9121 120.143C91.9121 120.143 87.2886 118.955 85.666 120.931Z" fill="#525151"/>
<path d="M131.97 26.0871C128.852 19.8195 119.365 23.2379 120.906 30.0664C120.929 30.1682 120.953 30.271 120.979 30.3748C122.603 36.8387 125.259 42.9988 128.842 48.6185L125.382 64.0313L121.608 71.895L129.471 73.7822L139.222 50.1912C139.222 50.1912 136.533 35.2587 131.97 26.0871Z" fill="#9D616A"/>
<path opacity="0.2" d="M127.428 49.0898L121.451 71.7372L126.484 61.0426L127.428 49.0898Z" fill="white"/>
<path d="M112.24 3.0704C112.24 3.0704 107.198 -2.23805 102.123 1.10501C97.0473 4.44806 94.6397 7.69552 95.1373 9.95667C95.6349 12.2178 97.1077 15.363 97.1077 15.363C97.1077 15.363 96.1924 10.6785 100.395 10.3319C104.597 9.98521 110.403 7.20408 110.403 7.20408L114.331 15.5911C114.331 15.5911 114.886 13.6476 116.425 14.205C117.965 14.7625 116.771 3.69217 112.24 3.0704Z" fill="#2F2E41"/>
<path d="M79.9303 123.008C79.93 123.804 79.8637 124.6 79.7321 125.386V125.389C79.3709 127.503 78.5343 129.507 77.2852 131.25C76.0362 132.993 74.4075 134.43 72.5221 135.452C70.6367 136.474 68.5437 137.054 66.4013 137.149C64.2589 137.243 62.123 136.85 60.1548 135.999H60.1516C59.5692 135.747 59.0048 135.456 58.4625 135.127C56.7815 134.112 55.3297 132.759 54.1992 131.154C53.0686 129.548 52.2839 127.726 51.8947 125.801C51.7124 124.881 51.6207 123.946 51.6211 123.008C51.6211 122.58 51.64 122.155 51.6777 121.737V121.734C52.0041 118.122 53.7045 114.773 56.4281 112.378C59.1516 109.983 62.6905 108.725 66.3146 108.864C69.9386 109.002 73.3713 110.526 75.9042 113.122C78.4372 115.718 79.8772 119.186 79.9272 122.813V122.816C79.9303 122.882 79.9303 122.942 79.9303 123.008Z" fill="#434343"/>
<path d="M69.2603 118.28H62.9209L59.751 112.792L61.901 109.065L62.0267 109.031C64.7485 108.304 67.6232 108.384 70.3001 109.262L70.4141 109.3L72.4302 112.792L69.2603 118.28ZM63.2839 117.651H68.8973L71.7038 112.792L69.9897 109.823C67.5022 109.034 64.8434 108.959 62.3153 109.606L60.4774 112.792L63.2839 117.651Z" fill="white"/>
<path d="M68.9459 129.605H62.6064L59.4365 124.115L62.6064 118.625H68.9459L72.1158 124.115L68.9459 129.605ZM62.9695 128.976H68.5828L71.3893 124.115L68.5828 119.254H62.9695L60.163 124.115L62.9695 128.976Z" fill="white"/>
<path d="M65.7766 137.477C63.7997 137.481 61.8432 137.076 60.0303 136.287L59.707 136.147L62.9213 130.576H69.2609L72.3397 135.909L72.0339 136.056C70.0824 136.997 67.943 137.483 65.7766 137.477V137.477ZM60.6064 135.847C62.3359 136.543 64.1881 136.883 66.0519 136.846C67.9158 136.809 69.7531 136.396 71.4537 135.633L68.8978 131.205H63.2847L60.6064 135.847Z" fill="white"/>
<path d="M79.6412 123.943H73.3017L70.1318 118.454L73.3016 112.962H76.1882L76.2813 113.06C78.7847 115.694 80.1998 119.176 80.2429 122.81V122.901L79.6412 123.943ZM73.6648 123.314H79.2781L79.6126 122.735C79.5519 119.335 78.2355 116.078 75.917 113.591H73.665L70.8583 118.454L73.6648 123.314Z" fill="white"/>
<path d="M73.2143 135.428L70.1318 130.093L73.3016 124.601H79.6409L80.0479 125.302L80.0434 125.443C79.6998 127.446 78.9389 129.354 77.81 131.045C76.6812 132.735 75.2097 134.168 73.4909 135.253L73.2143 135.428ZM70.8583 130.093L73.4297 134.543C74.9875 133.508 76.3198 132.169 77.3466 130.605C78.3733 129.042 79.0733 127.287 79.4044 125.447L79.2784 125.23H73.665L70.8583 130.093Z" fill="white"/>
<path d="M58.5749 135.564L58.3003 135.398C56.5826 134.36 55.099 132.976 53.9434 131.335C52.7878 129.694 51.9854 127.831 51.5868 125.864L51.5635 125.748L52.2264 124.601H58.566L61.7357 130.093L58.5749 135.564ZM52.2274 125.856C52.6095 127.662 53.348 129.374 54.3999 130.891C55.4517 132.407 56.7956 133.699 58.353 134.69L61.0092 130.093L58.2026 125.23H52.5894L52.2274 125.856Z" fill="white"/>
<path d="M58.5664 123.314H52.2271L51.3643 121.823V121.738C51.6748 118.173 53.2991 114.851 55.9217 112.417L56.0123 112.333H58.5666L61.7363 117.825L58.5664 123.314ZM52.5899 122.685H58.2034L61.0099 117.825L58.2032 112.962H56.2605C53.8338 115.252 52.3203 118.345 52.001 121.667L52.5899 122.685Z" fill="white"/>
</svg>
