<svg width="200" height="197" viewBox="0 0 200 197" fill="none" xmlns="http://www.w3.org/2000/svg">
<path d="M82.9857 193.054C80.521 193.051 78.0965 193.678 75.9414 194.874H90.012C87.8633 193.678 85.4447 193.052 82.9857 193.054V193.054Z" fill="#E6E6E6"/>
<path d="M110.289 191.234C106.171 191.23 102.154 192.501 98.79 194.875H121.772C118.412 192.504 114.4 191.232 110.289 191.234V191.234Z" fill="#E6E6E6"/>
<path d="M200 194H0V194.77H200V194Z" fill="#65DDE4"/>
<path d="M44.1092 69.406C44.1092 69.406 29.2704 64.7839 31.5483 72.3886C33.8262 79.9933 46.3248 76.152 46.3248 76.152L44.1092 69.406Z" fill="#9D616A"/>
<path d="M100.832 40.8628C100.832 40.8628 93.2275 30.4709 85.8391 41.259C78.4363 52.0684 71.5537 60.9422 71.5537 60.9422L53.168 66.9369L42.5312 67.8807L45.4614 77.3374L76.3882 72.8508C76.3882 72.8508 110.819 52.3979 100.832 40.8628Z" fill="#EFEFEF"/>
<path d="M66.8883 98.4121C66.8883 98.4121 55.336 106.499 56.1062 113.815C56.8764 121.132 61.8823 141.156 61.8823 141.156L72.2794 139.615C72.2794 139.615 73.4346 124.212 69.5839 118.436L88.0675 108.039L66.8883 98.4121Z" fill="#9D616A"/>
<path d="M92.4949 117.474C92.4949 117.474 91.7248 131.721 93.6501 137.498C95.5755 143.274 97.5009 164.838 97.5009 164.838H108.283C108.283 164.838 113.289 145.969 107.128 137.498C107.128 137.498 105.202 126.33 110.593 120.939L92.4949 117.474Z" fill="#9D616A"/>
<path d="M89.9928 78.0025C89.9928 78.0025 64.9629 93.7906 64.9629 98.7966L84.9868 115.355L91.9182 107.653L91.1481 119.206L112.712 123.441C112.712 123.441 120.414 94.1757 120.029 93.0204C119.644 91.8652 118.488 74.9219 118.488 74.9219L89.9928 78.0025Z" fill="#EFEFEF"/>
<path d="M72.2795 137.689L61.1123 140L63.0964 148.157C64.0729 152.171 64.1842 156.348 63.4228 160.409V160.409C63.4228 160.409 74.975 163.49 74.975 161.949C74.975 160.409 72.2795 154.248 73.0497 150.012C73.8198 145.776 72.2795 137.689 72.2795 137.689Z" fill="#EFEFEF"/>
<path d="M78.0559 166.571C77.6708 165.031 74.4714 158.048 74.3383 159.229C74.2051 160.41 68.0439 162.336 65.7335 160.025C65.7335 160.025 62.6529 157.33 61.4976 160.025C60.3424 162.721 58.032 167.342 58.032 167.342C58.032 167.342 47.6349 172.348 49.1752 175.043C49.4867 175.588 50.3499 175.818 51.5283 175.838C51.5006 175.91 51.4862 175.985 51.4857 176.062V176.335C51.4857 176.503 51.5524 176.664 51.6713 176.783C51.7901 176.902 51.9513 176.969 52.1194 176.969H52.3923C52.5603 176.969 52.7215 176.902 52.8404 176.783C52.9592 176.664 53.026 176.503 53.026 176.335V176.062C53.0254 175.964 53.0016 175.867 52.9568 175.779C53.2717 175.752 53.5984 175.715 53.9343 175.671C53.8454 175.782 53.7966 175.92 53.7961 176.062V176.335C53.7961 176.503 53.8629 176.664 53.9817 176.783C54.1006 176.902 54.2618 176.969 54.4298 176.969H54.7027C54.8708 176.969 55.032 176.902 55.1508 176.783C55.2697 176.664 55.3364 176.503 55.3364 176.335V176.062C55.3361 175.949 55.3056 175.838 55.2479 175.741C55.1903 175.644 55.1077 175.564 55.0087 175.51C55.895 175.362 56.8201 175.174 57.7399 174.965C57.6795 175.064 57.6474 175.177 57.6469 175.292V175.565C57.6469 175.733 57.7137 175.894 57.8325 176.013C57.9513 176.132 58.1125 176.198 58.2806 176.198H58.5535C58.7215 176.198 58.8827 176.132 59.0016 176.013C59.1204 175.894 59.1872 175.733 59.1872 175.565V175.292C59.1871 175.169 59.1514 175.049 59.0846 174.947C59.0177 174.844 58.9225 174.763 58.8105 174.713C59.5003 174.545 60.1765 174.37 60.8201 174.196C60.76 174.294 60.728 174.407 60.7275 174.522V174.794C60.7275 174.963 60.7943 175.124 60.9131 175.243C61.0319 175.361 61.1931 175.428 61.3612 175.428H61.6341C61.8021 175.428 61.9633 175.361 62.0822 175.243C62.201 175.124 62.2678 174.963 62.2678 174.794V174.522C62.2675 174.387 62.2241 174.256 62.1439 174.147C62.0637 174.039 61.951 173.959 61.8222 173.92C64.0836 173.283 65.7335 172.733 65.7335 172.733C65.7335 172.733 67.6494 172.035 69.9693 171.094V171.329C69.9693 171.497 70.0361 171.658 70.1549 171.777C70.2738 171.896 70.435 171.963 70.603 171.963H70.8759C71.044 171.963 71.2052 171.896 71.324 171.777C71.4429 171.658 71.5096 171.497 71.5096 171.329V171.056C71.5094 170.96 71.4872 170.865 71.4447 170.779C71.4022 170.693 71.3406 170.617 71.2645 170.559C71.7303 170.363 72.2001 170.162 72.6648 169.957V170.174C72.6648 170.342 72.7316 170.503 72.8504 170.622C72.9693 170.741 73.1305 170.807 73.2986 170.807H73.5714C73.7395 170.807 73.9007 170.741 74.0195 170.622C74.1384 170.503 74.2051 170.342 74.2051 170.174V169.901C74.2051 169.799 74.1804 169.698 74.1332 169.608C74.0859 169.518 74.0176 169.44 73.9339 169.382C74.4364 169.148 74.9203 168.913 75.3666 168.684C75.3646 168.705 75.3604 168.724 75.3604 168.745V169.018C75.3604 169.186 75.4271 169.348 75.546 169.466C75.6648 169.585 75.826 169.652 75.9941 169.652H76.267C76.435 169.652 76.5962 169.585 76.7151 169.466C76.8339 169.348 76.9007 169.186 76.9007 169.018V168.745C76.9007 168.599 76.8502 168.458 76.7578 168.345C76.6653 168.231 76.5367 168.154 76.3936 168.125C77.4703 167.499 78.1492 166.945 78.0559 166.571Z" fill="#525151"/>
<path d="M109.055 163.105L96.8559 162.335C96.8559 162.335 97.5953 175.042 96.1166 179.278C94.6379 183.514 95.3772 185.054 95.3772 185.054L106.098 185.825L109.055 163.105Z" fill="#EFEFEF"/>
<path d="M109.205 191.191C109.149 189.604 107.476 182.107 107.1 183.234C106.723 184.362 100.296 184.96 98.5179 182.219C98.5179 182.219 96.067 178.94 94.3752 181.336C92.6833 183.731 89.4601 187.769 89.4601 187.769C89.4601 187.769 78.2478 190.497 79.1922 193.454C79.3832 194.052 80.1795 194.457 81.3277 194.723C81.2858 194.787 81.2559 194.858 81.2395 194.932L81.1826 195.199C81.1475 195.364 81.1792 195.535 81.2707 195.676C81.3621 195.817 81.5059 195.916 81.6702 195.951L81.9371 196.008C82.1015 196.043 82.273 196.011 82.414 195.92C82.555 195.828 82.654 195.685 82.689 195.52L82.7459 195.253C82.7658 195.157 82.7628 195.058 82.7371 194.963C83.0509 195.002 83.378 195.034 83.7158 195.061C83.6057 195.151 83.5293 195.275 83.4991 195.414L83.4422 195.681C83.4072 195.845 83.4389 196.017 83.5303 196.158C83.6218 196.299 83.7655 196.398 83.9299 196.433L84.1968 196.49C84.3611 196.525 84.5327 196.493 84.6737 196.402C84.8147 196.31 84.9136 196.167 84.9487 196.002L85.0056 195.735C85.0288 195.625 85.022 195.51 84.9859 195.403C84.9497 195.296 84.8856 195.201 84.8001 195.127C85.6978 195.167 86.6417 195.176 87.5848 195.164C87.5053 195.247 87.4503 195.351 87.4258 195.464L87.3689 195.731C87.3339 195.895 87.3656 196.067 87.457 196.208C87.5485 196.349 87.6922 196.448 87.8566 196.483L88.1234 196.539C88.2878 196.575 88.4594 196.543 88.6004 196.451C88.7414 196.36 88.8403 196.216 88.8754 196.052L88.9323 195.785C88.9577 195.665 88.9478 195.54 88.9038 195.426C88.8598 195.312 88.7836 195.213 88.6844 195.141C89.3942 195.12 90.0921 195.09 90.7577 195.054C90.6785 195.137 90.6237 195.241 90.5993 195.353L90.5424 195.62C90.5074 195.784 90.539 195.956 90.6305 196.097C90.7219 196.238 90.8657 196.337 91.03 196.372L91.2969 196.429C91.4613 196.464 91.6328 196.432 91.7738 196.34C91.9149 196.249 92.0138 196.105 92.0488 195.941L92.1057 195.674C92.1335 195.542 92.1184 195.405 92.0626 195.282C92.0067 195.159 91.9131 195.058 91.7954 194.992C94.14 194.841 95.8682 194.647 95.8682 194.647C95.8682 194.647 97.8874 194.365 100.353 193.927L100.304 194.157C100.269 194.322 100.3 194.493 100.392 194.634C100.483 194.775 100.627 194.874 100.791 194.909L101.058 194.966C101.223 195.001 101.394 194.969 101.535 194.878C101.676 194.786 101.775 194.643 101.81 194.478L101.867 194.211C101.887 194.117 101.885 194.02 101.861 193.927C101.838 193.834 101.793 193.747 101.731 193.674C102.227 193.58 102.729 193.481 103.226 193.378L103.181 193.589C103.146 193.754 103.177 193.925 103.269 194.066C103.36 194.207 103.504 194.306 103.668 194.341L103.935 194.398C104.1 194.433 104.271 194.402 104.412 194.31C104.553 194.219 104.652 194.075 104.687 193.911L104.744 193.644C104.765 193.544 104.762 193.441 104.735 193.342C104.707 193.244 104.657 193.154 104.587 193.08C105.127 192.955 105.649 192.827 106.134 192.696C106.128 192.716 106.119 192.734 106.115 192.755L106.058 193.022C106.023 193.186 106.055 193.358 106.146 193.499C106.238 193.64 106.381 193.738 106.546 193.774L106.813 193.83C106.977 193.865 107.148 193.834 107.289 193.742C107.43 193.651 107.529 193.507 107.564 193.343L107.621 193.076C107.652 192.933 107.632 192.784 107.565 192.654C107.498 192.524 107.389 192.421 107.255 192.363C108.438 191.976 109.218 191.575 109.205 191.191Z" fill="#525151"/>
<path d="M89.9934 27.9438C96.1609 27.9438 101.161 22.9441 101.161 16.7766C101.161 10.6091 96.1609 5.60938 89.9934 5.60938C83.8259 5.60938 78.8262 10.6091 78.8262 16.7766C78.8262 22.9441 83.8259 27.9438 89.9934 27.9438Z" fill="#9D616A"/>
<path d="M100.005 15.6211C100.005 15.6211 106.166 23.3226 109.247 22.9375L95.7691 33.3346C95.7691 33.3346 94.2288 26.7883 92.3034 26.0181C90.378 25.248 100.005 15.6211 100.005 15.6211Z" fill="#9D616A"/>
<path d="M124.072 72.8044C124.072 72.8044 124.071 30.3127 116.943 26.6524C109.819 22.9942 105.107 20.9062 105.107 20.9062C105.002 22.3005 104.606 23.6572 103.944 24.8888C103.282 26.1203 102.369 27.1993 101.264 28.056C98.9017 29.8796 96.5483 31.3917 95.2337 31.3966L95.1914 31.2162L95.031 30.7584L91.1481 36.7998C91.1481 36.7998 87.6824 37.57 86.5272 39.8804C85.9022 41.1304 88.8494 53.7136 87.1048 65.1029C85.6247 74.7659 79.3875 83.4888 79.2107 84.5493C78.9119 86.342 86.4926 81.6451 89.9064 79.4493C89.9569 79.5056 89.9929 79.5433 89.9929 79.5433C89.9929 79.5433 88.0675 80.3134 91.9182 79.1582C94.1001 78.5036 97.1465 78.4673 99.378 78.5587C99.3753 79.2277 99.391 79.7593 99.4272 80.1209C99.8123 83.9716 119.066 89.3627 121.762 88.2075C124.457 87.0522 124.072 72.8044 124.072 72.8044Z" fill="#EFEFEF"/>
<path d="M110.594 87.4375C110.594 87.4375 99.0416 97.8346 106.743 99.7599C114.445 101.685 117.525 88.9778 117.525 88.9778L110.594 87.4375Z" fill="#9D616A"/>
<path d="M97.1162 114.393C97.1162 114.393 102.507 109.387 105.588 112.082C108.668 114.778 110.594 116.703 110.594 116.703C110.594 116.703 101.737 111.312 97.1162 114.393Z" fill="#65DDE4"/>
<path d="M91 48.6113C91 48.6113 99 41.1827 103.571 45.1827C108.143 49.1827 111 52.0399 111 52.0399C111 52.0399 97.8571 44.0399 91 48.6113Z" fill="#65DDE4"/>
<path d="M98.5176 174.292C98.5176 174.292 101.556 171.47 103.293 172.989C105.029 174.509 106.114 175.594 106.114 175.594C106.114 175.594 101.122 172.555 98.5176 174.292Z" fill="#EFEFEF"/>
<path d="M64.4756 148.046C64.4756 148.046 66.5615 144.462 68.6648 145.411C70.7682 146.359 72.1222 147.081 72.1222 147.081C72.1222 147.081 66.462 145.627 64.4756 148.046Z" fill="#EFEFEF"/>
<path d="M121.162 31.9368C117.345 24.2638 105.731 28.4486 107.618 36.8083C107.646 36.9329 107.676 37.0587 107.706 37.1858C109.695 45.0992 112.946 52.6405 117.333 59.5202L113.097 78.3889L108.476 88.0158L118.103 90.3263L130.041 61.4456C130.041 61.4456 126.748 43.1649 121.162 31.9368Z" fill="#EFEFEF"/>
<path opacity="0.2" d="M115.601 60.0967L108.284 87.8221L114.445 74.7296L115.601 60.0967Z" fill="black"/>
<path d="M97.0084 3.75886C97.0084 3.75886 90.8355 -2.73987 84.6222 1.35278C78.4089 5.44543 75.4614 9.42105 76.0706 12.1892C76.6798 14.9573 78.4828 18.8077 78.4828 18.8077C78.4828 18.8077 77.3623 13.0729 82.507 12.6485C87.6518 12.2241 94.7597 8.81942 94.7597 8.81942L99.5677 19.087C99.5677 19.087 100.247 16.7077 102.132 17.3902C104.016 18.0726 102.556 4.52004 97.0084 3.75886Z" fill="#2F2E41"/>
<path d="M57.4537 150.59C57.4533 151.565 57.3722 152.539 57.2111 153.501V153.505C56.7689 156.093 55.7446 158.546 54.2156 160.68C52.6865 162.814 50.6926 164.573 48.3844 165.824C46.0762 167.075 43.514 167.785 40.8912 167.901C38.2684 168.017 35.6535 167.536 33.244 166.493H33.2401C32.5272 166.186 31.8363 165.829 31.1723 165.427C29.1144 164.184 27.3371 162.528 25.953 160.562C24.5689 158.597 23.6083 156.365 23.1319 154.009C22.9086 152.883 22.7964 151.738 22.7969 150.59C22.7969 150.066 22.82 149.546 22.8662 149.034V149.03C23.2658 144.608 25.3474 140.508 28.6817 137.577C32.0159 134.645 36.3484 133.105 40.785 133.274C45.2216 133.444 49.424 135.31 52.5249 138.487C55.6258 141.665 57.3887 145.911 57.4499 150.351V150.355C57.4537 150.436 57.4537 150.509 57.4537 150.59Z" fill="#65DDE4"/>
<path d="M44.3916 144.802H36.6307L32.75 138.082L35.3822 133.52L35.536 133.478C38.8681 132.588 42.3873 132.686 45.6645 133.762L45.804 133.808L48.2722 138.082L44.3916 144.802ZM37.0751 144.032H43.9471L47.3829 138.082L45.2845 134.448C42.2393 133.482 38.9843 133.39 35.8893 134.182L33.6394 138.082L37.0751 144.032Z" fill="black"/>
<path d="M44.0058 158.666H36.2449L32.3643 151.945L36.2449 145.224H44.0058L47.8865 151.945L44.0058 158.666ZM36.6894 157.896H43.5614L46.9971 151.945L43.5614 145.994H36.6894L33.2536 151.945L36.6894 157.896Z" fill="black"/>
<path d="M40.1259 168.303C37.7056 168.308 35.3105 167.812 33.0911 166.846L32.6953 166.675L36.6303 159.854H44.3914L48.1606 166.383L47.7862 166.563C45.3971 167.715 42.778 168.31 40.1259 168.303V168.303ZM33.7964 166.307C35.9137 167.159 38.1811 167.575 40.4629 167.53C42.7447 167.485 44.9939 166.98 47.0759 166.045L43.9469 160.625H37.0752L33.7964 166.307Z" fill="black"/>
<path d="M57.0996 151.734H49.3387L45.458 145.014L49.3385 138.291H52.8724L52.9864 138.411C56.051 141.635 57.7835 145.899 57.8363 150.347V150.458L57.0996 151.734ZM49.7831 150.964H56.6551L57.0646 150.255C56.9902 146.093 55.3787 142.106 52.5404 139.061H49.7834L46.3474 145.014L49.7831 150.964Z" fill="black"/>
<path d="M49.2317 165.794L45.458 159.262L49.3385 152.539H57.0992L57.5975 153.398L57.592 153.57C57.1713 156.022 56.2398 158.359 54.8579 160.428C53.4759 162.497 51.6744 164.252 49.5703 165.58L49.2317 165.794ZM46.3474 159.262L49.4953 164.711C51.4024 163.444 53.0335 161.804 54.2905 159.89C55.5474 157.976 56.4044 155.828 56.8097 153.575L56.6555 153.309H49.7833L46.3474 159.262Z" fill="black"/>
<path d="M31.3101 165.96L30.9739 165.757C28.8711 164.486 27.0548 162.793 25.6401 160.784C24.2254 158.775 23.243 156.494 22.7551 154.086L22.7266 153.943L23.5381 152.539H31.2992L35.1797 159.262L31.3101 165.96ZM23.5394 154.076C24.0071 156.287 24.9113 158.382 26.1989 160.239C27.4866 162.096 29.1319 163.678 31.0384 164.891L34.2903 159.262L30.8543 153.309H23.9826L23.5394 154.076Z" fill="black"/>
<path d="M31.2995 150.964H23.5387L22.4824 149.138V149.034C22.8626 144.67 24.8511 140.604 28.0617 137.624L28.1726 137.521H31.2997L35.1802 144.244L31.2995 150.964ZM23.9829 150.193H30.855L34.2908 144.244L30.8548 138.291H28.4765C25.5057 141.094 23.6529 144.881 23.262 148.947L23.9829 150.193Z" fill="black"/>
</svg>
