<svg width="29" height="29" viewBox="0 0 29 29" fill="none" xmlns="http://www.w3.org/2000/svg">
<g id="instagram_logo">
<path id="Vector" d="M22.1125 8.60977C23.0635 8.60977 23.8344 7.83886 23.8344 6.88789C23.8344 5.93693 23.0635 5.16602 22.1125 5.16602C21.1615 5.16602 20.3906 5.93693 20.3906 6.88789C20.3906 7.83886 21.1615 8.60977 22.1125 8.60977Z" fill="#00FFFF"/>
<path id="Vector_2" d="M14.4977 7.29492C10.5102 7.29492 7.29297 10.5121 7.29297 14.4996C7.29297 18.4871 10.5102 21.7043 14.4977 21.7043C18.4852 21.7043 21.7023 18.4871 21.7023 14.4996C21.7023 10.5121 18.4852 7.29492 14.4977 7.29492ZM14.4977 19.4387C11.7789 19.4387 9.55859 17.2184 9.55859 14.4996C9.55859 11.7809 11.7789 9.56055 14.4977 9.56055C17.2164 9.56055 19.4367 11.7809 19.4367 14.4996C19.4367 17.2184 17.2164 19.4387 14.4977 19.4387Z" fill="#00FFFF"/>
<path id="Vector_3" d="M28.9094 8.92656C28.8641 7.52188 28.6375 6.38906 28.2297 5.30156C27.8219 4.21406 27.2328 3.35312 26.4172 2.5375C25.6016 1.72187 24.7406 1.17813 23.6531 0.725C22.5656 0.317188 21.4781 0.090625 20.0281 0.0453125C18.6234 0 18.125 0 14.5 0C10.875 0 10.3766 0 8.92656 0.090625C7.52188 0.135938 6.38906 0.3625 5.30156 0.770313C4.21406 1.17813 3.35312 1.76719 2.5375 2.58281C1.72187 3.39844 1.17813 4.25938 0.725 5.34688C0.317188 6.43438 0.090625 7.52187 0.0453125 8.97187C0 10.3766 0 10.875 0 14.5C0 18.125 0 18.6234 0.090625 20.0734C0.135938 21.4781 0.3625 22.6109 0.770313 23.6984C1.17813 24.7859 1.76719 25.6469 2.58281 26.4625C3.39844 27.2781 4.25938 27.8219 5.34688 28.275C6.43438 28.6828 7.52187 28.9094 8.97187 28.9547C10.3766 29 10.875 29 14.5 29C18.125 29 18.6234 29 20.0734 28.9094C21.4781 28.8641 22.6109 28.6375 23.6984 28.2297C24.7859 27.8219 25.6469 27.2328 26.4625 26.4172C27.2781 25.6016 27.8219 24.7406 28.275 23.6531C28.6828 22.5656 28.9094 21.4781 28.9547 20.0281C29 18.6234 29 18.125 29 14.5C29 10.875 29 10.3766 28.9094 8.92656ZM26.6437 19.9375C26.5984 21.1156 26.4172 21.9766 26.1 22.8375C25.7828 23.6078 25.4203 24.2422 24.8312 24.8312C24.2422 25.4203 23.6531 25.8281 22.8375 26.1C22.0219 26.4172 21.1156 26.5984 19.9375 26.6437C18.5781 26.7344 18.0797 26.7344 14.5 26.7344C10.9203 26.7344 10.4219 26.7344 9.0625 26.6437C7.88438 26.5984 7.02344 26.4172 6.1625 26.1C5.39219 25.7828 4.75781 25.4203 4.16875 24.8312C3.57969 24.2422 3.17188 23.6531 2.9 22.8375C2.58281 22.0219 2.40156 21.1156 2.35625 19.9375C2.26562 18.5328 2.26562 18.0797 2.26562 14.5C2.26562 10.9203 2.26562 10.4672 2.35625 9.0625C2.40156 7.88438 2.58281 7.02344 2.9 6.1625C3.21719 5.39219 3.57969 4.75781 4.16875 4.16875C4.75781 3.57969 5.34688 3.17188 6.1625 2.9C6.97813 2.58281 7.88438 2.40156 9.0625 2.35625C10.4219 2.26562 10.9203 2.26562 14.5 2.26562C18.0797 2.26562 18.5781 2.26562 19.9375 2.35625C21.1156 2.40156 21.9766 2.58281 22.8375 2.9C23.6078 3.21719 24.2422 3.57969 24.8312 4.16875C25.4203 4.75781 25.8281 5.34688 26.1 6.1625C26.4172 6.97813 26.5984 7.88438 26.6437 9.0625C26.7344 10.4219 26.7344 10.9203 26.7344 14.5C26.7344 18.0797 26.7344 18.5781 26.6437 19.9375Z" fill="#00FFFF"/>
</g>
</svg>
