<svg width="243" height="171" viewBox="0 0 243 171" fill="none" xmlns="http://www.w3.org/2000/svg">
<g clip-path="url(#clip0)">
<path d="M192.026 170.59C190.818 170.59 189.615 170.424 188.452 170.097L140.162 157.171L140.304 156.663L188.594 169.589C189.711 169.903 190.866 170.062 192.026 170.063C197.709 170.063 202.749 166.77 204.283 161.299L238.658 38.7128H238.658L238.733 38.446C239.636 35.1978 239.214 31.7242 237.561 28.786C235.908 25.8478 233.158 23.6847 229.913 22.7704L152.292 1.00444C149.042 0.097614 145.566 0.516552 142.625 2.16938C139.684 3.8222 137.518 6.57398 136.603 9.82118L133.907 19.4409L133.398 19.2984L136.095 9.6787C137.048 6.29675 139.303 3.43076 142.366 1.70937C145.429 -0.0120205 149.05 -0.448255 152.434 0.496351L230.055 22.2623C233.393 23.2026 236.23 25.4125 237.959 28.4186C239.688 31.4248 240.172 34.9884 239.306 38.3466L239.308 38.3472L239.237 38.6013L204.791 161.442C203.194 167.139 197.944 170.59 192.026 170.59Z" fill="#00FFFF"/>
<path d="M136.924 22.1798L137.808 22.4279L140.528 23.1904L140.813 22.1719L139.795 21.887L140.689 18.6971L142.839 16.8291L143.412 22.9028L141.829 22.4569L141.544 23.4753L145.607 24.6151L145.892 23.5967L145.029 23.3566L144.201 15.6471L148.422 11.977L149.607 12.3095L149.892 11.291L145.826 10.1512L145.541 11.1697L146.881 11.5443L141.512 15.7632L143 10.4573L144.019 10.7422L144.304 9.72379L140.238 8.58398L139.953 9.60242L141.478 10.0298L138.272 21.4596L136.747 21.0321L136.708 21.1693L136.544 21.7603L136.924 22.1798Z" fill="#00FFFF"/>
<path d="M143.465 31.8114C142.45 32.2511 141.459 32.7452 140.497 33.2916C140.32 33.3918 140.143 33.4947 139.969 33.5976V30.3339C139.97 29.1598 139.804 27.9915 139.476 26.8643C139.629 26.7694 139.784 26.6665 139.937 26.5636C140.077 26.4712 140.22 26.3762 140.359 26.2812C141.228 28.2135 142.267 30.0642 143.465 31.8114V31.8114Z" fill="#00FFFF"/>
<path d="M191.822 161.431L190.638 161.099L190.354 162.115L194.418 163.255L194.703 162.238L193.365 161.863L198.732 157.643L197.244 162.951L196.227 162.666L195.943 163.682L200.007 164.822L200.292 163.806L198.768 163.378L201.973 151.946L203.498 152.374L203.783 151.358L199.718 150.218L199.433 151.234L200.449 151.519L199.555 154.71L197.405 156.578L196.834 150.505L198.417 150.949L198.702 149.933L194.637 148.793L194.352 149.809L195.216 150.051L196.045 157.76L191.822 161.431Z" fill="#00FFFF"/>
<path d="M196.778 141.598C198.681 140.782 200.49 139.765 202.176 138.564C203.08 140.479 204.118 142.327 205.284 144.094C203.394 144.935 201.587 145.951 199.886 147.128C199.016 145.196 197.976 143.346 196.778 141.598V141.598Z" fill="#00FFFF"/>
<path d="M161.182 86.6621C161.182 86.6621 159.847 95.3305 159.45 95.7674C159.054 96.2042 162.221 106.409 162.221 106.409L172.376 100.488C172.376 100.488 174.352 89.5331 175.002 89.1675C175.653 88.8019 161.182 86.6621 161.182 86.6621Z" fill="#FFB8B8"/>
<path opacity="0.1" d="M161.182 86.6621C161.182 86.6621 159.847 95.3305 159.45 95.7674C159.054 96.2042 162.221 106.409 162.221 106.409L172.376 100.488C172.376 100.488 174.352 89.5331 175.002 89.1675C175.653 88.8019 161.182 86.6621 161.182 86.6621Z" fill="black"/>
<path d="M169.037 95.0541C174.574 95.0541 179.063 90.5653 179.063 85.028C179.063 79.4908 174.574 75.002 169.037 75.002C163.5 75.002 159.011 79.4908 159.011 85.028C159.011 90.5653 163.5 95.0541 169.037 95.0541Z" fill="#FFB8B8"/>
<path d="M164.693 100.527L163.819 99.7337L159.892 94.1444C159.892 94.1444 159.441 93.8477 159.014 95.372L158.586 96.8963L154.896 98.3278L146.732 133.305L168.58 139.432L177.578 104.414L173.352 99.9406L172.884 97.7825L166.359 100.446L164.693 100.527Z" fill="white"/>
<path d="M139.97 136.889L140.497 137.036L174.523 146.577L185.9 108.94C185.9 108.94 183.208 106.813 181.103 106.497C181.103 106.497 177.567 102.491 176.045 102.064C174.52 101.637 172.834 97.8768 172.834 97.8768C172.834 97.8768 171.053 104.228 167.993 108.301C164.932 112.375 159.602 126.501 159.602 126.501L158.098 100.594L159.787 94.0801C158.805 94.6617 157.911 95.3804 157.133 96.2146C155.943 97.5232 152.906 98.5892 152.906 98.5892C152.906 98.5892 144.906 100.732 143.492 100.885C142.08 101.035 141.429 101.402 141.429 101.402L140.497 107.811L139.97 111.441V136.889Z" fill="#9E2929"/>
<path d="M144.613 122.299C144.297 124.402 141.041 133.079 141.041 133.079L140.497 133.626L139.97 134.156V102.017C140.117 101.858 140.297 101.733 140.497 101.65C140.795 101.527 141.109 101.443 141.429 101.402L142.447 101.687C142.447 101.687 144.93 120.193 144.613 122.299Z" fill="#9E2929"/>
<path d="M167.79 133.455C167.79 133.455 172.783 124.443 176.563 126.599C180.343 128.755 174.284 134.728 174.284 134.728L167.79 133.455Z" fill="#FFB8B8"/>
<path d="M152.333 129.942C152.333 129.942 142.751 126.98 142.537 127.743C142.323 128.505 139.7 132.975 140.462 133.189C141.224 133.403 147.138 134.787 147.067 135.041C146.996 135.295 149.902 136.658 149.902 136.658L152.333 129.942Z" fill="#FFB8B8"/>
<path d="M171.014 101.445L164.915 101.685L163.645 101.329L158.56 97.9531L156.876 102.993L163.289 102.599L164.559 102.955L169.832 106.626L171.014 101.445Z" fill="#464646"/>
<path d="M154.626 139.357L153.69 141.351L140.234 137.657L139.97 136.89V132.66L140.497 132.866L141.041 133.08L154.626 139.357Z" fill="#9E2929"/>
<path d="M155.128 130.726C155.128 130.726 151.968 129.292 151.896 129.546C151.825 129.8 147.584 137.105 148.601 137.39C149.617 137.675 153.214 139.506 153.214 139.506L155.128 130.726Z" fill="white"/>
<path d="M184.12 108.438L185.898 108.937C185.898 108.937 186.915 109.222 186.995 110.889C187.076 112.555 188.455 120.341 187.805 120.706C187.154 121.072 186.971 120.747 187.337 121.397C187.702 122.048 188.028 121.865 187.631 122.302C187.235 122.739 186.325 136.733 183.376 141.386C180.427 146.04 179.532 148.255 178.515 147.97L152.176 140.584C152.176 140.584 153.349 130.226 154.436 130.257C155.524 130.288 173.338 134.187 173.338 134.187C173.338 134.187 180.238 107.624 184.12 108.438Z" fill="#9E2929"/>
<path d="M163.131 74.0416L161.486 72.8618C161.486 72.8618 166.39 70.1059 171.625 71.9332L170.547 70.0142C170.547 70.0142 174.584 69.7094 176.934 74.1401C178.169 76.4693 179.588 79.198 180.169 81.9862L182.13 82.5362L180.852 83.9441L183.259 86.385L180.4 85.2662C180.282 86.758 179.776 88.193 178.933 89.4289L177.753 91.0738C177.753 91.0738 176.583 84.9981 176.77 84.3321L176.303 85.9972C176.303 85.9972 174.891 83.985 175.171 82.9858L173.846 83.8713L173.86 81.8995L167.185 82.0035L168.604 80.785L164.634 80.2106L166.646 78.7992C166.646 78.7992 161.71 79.7499 161.03 81.5349C160.35 83.3199 157.531 85.0441 157.531 85.0441L156.999 83.0988C156.999 83.0988 157.602 75.1852 163.131 74.0416Z" fill="#2F2E41"/>
<path d="M159.683 77.6499L159.762 77.3082C160.524 73.9891 154.659 67.8163 154.6 67.7544L154.496 67.6457L154.537 67.5007C154.653 67.0869 155.118 66.7194 159.196 67.6033C160.784 67.9475 162.367 68.367 163.03 68.5468C162.956 66.6517 160.607 64.1407 160.582 64.1142L160.286 63.801L160.699 63.6798C163.408 62.8859 166.578 65.519 167.591 66.4514L169.284 60.4121L172.636 65.3619C174.693 62.2822 177.669 62.407 177.799 62.4141L178.216 62.437L178.016 62.8042C176.606 65.3833 176.352 67.0775 176.337 67.9127C180.088 63.4566 183.468 63.8447 183.615 63.8642L184.127 63.9318L183.772 64.3071C178.862 69.4956 178.284 76.3399 178.278 76.4084L178.261 76.6391L159.683 77.6499ZM155.185 67.6065C156.222 68.7303 160.705 73.8018 160.334 77.086L177.777 76.1371C177.92 74.9161 178.805 69.1061 182.976 64.396C181.839 64.4975 179.158 65.1453 176.333 68.755L176.01 69.1687L175.871 68.6621C175.849 68.5822 175.377 66.7266 177.336 62.957C176.438 63.042 174.347 63.5121 172.869 65.9791L172.657 66.3343L169.485 61.6502L167.858 67.4547L167.538 67.1312C167.503 67.0951 164.1 63.6883 161.271 64.0945C161.997 64.9401 163.735 67.1673 163.545 68.9182L163.511 69.2279L163.211 69.1438C159.879 68.2095 156.074 67.4122 155.185 67.6065Z" fill="#E6C44C"/>
<path d="M184.93 62.4709C184.75 62.4204 184.589 62.3175 184.467 62.1754C184.345 62.0332 184.268 61.8582 184.246 61.6723C184.224 61.4865 184.257 61.2982 184.342 61.1313C184.426 60.9644 184.559 60.8263 184.722 60.7346C184.885 60.6429 185.072 60.6017 185.258 60.6161C185.445 60.6305 185.623 60.6999 185.77 60.8156C185.918 60.9312 186.027 61.0879 186.085 61.2659C186.143 61.4438 186.147 61.635 186.097 61.8152C186.029 62.0567 185.868 62.2614 185.649 62.3843C185.43 62.5073 185.172 62.5384 184.93 62.4709V62.4709ZM185.299 61.1565C185.219 61.1342 185.134 61.136 185.056 61.1617C184.977 61.1874 184.908 61.2358 184.856 61.3009C184.805 61.3661 184.775 61.4449 184.768 61.5274C184.762 61.61 184.78 61.6926 184.821 61.7648C184.861 61.837 184.922 61.8955 184.996 61.933C185.07 61.9705 185.153 61.9852 185.235 61.9754C185.318 61.9655 185.395 61.9315 185.458 61.8776C185.521 61.8238 185.566 61.7524 185.589 61.6727C185.619 61.5658 185.605 61.4514 185.55 61.3546C185.496 61.2579 185.406 61.1866 185.299 61.1565V61.1565Z" fill="#E5D9AB"/>
<path d="M178.358 60.6291C178.178 60.5786 178.016 60.4757 177.895 60.3336C177.773 60.1914 177.696 60.0164 177.674 59.8305C177.651 59.6447 177.685 59.4564 177.769 59.2895C177.854 59.1226 177.987 58.9846 178.15 58.8928C178.313 58.8011 178.5 58.7599 178.686 58.7743C178.873 58.7887 179.051 58.8581 179.198 58.9738C179.345 59.0894 179.455 59.2461 179.513 59.4241C179.571 59.602 179.575 59.7932 179.525 59.9734C179.457 60.2149 179.296 60.4196 179.077 60.5425C178.858 60.6655 178.6 60.6966 178.358 60.6291V60.6291ZM178.726 59.3147C178.647 59.2924 178.562 59.2942 178.483 59.3199C178.405 59.3456 178.335 59.394 178.284 59.4592C178.233 59.5243 178.202 59.6031 178.196 59.6856C178.19 59.7682 178.208 59.8508 178.248 59.923C178.289 59.9952 178.35 60.0537 178.424 60.0912C178.498 60.1287 178.581 60.1434 178.663 60.1336C178.745 60.1237 178.823 60.0897 178.886 60.0358C178.949 59.982 178.994 59.9107 179.017 59.8309C179.046 59.724 179.033 59.6096 178.978 59.5128C178.924 59.4161 178.833 59.3448 178.726 59.3147V59.3147Z" fill="#E5D9AB"/>
<path d="M168.369 59.6018C168.188 59.5512 168.027 59.4484 167.905 59.3062C167.784 59.1641 167.707 58.989 167.684 58.8032C167.662 58.6173 167.696 58.429 167.78 58.2621C167.865 58.0952 167.997 57.9572 168.16 57.8655C168.324 57.7738 168.51 57.7325 168.697 57.7469C168.884 57.7614 169.062 57.8308 169.209 57.9464C169.356 58.0621 169.466 58.2188 169.524 58.3967C169.582 58.5747 169.586 58.7658 169.535 58.946C169.467 59.1876 169.306 59.3923 169.088 59.5152C168.869 59.6381 168.61 59.6693 168.369 59.6018ZM168.737 58.2874C168.657 58.265 168.573 58.2668 168.494 58.2925C168.415 58.3182 168.346 58.3667 168.295 58.4318C168.244 58.4969 168.213 58.5757 168.207 58.6583C168.2 58.7409 168.219 58.8235 168.259 58.8957C168.3 58.9679 168.361 59.0264 168.435 59.0639C168.508 59.1014 168.592 59.1161 168.674 59.1062C168.756 59.0964 168.834 59.0624 168.897 59.0085C168.959 58.9546 169.005 58.8833 169.027 58.8036C169.057 58.6967 169.043 58.5823 168.989 58.4855C168.935 58.3887 168.844 58.3175 168.737 58.2874V58.2874Z" fill="#E5D9AB"/>
<path d="M152.42 67.1799C152.24 67.1293 152.079 67.0265 151.957 66.8844C151.835 66.7422 151.758 66.5671 151.736 66.3813C151.714 66.1954 151.747 66.0072 151.832 65.8403C151.917 65.6734 152.049 65.5353 152.212 65.4436C152.375 65.3519 152.562 65.3107 152.749 65.3251C152.935 65.3395 153.113 65.4089 153.261 65.5246C153.408 65.6402 153.517 65.7969 153.576 65.9749C153.634 66.1528 153.638 66.3439 153.587 66.5242C153.519 66.7657 153.358 66.9704 153.139 67.0933C152.921 67.2162 152.662 67.2474 152.42 67.1799V67.1799ZM152.789 65.8655C152.709 65.8431 152.625 65.8449 152.546 65.8706C152.467 65.8964 152.398 65.9448 152.347 66.0099C152.296 66.075 152.265 66.1539 152.258 66.2364C152.252 66.319 152.27 66.4016 152.311 66.4738C152.351 66.546 152.413 66.6045 152.486 66.642C152.56 66.6795 152.643 66.6942 152.726 66.6844C152.808 66.6745 152.885 66.6405 152.948 66.5866C153.011 66.5327 153.057 66.4614 153.079 66.3817C153.109 66.2748 153.095 66.1604 153.041 66.0636C152.986 65.9669 152.896 65.8956 152.789 65.8655V65.8655Z" fill="#E5D9AB"/>
<path d="M158.587 62.883C158.407 62.8325 158.246 62.7296 158.124 62.5875C158.002 62.4453 157.925 62.2703 157.903 62.0844C157.881 61.8986 157.914 61.7103 157.999 61.5434C158.084 61.3765 158.216 61.2384 158.379 61.1467C158.542 61.055 158.729 61.0138 158.916 61.0282C159.102 61.0426 159.281 61.112 159.428 61.2277C159.575 61.3433 159.684 61.5 159.743 61.678C159.801 61.8559 159.805 62.0471 159.754 62.2273C159.686 62.4688 159.525 62.6735 159.306 62.7964C159.088 62.9193 158.829 62.9505 158.587 62.883V62.883ZM158.956 61.5686C158.876 61.5463 158.792 61.5481 158.713 61.5738C158.634 61.5995 158.565 61.6479 158.514 61.7131C158.463 61.7782 158.432 61.857 158.425 61.9395C158.419 62.0221 158.437 62.1047 158.478 62.1769C158.518 62.2491 158.579 62.3076 158.653 62.3451C158.727 62.3826 158.81 62.3974 158.893 62.3875C158.975 62.3776 159.052 62.3436 159.115 62.2897C159.178 62.2359 159.224 62.1646 159.246 62.0848C159.276 61.9779 159.262 61.8635 159.208 61.7667C159.153 61.67 159.063 61.5987 158.956 61.5686Z" fill="#E5D9AB"/>
<path d="M190.038 151.75L189.785 151.679L140.05 137.733L140.192 137.225L189.673 151.1L220.947 39.5743L151.211 20.0198L140.575 57.9513L140.067 57.8088L150.846 19.3691L151.1 19.4404L221.597 39.2089L221.526 39.4627L190.038 151.75Z" fill="#00FFFF"/>
<path d="M10.9843 161.961C14.2635 168.043 21.223 170.653 21.223 170.653C21.223 170.653 22.866 163.404 19.5868 157.323C16.3077 151.241 9.34812 148.631 9.34812 148.631C9.34812 148.631 7.70514 155.88 10.9843 161.961Z" fill="#5CD848"/>
<path d="M13.2388 159.96C19.159 163.522 21.4391 170.597 21.4391 170.597C21.4391 170.597 14.1205 171.897 8.2003 168.335C2.28007 164.773 0 157.698 0 157.698C0 157.698 7.31852 156.398 13.2388 159.96Z" fill="#00FFFF"/>
<path d="M139.938 26.5624C139.484 25.0669 138.762 23.6661 137.809 22.428C137.469 21.9856 137.101 21.5652 136.708 21.1695C135.503 19.9562 134.07 18.9935 132.491 18.3368C130.912 17.6802 129.218 17.3427 127.508 17.3438H46.8933C43.4495 17.3472 40.1477 18.7168 37.7125 21.152C35.2774 23.5872 33.9078 26.8889 33.9043 30.3328V157.912C33.9078 161.356 35.2774 164.657 37.7125 167.092C40.1477 169.528 43.4495 170.897 46.8933 170.901H127.508C130.952 170.897 134.254 169.528 136.689 167.092C139.124 164.657 140.494 161.356 140.497 157.912V30.3328C140.498 29.0552 140.31 27.7846 139.938 26.5624V26.5624ZM139.969 157.912C139.965 161.215 138.651 164.383 136.315 166.719C133.979 169.055 130.812 170.369 127.508 170.373H46.8933C43.5896 170.369 40.4223 169.055 38.0862 166.719C35.7501 164.383 34.436 161.215 34.432 157.912V30.3328C34.436 27.029 35.7501 23.8618 38.0862 21.5257C40.4223 19.1896 43.5896 17.8754 46.8933 17.8714H127.508C129.2 17.8707 130.874 18.2152 132.428 18.8839C133.981 19.5526 135.382 20.5315 136.545 21.7605C136.674 21.8977 136.801 22.0375 136.925 22.18C138.889 24.442 139.97 27.3371 139.969 30.3328V157.912Z" fill="#00FFFF"/>
<path d="M46.7641 37.8469C46.7495 37.8125 46.7314 37.7812 46.7153 37.7482C47.3103 36.5838 47.6106 35.2911 47.5898 33.9836C47.5898 29.8937 45.0339 27.0371 41.3745 27.0371C37.7151 27.0371 35.1592 29.8937 35.1592 33.9836C35.1592 38.0736 37.7151 40.9302 41.3745 40.9302C42.2383 40.9476 43.0952 40.774 43.8841 40.4218C44.673 40.0695 45.3743 39.5473 45.9378 38.8924C47.1096 40.7884 49.3747 41.0386 49.479 41.0491L49.6026 39.8366C49.5173 39.8274 47.5065 39.5921 46.7641 37.8469ZM41.3745 39.7115C38.4325 39.7115 36.3779 37.3561 36.3779 33.9836C36.3779 30.6112 38.4325 28.2558 41.3745 28.2558C44.3165 28.2558 46.3711 30.6112 46.3711 33.9836C46.383 34.9451 46.1934 35.8984 45.8144 36.7822C43.9954 35.677 40.6112 36.3374 40.1522 36.4341L40.4029 37.6267C41.646 37.3665 44.119 37.1577 45.1955 37.8331C44.7535 38.4271 44.1764 38.9073 43.512 39.234C42.8475 39.5606 42.1148 39.7243 41.3745 39.7115V39.7115Z" fill="#00FFFF"/>
<path d="M41.8194 43.8292C41.4228 43.4331 40.8851 43.2107 40.3246 43.2109C39.7641 43.2111 39.2266 43.4339 38.8302 43.8302C38.4339 44.2266 38.2111 44.7641 38.2109 45.3246C38.2107 45.8851 38.4331 46.4228 38.8292 46.8194L41.8194 49.8096L44.8096 46.8194C45.2049 46.4226 45.4265 45.8852 45.4259 45.3252C45.4254 44.7651 45.2027 44.2282 44.8066 43.8322C44.4106 43.4362 43.8737 43.2134 43.3136 43.2129C42.7536 43.2123 42.2162 43.434 41.8194 43.8292V43.8292Z" fill="#00FFFF"/>
<path d="M127.636 151.216C127.651 151.25 127.669 151.281 127.685 151.315C127.09 152.479 126.79 153.772 126.811 155.079C126.811 159.169 129.367 162.026 133.026 162.026C136.685 162.026 139.241 159.169 139.241 155.079C139.241 150.989 136.685 148.133 133.026 148.133C132.162 148.115 131.305 148.289 130.516 148.641C129.727 148.993 129.026 149.515 128.463 150.17C127.291 148.274 125.026 148.024 124.921 148.014L124.798 149.226C124.883 149.235 126.894 149.471 127.636 151.216ZM133.026 149.351C135.968 149.351 138.023 151.707 138.023 155.079C138.023 158.452 135.968 160.807 133.026 160.807C130.084 160.807 128.029 158.452 128.029 155.079C128.017 154.118 128.207 153.164 128.586 152.281C130.405 153.386 133.789 152.725 134.248 152.629L133.998 151.436C132.754 151.696 130.281 151.905 129.205 151.23C129.647 150.636 130.224 150.155 130.888 149.829C131.553 149.502 132.286 149.338 133.026 149.351V149.351Z" fill="#00FFFF"/>
<path d="M132.581 145.232C132.978 145.628 133.515 145.85 134.075 145.849C134.635 145.849 135.173 145.626 135.569 145.23C135.965 144.834 136.188 144.297 136.188 143.737C136.188 143.176 135.967 142.639 135.571 142.242L132.581 139.252L129.591 142.242C129.195 142.639 128.973 143.176 128.974 143.737C128.974 144.297 129.197 144.834 129.593 145.23C129.989 145.626 130.526 145.849 131.086 145.849C131.647 145.85 132.184 145.628 132.581 145.232V145.232Z" fill="#00FFFF"/>
<path d="M93.7038 89.8243C90.1118 83.755 83.0053 83.4721 83.0053 83.4721C83.0053 83.4721 76.0804 82.5866 71.6381 91.8303C67.4976 100.446 61.7831 108.765 70.7182 110.782L72.3321 105.759L73.3316 111.156C74.6038 111.247 75.88 111.269 77.1545 111.221C86.7232 110.912 95.836 111.312 95.5426 107.878C95.1525 103.313 97.16 95.6643 93.7038 89.8243Z" fill="#2F2E41"/>
<path d="M80.4517 110.504C80.4691 111.188 80.4639 111.908 80.1244 112.501C79.4514 113.677 77.8085 113.853 76.8203 114.78C75.7811 115.754 75.6634 117.336 75.6139 118.76C75.5621 120.248 75.5182 121.786 76.0615 123.172C76.3942 123.936 76.8148 124.659 77.3148 125.326C77.9182 126.195 78.5271 127.061 79.1416 127.923C79.4698 128.409 79.8355 128.868 80.2354 129.296C81.3359 130.417 82.8455 131.037 84.3527 131.48C85.3265 131.766 86.378 131.989 87.3442 131.678C87.9835 131.429 88.5727 131.066 89.0838 130.609C89.8025 130.038 90.5321 129.455 91.053 128.7C91.8643 127.523 92.0889 126.05 92.2571 124.63C92.7543 120.432 92.9477 116.204 92.836 111.978C92.8564 111.518 92.7739 111.059 92.5944 110.634C92.094 109.657 90.7538 109.448 90.0476 108.608C89.4438 107.889 89.4192 106.864 89.4243 105.925L89.4375 103.536C89.4585 103.335 89.418 103.132 89.3213 102.954C89.2338 102.858 89.1281 102.78 89.0105 102.726C88.8929 102.671 88.7656 102.64 88.636 102.634C87.1509 102.388 85.6454 102.287 84.1407 102.333C82.9209 102.371 80.5803 102.268 79.5255 102.948C78.5681 103.565 79.7669 105.268 79.9886 106.225C80.2868 107.632 80.4419 109.066 80.4517 110.504Z" fill="#A0616A"/>
<path d="M83.2514 106.401C88.5851 106.401 92.909 102.077 92.909 96.7436C92.909 91.4098 88.5851 87.0859 83.2514 87.0859C77.9176 87.0859 73.5938 91.4098 73.5938 96.7436C73.5938 102.077 77.9176 106.401 83.2514 106.401Z" fill="#A0616A"/>
<path d="M79.2755 120.665C78.6612 119.752 78.1558 118.771 77.7694 117.74C77.424 116.696 77.3334 115.53 77.7431 114.51C76.6995 113.904 75.2826 114.394 74.5226 115.332C73.7626 116.269 73.53 117.525 73.463 118.73C73.396 119.934 73.467 121.157 73.2049 122.334C72.6248 124.94 70.4725 127.082 70.3124 129.747C70.155 132.368 71.9526 134.652 72.8369 137.125C73.3729 138.666 73.597 140.298 73.496 141.927C73.4674 142.453 73.4344 143.052 73.8053 143.426C73.9983 143.594 74.2268 143.718 74.4738 143.786C78.7411 145.287 83.3505 145.417 87.8727 145.532L95.3421 145.721C95.7938 145.775 96.2515 145.698 96.6611 145.5C97.3312 145.089 97.4209 144.168 97.4323 143.382C97.5304 136.613 97.2424 129.845 96.9546 123.081C96.8502 120.629 96.7441 118.163 96.2242 115.765C96.0919 115.155 95.8748 114.476 95.3111 114.206C94.8339 113.978 94.2678 114.126 93.7717 114.309C91.4565 115.17 89.4555 116.71 88.0309 118.728C86.4983 120.909 85.7444 123.526 84.2445 125.724C83.156 127.319 82.5265 125.929 81.8013 124.754C80.9597 123.391 80.1177 122.028 79.2755 120.665Z" fill="white"/>
<path d="M78.1197 114.676C77.9297 114.81 77.7424 114.953 77.563 115.103C76.8908 115.658 76.2883 116.292 75.7689 116.992C74.909 118.165 74.2246 119.456 73.7373 120.826C72.8613 123.227 72.4814 125.775 72.1173 128.303C71.9583 129.234 71.8728 130.176 71.8613 131.121C71.9167 134.593 73.9695 137.809 73.9721 141.284C73.9721 141.416 73.9695 141.545 73.9615 141.677C73.937 142.246 73.87 142.812 73.761 143.371C73.6106 144.187 73.3943 144.991 73.1806 145.793C72.6423 147.804 72.0619 149.888 71.0118 151.653C70.9062 151.833 70.7928 152.009 70.6767 152.181H63.2891C63.3471 152.004 63.4078 151.83 63.4658 151.653C64.7244 147.925 65.982 144.198 67.2388 140.472C67.624 139.332 68.0092 138.187 68.281 137.015C68.5919 135.569 68.8043 134.103 68.9169 132.628C69.2071 129.57 69.3979 126.505 69.4894 123.435C69.5237 122.332 69.5475 121.206 69.9036 120.161C70.2376 119.31 70.6791 118.504 71.2176 117.765C71.9801 116.617 72.7426 115.47 73.5051 114.322C73.9299 113.684 74.3758 113.027 75.0301 112.628C75.5763 112.293 76.2253 112.172 76.8005 111.889C77.1625 111.684 77.5098 111.454 77.8401 111.201C78.7002 110.591 79.7107 109.95 80.4521 110.573C80.5723 110.673 80.6757 110.791 80.7582 110.924C80.8004 110.989 80.8383 111.057 80.8716 111.127C81.584 112.668 79.0775 113.998 78.1197 114.676Z" fill="#9E2929"/>
<path d="M102.455 152.181H68.2393C68.4239 152.012 68.606 151.835 68.7828 151.653C68.8092 151.626 68.8329 151.6 68.8593 151.574C70.1679 150.215 70.4661 148.545 71.1231 146.777C71.6165 145.445 72.1098 144.113 72.6032 142.782C72.6813 142.523 72.8095 142.282 72.9805 142.073C73.1235 141.925 73.3027 141.818 73.5003 141.761C73.6495 141.716 73.8036 141.687 73.9594 141.677C74.1817 141.662 74.4046 141.662 74.6269 141.677C80.7666 141.994 86.9018 142.38 93.0326 142.835C93.8242 142.896 94.6157 142.957 95.4072 143.017C96.0536 143.497 96.6922 144.007 97.3016 144.545C99.2831 146.286 101.001 148.336 101.985 150.758C102.104 151.051 102.212 151.349 102.301 151.653C102.36 151.827 102.41 152.004 102.455 152.181Z" fill="#9E2929"/>
<path d="M92.1149 89.2383L85.094 85.5605L75.3986 87.065L73.3926 95.9249L78.3861 95.7328L79.781 92.4777V95.679L82.0852 95.5903L83.4223 90.4084L84.2582 95.9249L92.4492 95.7576L92.1149 89.2383Z" fill="#2F2E41"/>
<path d="M102.456 152.18H94.731C94.6756 152.006 94.6228 151.829 94.5727 151.652C94.0271 149.689 93.6267 147.689 93.3748 145.668C93.293 145.09 93.2218 144.51 93.1558 143.932C93.1136 143.565 93.074 143.201 93.0345 142.834C92.5912 138.761 92.2509 134.647 91.0055 130.748C90.8551 130.275 90.6915 129.806 90.5332 129.336C90.2408 128.527 90.0114 127.697 89.8472 126.853C89.5095 124.922 89.7628 122.922 89.4145 120.993C89.2193 119.917 88.8314 118.97 88.5966 117.983C88.4471 117.387 88.3884 116.773 88.4225 116.16C88.991 115.623 89.7066 115.269 90.4778 115.141C90.7443 115.096 91.0451 115.062 91.206 114.848C91.301 114.686 91.3434 114.498 91.3274 114.31C91.3459 113.066 91.2745 111.822 91.1137 110.587C91.0609 110.155 90.995 109.722 90.9158 109.292C90.9132 109.271 90.9079 109.252 90.9053 109.231C91.549 108.952 92.2746 108.949 92.9738 108.952C93.7363 108.954 94.4962 108.954 95.256 108.957C96.6623 108.962 98.0686 108.967 99.4749 108.97C100.784 108.973 102.137 108.986 103.327 109.527C104.557 110.089 105.491 111.173 106.108 112.376C106.725 113.579 107.06 114.904 107.364 116.22C107.448 116.585 107.492 116.957 107.496 117.331C107.554 120.302 105.338 123.294 105.116 126.331C105.045 127.315 105.126 128.307 105.037 129.291C104.947 130.278 104.683 131.244 104.636 132.231C104.633 132.281 104.63 132.333 104.63 132.384C104.601 133.668 104.976 134.927 105.409 136.138C106.079 138.019 106.894 139.842 107.736 141.655C108.548 143.41 109.382 145.156 110.132 146.935C110.521 147.76 110.784 148.64 110.91 149.544C110.993 150.271 110.854 151.006 110.511 151.652C110.424 151.812 110.318 151.961 110.197 152.098L110.192 152.103C110.168 152.13 110.145 152.156 110.121 152.18H102.456V152.18Z" fill="#9E2929"/>
<path d="M109.814 149.475C109.782 149.826 109.686 150.168 109.532 150.486C109.518 150.517 109.505 150.546 109.492 150.578C109.339 150.939 109.183 151.296 109.022 151.654C108.943 151.828 108.864 152.005 108.782 152.182H104.413C104.571 152.017 104.718 151.84 104.851 151.654C105.521 150.723 105.909 149.591 106.592 148.586C106.685 148.448 106.792 148.321 106.912 148.206C108.007 147.145 109.883 147.362 109.814 149.475Z" fill="#FFB8B8"/>
<path d="M112.658 152.182C112.714 152.009 112.761 151.833 112.798 151.654C112.83 151.515 112.856 151.377 112.877 151.238C113.017 150.317 113.014 149.375 113.233 148.47C113.542 147.174 114.468 145.641 113.706 144.552C114.299 144.43 114.858 144.18 115.344 143.818C115.798 143.423 116.062 142.737 115.787 142.198C115.515 141.668 114.779 141.317 114.88 140.729C114.93 140.542 115.018 140.368 115.138 140.217C115.538 139.586 115.745 138.851 115.733 138.104C115.722 137.357 115.492 136.629 115.072 136.011C114.832 135.668 114.537 135.367 114.318 135.009C114.078 134.57 113.895 134.103 113.771 133.618C113.01 131.163 111.887 128.835 110.439 126.711C110.118 126.302 109.869 125.842 109.703 125.349C109.606 124.816 109.586 124.271 109.645 123.732C109.698 121.6 108.901 119.518 107.753 117.724C107.669 117.592 107.582 117.463 107.495 117.334C106.386 115.7 105.012 114.268 103.643 112.846C103.078 113.11 102.579 113.281 102.286 113.83C102.143 114.139 102.054 114.471 102.025 114.811C101.65 117.423 101.326 120.051 101.073 122.677C100.946 124.004 100.817 125.341 100.967 126.666C101.118 127.99 101.569 129.317 102.466 130.302C103.028 130.919 103.74 131.378 104.35 131.948C104.447 132.04 104.542 132.135 104.635 132.233C105.074 132.701 105.464 133.213 105.798 133.761C107.26 136.123 107.938 138.887 107.735 141.657C107.698 142.157 107.632 142.654 107.537 143.146C107.421 143.85 107.183 144.528 106.835 145.151C106.558 145.607 106.194 146.006 105.943 146.478C105.693 146.95 105.574 147.539 105.822 148.011C106.194 148.01 106.563 148.077 106.912 148.206C107.733 148.523 108.447 149.067 108.97 149.776C109.162 150.031 109.337 150.299 109.492 150.578C109.688 150.926 109.862 151.285 110.014 151.654C110.078 151.8 110.138 151.95 110.196 152.1C110.21 152.127 110.22 152.154 110.228 152.182H112.658Z" fill="#9E2929"/>
<path d="M102.303 151.654C102.362 151.828 102.412 152.004 102.457 152.181H104.414C104.572 152.016 104.719 151.839 104.852 151.654H102.303ZM50.5928 35.8262V152.181H123.546V35.8262H50.5928ZM123.018 151.654H51.1205V36.3539H123.018V151.654ZM102.303 151.654C102.362 151.828 102.412 152.004 102.457 152.181H104.414C104.572 152.016 104.719 151.839 104.852 151.654H102.303Z" fill="#00FFFF"/>
<path d="M74.5625 86.7314L74.6077 86.5046C74.6211 86.4372 75.9124 79.6909 72.5854 73.3693L72.3447 72.9121L72.8562 72.9853C73.003 73.0063 76.3624 73.5452 78.7708 78.8485C78.9822 78.0403 79.195 76.3405 78.534 73.4765L78.4399 73.0688L78.8483 73.1596C78.9755 73.1878 81.8744 73.8711 83.0237 77.3919L87.5869 73.5308V79.803C88.8141 79.1788 92.5773 77.4994 94.9709 78.9951L95.336 79.2234L94.9669 79.4451C94.9356 79.4639 91.9955 81.2473 91.4126 83.0521C92.0994 83.0579 93.7372 83.0814 95.3589 83.1787C99.524 83.4286 99.8728 83.9082 99.8728 84.3379V84.4885L99.7432 84.565C99.6694 84.6087 92.3559 88.9687 92.1938 92.3705L92.1771 92.7206L74.5625 86.7314ZM91.0771 83.5779H90.7656L90.8169 83.2707C91.1063 81.5334 93.3807 79.8581 94.3083 79.24C91.6939 78.085 87.498 80.4466 87.4539 80.4717L87.0592 80.697V74.6686L82.7409 78.3225L82.6319 77.9231C81.8752 75.1487 79.9888 74.1315 79.1471 73.8072C80.0155 77.9657 79.0598 79.6249 79.0173 79.6959L78.7472 80.1463L78.5471 79.6606C76.8021 75.4224 74.3954 74.0747 73.3285 73.67C76.0724 79.3313 75.3555 85.1643 75.1643 86.3788L91.703 92.002C92.2321 88.7395 97.9186 85.067 99.2204 84.2649C98.4169 83.8378 94.5375 83.5779 91.0771 83.5779V83.5779Z" fill="#E6C44C"/>
<path d="M71.0195 70.3448C71.0195 70.1576 71.075 69.9747 71.179 69.819C71.283 69.6634 71.4308 69.5421 71.6038 69.4705C71.7767 69.3989 71.967 69.3801 72.1505 69.4166C72.3341 69.4531 72.5028 69.5433 72.6351 69.6756C72.7675 69.808 72.8576 69.9766 72.8941 70.1602C72.9306 70.3438 72.9119 70.5341 72.8403 70.707C72.7686 70.8799 72.6473 71.0277 72.4917 71.1317C72.3361 71.2357 72.1531 71.2912 71.9659 71.2912C71.715 71.2909 71.4744 71.1912 71.297 71.0137C71.1196 70.8363 71.0198 70.5957 71.0195 70.3448V70.3448ZM71.5472 70.3448C71.5472 70.4276 71.5718 70.5086 71.6178 70.5774C71.6638 70.6463 71.7292 70.7 71.8057 70.7316C71.8822 70.7633 71.9664 70.7716 72.0476 70.7555C72.1288 70.7393 72.2034 70.6994 72.262 70.6409C72.3205 70.5823 72.3604 70.5077 72.3766 70.4265C72.3927 70.3453 72.3844 70.2611 72.3527 70.1846C72.3211 70.1081 72.2674 70.0427 72.1985 69.9967C72.1297 69.9507 72.0487 69.9261 71.9659 69.9261C71.8549 69.9263 71.7485 69.9704 71.67 70.0489C71.5915 70.1274 71.5473 70.2338 71.5472 70.3448V70.3448Z" fill="#E5D9AB"/>
<path d="M77.8447 70.3448C77.8447 70.1576 77.9002 69.9747 78.0042 69.819C78.1082 69.6634 78.256 69.5421 78.429 69.4705C78.6019 69.3989 78.7922 69.3801 78.9757 69.4166C79.1593 69.4531 79.328 69.5433 79.4603 69.6756C79.5927 69.808 79.6828 69.9766 79.7193 70.1602C79.7558 70.3438 79.7371 70.5341 79.6655 70.707C79.5938 70.8799 79.4725 71.0277 79.3169 71.1317C79.1613 71.2357 78.9783 71.2912 78.7911 71.2912C78.5402 71.2909 78.2996 71.1912 78.1222 71.0137C77.9448 70.8363 77.845 70.5957 77.8447 70.3448V70.3448ZM78.3724 70.3448C78.3724 70.4276 78.397 70.5086 78.443 70.5774C78.489 70.6463 78.5544 70.7 78.6309 70.7316C78.7074 70.7633 78.7916 70.7716 78.8728 70.7555C78.954 70.7393 79.0286 70.6994 79.0872 70.6409C79.1457 70.5823 79.1856 70.5077 79.2018 70.4265C79.2179 70.3453 79.2096 70.2611 79.1779 70.1846C79.1462 70.1081 79.0926 70.0427 79.0237 69.9967C78.9549 69.9507 78.8739 69.9261 78.7911 69.9261C78.6801 69.9263 78.5737 69.9704 78.4952 70.0489C78.4167 70.1274 78.3725 70.2338 78.3724 70.3448V70.3448Z" fill="#E5D9AB"/>
<path d="M87.7412 72.0519C87.7412 71.8647 87.7967 71.6817 87.9007 71.5261C88.0047 71.3704 88.1525 71.2491 88.3254 71.1775C88.4984 71.1059 88.6886 71.0871 88.8722 71.1237C89.0558 71.1602 89.2244 71.2503 89.3568 71.3827C89.4891 71.515 89.5793 71.6836 89.6158 71.8672C89.6523 72.0508 89.6336 72.2411 89.5619 72.414C89.4903 72.587 89.369 72.7348 89.2134 72.8388C89.0577 72.9427 88.8748 72.9982 88.6876 72.9982C88.4367 72.998 88.1961 72.8982 88.0187 72.7208C87.8413 72.5433 87.7415 72.3028 87.7412 72.0519V72.0519ZM88.2689 72.0519C88.2689 72.1347 88.2935 72.2156 88.3395 72.2845C88.3855 72.3533 88.4509 72.407 88.5274 72.4387C88.6039 72.4704 88.6881 72.4787 88.7693 72.4625C88.8505 72.4464 88.9251 72.4065 88.9837 72.3479C89.0422 72.2894 89.0821 72.2148 89.0982 72.1335C89.1144 72.0523 89.1061 71.9681 89.0744 71.8916C89.0427 71.8151 88.9891 71.7497 88.9202 71.7037C88.8514 71.6577 88.7704 71.6332 88.6876 71.6332C88.5766 71.6333 88.4702 71.6774 88.3917 71.7559C88.3132 71.8344 88.269 71.9409 88.2689 72.0519V72.0519Z" fill="#E5D9AB"/>
<path d="M101.052 83.6554C101.052 83.4682 101.107 83.2852 101.211 83.1296C101.315 82.974 101.463 82.8527 101.636 82.781C101.809 82.7094 101.999 82.6907 102.183 82.7272C102.366 82.7637 102.535 82.8538 102.667 82.9862C102.8 83.1185 102.89 83.2872 102.926 83.4707C102.963 83.6543 102.944 83.8446 102.872 84.0175C102.801 84.1905 102.68 84.3383 102.524 84.4423C102.368 84.5463 102.185 84.6018 101.998 84.6018C101.747 84.6015 101.507 84.5017 101.329 84.3243C101.152 84.1468 101.052 83.9063 101.052 83.6554V83.6554ZM101.579 83.6554C101.579 83.7382 101.604 83.8191 101.65 83.888C101.696 83.9568 101.761 84.0105 101.838 84.0422C101.914 84.0739 101.999 84.0822 102.08 84.066C102.161 84.0499 102.236 84.01 102.294 83.9514C102.353 83.8929 102.393 83.8183 102.409 83.7371C102.425 83.6558 102.417 83.5717 102.385 83.4951C102.353 83.4186 102.3 83.3532 102.231 83.3072C102.162 83.2612 102.081 83.2367 101.998 83.2367C101.887 83.2368 101.781 83.281 101.702 83.3594C101.624 83.4379 101.58 83.5444 101.579 83.6554V83.6554Z" fill="#E5D9AB"/>
<path d="M96.2734 77.8528C96.2734 77.6656 96.3289 77.4826 96.4329 77.3269C96.5369 77.1713 96.6847 77.0499 96.8577 76.9783C97.0306 76.9067 97.2209 76.8879 97.4045 76.9244C97.5881 76.961 97.7568 77.0511 97.8891 77.1835C98.0215 77.3158 98.1116 77.4845 98.1482 77.6681C98.1847 77.8517 98.1659 78.042 98.0943 78.2149C98.0226 78.3879 97.9013 78.5357 97.7457 78.6397C97.59 78.7437 97.407 78.7992 97.2198 78.7991C96.9689 78.7989 96.7283 78.6991 96.5509 78.5217C96.3735 78.3442 96.2737 78.1037 96.2734 77.8528V77.8528ZM96.8011 77.8528C96.8011 77.9356 96.8257 78.0166 96.8717 78.0854C96.9177 78.1543 96.9831 78.208 97.0596 78.2397C97.1361 78.2714 97.2203 78.2797 97.3016 78.2635C97.3828 78.2474 97.4574 78.2075 97.516 78.1489C97.5746 78.0904 97.6144 78.0157 97.6306 77.9345C97.6468 77.8533 97.6385 77.7691 97.6068 77.6925C97.5751 77.616 97.5214 77.5506 97.4525 77.5046C97.3836 77.4586 97.3027 77.434 97.2198 77.4341C97.1088 77.4342 97.0024 77.4783 96.9239 77.5568C96.8454 77.6353 96.8013 77.7418 96.8011 77.8528Z" fill="#E5D9AB"/>
<path d="M243 170.254H3.16602V170.782H243V170.254Z" fill="#BCBCBC"/>
</g>
<defs>
<clipPath id="clip0">
<rect width="243" height="170.901" fill="white"/>
</clipPath>
</defs>
</svg>
