<svg width="125" height="177" viewBox="0 0 125 177" fill="none" xmlns="http://www.w3.org/2000/svg">
<path d="M125 71.8993C124.917 70.8235 124.917 69.7477 124.959 68.6305C124.876 67.5547 124.834 66.4375 124.876 65.3617V64.8652C124.752 64.2859 124.752 63.6653 124.793 63.086C124.71 62.755 124.71 62.4653 124.752 62.1343L124.545 58.8655V58.5345C124.503 58.4518 124.462 58.369 124.462 58.2863C124.462 58.2035 124.462 58.1207 124.503 58.038C124.379 57.2518 124.297 56.4243 124.338 55.5967L123.635 49.0592L123.262 46.4524C123.221 46.4111 123.179 46.3697 123.179 46.2869C123.179 46.2455 123.179 46.1628 123.179 46.1214C123.179 45.9973 123.138 45.9145 123.138 45.7904L122.6 42.5216C122.31 41.4872 122.104 40.4528 121.938 39.4183C121.648 38.3012 121.4 37.1426 121.111 36.0254C121.069 35.9013 121.028 35.7772 121.028 35.6944C120.697 34.7841 120.407 33.8738 120.2 32.9221L119 29.5292C118.049 27.2949 117.014 25.1433 115.814 22.9917C113.663 19.516 110.932 16.4955 107.829 13.8473C106.835 12.9784 105.76 12.275 104.684 11.4888L102.45 10.0406C102.119 9.95789 101.829 9.751 101.581 9.54412C99.4704 8.42694 97.2774 7.39251 95.0844 6.39947L91.8156 5.15815L85.1539 3.17206L84.8229 3.13068C84.7815 3.13068 84.6988 3.13068 84.6574 3.13068C84.616 3.13068 84.5333 3.0893 84.4919 3.04793L82.0506 2.51002L78.7819 1.88937L75.5131 1.39284C75.3476 1.39284 75.1407 1.39284 74.9338 1.39284C70.2168 0.813567 65.4171 0.523927 60.6587 0.606681C58.0106 0.648058 55.3625 0.854944 52.7143 1.02045L49.4869 1.39284L45.8871 1.93075L42.9907 2.51002L39.7633 3.25481L33.2671 5.19953L29.957 6.48222C29.6673 6.6891 29.2949 6.81324 28.9639 6.89599C28.3019 7.26838 27.5985 7.5994 26.8951 7.84766L23.5022 9.66825C20.8954 11.3233 18.33 13.0198 16.0543 15.0886C14.3578 16.661 12.7855 18.316 11.3373 20.0953L10.6753 21.0056L9.14432 23.2399C7.98577 25.3088 7.03409 27.419 6.08242 29.612C5.33764 31.9291 4.59285 34.2462 3.84806 36.6047C3.5998 37.515 3.39292 38.4667 3.14465 39.377C2.97915 40.4528 2.77226 41.5699 2.48262 42.6044C2.31711 43.6802 2.11023 44.756 1.94472 45.8731C1.57233 48.6868 1.19993 51.5004 0.868918 54.3554C0.910295 54.7692 0.868918 55.2244 0.744786 55.6381C0.744786 56.7139 0.662032 57.8311 0.496524 58.9069C0.537901 59.4448 0.496524 59.9827 0.372393 60.5206C0.41377 60.562 0.41377 60.6447 0.41377 60.6861C0.41377 60.7275 0.372393 60.8103 0.331016 60.8516L0.289639 62.0102L0.124131 65.4445C0.165508 66.5203 0.165508 67.5961 0.041377 68.7133C0.124131 69.7891 0.0827541 70.9062 0 71.9821C0.0827541 73.0579 0.0827541 74.1337 0 75.2095C0.124131 76.2853 0.124131 77.4024 0.0827541 78.4782L0.124131 79.7609C0.206885 80.2575 0.248262 80.754 0.165508 81.2091V81.5401C0.289639 82.6987 0.331016 83.8159 0.331016 84.9744C0.455147 85.6778 0.496524 86.3813 0.455147 87.0847C0.537901 87.2916 0.579278 87.5398 0.496524 87.7467V88.0777C0.662032 89.1949 0.744786 90.3535 0.744786 91.512V92.0085C0.868918 93.1671 1.03443 94.2843 1.11718 95.4428C1.19993 96.4772 1.4482 97.4703 1.94472 98.3806C2.44124 99.3323 2.85501 100.325 3.35154 101.277C3.5998 101.649 3.80669 102.022 3.93082 102.477C4.34459 103.139 4.6756 103.842 4.96524 104.546C5.50314 105.456 5.95829 106.449 6.37206 107.442C6.86859 107.939 6.6617 108.642 6.78583 109.221C6.86859 109.842 6.90996 110.463 6.95134 111.083C7.11685 111.869 7.1996 112.697 7.1996 113.525C7.24098 113.607 7.28236 113.69 7.28236 113.773C7.28236 113.856 7.28236 113.938 7.24098 114.021L7.28236 114.352C7.61337 116.504 7.77888 118.697 7.94439 120.89C8.1099 121.965 8.23403 123.041 8.27541 124.158C8.48229 125.234 8.56504 126.31 8.60642 127.427C8.81331 128.503 8.93744 129.579 8.93744 130.696C9.14432 131.896 9.26845 133.096 9.30983 134.296C9.39258 134.834 9.88911 135.123 10.0546 135.579C10.1374 135.62 10.2201 135.703 10.3029 135.785C10.3443 135.868 10.3856 135.951 10.427 136.075C11.7097 137.606 12.9096 139.178 14.0682 140.792C14.8544 141.744 15.5991 142.695 16.2612 143.73C16.6749 144.102 17.006 144.516 17.2542 145.012C17.7507 145.509 18.1645 146.047 18.4955 146.668C20.5644 149.357 22.6746 152.088 24.7435 154.777C24.8676 154.902 24.909 155.067 24.909 155.191C24.7848 155.812 25.1986 156.267 25.4882 156.722C25.902 157.095 26.233 157.508 26.5227 157.964C27.0192 158.626 27.7226 159.122 28.0122 159.95C28.095 159.991 28.2191 160.032 28.3019 160.074C30.7845 163.177 33.3085 166.28 35.7911 169.384C35.9153 169.466 36.0394 169.59 36.1221 169.715C37.0324 171.121 38.3151 172.114 39.7219 173.025C40.8391 173.645 41.9149 174.349 42.9494 175.094C43.57 175.383 44.1079 175.756 44.6044 176.169C45.101 176.5 45.6389 176.5 46.2181 176.542C47.2939 176.459 48.4111 176.459 49.4869 176.542C50.5627 176.459 51.6385 176.459 52.7143 176.542C53.7901 176.459 54.9073 176.459 55.9831 176.542C57.0589 176.459 58.1347 176.459 59.2105 176.542C60.2863 176.459 61.4035 176.459 62.4793 176.542C63.5551 176.459 64.6309 176.459 65.7067 176.542C66.7825 176.459 67.8997 176.459 68.9755 176.542C70.0513 176.459 71.1271 176.459 72.2029 176.542C73.2787 176.459 74.3545 176.459 75.4717 176.542C76.5475 176.459 77.6233 176.459 78.6991 176.542C79.4439 176.583 80.0645 176.252 80.6852 175.838C82.1748 174.845 83.7057 173.935 85.1953 172.942L85.6504 172.652C86.7262 171.99 87.6779 171.121 88.4641 170.128C88.4641 170.046 88.5055 169.963 88.5882 169.88C88.6296 169.797 88.7123 169.756 88.7951 169.715V169.673C88.7951 169.673 88.7951 169.632 88.8365 169.632C88.8365 169.632 88.8365 169.632 88.8779 169.632H88.9192C91.3191 166.653 93.719 163.632 96.1188 160.653C97.236 159.246 98.3946 157.839 99.5531 156.474C99.76 156.102 100.05 155.771 99.9669 155.274C99.9669 155.15 99.9669 155.067 100.008 154.943C100.05 154.819 100.091 154.736 100.174 154.653C102.201 152.047 104.187 149.44 106.215 146.833C106.753 146.006 107.373 145.219 108.035 144.475V144.433H108.077C108.077 144.35 108.118 144.268 108.16 144.185C108.201 144.102 108.284 144.061 108.366 144.019C108.408 143.937 108.449 143.854 108.491 143.771C108.532 143.688 108.615 143.647 108.697 143.606C109.484 142.406 110.353 141.33 111.221 140.254L113.663 137.068C113.828 136.696 114.076 136.365 114.366 136.116C114.821 135.372 115.607 134.834 115.69 133.841C115.732 132.724 115.814 131.648 116.021 130.572C116.063 129.496 116.145 128.379 116.352 127.303C116.311 126.972 116.352 126.641 116.435 126.351C116.394 126.269 116.394 126.186 116.394 126.103C116.394 126.02 116.435 125.938 116.476 125.855C116.476 125.234 116.518 124.655 116.683 124.076C116.931 121.014 117.221 117.993 117.635 114.973L117.676 114.311C117.718 113.194 117.842 112.118 118.007 111.042C118.049 109.966 118.173 108.849 118.38 107.773C119.331 105.622 120.324 103.47 121.483 101.442C121.938 100.284 122.476 99.1254 123.138 98.0496C123.883 96.4773 123.717 94.7394 123.966 93.043C124.048 92.5464 124.09 92.0085 124.131 91.512L124.379 88.2846C124.379 87.2088 124.462 86.0916 124.586 85.0158C124.545 84.9331 124.545 84.8503 124.545 84.7676C124.545 84.6848 124.545 84.602 124.586 84.5193C124.545 84.4779 124.545 84.3952 124.545 84.3538C124.545 84.271 124.545 84.2297 124.586 84.1883C124.545 83.4435 124.586 82.6573 124.669 81.9125C124.71 80.754 124.752 79.6368 124.793 78.4782C124.752 77.4024 124.752 76.3266 124.876 75.2095C124.917 74.0923 124.917 72.9751 125 71.8993ZM92.519 157.053C91.8156 157.964 91.4019 159.081 90.6984 159.991C89.8295 161.481 89.002 162.929 88.1744 164.418C87.5952 165.453 86.9745 166.487 86.3539 167.522C85.8573 168.349 85.4436 168.556 84.5746 168.225C82.5885 167.356 80.5611 166.57 78.6577 165.577C77.6647 165.122 76.5475 165.453 75.5545 165.246C74.3959 165.329 73.2787 165.329 72.1202 165.246C71.0857 165.329 70.0513 165.329 69.0169 165.246C68.3135 165.246 67.6101 165.287 66.948 165.287C66.4929 165.329 66.2446 164.998 66.0377 164.708C65.4998 164.046 64.8378 163.839 63.9689 163.88C62.9345 163.922 61.8587 163.922 60.8242 163.88C60.5346 163.839 60.2863 163.88 59.9967 163.963C59.7484 164.046 59.5002 164.211 59.2933 164.377C58.4657 165.701 57.1831 165.204 56.0245 165.204C54.8659 165.287 53.7488 165.287 52.5902 165.204C52.2592 165.287 51.9282 165.287 51.5971 165.204C50.48 165.37 49.4042 165.246 48.287 165.246C47.5836 165.246 46.8802 165.287 46.2595 165.577L40.5081 168.142C40.2598 168.266 39.9702 168.266 39.7219 168.225C39.6392 168.266 39.5564 168.266 39.4737 168.266C39.3909 168.266 39.3082 168.266 39.2254 168.225C39.1427 168.184 39.0599 168.142 39.0185 168.06C38.9772 167.977 38.9358 167.935 38.8944 167.853C38.6461 167.356 38.3565 166.818 38.0669 166.322C36.7428 164.253 35.5015 162.143 34.3429 159.991C33.5154 158.626 32.6051 157.301 31.8603 155.853C31.4465 155.026 31.9017 154.115 32.0258 153.288C32.0672 152.212 32.2327 151.136 32.4396 150.06C32.5223 149.398 32.5637 148.736 32.6465 147.992C33.0189 148.116 33.143 148.405 33.2671 148.654C35.1291 151.26 36.9497 153.909 38.8116 156.515C39.184 156.888 39.5151 157.343 39.7219 157.798C40.053 158.253 40.3012 158.295 40.7564 157.839C41.9977 156.433 43.3217 155.108 44.5217 153.702C45.0182 153.122 45.5147 152.957 46.2181 153.122H49.4869C50.5627 153.04 51.6799 153.04 52.7557 153.122H56.0245C57.1003 153.04 58.1761 153.04 59.2933 153.122H62.5621C63.6379 153.04 64.7137 153.04 65.8309 153.122H69.0996C70.1754 153.04 71.2512 153.04 72.3684 153.122H75.6372C76.713 153.04 77.7474 153.04 78.8232 153.122C79.6094 152.957 80.1887 153.205 80.7266 153.826C81.9265 155.191 83.1678 156.474 84.4091 157.798C84.5746 158.005 84.6988 158.377 85.1125 158.17C86.3125 156.391 87.5124 154.612 88.8365 152.957C89.8709 151.302 91.0708 149.771 92.2294 148.199C92.2294 148.074 92.2708 147.95 92.3949 147.992C92.519 147.992 92.5604 148.116 92.4777 148.24L92.6845 150.019C92.8914 151.095 93.0156 152.171 93.0569 153.288C93.3466 154.612 93.4707 155.853 92.519 157.053ZM116.6 98.9185C115.814 100.656 115.07 102.353 114.118 104.008C114.118 104.049 114.118 104.049 114.118 104.091C114.118 104.132 114.076 104.132 114.076 104.132C113.497 105.497 112.794 106.822 112.008 108.063C112.008 108.187 111.966 108.311 111.842 108.352C111.387 109.387 110.849 110.339 110.228 111.29C109.153 113.442 107.87 115.428 106.587 117.455C106.091 118.448 105.511 119.4 104.849 120.269C104.849 120.352 104.808 120.435 104.767 120.517C104.725 120.6 104.643 120.683 104.56 120.724C102.822 123.662 101.084 126.558 99.3462 129.496C99.0152 130.034 98.6842 130.572 98.3118 131.151C98.2704 131.399 98.1463 131.606 97.9394 131.772C97.898 131.979 97.8153 132.144 97.6498 132.268C97.6498 132.351 97.6498 132.434 97.6084 132.475C97.567 132.558 97.5256 132.599 97.4429 132.641C97.3188 133.055 97.1119 133.427 96.8222 133.758C96.243 134.834 95.6637 135.951 95.0844 137.068C94.5879 138.144 94.05 139.22 93.5535 140.254C93.5535 140.42 93.4707 140.585 93.3466 140.751C93.3466 140.792 93.3466 140.875 93.3466 140.916C93.3052 140.958 93.2638 141.04 93.2224 141.04C92.6432 143.192 91.7742 145.219 90.2847 146.916C89.7882 147.826 89.2089 148.654 88.5468 149.481C88.5055 149.688 88.3813 149.895 88.1744 150.019C87.1814 151.509 86.1883 153.04 85.1953 154.571C84.9884 154.902 84.8229 154.984 84.5333 154.653C84.1195 154.198 83.6644 153.743 83.2506 153.329C82.7541 152.957 82.3403 152.543 81.9679 152.088C81.9265 152.047 81.8438 152.047 81.8438 152.005C80.8093 150.474 79.3198 150.309 77.5819 150.309C72.7408 150.392 67.9411 150.267 63.1 150.226C62.8931 150.226 62.6862 150.185 62.4379 150.185H60.1622C57.4727 150.35 54.8246 150.267 52.1351 150.309C49.9007 150.35 47.625 150.35 45.3906 150.35C45.1837 150.35 44.9768 150.392 44.8113 150.433C44.6044 150.516 44.4389 150.64 44.3148 150.764C43.239 151.84 42.0804 152.874 40.9633 153.95C40.053 155.026 40.053 155.026 39.2668 153.909C38.4806 152.709 37.6945 151.55 36.9083 150.35C35.5015 148.281 34.0119 146.295 32.7706 144.185C32.1086 143.068 31.9017 141.702 31.4879 140.461L29.8328 137.027L24.3297 127.262C23.0056 125.152 21.6816 123.041 20.4816 120.89C18.4128 117.662 16.3853 114.352 14.5647 110.959C14.1096 110.339 13.7372 109.677 13.4889 108.973C11.9993 106.573 10.7994 103.966 9.55809 101.442C9.1857 100.698 8.89606 99.9529 8.56504 99.2495C8.44091 99.0426 8.39954 98.8357 8.39954 98.5875C8.39954 98.3806 8.44091 98.1323 8.56504 97.9254C8.73055 96.8496 8.97881 95.7325 9.30983 94.698C9.80636 92.5051 10.2615 90.3121 10.8822 88.1605C11.0477 87.0433 11.2959 85.9675 11.6683 84.8917C12.1235 82.9056 12.5372 80.9195 12.9924 78.9748C13.0751 78.5196 13.1579 78.0645 13.1579 77.6093C13.2406 69.4581 13.3234 61.3068 13.4062 53.1555C13.4062 52.8659 13.4475 52.6176 13.4475 52.3693V49.1006C13.3648 48.0248 13.4062 46.9076 13.4889 45.8318C13.4475 44.756 13.4475 43.6802 13.5303 42.563C13.4475 41.4872 13.4475 40.37 13.5717 39.2942V38.6322C13.4889 37.9701 13.4889 37.3081 13.5717 36.6874V36.0254C13.4889 34.9496 13.5303 33.8324 13.613 32.7566C13.5717 31.7222 13.5717 30.6878 13.6544 29.6534C13.5717 28.4948 13.613 27.3776 13.6958 26.2191C13.6958 26.1777 13.6958 26.1777 13.6958 26.1363C13.4062 24.8536 13.8613 24.0261 15.0612 23.4468C16.7577 22.6193 18.33 21.5435 20.1092 20.8814C22.2195 19.847 24.4124 18.9781 26.6468 18.316C27.5985 17.9437 28.5501 17.6126 29.5432 17.4058C30.7018 16.992 31.9431 16.661 33.143 16.4541L33.474 16.3713C33.7637 16.2058 34.0947 16.1231 34.4671 16.1644C34.5498 16.1231 34.5912 16.0817 34.6739 16.0403C34.7567 15.9989 34.8395 16.0403 34.9222 16.0403C35.005 15.9576 35.1291 15.9162 35.2532 15.9989C35.336 15.9576 35.3774 15.9162 35.4601 15.8748C35.5429 15.8334 35.6256 15.8334 35.7084 15.8748C35.7497 15.8334 35.7911 15.792 35.8739 15.792C35.9153 15.792 35.998 15.792 36.0394 15.8334C37.1979 15.5024 38.3979 15.2541 39.6392 15.1714C40.4667 15.0473 41.2943 14.9231 42.1218 14.7576C42.6183 14.6749 42.8252 14.799 42.8252 15.2955C42.8252 15.7093 42.8666 16.0817 42.908 16.4955C43.0321 16.8265 43.0735 17.1575 43.0321 17.4885C43.4045 19.5574 43.6114 21.6262 43.8596 23.6951C43.9838 24.6054 44.0665 25.5157 44.1493 26.4259C44.2734 26.9638 44.3562 27.5018 44.3562 28.0397C44.3975 28.1224 44.4389 28.2052 44.4389 28.2879C44.4389 28.3707 44.4389 28.4534 44.4389 28.5362L44.4803 29.1982C44.6872 30.3981 44.8527 31.5981 44.9354 32.798C45.0596 33.3773 45.1423 33.9979 45.1423 34.5772C45.1837 34.66 45.2251 34.7427 45.2251 34.8255C45.2251 34.9082 45.2251 34.991 45.2251 35.0737C45.2665 35.322 45.2665 35.6116 45.3078 35.9013C45.5147 37.0185 45.6802 38.177 45.7216 39.3356C45.9285 40.4114 46.0526 41.4872 46.094 42.6044C46.5078 44.8801 46.7147 47.1558 46.9629 49.4316C47.0871 49.7626 47.1284 50.0936 47.0871 50.4246C47.1284 50.466 47.1698 50.5074 47.1698 50.5901C47.1698 50.6729 47.1698 50.7143 47.1284 50.7556C47.2526 51.128 47.2939 51.5004 47.2939 51.8728C47.5422 53.1141 47.7077 54.3554 47.7491 55.6381C47.956 56.7139 48.0801 57.7897 48.1629 58.8655C48.3697 59.9413 48.4939 61.0585 48.5766 62.1343C48.5766 62.2998 48.6594 62.4653 48.7835 62.5895C48.9076 62.7136 49.0732 62.7964 49.28 62.7964C50.4386 62.8791 51.5558 63.0446 52.7143 63.2929L55.9831 63.7894L59.2519 64.2859L62.769 64.7825C63.762 64.5342 64.755 64.3687 65.7895 64.2859L69.0583 63.7894L72.327 63.2929C73.4028 63.0446 74.4787 62.9205 75.5958 62.7964C76.0096 62.7136 76.382 62.6308 76.4234 62.0929C76.4234 61.3482 76.5061 60.562 76.713 59.8172C76.6716 59.7758 76.6716 59.6931 76.6716 59.6517C76.6716 59.6103 76.713 59.5276 76.7544 59.4862C76.7544 59.2793 76.7958 59.0724 76.8371 58.8242C76.9199 57.6656 77.044 56.5484 77.2509 55.3899C77.2095 55.1002 77.2509 54.852 77.3337 54.5623C77.2923 54.5209 77.2923 54.4382 77.2923 54.3968C77.2923 54.3141 77.3337 54.2727 77.375 54.2313C77.3337 53.8589 77.375 53.4451 77.4992 53.1141C77.4578 53.0728 77.4578 52.99 77.4578 52.9486C77.4578 52.9072 77.4992 52.8245 77.5406 52.7831L77.5819 52.2866C77.9129 49.3488 78.2026 46.411 78.6991 43.5147C78.6577 43.225 78.6991 42.9768 78.7819 42.6871C78.8232 41.5286 78.9887 40.4114 79.1956 39.2528V38.9218C79.1543 38.7149 79.1956 38.4667 79.2784 38.2598C79.2784 37.5564 79.3611 36.853 79.5266 36.1495C79.6094 34.991 79.7335 33.8738 79.9404 32.7153C79.899 32.5084 79.9404 32.2601 80.0232 32.0946C79.9818 32.0532 79.9818 31.9705 79.9818 31.9291C79.9818 31.8877 80.0232 31.805 80.0645 31.7636C80.0645 31.0188 80.1473 30.2326 80.3542 29.4878C80.3956 28.3707 80.5197 27.2949 80.7266 26.2191C80.8093 25.1433 80.9335 24.0261 81.1404 22.9917C81.3472 20.7987 81.5541 18.6471 81.9265 16.4541C82.0093 14.5921 82.0093 14.5921 83.7471 14.8404C84.2436 14.9231 84.7401 15.0059 85.2367 15.0886C87.3883 15.3369 89.4985 15.7507 91.5674 16.33C92.7259 16.5368 93.8431 16.8265 94.9603 17.2402C96.0775 17.4885 97.1533 17.8195 98.2291 18.2333C100.463 18.8953 102.656 19.7642 104.725 20.7987C106.877 21.6676 108.822 22.8261 110.808 24.0261C111.139 24.233 111.139 24.5226 111.139 24.8536C111.139 25.2674 111.097 25.7225 111.097 26.1363C111.18 27.2121 111.221 28.2879 111.139 29.3637C111.221 30.4395 111.221 31.5567 111.18 32.6325C111.263 33.7083 111.263 34.7841 111.221 35.8599C111.304 37.2667 111.304 38.6735 111.263 40.0804V40.4114C111.346 40.8252 111.346 41.2803 111.263 41.7354V42.3561C111.387 43.4319 111.387 44.5491 111.304 45.6249C111.304 46.7007 111.346 47.7765 111.346 48.8523C111.428 49.9281 111.428 51.0039 111.346 52.1211C111.346 52.99 111.346 53.8589 111.346 54.7278C111.552 57.2518 111.47 59.8172 111.511 62.3412C111.594 67.1409 111.677 71.9407 111.635 76.699C111.635 78.3127 112.173 79.8437 112.421 81.416C112.711 82.4504 112.959 83.4849 113.125 84.5193C113.456 85.6365 113.745 86.795 113.911 87.9536C114.201 88.8639 114.449 89.7742 114.573 90.7258C114.656 90.8086 114.697 90.9327 114.739 91.0155C114.78 91.1396 114.78 91.2637 114.739 91.3465C115.07 92.3395 115.318 93.374 115.483 94.4084C115.773 95.6497 116.104 96.8496 116.394 98.091C116.642 98.5461 116.642 98.753 116.6 98.9185Z" fill="url(#paint0_linear)"/>
<path d="M92.5193 157.053C91.8159 157.963 91.4022 159.081 90.6987 159.991C89.8298 161.48 89.0023 162.929 88.1747 164.418C87.5955 165.453 86.9748 166.487 86.3542 167.521C85.8576 168.349 85.4439 168.556 84.5749 168.225C82.5888 167.356 80.5614 166.57 78.658 165.577C77.665 165.122 76.5478 165.453 75.5548 165.246C74.3962 165.328 73.279 165.328 72.1205 165.246C71.086 165.328 70.0516 165.328 69.0172 165.246C68.3138 165.246 67.6104 165.287 66.9483 165.287C66.4932 165.328 66.2449 164.997 66.038 164.708C65.5001 164.046 64.8381 163.839 63.9692 163.88C62.9348 163.922 61.859 163.922 60.8245 163.88C60.5349 163.839 60.2866 163.88 59.997 163.963C59.7487 164.046 59.5005 164.211 59.2936 164.377C58.466 165.701 57.1834 165.204 56.0248 165.204C54.8662 165.287 53.7491 165.287 52.5905 165.204C52.2595 165.287 51.9285 165.287 51.5975 165.204C50.4803 165.37 49.4045 165.246 48.2873 165.246C47.5839 165.246 46.8805 165.287 46.2598 165.577L40.5084 168.142C40.2602 168.266 39.9705 168.266 39.7222 168.225C39.6395 168.266 39.5567 168.266 39.474 168.266C39.3912 168.266 39.3085 168.266 39.2257 168.225C39.143 168.184 39.0602 168.142 39.0188 168.059C38.9775 167.977 38.9361 167.935 38.8947 167.852C38.6464 167.356 38.3568 166.818 38.0672 166.322C36.7431 164.253 35.5018 162.142 34.3432 159.991C33.5157 158.625 32.6054 157.301 31.8606 155.853C31.4468 155.026 31.902 154.115 32.0261 153.288C32.0675 152.212 32.233 151.136 32.4399 150.06C32.5226 149.398 32.564 148.736 32.6468 147.992C33.0192 148.116 33.1433 148.405 33.2674 148.654C35.1294 151.26 36.95 153.908 38.812 156.515C39.1843 156.888 39.5154 157.343 39.7222 157.798C40.0533 158.253 40.3015 158.294 40.7567 157.839C41.998 156.432 43.322 155.108 44.522 153.702C45.0185 153.122 45.515 152.957 46.2184 153.122H49.4872C50.563 153.04 51.6802 153.04 52.756 153.122H56.0248C57.1006 153.04 58.1764 153.04 59.2936 153.122H62.5624C63.6382 153.04 64.714 153.04 65.8312 153.122H69.0999C70.1757 153.04 71.2515 153.04 72.3687 153.122H75.6375C76.7133 153.04 77.7477 153.04 78.8235 153.122C79.6097 152.957 80.189 153.205 80.7269 153.826C81.9268 155.191 83.1681 156.474 84.4094 157.798C84.5749 158.005 84.6991 158.377 85.1128 158.17C86.3128 156.391 87.5127 154.612 88.8368 152.957C89.8712 151.302 91.0711 149.771 92.2297 148.198C92.2297 148.074 92.2711 147.95 92.3952 147.992C92.5193 147.992 92.5607 148.116 92.478 148.24L92.6848 150.019C92.8917 151.095 93.0159 152.171 93.0572 153.288C93.3469 154.612 93.471 155.853 92.5193 157.053Z" fill="url(#paint1_linear)"/>
<path d="M116.395 98.1747C116.064 96.9334 115.774 95.7334 115.485 94.4921C115.319 93.4577 115.071 92.4233 114.74 91.4302C114.74 91.3061 114.74 91.2233 114.74 91.0992C114.698 90.9751 114.657 90.8923 114.574 90.8096C114.45 89.8579 114.243 88.9476 113.912 88.0373C113.747 86.8787 113.457 85.7202 113.126 84.603C112.961 83.5686 112.712 82.5341 112.423 81.4997C112.216 79.9274 111.636 78.4378 111.636 76.7827C111.636 71.983 111.595 67.1833 111.512 62.4249C111.471 59.9009 111.554 57.3355 111.347 54.8115C111.347 53.9426 111.347 53.0737 111.347 52.2048C111.43 51.129 111.43 50.0118 111.347 48.936C111.347 47.8602 111.305 46.7844 111.305 45.7086C111.388 44.6328 111.388 43.5156 111.264 42.4398V41.8191C111.347 41.364 111.347 40.9502 111.264 40.4951V40.1227C111.347 38.7159 111.305 37.309 111.223 35.9022C111.264 34.8264 111.264 33.7506 111.181 32.6748C111.264 31.599 111.223 30.4818 111.14 29.406C111.223 28.3302 111.181 27.2544 111.099 26.1786C111.099 25.7648 111.14 25.3097 111.14 24.8959C111.14 24.5649 111.057 23.9857 110.726 23.7788C108.781 22.5789 107.085 21.5445 104.933 20.6755C102.864 19.6411 100.547 18.6481 98.313 17.986C97.2786 17.5723 96.12 17.3654 95.0028 17.1585C93.8857 16.7447 92.6443 16.331 91.4858 16.1241C89.4169 15.5448 87.3895 15.131 85.2792 14.8828C84.7827 14.8 84.3276 14.7171 83.831 14.6757C82.0518 14.4274 81.8036 14.2614 81.7622 16.1233C81.3898 18.2749 81.1002 20.758 80.9347 22.951C80.7278 24.0268 80.7553 25.0361 80.6725 26.1119C80.4656 27.1877 80.3001 28.3049 80.2587 29.4221C80.0932 30.1669 80.0658 31.0197 80.0658 31.8059C80.0244 31.8473 79.9831 31.8886 79.9831 31.9714C79.9831 32.0128 79.9417 32.0832 79.9831 32.1245C79.9003 32.3314 79.9003 32.5507 79.9417 32.7576C79.7348 33.8747 79.5693 35.0333 79.5279 36.1919C79.3624 36.8953 79.2797 37.5987 79.2797 38.3021C79.1969 38.509 79.1555 38.7159 79.1969 38.9641V39.2951C78.99 40.4123 78.8245 41.5709 78.7831 42.7294C78.7004 42.9777 78.659 43.2673 78.7004 43.557C78.2039 46.4534 77.9142 49.3911 77.5832 52.3289L77.5418 52.8254C77.5004 52.8668 77.4591 52.9082 77.4591 52.9909C77.4591 53.0323 77.4591 53.1151 77.5004 53.1565C77.3763 53.5288 77.3349 53.9012 77.3763 54.2736C77.3349 54.315 77.2936 54.3564 77.2936 54.4391C77.2936 54.4805 77.2936 54.5633 77.3349 54.6047C77.2108 54.8529 77.1694 55.1426 77.2522 55.4322C77.0453 56.5494 76.8798 57.7079 76.8384 58.8665C76.797 59.0734 76.797 59.2803 76.7557 59.5285C76.7143 59.5699 76.6729 59.6113 76.6729 59.694C76.6729 59.7354 76.6729 59.8182 76.7143 59.8595C76.5488 60.6043 76.466 61.3905 76.4246 62.1353C76.3833 62.6318 76.0109 62.7559 75.5971 62.8387C74.5213 62.9214 73.4041 63.0869 72.3283 63.3352L69.0595 63.8317L65.7907 64.3283C64.7563 64.411 63.7633 64.5765 62.7702 64.8248L59.2532 64.3283L55.9844 63.8317L52.7156 63.3352C51.5984 63.0869 50.4395 62.9621 49.2809 62.8793C49.2809 62.8793 48.9495 62.713 48.8671 62.6724C48.7426 62.5062 48.5779 62.3422 48.5779 62.1766C48.4952 61.0595 48.371 59.9837 48.1641 58.9079C48.0814 57.8321 47.9573 56.7563 47.7504 55.6805C47.6676 54.4391 47.5021 53.1565 47.2952 51.9151C47.3366 51.5427 47.2952 51.1704 47.1297 50.798C47.1711 50.7566 47.1711 50.6738 47.1711 50.6325C47.1711 50.5911 47.1297 50.5083 47.0883 50.4669C47.1297 50.1359 47.0883 49.8049 46.9642 49.4739C46.7573 47.1982 46.5091 44.9224 46.0953 42.6467C46.0539 41.5709 45.9298 40.4537 45.7229 39.3779C45.6401 38.2193 45.516 37.1022 45.3091 35.9436C45.2678 35.654 45.2678 35.4057 45.2264 35.1161C45.2678 35.0333 45.2678 34.9505 45.2264 34.8678C45.2264 34.785 45.185 34.7023 45.1436 34.6195C45.1436 33.9989 45.0609 33.4196 44.9367 32.8403C44.854 31.6404 44.7298 30.4405 44.4816 29.2405L44.4402 28.5785C44.4402 28.4957 44.4816 28.413 44.4402 28.3302C44.4402 28.2475 44.3988 28.1647 44.3575 28.082C44.3575 27.5441 44.3161 26.9648 44.1506 26.4683C44.0678 25.558 43.9851 24.6477 43.8609 23.7374C43.6127 21.6685 43.4058 19.5583 43.0334 17.5308C43.0748 17.1998 43.0334 16.8688 42.9093 16.5378C42.8679 16.124 42.8265 15.7516 42.8265 15.3378C42.8265 14.8413 42.5782 14.6758 42.1231 14.7999C41.2956 14.9654 40.468 15.0896 39.6405 15.2137C38.4405 15.2965 37.2406 15.5447 36.0407 15.8757C35.9993 15.8344 35.9165 15.8344 35.8752 15.8344C35.7924 15.8344 35.751 15.8757 35.7097 15.9171C35.6269 15.9171 35.5441 15.9171 35.4614 15.9171C35.3786 15.9171 35.2959 15.9585 35.2545 16.0412C35.1304 15.9585 35.0476 16.0412 34.9235 16.0826C34.8407 16.0826 34.758 16.0826 34.6752 16.0826C34.5925 16.0826 34.5097 16.124 34.4683 16.2068C34.1373 16.2068 33.8063 16.2481 33.4753 16.4136L33.1443 16.4964C31.903 16.7033 30.703 17.0343 29.5445 17.4481C28.5514 17.655 27.5998 17.986 26.6481 18.3584C24.3724 19.0204 22.2207 19.8893 20.1105 20.9237C18.3313 21.5858 16.759 22.6616 15.0625 23.4891C13.8626 24.1098 13.4074 24.9373 13.6971 26.1786C13.6971 26.22 13.6971 26.22 13.6971 26.2614C13.6143 27.4199 13.5729 28.5371 13.6557 29.6957C13.5729 30.7301 13.5729 31.7645 13.6143 32.7989C13.5316 33.8747 13.5316 34.9919 13.5729 36.0677V36.7298C13.4902 37.3918 13.4902 38.0538 13.5729 38.6745V39.3365C13.4488 40.4123 13.4488 41.5295 13.5316 42.6053C13.4488 43.6811 13.4074 44.7569 13.4902 45.8741C13.4074 46.9499 13.4074 48.0671 13.4488 49.1429V52.4117C13.4488 52.6599 13.4074 52.9496 13.4074 53.1978C13.3247 61.3491 12.7453 69.4174 12.6626 77.5687C12.6626 78.0238 12.7453 78.5617 12.6626 79.0169C12.2074 81.003 11.835 82.8236 11.4213 84.8097C11.0489 85.8855 10.7592 87.0026 10.5937 88.1198C9.97306 90.2714 9.39392 92.3979 8.93877 94.5909C8.60775 95.6667 8.48339 96.7679 8.31788 97.8437C8.19375 98.0506 8.31783 98.2735 8.31783 98.5217C8.31783 98.77 8.19375 99.085 8.31788 99.2918C8.69027 99.9953 8.77308 100.864 9.10409 101.568C10.3454 104.133 11.9592 106.616 13.4902 109.015C13.7798 109.719 14.1108 110.381 14.566 111.002C16.3866 114.394 18.4141 117.663 20.4829 120.932C21.7242 123.084 23.0069 125.194 24.331 127.304L29.8341 137.069L31.4892 140.503C31.903 141.745 32.1512 143.11 32.7719 144.227C34.0132 146.379 35.5441 148.365 36.9096 150.392C37.6958 151.592 38.4819 152.792 39.2681 153.951C40.0129 155.109 40.0542 155.109 40.9645 153.992C42.0817 152.916 43.1989 151.882 44.3161 150.806C44.4402 150.641 44.6057 150.558 44.8126 150.475C44.9781 150.392 45.185 150.351 45.3919 150.392C47.6262 150.392 49.902 150.392 52.1363 150.351C54.8258 150.31 57.474 150.392 60.1635 150.227H62.4392C62.6461 150.227 62.853 150.268 63.1012 150.268C67.9423 150.31 72.7421 150.434 77.5832 150.351C79.321 150.351 80.7692 150.517 81.845 152.048C81.8864 152.089 81.9278 152.089 81.9692 152.13C82.3416 152.585 82.7553 153.041 83.2518 153.372C83.6656 153.827 84.1208 154.241 84.5345 154.696C84.8242 155.027 84.9897 154.944 85.1966 154.613C86.1896 153.082 87.1827 151.592 88.1757 150.061C88.3412 149.937 88.5067 149.73 88.5481 149.524C89.2101 148.737 89.7894 147.868 90.2859 146.958C91.7755 145.262 92.6444 143.234 93.2237 141.083C93.2651 141.041 93.3065 141 93.3478 140.958C93.3892 140.917 93.3892 140.834 93.3478 140.793C93.472 140.669 93.5547 140.503 93.5547 140.296C94.0513 139.221 94.5892 138.145 95.0857 137.11C95.665 135.993 96.2442 134.917 96.8235 133.8C97.1131 133.469 97.32 133.097 97.4442 132.683C97.5269 132.642 97.5683 132.6 97.6097 132.518C97.6511 132.476 97.651 132.393 97.651 132.311C97.8166 132.187 97.8993 132.021 97.9407 131.814C98.1476 131.649 98.2717 131.442 98.3131 131.194C98.6441 130.656 99.0165 130.118 99.3475 129.538C101.085 126.601 102.823 123.704 104.561 120.766C104.644 120.725 104.685 120.642 104.768 120.56C104.809 120.477 104.851 120.394 104.851 120.311C105.471 119.401 106.092 118.491 106.588 117.498C107.871 115.47 109.154 113.443 110.23 111.333C110.85 110.422 111.388 109.429 111.843 108.395C111.968 108.353 112.009 108.229 112.009 108.105C112.795 106.822 113.457 105.54 114.078 104.174C114.119 104.174 114.119 104.133 114.119 104.133C114.119 104.092 114.119 104.092 114.119 104.05C115.071 102.395 115.816 100.699 116.602 98.9608C116.436 98.5471 116.436 98.3402 116.395 98.1747ZM50.8537 99.416C49.6951 101.071 48.5779 102.726 47.5021 104.381C47.4194 104.547 47.2952 104.671 47.1297 104.712C46.9642 104.795 46.7987 104.795 46.6332 104.754C45.8884 104.588 45.1022 104.464 44.3161 104.34C42.2472 103.926 40.2198 103.471 38.1509 103.14C37.0751 102.85 35.9993 102.643 34.8821 102.519L31.6547 101.899L28.3859 101.278L27.7239 101.03C26.8963 99.9952 26.0274 99.0022 25.1171 98.0919C25.0758 98.0092 25.0344 97.885 24.993 97.8436C24.9103 97.7609 24.8689 97.7195 24.7447 97.6781C23.8758 96.6023 22.9655 95.5679 22.0139 94.6162L21.8484 94.4094C20.8967 93.5818 20.6898 92.506 21.0208 91.3061C21.0208 91.2647 21.0208 91.1819 21.0208 91.1406C21.2277 90.0648 21.3518 88.989 21.4346 87.9132C21.7242 87.0442 21.5587 86.0926 21.8897 85.2237L25.1171 86.6718C27.2687 87.7063 29.4203 88.7821 31.6547 89.6924C32.6891 90.2717 33.8063 90.7682 34.8821 91.2233C37.0337 92.2991 39.1853 93.3336 41.4197 94.2438C41.4611 94.2852 41.5024 94.368 41.5852 94.368C41.6679 94.4094 41.7507 94.4094 41.7921 94.4094C42.7024 94.9473 43.6954 95.4024 44.6885 95.7748C45.7229 96.3541 46.8401 96.8506 47.9573 97.2644C48.8676 97.7195 49.7778 98.1747 50.7295 98.6298C51.1019 98.8781 51.1019 99.0436 50.8537 99.416ZM104.644 94.4921L104.478 94.699C103.485 95.6507 102.575 96.6851 101.747 97.7609C101.665 97.8023 101.582 97.885 101.499 97.9264C101.416 98.0092 101.375 98.0919 101.375 98.1747C100.423 99.085 99.5544 100.078 98.7682 101.112L98.1062 101.361L94.8374 101.981L91.61 102.602C90.4928 102.768 89.417 102.974 88.3412 103.264C86.2724 103.554 84.2035 104.009 82.176 104.464C81.3899 104.588 80.6451 104.712 79.8589 104.878C79.6934 104.919 79.5279 104.919 79.3624 104.836C79.1969 104.754 79.0728 104.629 78.99 104.505C77.8728 102.85 76.7557 101.154 75.6385 99.5401C75.3902 99.1677 75.3488 98.9608 75.8454 98.7539C76.797 98.3402 77.7073 97.8436 78.6176 97.3885C79.7348 96.9747 80.8106 96.4368 81.8864 95.8989C82.8795 95.5265 83.8311 95.0714 84.7828 94.5335C84.8656 94.5335 84.9483 94.5335 84.9897 94.4921C85.0724 94.4507 85.1138 94.4094 85.1552 94.368C87.3482 93.4577 89.5412 92.4233 91.6928 91.3475C92.8099 90.8923 93.8857 90.3958 94.9202 89.8165C97.1545 88.9062 99.3061 87.8304 101.458 86.796L104.685 85.3478C105.016 86.2167 104.851 87.1684 105.14 88.0373C105.182 89.1131 105.347 90.1889 105.554 91.2647C105.554 91.3061 105.513 91.3888 105.554 91.4302C105.802 92.5888 105.637 93.6646 104.644 94.4921Z" fill="url(#paint2_linear)"/>
<path d="M104.446 94.0755L104.414 94.1022L104.388 94.1349L104.239 94.3205C103.257 95.2645 102.355 96.2867 101.535 97.3475C101.499 97.371 101.469 97.3935 101.449 97.4086C101.447 97.4105 101.444 97.4122 101.442 97.4139C101.432 97.4212 101.424 97.4273 101.417 97.4326C101.408 97.4392 101.401 97.4444 101.394 97.4492C101.385 97.4553 101.381 97.4577 101.38 97.458L101.321 97.4876L101.274 97.5351C101.187 97.6217 101.105 97.7332 101.061 97.8681C100.159 98.7418 99.3311 99.6868 98.5788 100.668L98.0614 100.862L94.8275 101.476L94.8265 101.476L91.6078 102.095C90.4909 102.261 89.4096 102.469 88.3257 102.759C86.2509 103.051 84.1797 103.506 82.1656 103.959C81.3824 104.082 80.6332 104.207 79.8409 104.374L79.8334 104.376L79.8258 104.378C79.7277 104.402 79.6688 104.395 79.6147 104.368C79.5228 104.322 79.4505 104.25 79.4016 104.177L79.4002 104.175C79.0298 103.626 78.6584 103.072 78.2865 102.516C77.5412 101.403 76.7939 100.286 76.048 99.2089C76.0135 99.1569 75.9887 99.1162 75.9712 99.0841C75.9959 99.0709 76.0287 99.055 76.0718 99.0371L76.0718 99.0372L76.0776 99.0346C76.7713 98.733 77.4493 98.3852 78.1073 98.0477C78.3578 97.9192 78.6055 97.7922 78.8499 97.6698C79.9773 97.2505 81.06 96.7096 82.1194 96.1799C83.0962 95.8123 84.032 95.3671 84.9634 94.8457C84.9842 94.8443 85.0059 94.8422 85.0275 94.8392C85.0811 94.8315 85.1844 94.8116 85.2838 94.7414C85.3569 94.7006 85.4111 94.6585 85.4524 94.6217C87.6285 93.7158 89.8018 92.6902 91.9309 91.6259C93.046 91.171 94.1256 90.6731 95.1672 90.0913C97.0322 89.3303 98.8411 88.4548 100.627 87.5905C100.985 87.4171 101.343 87.244 101.699 87.0725L104.486 85.8221C104.536 86.0716 104.56 86.3369 104.583 86.6266C104.585 86.6503 104.587 86.6741 104.589 86.6981C104.621 87.1054 104.657 87.5645 104.796 88.0117C104.841 89.0722 105.002 90.1262 105.2 91.1666C105.199 91.1713 105.198 91.176 105.198 91.1807C105.192 91.2134 105.184 91.276 105.194 91.3499C105.199 91.388 105.21 91.4317 105.229 91.4766C105.438 92.5118 105.269 93.3894 104.446 94.0755Z" fill="#EAFFFF" stroke="#00FFFF" stroke-width="0.827541"/>
<path d="M21.929 86.347C21.978 86.0596 22.0268 85.7879 22.0933 85.5285L25.2135 87.1612L25.2134 87.1614L25.2261 87.1675C27.3796 88.2029 29.5726 89.1549 31.8044 90.0646C32.8085 90.6249 33.7743 91.0332 34.7872 91.4615C34.8294 91.4793 34.8717 91.4972 34.9141 91.5151C37.0252 92.5707 39.2322 93.674 41.4436 94.5814C41.4516 94.5925 41.4602 94.604 41.469 94.6154C41.4945 94.6482 41.5368 94.6992 41.5935 94.7449C41.6318 94.7758 41.7031 94.8259 41.8018 94.8497C41.8914 94.8804 41.9741 94.8842 42.0375 94.8801C42.9039 95.3897 43.83 95.906 44.8018 96.2738C45.8441 96.8552 46.9639 97.3527 48.0805 97.7672C48.9748 98.2144 49.8728 98.6633 50.8111 99.1124C50.843 99.1345 50.8663 99.1525 50.8831 99.1667C50.8671 99.1989 50.8412 99.2435 50.8 99.3054C49.6398 100.963 48.5209 102.621 47.4434 104.278L47.4306 104.298L47.4202 104.319C47.3723 104.415 47.3298 104.43 47.3176 104.434L47.2735 104.445L47.2329 104.465C47.1788 104.492 47.1199 104.499 47.0217 104.475L47.0218 104.475L47.0112 104.472C46.2543 104.304 45.4581 104.178 44.6771 104.055C44.12 103.944 43.5636 103.829 43.0072 103.714C41.5198 103.407 40.0316 103.099 38.5257 102.857C37.4426 102.567 36.3581 102.358 35.2324 102.233L32.021 101.615L32.0201 101.615L28.7862 101.001L28.2638 100.805C27.4663 99.8132 26.6287 98.8576 25.751 97.9753C25.7509 97.9751 25.7509 97.9749 25.7508 97.9747C25.7436 97.9579 25.7347 97.9368 25.7214 97.907C25.7095 97.8802 25.6935 97.8455 25.6745 97.8111C25.6584 97.7819 25.6257 97.7257 25.5738 97.6738C25.5715 97.6715 25.5692 97.6692 25.5668 97.6668C25.531 97.6309 25.478 97.5778 25.4131 97.5314C25.3724 97.5023 25.3308 97.4782 25.2874 97.4575C24.4366 96.4088 23.5444 95.3975 22.6109 94.4627L22.4597 94.2736L22.4363 94.2444L22.4081 94.2199C21.962 93.832 21.649 93.4372 21.4798 93.025C21.3141 92.6214 21.2764 92.1776 21.4184 91.663L21.4333 91.609V91.5758C21.4349 91.5655 21.4372 91.5513 21.4403 91.5333C21.4475 91.4905 21.4574 91.4359 21.4678 91.3783L21.4681 91.3768C21.4782 91.321 21.4888 91.2625 21.4968 91.2152C21.5009 91.1915 21.5047 91.168 21.5077 91.1479C21.5077 91.1475 21.5078 91.1469 21.5079 91.1462C21.5087 91.141 21.5106 91.1287 21.5122 91.1129C21.6203 90.5371 21.6293 89.9195 21.6243 89.3357C21.6232 89.2108 21.6215 89.0878 21.6198 88.9668C21.6136 88.5188 21.6077 88.0973 21.6351 87.7027C21.7706 87.28 21.8446 86.8439 21.9131 86.4402C21.9184 86.4089 21.9237 86.3778 21.929 86.347ZM42.1797 94.8578C42.1794 94.8579 42.1775 94.8583 42.1742 94.8588C42.1782 94.858 42.1799 94.8577 42.1797 94.8578ZM21.4311 91.5915C21.4311 91.5916 21.4312 91.5904 21.4316 91.5876C21.4313 91.59 21.4311 91.5914 21.4311 91.5915Z" fill="#EAFFFF" stroke="#00FFFF" stroke-width="0.827541"/>
<defs>
<linearGradient id="paint0_linear" x1="62.5195" y1="0.607426" x2="62.5195" y2="176.458" gradientUnits="userSpaceOnUse">
<stop stop-color="#4B0908"/>
<stop offset="0.5231" stop-color="#AA0505"/>
<stop offset="1" stop-color="#6A0C0B"/>
</linearGradient>
<linearGradient id="paint1_linear" x1="31.6932" y1="158.182" x2="93.2482" y2="158.182" gradientUnits="userSpaceOnUse">
<stop stop-color="#E7B73D"/>
<stop offset="1" stop-color="#B9A810"/>
</linearGradient>
<linearGradient id="paint2_linear" x1="64.2021" y1="15.8448" x2="60.9419" y2="163.901" gradientUnits="userSpaceOnUse">
<stop stop-color="#FDE68A"/>
<stop offset="1" stop-color="#B98A10"/>
</linearGradient>
</defs>
</svg>
