<svg width="29" height="29" viewBox="0 0 29 29" fill="none" xmlns="http://www.w3.org/2000/svg">
<g id="linkedin_logo">
<g id="Group">
<path id="Vector" d="M6.51828 9.59082H0.5V28.9127H6.51828V9.59082Z" fill="#00FFFF"/>
</g>
<g id="Group_2">
<path id="Vector_2" d="M3.48427 0C1.53851 0 0 1.58376 0 3.48427C0 5.38478 1.53851 6.96854 3.48427 6.96854C5.38478 6.96854 6.96854 5.38478 6.96854 3.48427C6.96854 1.58376 5.43003 0 3.48427 0Z" fill="#00FFFF"/>
</g>
<g id="Group_3">
<path id="Vector_3" d="M21.7592 9.09473C18.8179 9.09473 16.8722 10.6785 16.1029 12.217H16.0124V9.59248H10.2656V28.9143H16.2387V19.3665C16.2387 16.8325 16.7364 14.389 19.8587 14.389C22.9357 14.389 22.9809 17.285 22.9809 19.5023V28.9143H28.9992V18.3258C28.9992 13.122 27.868 9.09473 21.7592 9.09473Z" fill="#00FFFF"/>
</g>
</g>
</svg>
