<svg width="252" height="290" viewBox="0 0 252 290" fill="none" xmlns="http://www.w3.org/2000/svg">
<g clip-path="url(#clip0)">
<path d="M251.594 73.9784C251.594 72.7288 251.219 72.0207 250.095 71.3542C237.598 63.9397 224.769 57.0666 212.272 49.6104C195.444 39.5717 178.324 29.9494 161.329 20.1189C150.04 13.5791 138.752 7.08099 127.505 0.499549C126.255 -0.250236 125.339 -0.166926 124.089 0.541204C109.427 9.12207 94.7228 17.7029 80.0187 26.2005C64.1899 35.3645 48.3194 44.4036 32.4907 53.526C22.2436 59.4409 12.0382 65.4392 1.7495 71.3125C0.416547 72.104 0 72.9371 0 74.4366C0.0416547 97.9715 0.0416547 121.506 0.0416547 145.041C0.0416547 168.66 0.0416547 192.236 0 215.854C0 217.312 0.458202 218.062 1.70784 218.77C18.9945 228.684 36.2396 238.681 53.5263 248.678C66.4392 256.176 79.3522 263.674 92.2651 271.13C102.887 277.253 113.509 283.335 124.089 289.5C125.381 290.25 126.255 290.125 127.463 289.416C137.044 283.793 146.625 278.253 156.205 272.713C179.407 259.3 202.608 245.887 225.81 232.475C233.849 227.809 241.889 223.144 249.928 218.562C251.094 217.895 251.553 217.187 251.553 215.813C251.553 168.535 251.553 121.257 251.594 73.9784ZM236.599 207.357C236.599 208.523 236.224 209.19 235.182 209.814C212.772 222.727 190.404 235.682 168.035 248.637C158.454 254.177 148.832 259.717 139.252 265.298C135.378 267.548 131.462 269.755 127.63 272.088C126.297 272.921 125.256 272.963 123.881 272.171C118.008 268.756 112.051 265.507 106.261 262.049C92.7234 253.968 78.9773 246.221 65.3562 238.265C51.8184 230.35 38.239 222.561 24.7012 214.73C22.0353 213.188 19.4111 211.564 16.7035 210.148C15.4122 209.481 15.0373 208.69 15.0373 207.232C15.079 186.488 15.079 165.702 15.079 144.958C15.079 124.422 15.079 103.845 15.0373 83.3091C15.0373 81.6845 15.4539 80.7681 16.9535 79.8934C40.8633 66.1474 64.7314 52.318 88.5995 38.4886C100.513 31.574 112.468 24.7009 124.381 17.7446C125.464 17.1198 126.297 17.1198 127.38 17.7446C152.123 32.1155 176.907 46.4447 201.65 60.7739C212.855 67.272 224.102 73.7285 235.349 80.185C236.307 80.7265 236.682 81.3513 236.682 82.4343C236.599 124.047 236.599 165.702 236.599 207.357Z" fill="#00FFFF"/>
<path d="M75.7285 64.3145V228.934C72.8126 227.268 70.0218 225.518 67.1059 224.06C65.0649 223.019 64.1901 221.561 63.607 219.353C59.6081 203.733 55.401 188.196 51.3188 172.617C48.0697 160.329 44.8207 148.04 41.28 135.711V182.905C41.28 183.655 41.2384 184.447 41.1967 185.196V208.981C36.8646 206.482 32.7825 204.108 28.6587 201.733C27.8256 201.233 28.0338 200.4 28.0338 199.692C28.0338 192.403 28.0338 185.113 28.0338 177.824C28.0338 151.748 28.0755 125.672 27.9922 99.5543C27.9922 96.3469 28.5337 94.1809 31.8244 92.8063C34.7819 91.5983 37.4895 89.6405 40.2803 87.9743C41.1967 87.4328 41.8215 87.1412 42.1964 88.5575C43.2378 92.4314 44.3625 96.2636 45.4872 100.137C47.5699 107.011 49.6526 113.925 51.6521 120.798C54.2346 129.546 56.7756 138.335 59.6081 147.082V144.583C59.6081 121.59 59.6081 98.6379 59.5664 75.6445C59.5664 74.0617 60.0246 73.2286 61.4409 72.4371C66.1895 69.9378 70.8132 67.147 75.7285 64.3145Z" fill="white" stroke="#00327F" stroke-width="0.416547" stroke-miterlimit="10"/>
<path d="M228.644 113.634C221.437 108.802 214.439 104.095 207.483 99.4302C207.483 129.755 207.483 160.121 207.483 190.446C207.483 191.362 207.441 192.237 207.4 193.153C207.441 199.735 207.441 206.316 207.483 212.898C207.483 213.564 207.358 214.064 206.692 214.439C201.901 217.188 197.111 219.979 192.321 222.77C191.154 223.436 191.071 222.77 191.113 221.853C191.154 217.979 191.154 214.106 191.196 210.232C191.154 208.982 191.071 207.732 191.071 206.483C191.071 168.452 191.029 130.38 191.071 92.3489C191.071 90.641 190.571 89.5996 189.072 88.6832C183.657 85.3509 178.325 81.8102 172.91 78.4362C171.535 77.5614 171.077 76.895 172.16 75.3954C173.743 73.2293 175.117 70.8967 176.575 68.6057C176.575 68.5224 176.617 68.4807 176.659 68.3974C179.075 64.107 179.033 64.1903 183.157 66.8562C190.363 71.5215 197.653 76.0619 204.942 80.6439C212.482 85.3925 220.021 90.0995 227.561 94.7648C228.269 95.223 228.644 95.7229 228.644 96.5976C228.644 102.138 228.644 107.678 228.644 113.634Z" fill="white" stroke="#00327F" stroke-width="0.416547" stroke-miterlimit="10"/>
<path d="M172.077 59.4831C171.202 60.8577 170.369 62.1906 169.495 63.5652C167.953 66.6477 165.746 69.3552 163.996 72.3544C163.33 73.5207 162.663 72.8959 161.955 72.4794C154.416 67.939 146.876 63.3986 139.378 58.8583C136.796 57.2754 134.213 55.6509 131.631 54.0263C130.339 53.2765 128.923 52.6517 127.715 51.8186C126.632 51.0688 125.841 51.1521 124.758 51.8186C123.133 52.8183 121.383 53.6098 119.676 54.4845C115.052 57.1088 110.428 59.7747 105.721 62.274C104.513 62.9404 104.097 63.6069 104.097 64.9815C104.138 87.8083 104.138 110.677 104.097 133.503C104.097 135.17 104.555 135.586 106.18 135.586C123.383 135.545 140.586 135.586 157.831 135.503C159.747 135.503 160.122 136.044 160.081 137.836C159.956 142.543 159.956 147.291 160.081 151.998C160.122 153.706 159.539 153.998 157.956 153.998C140.795 153.956 123.674 153.998 106.513 153.914C104.43 153.914 104.055 154.497 104.055 156.455C104.138 185.405 104.097 214.355 104.138 243.305V245.93C100.098 243.347 96.474 240.764 92.6417 238.64C89.8509 237.099 89.0594 235.183 89.0594 232.058C89.1844 175.991 89.1427 119.882 89.1427 63.8152C89.1427 62.8988 89.1844 62.024 89.2261 61.1076C89.2261 60.1912 89.3094 59.2748 89.1427 58.4001C88.5596 55.276 89.8925 53.4848 92.6417 51.9436C103.514 45.737 114.302 39.3222 125.049 32.949C125.924 32.4075 126.549 32.3659 127.465 32.9074C137.795 39.0306 148.126 45.0706 158.456 51.1938C163.08 53.8597 167.579 56.7339 172.077 59.4831Z" fill="white" stroke="#00327F" stroke-width="0.416547" stroke-miterlimit="10"/>
</g>
<defs>
<clipPath id="clip0">
<rect width="251.594" height="290" fill="white"/>
</clipPath>
</defs>
</svg>
