<svg width="267" height="289" viewBox="0 0 267 289" fill="none" xmlns="http://www.w3.org/2000/svg">
<g clip-path="url(#clip0)">
<path d="M187.118 126.687C203.164 126.687 216.171 113.679 216.171 97.6335C216.171 81.5877 203.164 68.5801 187.118 68.5801C171.072 68.5801 158.064 81.5877 158.064 97.6335C158.064 113.679 171.072 126.687 187.118 126.687Z" fill="#D9CA46"/>
<path d="M266.813 119.296C266.878 119.284 266.926 119.239 267 119.251C266.968 119.125 266.925 119.002 266.873 118.883C266.78 119.009 266.686 119.137 266.604 119.25L266.813 119.296Z" fill="white"/>
<path d="M71.9468 166.398C72.1165 172.737 73.1783 179.02 75.1008 185.063C75.1447 185.203 75.1908 185.341 75.2368 185.481H87.0072C86.9947 185.356 86.9821 185.215 86.9695 185.063C86.1847 176.04 81.6599 121.127 87.07 111.736C86.597 112.498 71.0343 137.73 71.9468 166.398Z" fill="#E6E6E6"/>
<path d="M72.8311 185.062C72.9295 185.202 73.032 185.343 73.1367 185.481H81.9666C81.8996 185.361 81.8221 185.221 81.7322 185.062C80.2734 182.429 75.9558 174.558 71.9479 166.398C67.6408 157.629 63.6894 148.527 64.0222 145.232C63.9196 145.975 60.9393 168.625 72.8311 185.062Z" fill="#E6E6E6"/>
<path d="M164.585 186.571C164.437 192.097 163.511 197.575 161.835 202.843C161.797 202.965 161.757 203.086 161.717 203.208H151.455C151.466 203.098 151.477 202.976 151.488 202.843C152.172 194.977 156.117 147.103 151.4 138.916C151.813 139.58 165.381 161.578 164.585 186.571Z" fill="#E6E6E6"/>
<path d="M163.815 202.843C163.729 202.966 163.64 203.088 163.549 203.208H155.851C155.909 203.104 155.976 202.982 156.055 202.843C157.327 200.548 161.091 193.686 164.585 186.571C168.34 178.926 171.785 170.991 171.495 168.119C171.584 168.767 174.182 188.513 163.815 202.843Z" fill="#E6E6E6"/>
<path d="M47.2563 23.881L52.0417 20.0536C48.3241 19.6435 46.7966 21.6709 46.1715 23.2757C43.2672 22.0697 40.1055 23.6502 40.1055 23.6502L49.6802 27.1262C49.1972 25.836 48.3563 24.7103 47.2563 23.881V23.881Z" fill="white"/>
<path d="M191.388 4.17985L196.174 0.35243C192.456 -0.0577205 190.928 1.96976 190.303 3.57454C187.399 2.36855 184.237 3.94905 184.237 3.94905L193.812 7.42502C193.329 6.13485 192.488 5.00913 191.388 4.17985V4.17985Z" fill="white"/>
<path d="M261.798 155.535C261.798 158.706 261.687 161.852 261.466 164.971C259.762 189.582 251.228 213.23 236.824 233.259C234.942 235.886 232.965 238.439 230.895 240.919C225.53 247.354 219.573 253.271 213.102 258.593L184.741 241.95L167.783 202.372C167.783 202.372 193.084 151.144 261.753 152.073C261.781 153.223 261.796 154.377 261.798 155.535Z" fill="#3F3D56"/>
<path d="M261.466 164.972C260.161 183.363 255.059 201.284 246.48 217.604C237.902 233.925 226.034 248.289 211.625 259.793L185.276 244.333L170.238 209.232C170.238 209.232 194.606 159.894 261.466 164.972Z" fill="#43F8E2"/>
<path d="M236.824 233.257C234.942 235.885 232.965 238.438 230.895 240.918C217.021 257.587 199.292 270.624 179.245 278.9C175.186 280.574 171.031 282.049 166.781 283.328C136.091 291.489 103.577 289.425 74.166 277.447C45.0786 264.465 21.573 241.537 7.87105 212.781C6.02964 208.91 4.37373 204.941 2.90332 200.873C28.5481 182.087 79.0806 155.186 134.155 181.326C149.39 188.556 162.993 195.147 174.965 201.098C205.344 216.157 225.563 227.013 236.824 233.257Z" fill="#3F3D56"/>
<path d="M230.895 240.92C216.553 258.109 198.118 271.414 177.288 279.613C156.457 287.812 133.899 290.64 111.689 287.838C89.4789 285.036 68.3301 276.694 50.1884 263.578C32.0467 250.463 17.4947 232.995 7.87109 212.783C29.2888 195.846 78.6877 165.41 132.899 191.136C146.84 197.753 159.287 203.785 170.239 209.231C202.165 225.055 221.831 235.809 230.895 240.92Z" fill="#43F8E2"/>
<path d="M193.092 272.229C188.607 274.716 183.983 276.944 179.244 278.904C163.117 285.55 145.84 288.959 128.397 288.937C107.757 288.929 87.399 284.136 68.9233 274.934C50.4475 265.733 34.3565 252.373 21.9141 235.904C53.7746 232.545 141.843 228.015 193.092 272.229Z" fill="#3F3D56"/>
<path d="M179.244 278.901C154.237 289.184 126.697 291.633 100.267 285.925C73.8372 280.217 49.7627 266.621 31.2275 246.934C42.8161 245.232 133.798 233.541 179.244 278.901Z" fill="#43F8E2"/>
<path d="M239.423 81.5613V81.5654C144.169 11.1374 35.0344 60.7083 34.1914 61.0889V61.0848C46.5612 48.7164 61.2495 38.9098 77.415 32.2265C93.5805 25.5432 110.906 22.1145 128.398 22.1368C174.708 22.1368 215.505 45.7355 239.423 81.5613Z" fill="#E6E6E6"/>
<path d="M41.8305 158.121C57.9444 155.216 66.2018 126.207 60.2738 93.3279C54.3458 60.449 36.4773 36.1506 20.3634 39.0559C4.24945 41.9612 -4.0079 70.97 1.92009 103.849C7.84807 136.728 25.7166 161.026 41.8305 158.121Z" fill="#C95454"/>
<path d="M45.9713 196.52C45.016 124.302 20.8528 56.5291 20.6089 55.8535L18.4053 56.6484C18.648 57.3207 42.6786 124.738 43.6289 196.552L45.9713 196.52Z" fill="#43F8E2"/>
<path d="M3.10183 90.421L2.38086 92.6504L31.309 102.006L32.03 99.7764L3.10183 90.421Z" fill="#43F8E2"/>
<path d="M57.5185 87.9086L33.6836 106.785L35.1383 108.622L58.9731 89.7454L57.5185 87.9086Z" fill="#43F8E2"/>
<path d="M119.313 147.712C137.03 147.712 151.394 118.405 151.394 82.2533C151.394 46.1016 137.03 16.7949 119.313 16.7949C101.595 16.7949 87.2314 46.1016 87.2314 82.2533C87.2314 118.405 101.595 147.712 119.313 147.712Z" fill="#C95454"/>
<path d="M116.349 189.397C129.198 112.307 116.479 35.4948 116.349 34.7285L113.849 35.1519C113.979 35.9144 126.625 112.323 113.849 188.981L116.349 189.397Z" fill="#43F8E2"/>
<path d="M91.0679 68.1765L89.8721 70.4121L118.882 85.9291L120.078 83.6934L91.0679 68.1765Z" fill="#43F8E2"/>
<path d="M149.499 75.9488L120.492 91.4746L121.689 93.7099L150.695 78.1841L149.499 75.9488Z" fill="#43F8E2"/>
<path d="M258.664 126.654C246.893 120.046 234.595 114.423 221.897 109.844C151.682 84.4365 82.0556 94.2287 54.8027 130.591C76.0117 86.0447 151.69 72.0377 228.059 99.6711C236.948 102.885 245.646 106.601 254.113 110.801C255.958 115.986 257.478 121.28 258.664 126.654V126.654Z" fill="#E6E6E6"/>
<path d="M163.832 54.9709L168.618 51.1434C164.9 50.7333 163.373 52.7608 162.748 54.3656C159.843 53.1596 156.682 54.7401 156.682 54.7401L166.256 58.216C165.773 56.9259 164.932 55.8001 163.832 54.9709Z" fill="white"/>
</g>
<defs>
<clipPath id="clip0">
<rect width="267" height="288.637" fill="white" transform="translate(0 0.298828)"/>
</clipPath>
</defs>
</svg>
