<svg width="322" height="209" viewBox="0 0 322 209" fill="none" xmlns="http://www.w3.org/2000/svg">
<path d="M322 205.832H0V208.185H322V205.832Z" fill="#85848B"/>
<path d="M255.108 164.282C255.108 166.092 244.557 171.369 232.025 171.369C219.493 171.369 209.728 166.092 209.728 164.282C209.728 162.472 219.885 163.055 232.43 163.055C244.975 163.055 255.108 162.469 255.108 164.282Z" fill="#504F60"/>
<path opacity="0.2" d="M255.108 164.281C255.108 166.091 244.557 171.368 232.025 171.368C219.493 171.368 209.728 166.091 209.728 164.281" fill="black"/>
<path d="M128.898 131.069C130.932 131.33 133.043 131.495 134.991 130.863C135.297 130.768 135.635 130.557 135.604 130.25C135.582 130.138 135.535 130.033 135.466 129.943C134.732 128.842 134.115 127.666 133.625 126.437C133.606 126.372 133.566 126.316 133.512 126.277C133.448 126.254 133.379 126.254 133.316 126.277C132.417 126.513 131.64 127.093 130.748 127.342C130.293 127.466 129.817 127.502 129.349 127.446C128.944 127.4 128.392 127.065 128.023 127.108C128.232 128.449 128.741 129.701 128.898 131.069Z" fill="#3E9F94"/>
<path d="M167.365 127.675C168.706 126.754 170.096 125.788 170.887 124.368C170.944 124.283 170.977 124.184 170.982 124.082C170.969 123.982 170.93 123.887 170.869 123.806C170.115 122.608 169.144 121.56 168.006 120.717C167.413 121.136 166.877 121.631 166.411 122.189C166.074 122.545 165.141 123.11 165.132 123.653C165.132 123.96 165.488 124.315 165.653 124.573C165.877 124.904 166.089 125.242 166.292 125.586C166.408 125.754 167.473 127.607 167.365 127.675Z" fill="#3E9F94"/>
<path d="M136.872 135.181C136.896 135.497 136.809 135.811 136.626 136.07C136.483 136.214 136.306 136.32 136.111 136.377C133.267 137.396 129.975 136.126 127.137 137.129C126.554 137.334 126.002 137.632 125.416 137.828C124.718 138.038 123.997 138.166 123.269 138.209C122.266 138.304 121.256 138.365 120.25 138.393C119.485 138.447 118.717 138.38 117.974 138.193C117.602 138.098 117.254 137.926 116.953 137.687C116.653 137.449 116.405 137.15 116.228 136.81C116.074 136.505 116.043 136.152 116.142 135.825C116.187 135.713 116.25 135.609 116.329 135.518C116.522 135.302 116.747 135.119 116.998 134.975L118.044 134.3C118.535 133.953 119.068 133.671 119.63 133.46C120.044 133.325 120.483 133.266 120.903 133.153C122.373 132.723 123.496 131.558 124.539 130.438L125.962 128.919C126.095 128.752 126.264 128.617 126.456 128.523C126.654 128.458 126.864 128.438 127.07 128.465C128.453 128.564 129.788 129.011 130.951 129.766C131.248 129.989 131.569 130.178 131.908 130.33C132.742 130.656 133.813 130.41 134.583 129.999C134.948 129.803 134.868 129.692 135.022 129.343C135.175 128.993 135.55 128.769 135.875 129.088C135.973 129.198 136.042 129.331 136.077 129.474C136.384 130.487 136.267 131.576 136.267 132.637C136.258 132.803 136.279 132.97 136.329 133.128C136.407 133.288 136.501 133.44 136.608 133.582C136.63 133.62 136.649 133.659 136.666 133.699C136.854 134.169 136.924 134.677 136.872 135.181Z" fill="#514E7F"/>
<path d="M136.872 135.177C136.896 135.493 136.809 135.807 136.626 136.066C136.483 136.21 136.306 136.316 136.111 136.373C133.267 137.392 129.975 136.121 127.137 137.125C126.554 137.33 126.002 137.628 125.416 137.824C124.718 138.034 123.997 138.162 123.269 138.205C122.266 138.3 121.256 138.361 120.25 138.389C119.485 138.443 118.717 138.375 117.974 138.189C117.602 138.094 117.254 137.922 116.953 137.683C116.653 137.445 116.405 137.146 116.228 136.806C116.074 136.501 116.043 136.148 116.142 135.821C116.187 135.709 116.25 135.605 116.329 135.514C116.495 135.861 116.615 136.321 116.719 136.487C116.86 136.732 117.051 136.945 117.281 137.11C117.511 137.276 117.773 137.391 118.05 137.447C118.466 137.472 118.882 137.419 119.277 137.29C121.854 136.652 124.594 136.643 127.07 135.677C127.92 135.342 128.73 134.897 129.622 134.695C130.515 134.492 131.463 134.548 132.383 134.471C133.838 134.354 135.246 133.916 136.679 133.686C136.864 134.159 136.93 134.671 136.872 135.177Z" fill="#464353"/>
<path d="M173.879 127.486C173.744 128.566 173.06 129.496 172.309 130.284C171.557 131.073 170.707 131.782 170.109 132.69C169.373 133.816 169.041 135.211 168.084 136.162C167.717 136.508 167.304 136.802 166.857 137.037C166.356 137.332 165.827 137.576 165.277 137.764C163.847 138.221 162.307 138.117 160.813 138.006C160.328 138.002 159.848 137.909 159.396 137.733C159.19 137.629 158.993 137.508 158.807 137.371C158.432 137.141 158.117 136.825 157.887 136.451C157.773 136.247 157.741 136.008 157.798 135.782C157.883 135.533 158.03 135.309 158.224 135.132C158.56 134.782 158.921 134.457 159.304 134.159C159.829 133.82 160.302 133.407 160.709 132.932C160.958 132.557 161.142 132.142 161.252 131.705C161.469 130.939 161.602 130.152 161.648 129.358C161.646 128.83 161.701 128.303 161.81 127.787C162.037 126.977 162.639 126.253 162.571 125.416C162.544 125.296 162.555 125.17 162.602 125.057C162.673 124.968 162.773 124.906 162.884 124.882C163.353 124.695 163.847 124.58 164.351 124.541C164.603 124.524 164.856 124.563 165.092 124.655C165.327 124.747 165.539 124.891 165.713 125.075C165.921 125.327 166.059 125.689 166.366 125.787C166.518 125.828 166.678 125.835 166.833 125.805C167.587 125.729 168.385 125.633 168.98 125.146C169.255 124.899 169.476 124.598 169.629 124.262C169.782 123.925 169.864 123.561 169.87 123.191C169.87 122.912 169.744 122.621 170.177 122.578C170.502 122.535 170.759 122.885 170.925 123.099C171.523 123.9 172.137 124.738 172.361 125.713C172.448 125.679 172.54 125.662 172.634 125.661C172.825 125.659 173.014 125.704 173.185 125.791C173.355 125.878 173.502 126.005 173.613 126.161C173.857 126.557 173.952 127.027 173.879 127.486Z" fill="#514E7F"/>
<path d="M173.879 127.487C173.744 128.567 173.06 129.496 172.308 130.285C171.556 131.073 170.706 131.782 170.108 132.69C169.372 133.816 169.041 135.212 168.083 136.163C167.716 136.509 167.303 136.803 166.856 137.037C166.356 137.332 165.826 137.576 165.276 137.764C163.847 138.221 162.307 138.117 160.813 138.007C160.327 138.002 159.847 137.909 159.395 137.733C159.189 137.629 158.992 137.508 158.806 137.371C158.432 137.141 158.116 136.826 157.886 136.451C158.173 136.313 158.487 136.238 158.806 136.23C159.469 136.267 159.954 136.893 160.589 137.086C161.494 137.359 162.396 136.721 163.313 136.503C163.911 136.362 164.54 136.399 165.132 136.196C165.626 136.006 166.081 135.73 166.479 135.38C167.024 134.991 167.508 134.524 167.918 133.994C168.258 133.464 168.54 132.899 168.761 132.309C169.246 131.179 169.816 130.088 170.467 129.045C170.563 128.88 170.68 128.728 170.814 128.591C170.958 128.459 171.121 128.367 171.283 128.251C171.897 127.787 172.151 127.023 172.366 126.275C172.424 126.047 172.506 125.826 172.609 125.615C172.8 125.614 172.989 125.658 173.159 125.745C173.33 125.832 173.476 125.959 173.587 126.115C173.851 126.52 173.955 127.009 173.879 127.487Z" fill="#464353"/>
<path d="M109.548 31.8366C110.312 32.4088 110.94 33.142 111.389 33.9842C111.818 34.8248 114.294 41.3471 114.15 42.2951C114.957 41.4821 118.138 41.3502 118.954 40.5372C119.295 40.1966 121.133 38.497 121.409 38.1013C121.685 37.7055 123.734 36.8741 123.958 36.4569C124.796 34.9567 118.019 29.2719 118.887 27.7901C118.935 27.722 118.96 27.6402 118.957 27.5569C118.938 27.487 118.898 27.4242 118.844 27.3759C118.289 26.8084 117.552 26.4555 116.884 26.0352C116.215 25.6149 115.57 25.029 115.389 24.2559C114.752 24.5494 114.166 24.9453 113.656 25.4278C112.413 26.4934 111.191 27.5804 109.99 28.689C109.521 29.1246 108.612 29.7044 108.395 30.3272C108.137 30.996 109.1 31.4715 109.548 31.8366Z" fill="#A1616A"/>
<path d="M120.52 29.4199C119.48 30.1186 118.508 30.9137 117.617 31.7945C116.777 32.6259 115.979 33.5892 115.777 34.7519C115.691 35.209 115.703 35.6723 115.632 36.1355C115.326 38.145 113.589 39.6176 112.822 41.4982C112.6 42.0787 112.437 42.6799 112.334 43.2929C112.119 44.455 112.001 45.6331 111.982 46.8149C111.963 47.9592 113.086 48.7476 113.497 49.8153C113.908 50.8829 114.019 51.9812 114.227 53.0764C114.62 55.1442 115.341 57.1383 116.068 59.1202C117.581 63.2987 122.483 74.8493 123.996 79.0308C128.631 77.8681 140.97 75.196 145.075 72.7447C146.443 71.9287 135.58 62.7219 137.043 62.0868C137.127 62.0738 137.206 62.0415 137.275 61.9925C137.344 61.9435 137.401 61.8791 137.441 61.8044C137.481 61.7298 137.503 61.6468 137.505 61.5622C137.508 61.4776 137.49 61.3936 137.454 61.3168C135.991 54.9172 131.414 49.6588 129.337 43.4279C128.616 41.2651 127.321 39.4182 126.339 37.3627C125.45 35.5005 124.974 33.4419 123.91 31.6718C123.709 31.3071 123.446 30.9801 123.133 30.7054C122.868 30.5018 122.581 30.3279 122.278 30.1869C121.67 29.8924 121.106 29.7175 120.52 29.4199Z" fill="#514E7F"/>
<path d="M109.795 31.1068C113.802 31.1068 117.05 27.8584 117.05 23.8513C117.05 19.8441 113.802 16.5957 109.795 16.5957C105.787 16.5957 102.539 19.8441 102.539 23.8513C102.539 27.8584 105.787 31.1068 109.795 31.1068Z" fill="#A1616A"/>
<path d="M117.175 27.2598C117.536 26.9262 117.991 26.7102 118.478 26.6401C118.964 26.57 119.461 26.6491 119.902 26.8671C120.393 27.1217 120.823 27.6371 120.712 28.1771L124.311 28.2323C124.884 28.2166 125.456 28.2691 126.016 28.3887C126.58 28.5115 127.084 28.8273 127.44 29.2815C127.483 29.3398 127.532 29.4104 127.606 29.4196C127.666 29.4205 127.724 29.401 127.771 29.3643C128.325 29.0867 128.949 28.9799 129.563 29.0575C131.508 29.1833 133.306 30.1559 134.831 31.3707C135.105 31.5598 135.319 31.8254 135.444 32.1346C135.57 32.5427 135.42 33.055 135.751 33.3465C135.751 36.7211 136.911 39.8749 137.684 43.1637C137.822 43.7497 138.383 44.2682 138.773 44.7283C139.254 45.2385 139.647 45.8254 139.936 46.4648C140.592 48.1705 139.687 50.1769 140.325 51.8888C140.595 52.6128 141.117 53.208 141.552 53.8369C142.127 54.5631 142.49 55.4336 142.602 56.3526C142.629 56.7637 142.577 57.1779 142.602 57.5798C142.643 58.1325 142.746 58.6789 142.908 59.2088C143.17 60.1987 143.444 61.1876 143.731 62.1755C144.197 63.7708 144.804 65.4919 146.234 66.3417C142.783 66.9276 139.144 67.5013 135.855 66.3018C135.396 66.1453 134.961 65.9275 134.561 65.6545C133.373 64.8077 132.8 63.3597 132.287 61.9914C131.717 60.4574 131.137 58.8959 131.02 57.2638C131.021 56.7447 130.948 56.2281 130.802 55.7298C130.468 54.8401 129.575 54.3032 128.765 53.8093C127.851 53.3082 127.022 52.6639 126.311 51.9011C125.958 51.5169 125.688 51.0643 125.517 50.5714C125.346 50.0786 125.278 49.5559 125.317 49.0357C125.378 48.5295 125.578 48.0417 125.596 47.5324C125.615 47.0231 125.388 46.4402 124.9 46.3053C122.387 45.5444 121.188 42.5686 120.629 40.0038C120.388 38.6782 120.28 37.3319 120.307 35.9849L120.273 33.3679C119.927 33.0525 119.648 32.6698 119.454 32.2431C119.26 31.8164 119.154 31.3547 119.144 30.886C119.178 30.6126 119.173 30.3358 119.129 30.0638C119.008 29.7313 118.81 29.4319 118.552 29.1895C117.998 28.6201 117.533 27.9694 117.175 27.2598Z" fill="#272727"/>
<path d="M109.447 35.555C109.364 36.365 109.548 37.1964 109.367 37.9909C109.296 38.2977 109.174 38.6045 109.085 38.8898C108.813 40.0335 108.93 41.2352 109.419 42.3044C109.907 43.3631 110.491 44.3746 111.165 45.3263C111.392 45.6512 111.58 46.0024 111.723 46.3724C111.839 46.7609 111.911 47.1613 111.938 47.5658C112.115 49.1905 112.4 50.8016 112.791 52.3886C113.134 53.763 117.037 65.513 117.945 66.6021C118.109 66.8433 118.359 67.0131 118.644 67.0777C118.85 67.0854 119.054 67.0433 119.239 66.9549L121.08 66.2493C121.237 66.2014 121.382 66.1221 121.506 66.0162C121.679 65.8146 121.773 65.5574 121.77 65.2921C121.902 63.795 117.991 51.9621 117.494 50.5478C115.99 46.2773 113.99 42.1602 113.011 37.7394C112.738 36.5122 112.594 34.6224 111.695 33.6437C111.324 33.2388 111.45 33.4106 111.005 33.6223C110.78 33.7198 110.563 33.8336 110.355 33.9628C110.094 34.1438 109.878 34.3807 109.721 34.6562C109.563 34.9317 109.47 35.2388 109.447 35.555Z" fill="#272727"/>
<path d="M115.034 43.6604C115.528 46.2712 116.037 48.8758 116.543 51.4866L123.747 49.5998C123.805 48.8451 123.403 48.1457 123.133 47.4523C122.476 45.8049 122.461 43.9703 121.93 42.2768C121.528 40.9883 120.829 39.8041 120.452 38.5063C120.234 37.7516 120.123 36.9724 119.909 36.2085C119.678 35.4583 119.395 34.7253 119.062 34.0149C118.658 32.9847 118.13 32.0071 117.491 31.1035C116.571 31.4471 115.589 31.8459 115.064 32.6773C114.795 33.1458 114.642 33.6716 114.617 34.2113C114.491 35.8281 115.077 37.4541 114.883 39.0616C114.684 40.5926 114.735 42.1457 115.034 43.6604Z" fill="#3E9F94"/>
<path d="M123.866 78.3876C124.271 79.9216 123.685 81.5353 123.206 83.0539C122.486 85.3413 121.995 87.6947 121.74 90.0794C121.709 90.6862 121.587 91.285 121.378 91.8557C121.151 92.368 120.764 92.8006 120.501 93.2884C119.776 94.5708 119.795 96.1354 119.951 97.6018C120.056 98.5682 120.212 99.5315 120.405 100.483C120.642 101.645 120.933 102.86 120.593 103.995C121.163 103.87 121.55 104.609 121.513 105.189C121.476 105.769 121.289 106.416 121.568 106.916C122.274 107.174 122.28 108.143 122.258 108.895C122.27 110.198 122.435 111.495 122.749 112.76C123.817 117.894 124.95 123.013 126.148 128.118C128.741 128.922 131.769 129.76 134.242 128.646C134.702 128.44 135.162 128.112 135.266 127.615C135.293 127.347 135.26 127.077 135.168 126.824L133.996 122.559C133.711 121.528 133.426 120.464 133.576 119.405C133.689 118.617 134.033 117.767 133.646 117.071C133.515 116.831 133.306 116.644 133.152 116.417C132.539 115.518 132.861 114.316 132.91 113.227C132.929 112.982 132.913 112.736 132.861 112.496C132.777 112.217 132.66 111.948 132.511 111.696C131.543 109.815 131.078 107.716 131.161 105.603C131.198 105.333 131.161 105.059 131.054 104.808C130.98 104.705 130.913 104.596 130.855 104.483C130.809 104.286 130.832 104.079 130.919 103.897C130.567 103.63 130.25 103.321 129.974 102.977C130.144 102.871 130.288 102.728 130.395 102.558C130.502 102.389 130.569 102.197 130.59 101.998C130.612 101.799 130.589 101.597 130.521 101.409C130.454 101.22 130.344 101.049 130.201 100.909C130.326 100.884 130.442 100.824 130.535 100.737C130.629 100.65 130.696 100.539 130.73 100.416C130.764 100.293 130.763 100.163 130.728 100.041C130.693 99.918 130.624 99.8076 130.529 99.7218C130.379 99.6174 130.18 99.5714 130.072 99.415C129.907 99.1879 130.042 98.8719 130.177 98.6296L130.891 97.338C131.425 96.3778 131.545 95.1905 132.119 94.2701C132.941 92.9294 133.478 91.4354 134.008 89.9566L136.073 84.2596L137.463 85.4652C137.926 85.8189 138.314 86.2611 138.604 86.766C138.802 87.2651 138.927 87.79 138.975 88.3245C139.485 91.417 141.43 94.0983 142.151 97.1447C142.31 97.8227 142.418 98.5345 142.807 99.1143C142.947 99.2923 143.072 99.4811 143.181 99.6788C143.283 99.9804 143.336 100.296 143.338 100.615C143.402 101.238 143.6 101.84 143.918 102.38C144.235 102.92 144.665 103.385 145.179 103.744C145.863 104.213 146.713 104.535 147.084 105.278C147.158 105.508 147.261 105.727 147.391 105.931C147.722 106.33 148.437 106.376 148.578 106.876C148.658 107.155 148.51 107.49 148.667 107.735C148.756 107.849 148.873 107.937 149.007 107.99L151.005 108.987C153.238 110.104 154.379 112.668 156.027 114.537C156.596 115.145 157.099 115.811 157.53 116.525C158.242 117.798 158.57 119.396 159.773 120.206C160.096 120.374 160.39 120.592 160.644 120.853C161.021 121.35 160.883 122.047 160.917 122.673C160.951 123.299 161.429 124.044 162.024 123.854C161.816 124.612 161.816 125.412 162.024 126.17C164.637 126.036 167.129 125.027 169.099 123.305C169.682 122.795 170.243 122.145 170.249 121.372C170.258 121.238 170.229 121.105 170.164 120.988C170.046 120.837 169.89 120.72 169.713 120.648C167.844 119.635 167.283 117.289 166.338 115.383C165.513 113.702 164.292 112.254 163.27 110.693C161.049 107.333 159.533 103.268 156.174 101.05C155.435 100.562 154.576 100.13 154.204 99.3229C153.999 98.8719 153.974 98.3565 153.812 97.8902C153.649 97.4239 153.259 96.9698 152.762 96.9698C153.039 96.2949 152.983 95.4727 153.002 94.7426C153.021 94.4185 152.983 94.0936 152.891 93.7823C152.764 93.4474 152.598 93.1283 152.397 92.8313C151.521 91.3473 151.083 89.6454 151.133 87.9226C151.158 87.036 151.314 86.1218 151.048 85.275C150.913 84.8486 150.676 84.459 150.514 84.0479C150.269 83.303 150.139 82.5249 150.13 81.7408L149.946 78.7926C149.918 77.8107 149.791 76.8342 149.566 75.8781C148.952 73.5894 148.339 64.0023 146.237 62.9224C144.136 61.8425 140.525 69.2207 138.159 69.3649C137.113 69.4085 136.079 69.6081 135.091 69.957C133.518 70.5461 132.198 71.6444 130.913 72.7181L126.563 76.372C125.642 77.1298 124.881 77.8538 123.866 78.3876Z" fill="#464353"/>
<path d="M102.986 15.7975C103.943 14.4906 105.587 13.7972 107.207 13.7389C108.827 13.6806 110.422 14.1899 111.874 14.9109C112.302 15.1544 112.76 15.3421 113.236 15.4692C114.003 15.6257 114.856 15.4171 115.549 15.776C116.469 16.2638 116.647 17.5063 116.567 18.5371C116.488 19.5679 116.294 20.7122 116.844 21.605C117.038 21.8596 117.216 22.1271 117.374 22.4057C117.611 22.9365 117.473 23.55 117.331 24.1115C116.972 23.8047 116.77 23.3414 116.451 22.9855C116.132 22.6297 115.577 22.3904 115.181 22.6573C114.785 22.9242 114.791 23.4089 114.77 23.8446C114.748 24.2802 114.638 24.8017 114.227 24.9429C114.055 24.9819 113.875 24.9686 113.711 24.9046C113.547 24.8406 113.406 24.7289 113.306 24.5839C112.604 23.7249 112.886 22.3536 112.19 21.4884C111.794 20.9976 111.134 20.7583 110.769 20.2429C110.481 19.8379 110.407 19.3225 110.156 18.8868C109.904 18.4512 109.318 18.1321 108.928 18.4328C108.795 18.5598 108.685 18.7081 108.6 18.8715C108.357 19.2195 108.004 19.4754 107.598 19.5979C107.191 19.7204 106.755 19.7022 106.361 19.5464C106.059 19.3612 105.733 19.2197 105.391 19.1261C105.168 19.115 104.946 19.1665 104.75 19.2749C104.554 19.3833 104.393 19.5443 104.284 19.7397C104.063 20.1301 103.957 20.5744 103.977 21.0221C103.977 21.6357 104.087 22.2891 103.738 22.78C103.605 22.9648 103.438 23.123 103.247 23.2463C102.734 23.5746 102.02 23.7955 101.547 23.4212C101.387 23.272 101.268 23.0842 101.201 22.8758C101.135 22.6673 101.123 22.4452 101.167 22.2308C101.259 21.8038 101.38 21.3836 101.529 20.973C101.799 20.022 101.446 18.9513 101.74 18.0554C102.049 17.2487 102.468 16.4887 102.986 15.7975Z" fill="#464353"/>
<path d="M106.873 37.4411C106.827 37.6647 106.85 37.897 106.94 38.1068C107.031 38.2497 107.155 38.3686 107.302 38.4535C108.334 39.0962 109.507 39.4765 110.72 39.561C110.885 39.5639 111.047 39.6059 111.192 39.6837C111.481 39.8739 111.499 40.2973 111.392 40.6348C111.248 40.9531 111.174 41.2981 111.174 41.6472C111.263 42.2884 112.024 42.5676 112.665 42.6627C113.564 42.7762 114.548 42.7179 115.26 42.1565C115.742 41.7167 116.11 41.1659 116.331 40.552C118.092 36.5054 118.709 32.0324 120.491 27.9981C120.626 27.7347 120.716 27.4506 120.758 27.1575C120.777 27.0108 120.756 26.8617 120.698 26.7258C120.639 26.5898 120.546 26.472 120.427 26.3844C120.095 26.1789 119.58 26.2954 119.356 25.9733C119.245 25.8107 119.258 25.5898 119.16 25.418C118.954 25.0529 118.414 25.1112 118.046 24.8996C117.757 24.7462 117.558 24.4302 117.236 24.3688C117.078 24.3599 116.92 24.3879 116.774 24.4508C116.629 24.5136 116.5 24.6095 116.398 24.7308C115.352 25.7064 114.803 27.09 114.22 28.397C113.33 30.4003 112.288 32.3325 111.103 34.1769C111.241 33.9621 110.441 32.3361 110.128 32.2656C109.578 32.1551 108.876 33.1184 108.578 33.4774C107.644 34.6096 107.053 35.9846 106.873 37.4411Z" fill="#3E9F94"/>
<path opacity="0.1" d="M118.018 25.1855C117.798 25.1892 117.581 25.2424 117.384 25.3412C117.187 25.44 117.015 25.5818 116.88 25.7562C116.552 26.1826 116.487 26.7471 116.405 27.2901C116.125 29.0105 115.511 30.6594 114.598 32.1435" fill="black"/>
<path opacity="0.1" d="M119.585 26.4082C119.28 26.415 118.983 26.5009 118.722 26.6574C118.461 26.814 118.246 27.0357 118.097 27.301C117.894 27.7835 117.767 28.2949 117.722 28.8165C117.459 29.9729 116.952 31.0598 116.234 32.004" fill="black"/>
<path d="M192.495 86.3873V82.577C192.494 79.772 191.379 77.0822 189.395 75.0991C187.412 73.116 184.721 72.002 181.917 72.002H31.4394C28.6345 72.002 25.9444 73.116 23.9607 75.0991C21.977 77.0822 20.8621 79.772 20.8613 82.577V89.6025L192.495 86.3873Z" fill="#303030"/>
<path d="M73.3012 67.5348C73.3012 67.5348 72.8717 94.1825 77.5962 102.951C82.3208 111.719 84.3456 149.862 84.3456 149.862C84.3456 149.862 133.874 154.985 168.387 143.726C202.901 132.467 276.341 127.862 276.341 127.862L263.965 44.4489C263.965 44.4489 202.825 40.5281 168.044 57.1162C133.263 73.7043 73.3012 67.5348 73.3012 67.5348Z" fill="#00A9A9"/>
<path opacity="0.1" d="M73.3012 67.5348C73.3012 67.5348 72.8717 94.1825 77.5962 102.951C82.3208 111.719 84.3456 149.862 84.3456 149.862C84.3456 149.862 133.874 154.985 168.387 143.726C202.901 132.467 276.341 127.862 276.341 127.862L263.965 44.4489C263.965 44.4489 202.825 40.5281 168.044 57.1162C133.263 73.7043 73.3012 67.5348 73.3012 67.5348Z" fill="black"/>
<path d="M84.2628 77.2702C84.2628 77.2702 82.7135 99.2578 86.6006 106.283C90.4876 113.309 90.6686 144.672 90.6686 144.672C90.6686 144.672 135.242 146.74 166.949 135.947C198.655 125.154 265.284 118.153 265.284 118.153L257.712 49.9383C257.712 49.9383 202.582 49.3707 170.406 64.5629C138.23 79.7552 84.2628 77.2702 84.2628 77.2702Z" fill="#00FFFF"/>
<path opacity="0.1" d="M169.917 123.455C176.259 122.665 180.027 110.997 178.332 97.3952C176.638 83.7931 170.123 73.4067 163.781 74.1966C157.439 74.9866 153.671 86.6537 155.366 100.256C157.06 113.858 163.575 124.244 169.917 123.455Z" fill="black"/>
<path opacity="0.2" d="M230.445 3.81445C230.445 3.81445 171.047 18.8471 143.037 45.3077C115.027 71.7683 56.0625 84.2976 56.0625 84.2976C56.0625 84.2976 63.8304 109.789 71.0154 116.685C78.2004 123.582 91.828 159.268 91.828 159.268C91.828 159.268 140.537 148.941 169.927 127.625C199.318 106.31 267.815 79.389 267.815 79.389L230.445 3.81445Z" fill="black"/>
<path d="M55.1699 80.4801C55.1699 80.4801 62.9348 105.974 70.1136 112.871C77.2925 119.768 90.9262 155.45 90.9262 155.45C90.9262 155.45 139.641 145.127 169.035 123.811C198.428 102.495 266.919 75.5837 266.919 75.5837L229.549 0C229.549 0 170.155 15.0327 142.145 41.4933C114.135 67.9539 55.1699 80.4801 55.1699 80.4801Z" fill="#00A9A9"/>
<path opacity="0.1" d="M55.1699 80.4801C55.1699 80.4801 62.9348 105.974 70.1136 112.871C77.2925 119.768 90.9262 155.45 90.9262 155.45C90.9262 155.45 139.641 145.127 169.035 123.811C198.428 102.495 266.919 75.5837 266.919 75.5837L229.549 0C229.549 0 170.155 15.0327 142.145 41.4933C114.135 67.9539 55.1699 80.4801 55.1699 80.4801Z" fill="#00FFFF"/>
<path d="M68.5801 86.3824C68.5801 86.3824 73.8538 107.787 79.7104 113.279C85.567 118.77 95.3567 148.559 95.3567 148.559C95.3567 148.559 138.411 136.846 165.277 116.843C192.143 96.8408 253.415 69.7605 253.415 69.7605L225.279 7.13867C225.279 7.13867 172.637 23.512 146.673 47.8466C120.71 72.1811 68.5801 86.3824 68.5801 86.3824Z" fill="#00FFFF"/>
<path opacity="0.1" d="M164.283 104.057C170.077 101.359 170.083 89.0986 164.296 76.6726C158.51 64.2465 149.122 56.3603 143.328 59.0583C137.535 61.7562 137.529 74.0167 143.315 86.4427C149.102 98.8688 158.489 106.755 164.283 104.057Z" fill="black"/>
<path opacity="0.1" d="M196.557 90.1233V195.966C196.557 197.168 196.32 198.358 195.86 199.468C195.4 200.579 194.726 201.588 193.876 202.438C193.025 203.288 192.016 203.962 190.906 204.421C189.795 204.881 188.605 205.118 187.403 205.117H30.0196C27.5929 205.116 25.266 204.152 23.5504 202.436C21.8348 200.719 20.8711 198.392 20.8711 195.966V79.4531C25.3809 81.1282 25.3809 81.1282 30.0196 80.9871H187.403C189.827 80.9871 192.153 81.949 193.869 83.6619C195.586 85.3747 196.552 87.6985 196.557 90.1233Z" fill="black"/>
<path d="M196.557 91.4701V197.312C196.556 199.74 195.591 202.068 193.875 203.784C192.158 205.5 189.83 206.464 187.403 206.464H30.0196C27.5929 206.463 25.266 205.499 23.5504 203.782C21.8348 202.066 20.8711 199.739 20.8711 197.312V80.7969C25.3809 82.4689 25.3809 82.4689 30.0196 82.3308H187.403C189.828 82.3308 192.154 83.2932 193.87 85.0067C195.587 86.7202 196.553 89.0448 196.557 91.4701Z" fill="#1C1C1C"/>
<path opacity="0.1" d="M196.109 130.604V164.452H163.283C158.834 164.392 154.587 162.582 151.462 159.415C148.337 156.248 146.585 151.977 146.585 147.528C146.585 143.078 148.337 138.808 151.462 135.64C154.587 132.473 158.834 130.663 163.283 130.604H196.109Z" fill="black"/>
<path d="M196.557 129.703V163.557H163.731C159.282 163.497 155.035 161.688 151.91 158.521C148.785 155.353 147.033 151.083 147.033 146.633C147.033 142.184 148.785 137.913 151.91 134.746C155.035 131.579 159.282 129.769 163.731 129.709L196.557 129.703Z" fill="#33323D"/>
<path opacity="0.1" d="M165.304 154.128C168.949 154.128 171.903 151.173 171.903 147.529C171.903 143.884 168.949 140.93 165.304 140.93C161.66 140.93 158.705 143.884 158.705 147.529C158.705 151.173 161.66 154.128 165.304 154.128Z" fill="black"/>
<path d="M165.751 153.233C169.396 153.233 172.35 150.279 172.35 146.634C172.35 142.99 169.396 140.035 165.751 140.035C162.107 140.035 159.152 142.99 159.152 146.634C159.152 150.279 162.107 153.233 165.751 153.233Z" fill="#3E9F94"/>
<path d="M253.537 129.41C253.797 132.236 251.659 134.978 252.282 137.746C252.417 138.338 252.672 138.896 252.764 139.494C253.021 141.139 252.043 142.694 251.107 144.069L243.069 155.862C242.747 156.38 242.362 156.856 241.922 157.279C240.388 158.647 238.081 158.506 236.062 158.914C234.643 159.202 233.303 159.795 232.135 160.651C232.086 160.692 232.055 160.751 232.048 160.815C232.041 160.879 232.059 160.943 232.098 160.994C232.432 161.448 232.874 161.812 233.384 162.052C233.894 162.291 234.456 162.399 235.019 162.366C235.231 162.645 235.019 163.053 234.712 163.252C234.28 163.559 233.687 163.633 233.602 164.363C233.571 164.618 233.623 164.876 233.749 165.099C234.073 165.595 234.576 165.946 235.154 166.078C237.936 166.927 240.943 165.433 243.026 163.399C245.109 161.365 246.603 158.798 248.646 156.727C249.779 155.582 251.064 154.601 252.23 153.49C254.555 151.275 256.362 148.581 258.108 145.885C258.632 145.072 259.16 144.237 259.381 143.295C259.602 142.354 259.498 141.403 259.746 140.491C260.071 139.295 260.946 138.344 261.673 137.341C263.099 135.377 264.05 132.975 263.863 130.558C263.676 128.14 262.176 125.75 259.893 124.928C259.186 124.644 258.406 124.597 257.669 124.793C256.733 125.081 256.043 125.855 255.405 126.594L253.871 128.358C253.489 128.745 253.186 129.204 252.981 129.708C252.883 129.961 252.86 130.237 252.914 130.503C252.969 130.769 253.098 131.014 253.288 131.208" fill="#FBBEBE"/>
<path opacity="0.05" d="M253.537 129.41C253.797 132.236 251.659 134.978 252.282 137.746C252.417 138.338 252.672 138.896 252.764 139.494C253.021 141.139 252.043 142.694 251.107 144.069L243.069 155.862C242.747 156.38 242.362 156.856 241.922 157.279C240.388 158.647 238.081 158.506 236.062 158.914C234.643 159.202 233.303 159.795 232.135 160.651C232.086 160.692 232.055 160.751 232.048 160.815C232.041 160.879 232.059 160.943 232.098 160.994C232.432 161.448 232.874 161.812 233.384 162.052C233.894 162.291 234.456 162.399 235.019 162.366C235.231 162.645 235.019 163.053 234.712 163.252C234.28 163.559 233.687 163.633 233.602 164.363C233.571 164.618 233.623 164.876 233.749 165.099C234.073 165.595 234.576 165.946 235.154 166.078C237.936 166.927 240.943 165.433 243.026 163.399C245.109 161.365 246.603 158.798 248.646 156.727C249.779 155.582 251.064 154.601 252.23 153.49C254.555 151.275 256.362 148.581 258.108 145.885C258.632 145.072 259.16 144.237 259.381 143.295C259.602 142.354 259.498 141.403 259.746 140.491C260.071 139.295 260.946 138.344 261.673 137.341C263.099 135.377 264.05 132.975 263.863 130.558C263.676 128.14 262.176 125.75 259.893 124.928C259.186 124.644 258.406 124.597 257.669 124.793C256.733 125.081 256.043 125.855 255.405 126.594L253.871 128.358C253.489 128.745 253.186 129.204 252.981 129.708C252.883 129.961 252.86 130.237 252.914 130.503C252.969 130.769 253.098 131.014 253.288 131.208" fill="black"/>
<path d="M259.621 202.149C257.866 203.219 255.678 203.284 253.638 203.035C253.31 202.995 252.92 202.971 252.718 203.225C252.411 203.594 252.773 204.146 253.147 204.431C254.351 205.335 255.764 205.916 257.255 206.121C258.586 206.31 259.93 206.399 261.274 206.388C264.956 206.453 268.637 206.514 272.26 205.986C272.475 205.97 272.684 205.91 272.874 205.809C273.107 205.645 273.27 205.398 273.328 205.118C273.576 204.173 273.098 203.161 272.374 202.504C271.65 201.848 270.72 201.483 269.812 201.13L266.621 199.888C265.873 199.596 264.673 198.823 263.86 198.884C262.333 198.995 260.888 201.406 259.621 202.149Z" fill="#3F3D56"/>
<path opacity="0.05" d="M259.621 202.149C257.866 203.219 255.678 203.284 253.638 203.035C253.31 202.995 252.92 202.971 252.718 203.225C252.411 203.594 252.773 204.146 253.147 204.431C254.351 205.335 255.764 205.916 257.255 206.121C258.586 206.31 259.93 206.399 261.274 206.388C264.956 206.453 268.637 206.514 272.26 205.986C272.475 205.97 272.684 205.91 272.874 205.809C273.107 205.645 273.27 205.398 273.328 205.118C273.576 204.173 273.098 203.161 272.374 202.504C271.65 201.848 270.72 201.483 269.812 201.13L266.621 199.888C265.873 199.596 264.673 198.823 263.86 198.884C262.333 198.995 260.888 201.406 259.621 202.149Z" fill="black"/>
<path d="M261.857 159.793C260.529 161.56 259.154 163.601 259.483 165.788C259.661 166.966 260.32 168.006 260.805 169.095C261.462 170.574 261.805 172.163 262.143 173.746C262.64 176.059 263.14 178.379 263.443 180.729C263.79 183.382 262.161 191.061 262.011 193.733C261.974 194.378 261.897 195.074 261.449 195.537C261.274 195.721 261.041 195.869 260.961 196.108C260.915 196.339 260.953 196.578 261.069 196.783C261.817 198.47 263.348 199.728 265.057 200.446C266.766 201.164 270.886 202.403 272.748 202.468C272.994 202.495 273.242 202.462 273.472 202.373C273.72 202.222 273.915 201.998 274.031 201.731C275.365 199.179 274.083 190.104 274.101 187.223C274.12 184.821 274.687 182.434 274.583 180.035C274.497 178.109 273.969 176.225 273.794 174.305C273.488 171.157 274.064 167.994 274.644 164.883C275.086 162.496 275.531 160.109 276.098 157.753C276.445 156.314 276.847 154.863 277.632 153.615C278.246 152.624 279.108 151.795 279.823 150.854C281.807 148.252 282.688 144.975 282.277 141.73C282.234 141.423 277.675 142.886 277.273 143.061C275.634 143.755 274.125 144.726 272.813 145.93C271.757 146.936 270.926 148.28 270.003 149.405C268.696 150.999 267.405 152.603 266.131 154.219C264.677 156.066 263.252 157.924 261.857 159.793Z" fill="#464353"/>
<path opacity="0.05" d="M261.857 159.688C260.529 161.455 259.154 163.499 259.483 165.683C259.661 166.864 260.32 167.904 260.805 168.993C261.462 170.469 261.805 172.061 262.143 173.641C262.64 175.957 263.14 178.277 263.443 180.624C263.79 183.28 262.161 190.956 262.011 193.628C261.974 194.273 261.897 194.972 261.449 195.435C261.274 195.616 261.041 195.764 260.961 196.003C260.914 196.233 260.953 196.473 261.069 196.678C261.817 198.368 263.348 199.623 265.057 200.359C266.766 201.096 270.886 201.737 272.748 201.798C272.994 201.825 273.242 201.793 273.472 201.703C273.721 201.554 273.916 201.331 274.031 201.065C275.365 198.512 274.083 190.02 274.101 187.137C274.12 184.731 274.687 182.348 274.583 179.946C274.497 178.019 273.969 176.135 273.794 174.218C273.488 171.067 274.064 167.904 274.644 164.793C275.086 162.409 275.531 160.023 276.098 157.663C276.445 156.225 276.847 154.773 277.632 153.525C278.246 152.534 279.108 151.706 279.823 150.764C281.808 148.163 282.689 144.885 282.277 141.64C282.234 141.333 277.675 142.796 277.273 142.971C275.634 143.668 274.126 144.639 272.813 145.843C271.757 146.846 270.926 148.19 270.003 149.316C268.696 150.909 267.405 152.514 266.131 154.132C264.677 155.965 263.252 157.817 261.857 159.688Z" fill="black"/>
<path d="M247.076 120.876C251.188 120.876 254.521 117.542 254.521 113.43C254.521 109.318 251.188 105.984 247.076 105.984C242.963 105.984 239.63 109.318 239.63 113.43C239.63 117.542 242.963 120.876 247.076 120.876Z" fill="#FBBEBE"/>
<path d="M253.782 113.114C254.47 114.212 255.372 115.159 256.434 115.9C257.496 116.641 258.697 117.161 259.964 117.428L259.403 119.468C258.433 122.971 257.344 126.677 254.638 129.107C254.945 127.92 254.552 126.653 253.884 125.622C253.215 124.591 252.276 123.781 251.356 122.981L247.07 119.268C246.946 119.168 246.842 119.045 246.763 118.906C246.657 118.645 246.657 118.352 246.763 118.09C247.309 116.391 248.867 115.329 250.138 114.182C250.775 113.589 251.344 112.926 251.834 112.206C252.69 110.985 253.221 112.212 253.782 113.114Z" fill="#FBBEBE"/>
<path d="M237.268 105.943L237.099 104.544C238.274 104.851 239.391 103.851 240.143 102.817C240.894 101.783 241.591 100.565 242.735 100.133C244.125 99.6112 245.598 100.44 246.926 101.139C248.413 101.964 250.045 102.495 251.733 102.704C252.003 102.713 252.27 102.756 252.528 102.832C253.393 103.139 253.804 104.225 253.93 105.21C254.056 106.195 254.022 107.241 254.448 108.118C254.755 108.784 255.326 109.278 255.676 109.935C256.596 111.696 255.706 114.104 256.666 115.831L254.28 113.644C254.062 113.444 253.755 113.236 253.513 113.404C253.322 113.539 253.307 113.831 253.23 114.064C253 114.745 252.147 114.948 251.531 114.678C250.914 114.408 250.463 113.822 249.997 113.288C248.942 112.042 247.684 110.947 246.211 110.416C245.566 110.175 244.876 110.074 244.189 110.119C243.501 110.165 242.831 110.356 242.223 110.68C241.109 111.309 240.293 112.776 238.928 112.828C237.057 112.898 236.277 109.413 235.412 108.036C235.729 107.797 235.951 107.455 236.041 107.069C236.131 106.684 236.082 106.278 235.903 105.925C236.029 105.873 237.241 105.729 237.268 105.943Z" fill="#464353"/>
<path d="M145.173 62.4127C144.575 62.9448 144.021 63.5256 143.519 64.1491C143.014 64.7813 142.744 65.5701 142.758 66.3795C142.761 66.6142 142.836 66.8424 142.973 67.0329C143.043 67.1241 143.14 67.1912 143.25 67.2247C143.36 67.2583 143.478 67.2566 143.587 67.2201C143.71 67.1572 143.815 67.0644 143.893 66.9501C144.218 66.5605 144.562 66.1877 144.924 65.8334C145.056 65.7015 145.231 65.5634 145.409 65.6125C145.489 65.6408 145.56 65.6882 145.618 65.7505C145.824 65.929 145.974 66.1634 146.05 66.4255C146.158 66.8949 145.885 67.3643 145.575 67.7324C145.265 68.1006 144.9 68.4534 144.774 68.9166C144.726 69.039 144.726 69.1747 144.774 69.297C144.833 69.3855 144.916 69.4557 145.013 69.4995C145.453 69.7414 145.94 69.8838 146.44 69.9167C146.941 69.9495 147.442 69.8721 147.909 69.6897C148.523 69.4412 149.069 69.0148 149.701 68.7939C149.975 68.719 150.24 68.6162 150.492 68.4871C150.673 68.3668 150.828 68.2119 150.949 68.0312C151.07 67.8506 151.153 67.6479 151.195 67.4348C151.275 67.009 151.29 66.5736 151.241 66.1432C151.165 64.4766 150.808 62.8348 150.186 61.2868C150.15 61.1869 150.088 61.0981 150.008 61.0291C149.915 60.9728 149.809 60.9441 149.701 60.9462C148.916 60.8634 147.627 60.4615 146.869 60.753C146.604 60.8983 146.376 61.1018 146.201 61.3481C146.059 61.5046 145.173 62.2071 145.173 62.4127Z" fill="#A1616A"/>
<path d="M144.924 61.7203C144.924 60.9717 144.004 59.1647 145.467 59.0451C145.467 58.2444 144.335 57.7474 144.547 56.8975C144.615 56.6153 144.854 56.3852 144.881 56.0968C144.974 55.2777 143.495 54.8329 143.74 54.0475C143.832 53.7407 144.157 53.5627 144.228 53.259C144.394 52.5503 143.127 52.2343 143.102 51.5073C143.102 51.2618 143.24 51.0317 143.228 50.7863C143.228 50.4795 142.961 50.2464 142.814 49.9794C142.43 49.2953 142.617 48.2369 141.918 47.8841C142.381 47.924 142.531 47.2367 142.341 46.8164C142.151 46.3961 141.761 46.0311 141.758 45.5647C141.781 45.3958 141.781 45.2245 141.758 45.0555C141.63 44.6076 140.896 44.5707 140.774 44.1351C140.758 43.9679 140.753 43.7998 140.758 43.632C140.709 43.2853 140.353 43.0644 140.019 42.9662C139.672 42.9072 139.337 42.7878 139.031 42.6134C138.816 42.4508 138.568 42.1809 138.338 42.3066C138.252 42.3588 138.209 42.457 138.144 42.5306C137.868 42.8527 137.341 42.7116 136.994 42.4754C135.969 41.779 135.46 40.5303 135.242 39.3124C135.024 38.0944 135.03 36.8366 134.757 35.6309C134.674 35.2551 134.563 34.886 134.426 34.5265C134.31 34.2197 133.935 33.738 133.911 33.4282C133.855 32.7225 135.316 33.2042 135.871 33.2748C136.41 33.3274 136.943 33.4301 137.463 33.5815C138.018 33.7913 138.562 34.0299 139.092 34.2964C141.307 35.275 143.983 35.3947 145.762 37.0391C146.348 37.579 146.842 38.2877 147.603 38.5331C147.952 38.6 148.296 38.6892 148.634 38.8C149.477 39.1958 149.609 40.3156 150.069 41.1255C150.214 41.3394 150.34 41.5652 150.447 41.8004C150.535 42.0779 150.577 42.3683 150.569 42.6594L150.634 44.7855C150.738 48.3473 150.842 51.9184 150.462 55.4587C150.339 56.6276 150.155 57.8302 150.502 58.953C150.594 59.2598 150.723 59.5482 150.809 59.8581C150.885 60.2214 150.924 60.5914 150.925 60.9625L150.974 62.34C150.991 62.4471 150.967 62.5567 150.907 62.6468C150.856 62.6884 150.796 62.718 150.731 62.7334C150.667 62.7488 150.6 62.7496 150.536 62.7358C148.618 62.5639 146.679 61.484 144.869 62.1375" fill="#272727"/>
<path d="M232.427 167.563C244.959 167.563 255.118 166.095 255.118 164.283C255.118 162.472 244.959 161.004 232.427 161.004C219.896 161.004 209.737 162.472 209.737 164.283C209.737 166.095 219.896 167.563 232.427 167.563Z" fill="#504F60"/>
<path d="M251.947 164.443C251.548 162.734 251.3 161.234 251.3 161.234C251.3 161.234 251.392 159.375 250.557 157.979V157.512V154.076C250.795 153.452 251.085 152.85 251.425 152.276C252.039 151.196 251.425 147.238 251.425 147.238C251.425 147.238 249.134 141.658 249.689 138.117C250.244 134.577 244.983 122.397 244.983 122.397C245.015 121.223 245.181 120.056 245.477 118.918C245.533 118.679 245.556 118.433 245.544 118.188C245.544 118.157 245.544 118.13 245.544 118.099C245.544 118.068 245.544 118.118 245.544 118.127C245.465 115.792 243.618 111.417 243.618 111.417L243.866 103.079C243.866 103.079 245.044 98.1701 243.124 91.5588C242.452 89.2548 242.022 87.411 241.749 85.9875C241.719 85.828 241.688 85.6807 241.663 85.5243C245.618 84.9107 248.64 84.4198 248.64 84.4198C248.64 84.4198 246.345 74.8204 244.796 73.1392C243.246 71.458 242.007 66.1781 242.007 66.1781C242.007 66.1781 241.2 59.4012 242.504 57.4193C243.808 55.4374 243.992 52.0198 243.992 52.0198C243.992 52.0198 246.965 49.8723 247.339 48.8998C247.713 47.9272 248.33 45.7797 248.33 44.6415C248.33 43.5033 247.959 42.494 248.081 41.8804C248.204 41.2668 247.213 38.9997 247.71 37.9198C247.839 37.588 247.905 37.2355 247.907 36.8798C247.908 36.8696 247.908 36.8593 247.907 36.8491C247.911 35.9041 247.824 34.9608 247.646 34.0327C246.786 33.3066 245.782 32.7703 244.701 32.4589L244.636 32.2012L244.467 31.5263C244.373 31.464 244.276 31.4067 244.176 31.3545V31.109L244.148 30.1335L244.615 27.943C245.535 24.1327 240.445 23.5651 240.445 23.5651C240.137 22.9806 239.623 22.5306 239.004 22.3011C237.982 21.9422 238.835 28.0319 239.31 28.4369C239.669 28.7437 240.78 30.6397 241.317 31.5784L241.403 31.7318C241.319 31.8074 241.241 31.8894 241.169 31.9773L241.363 33.2995L241.393 33.502C241.056 33.9209 240.782 34.3871 240.58 34.8856C240.58 34.8856 241.501 35.9042 241.326 37.0331C241.151 38.1621 241.611 39.5948 241.633 39.6715C241.578 39.6071 240.924 38.9015 240.271 39.0733C239.617 39.2451 237.792 39.7943 237.792 39.7943C237.792 39.7943 236.43 40.0335 236.565 40.3342C236.7 40.6349 235.644 41.954 235.644 41.954L231.981 38.4812C231.944 38.3769 231.904 38.2726 231.874 38.1744C231.724 37.6737 231.622 37.1602 231.567 36.6405C231.966 36.5456 232.358 36.4215 232.739 36.2692C233.124 36.1371 233.471 35.914 233.751 35.6188C234.123 35.1801 234.193 34.585 234.343 34.0389C234.632 32.9713 235.264 32.0233 235.702 31.0078C236.445 29.2919 236.685 27.4 236.393 25.5531C236.337 24.9839 236.144 24.4367 235.831 23.9578C235.233 23.1356 234.147 22.8012 233.359 22.1447C232.57 21.4881 232.061 20.4849 231.141 19.9971C230.309 19.5523 229.3 19.6044 228.361 19.7578C226.527 20.0602 224.766 20.701 223.167 21.6477C222.633 21.9544 222.044 22.3318 221.431 22.2183C220.903 22.1232 220.51 21.7029 220.179 21.2979C220.183 21.2812 220.188 21.2647 220.194 21.2488C220.179 21.2339 220.166 21.2174 220.154 21.1997C219.766 22.0613 219.571 22.9975 219.584 23.9424C219.584 24.0897 219.584 24.2492 219.602 24.3812V24.5345C219.602 24.5775 219.602 24.6204 219.602 24.6603C219.602 24.7257 219.593 24.7908 219.575 24.8536C219.497 25.0413 219.38 25.2098 219.231 25.3475C219.118 25.4755 219.016 25.6119 218.924 25.7556C218.924 25.7065 218.955 25.6574 218.973 25.6052C218.739 25.9469 218.607 26.348 218.593 26.7618C218.576 27.0631 218.674 27.3595 218.869 27.5902C219.053 27.7685 219.253 27.9288 219.467 28.0688C219.394 28.4738 219.357 28.8844 219.357 29.2959C219.364 30.5159 219.685 31.7134 220.29 32.7727C220.896 33.832 221.764 34.7172 222.811 35.3427C222.854 35.444 222.894 35.5483 222.934 35.6495C223.403 36.8767 223.756 38.3186 223.6 39.6378C223.6 39.7329 223.572 39.8311 223.557 39.9262C223.541 40.0213 223.465 40.0274 223.425 40.0796C223.425 40.0796 217.372 40.1409 215.948 38.8524C214.525 37.5639 212.353 42.0031 212.353 42.0031C212.353 42.0031 210.184 42.4234 209.748 42.0031C209.312 41.5828 206.775 41.9448 206.775 41.9448C205.736 41.0204 204.383 40.5267 202.993 40.5643C202.15 39.924 201.22 39.4075 200.232 39.0303L200.164 39.0058C199.728 38.8467 199.261 38.788 198.799 38.834C198.799 38.834 195.823 36.3797 194.955 35.0544C194.087 33.729 189.954 28.8357 189.936 28.8143V28.578L189.89 27.8663C189.767 27.8855 189.643 27.8958 189.518 27.897C189.497 27.8264 189.466 27.7436 189.436 27.6485C189.197 26.9542 188.904 26.2802 188.558 25.6329C188.558 25.6329 188.558 24.734 188.819 24.5069C189.08 24.2799 188.712 20.9819 188.712 20.9819C188.712 20.9819 186.03 14.7142 183.628 19.3928C183.628 19.3928 179.088 22.4208 182.898 25.9488C182.898 25.9488 184.432 26.6851 184.634 27.268C184.775 27.6454 185.291 28.7038 185.638 29.4156L185.794 29.7224L185.751 29.7592L185.806 30.3482L185.831 30.5752C185.113 30.9833 184.625 31.3882 184.745 31.6919C184.956 32.2117 185.101 32.7559 185.177 33.3118C185.177 33.3118 190.448 39.9139 191.129 42.7333C191.129 42.7333 205.263 51.1332 209.911 51.7314L209.089 55.9191C208.969 57.0554 208.907 58.1972 208.904 59.3398C208.966 60.2387 208.346 64.319 208.346 64.319C208.346 64.319 207.539 70.3198 206.858 71.1604C206.177 72.001 206.3 75.5996 206.3 75.5996C206.139 77.3224 205.831 79.0282 205.379 80.6985C204.698 82.9779 205.192 85.8004 205.192 85.8004C205.192 85.8004 202.839 91.1999 208.478 87.5399C208.478 87.5399 211.239 87.3681 214.436 87.2576C214.436 87.3619 214.436 87.4693 214.436 87.5644C214.436 87.9755 214.436 88.4204 214.414 88.8867C214.371 91.9791 214.353 96.2496 214.494 99.4648C214.743 105.165 216.479 116.446 216.479 116.446V122.124C216.367 122.657 216.311 123.2 216.313 123.744C216.277 125.742 216.809 127.709 217.847 129.417L218.283 133.196C218.283 133.196 219.302 135.687 219.32 137.185C219.316 137.305 219.302 137.425 219.277 137.543C219.237 137.734 219.221 137.929 219.228 138.123C219.17 139.841 220.203 143.952 220.203 143.952C220.203 143.952 220.265 148.091 220.885 148.333C221.415 148.539 220.176 150.717 219.808 151.343C219.798 151.305 219.791 151.266 219.786 151.226L219.71 151.349C219.582 151.684 219.516 152.04 219.516 152.398C219.481 152.681 219.527 152.967 219.649 153.225C219.771 153.482 219.963 153.7 220.203 153.852C221.382 154.573 222.014 155.172 221.013 155.411C220.646 155.468 220.281 155.545 219.921 155.641C219.921 155.595 219.884 155.546 219.869 155.503C219.728 155.558 219.61 155.66 219.536 155.792C219.462 155.924 219.435 156.078 219.461 156.227C219.471 156.714 219.596 157.191 219.826 157.62C220.817 159.841 221.504 160.688 221.504 160.688L221.98 160.636C221.91 160.817 221.817 160.989 221.704 161.148C221.523 161.405 221.283 161.616 221.004 161.761C220.744 161.917 220.455 162.016 220.154 162.053C219.818 162.064 219.488 162.145 219.186 162.292C218.884 162.439 218.616 162.648 218.4 162.906C217.786 163.706 217.393 164.796 218.614 165.753L223.047 167.287C223.047 167.287 230.674 168.278 230.269 166.566C229.864 164.854 229.619 163.357 229.619 163.357C229.652 162.312 229.442 161.273 229.005 160.323C228.925 160.167 228.835 160.018 228.735 159.875L229.005 159.847C229.005 159.847 229.564 156.064 230.306 155.346C230.478 155.181 230.518 155.04 230.478 154.954C230.555 154.748 230.358 154.629 230.11 154.558L230.055 154.708C229.812 154.655 229.564 154.628 229.315 154.626C229.315 154.626 229.067 152.647 229.873 151.926C229.939 151.844 229.986 151.749 230.013 151.648C230.04 151.546 230.046 151.44 230.03 151.337C230.036 151.065 230.007 150.794 229.944 150.53C229.936 150.547 229.927 150.563 229.916 150.579C229.511 148.781 228.137 145.925 228.137 145.925C228.137 145.925 228.076 144.127 228.573 143.406C229.07 142.685 228.508 133.626 228.508 133.626C228.508 133.626 228.695 129.248 228.137 127.208C227.579 125.168 228.818 122.765 228.818 122.765C228.818 122.765 228.818 122.719 228.818 122.637V122.606L228.748 121.916C228.746 121.93 228.746 121.944 228.748 121.959C228.622 120.799 228.386 118.697 228.211 117.728C227.962 116.347 228.275 109.751 228.275 109.751L229.389 106.929L231.374 111.792L233.481 118.271C233.481 118.271 234.524 119.639 234.549 121.032C234.549 121.1 234.549 121.167 234.549 121.235C234.532 121.378 234.524 121.523 234.524 121.667C234.487 122.486 234.712 123.295 235.166 123.977C235.166 123.977 235.724 127.045 236.592 127.815C237.46 128.585 237.46 130.095 237.46 130.095C237.46 130.095 238.513 134.537 238.994 135.31C239.412 135.967 239.433 137.764 239.43 138.326C239.43 138.427 239.43 138.485 239.43 138.485C239.43 138.485 239.577 140.075 239.571 141.406C239.571 141.572 239.571 141.731 239.571 141.881C239.573 141.87 239.573 141.859 239.571 141.848C239.571 142.212 239.528 142.574 239.442 142.928L239.424 142.989C239.424 142.912 239.424 142.839 239.445 142.765C239.23 143.669 239.127 144.597 239.139 145.526C239.111 147.121 239.353 149.011 240.32 150.128C241.995 152.048 243.047 151.809 243.047 151.809C243.047 151.809 242.243 154.208 241.249 154.69C241.212 154.708 241.177 154.73 241.145 154.757C241.145 154.708 241.127 154.662 241.12 154.616C241.01 154.736 240.925 154.877 240.872 155.032C240.819 155.186 240.799 155.35 240.814 155.512C240.743 156.567 241.409 158.273 242.041 159.068C242.275 159.298 242.563 159.466 242.878 159.559C242.828 159.594 242.776 159.626 242.722 159.654C242.611 159.714 242.498 159.769 242.381 159.816C242.22 159.885 242.049 159.929 241.875 159.948C241.539 159.957 241.208 160.038 240.906 160.185C240.603 160.332 240.335 160.542 240.12 160.801C239.507 161.599 239.114 162.688 240.335 163.645L244.768 165.179C244.768 165.179 252.346 166.152 251.947 164.443Z" fill="url(#paint0_linear)"/>
<path d="M222.831 167.277L218.536 165.743C217.352 164.786 217.729 163.697 218.327 162.896C218.533 162.641 218.791 162.433 219.085 162.286C219.378 162.139 219.699 162.056 220.027 162.044C220.318 162.006 220.597 161.907 220.846 161.752C221.118 161.604 221.352 161.394 221.527 161.139C221.84 160.641 222.009 160.067 222.015 159.479C222.015 159.479 226.727 158.098 228.016 159.479C228.246 159.729 228.438 160.011 228.586 160.316C229.014 161.269 229.224 162.306 229.2 163.35C229.2 163.35 229.439 164.848 229.829 166.56C230.218 168.271 222.831 167.277 222.831 167.277Z" fill="#2D293D"/>
<path d="M243.827 165.16L239.532 163.627C238.348 162.669 238.725 161.58 239.323 160.783C239.528 160.526 239.785 160.317 240.078 160.17C240.371 160.023 240.692 159.941 241.02 159.93C241.19 159.912 241.355 159.868 241.511 159.798C241.624 159.75 241.735 159.696 241.842 159.635C243.042 158.976 243.011 157.356 243.011 157.356C243.011 157.356 247.72 155.975 249.012 157.356C249.185 157.543 249.336 157.749 249.463 157.969C250.27 159.365 250.181 161.227 250.181 161.227C250.181 161.227 250.42 162.728 250.794 164.436C251.169 166.145 243.827 165.16 243.827 165.16Z" fill="#2D293D"/>
<path opacity="0.1" d="M228.018 159.476C228.248 159.726 228.44 160.008 228.588 160.313L221.532 161.132C221.846 160.635 222.014 160.06 222.02 159.473C222.02 159.473 226.729 158.095 228.018 159.476Z" fill="black"/>
<path opacity="0.1" d="M249.469 157.975V159.297C248.37 161.104 243.06 160.709 241.517 159.804C241.63 159.756 241.741 159.702 241.848 159.641C243.047 158.981 243.017 157.362 243.017 157.362C243.017 157.362 247.726 155.981 249.018 157.362C249.19 157.549 249.342 157.754 249.469 157.975Z" fill="black"/>
<path d="M250.306 152.274C249.978 152.85 249.698 153.453 249.469 154.075V158.815C248.266 160.794 242.029 160.134 241.186 159.054C240.342 157.974 239.461 155.164 240.409 154.676C241.357 154.188 242.149 151.795 242.149 151.795C242.149 151.795 241.127 152.035 239.507 150.114C237.888 148.194 238.369 143.936 238.67 142.917C238.971 141.898 238.67 138.478 238.67 138.478C238.67 138.478 238.731 136.076 238.253 135.296C237.774 134.517 236.752 130.081 236.752 130.081C236.752 130.081 236.752 128.581 235.912 127.801C235.071 127.022 234.531 123.96 234.531 123.96C234.04 123.195 233.828 122.284 233.933 121.38C234.111 119.88 232.911 118.26 232.911 118.26L230.871 111.778L228.951 106.918L227.871 109.738C227.871 109.738 227.564 116.337 227.813 117.714C228.061 119.092 228.426 122.755 228.426 122.755C228.426 122.755 227.227 125.154 227.767 127.194C228.307 129.234 228.11 133.618 228.11 133.618C228.11 133.618 228.65 142.675 228.169 143.396C227.687 144.117 227.748 145.917 227.748 145.917C227.748 145.917 230.203 151.194 229.429 151.915C228.656 152.636 228.889 154.615 228.889 154.615C228.889 154.615 230.568 154.615 229.85 155.336C229.132 156.057 228.589 159.836 228.589 159.836L221.333 160.686C221.333 160.686 220.671 159.849 219.71 157.618C218.75 155.388 219.888 155.64 220.855 155.397C221.821 155.155 221.211 154.56 220.069 153.839C218.928 153.118 219.591 151.498 219.591 151.498C219.591 151.498 221.33 148.559 220.729 148.32C220.128 148.08 220.069 143.939 220.069 143.939C220.069 143.939 218.87 139.03 219.17 137.699C219.471 136.367 218.21 133.201 218.21 133.201L217.79 129.421C216.506 127.277 216.038 124.741 216.471 122.279V116.45C216.471 116.45 214.789 105.173 214.55 99.4725C214.397 95.8218 214.44 90.8395 214.489 87.7317C214.519 85.9892 214.55 84.8326 214.55 84.8326L240.468 82.1328C240.468 82.1328 240.443 83.3293 240.937 85.983C241.204 87.4065 241.618 89.2503 242.269 91.5543C244.128 98.1534 242.99 103.071 242.99 103.071L242.747 111.413C242.747 111.413 245.027 116.99 244.548 118.911C244.259 120.051 244.096 121.22 244.063 122.396C244.063 122.396 249.162 134.575 248.622 138.116C248.082 141.656 250.3 147.237 250.3 147.237C250.3 147.237 250.908 151.194 250.306 152.274Z" fill="#272727"/>
<path opacity="0.05" d="M235.488 121.017L243.379 119.965C243.379 119.965 238.909 124.527 235.488 121.017Z" fill="black"/>
<path opacity="0.1" d="M242.239 112.258C242.239 112.258 242.509 115.05 240.8 116.099C240.8 116.099 243.858 115.62 242.239 112.258Z" fill="black"/>
<path opacity="0.1" d="M241.753 103.379C241.753 103.379 235.157 108.809 232.758 108.358C230.359 107.907 241.753 103.379 241.753 103.379Z" fill="black"/>
<path opacity="0.1" d="M225.708 123.564C225.708 123.564 220.698 124.703 220.548 126.715C220.398 128.728 225.708 123.564 225.708 123.564Z" fill="black"/>
<path opacity="0.05" d="M226.809 148.588C226.809 148.588 219.732 149.907 221.741 150.806C223.75 151.705 227.052 152.426 227.052 152.426C227.052 152.426 229.337 152.545 226.809 148.588Z" fill="black"/>
<g opacity="0.05">
<path opacity="0.05" d="M220.312 152.234C220.134 152.123 219.983 151.973 219.871 151.795C219.759 151.618 219.689 151.417 219.665 151.209L219.591 151.335C219.591 151.335 218.931 152.955 220.073 153.673C220.201 153.755 220.327 153.838 220.441 153.918C220.652 153.878 220.88 153.847 221.097 153.792C222.064 153.553 221.453 152.955 220.312 152.234Z" fill="black"/>
<path opacity="0.05" d="M229.429 151.755C229.625 151.577 229.619 151.116 229.5 150.527C229.193 150.991 229.104 151.715 229.098 152.264C229.172 152.073 229.285 151.9 229.429 151.755Z" fill="black"/>
<path opacity="0.05" d="M228.34 121.904C228.079 122.614 227.918 123.356 227.861 124.11C227.998 123.589 228.182 123.082 228.41 122.595L228.34 121.904Z" fill="black"/>
<path opacity="0.05" d="M244.551 118.758C244.598 118.543 244.62 118.322 244.615 118.102C244.526 118.549 244.465 118.964 244.419 119.329C244.459 119.142 244.502 118.964 244.551 118.758Z" fill="black"/>
<path opacity="0.05" d="M228.172 143.237C228.27 143.09 228.325 142.593 228.35 141.902C228.128 142.436 228.01 143.008 228.003 143.587C228.045 143.464 228.102 143.346 228.172 143.237Z" fill="black"/>
<path opacity="0.05" d="M229.644 154.551C229.272 155.754 228.996 156.985 228.818 158.232L221.563 159.07C221.563 159.07 220.9 158.232 219.94 156.002C219.862 155.83 219.794 155.653 219.734 155.474C219.299 155.674 219.121 156.125 219.697 157.441C220.658 159.662 221.323 160.509 221.323 160.509L228.579 159.668C228.579 159.668 229.119 155.888 229.837 155.167C230.205 154.821 229.978 154.64 229.644 154.551Z" fill="black"/>
<path opacity="0.05" d="M220.071 143.777C220.071 143.777 220.13 147.916 220.731 148.155C221.038 147.471 221.237 146.82 220.967 146.713C220.354 146.474 220.308 142.332 220.308 142.332C220.308 142.332 219.108 137.423 219.409 136.092C219.709 134.761 218.449 131.594 218.449 131.594L218.028 127.815C216.745 125.67 216.276 123.135 216.709 120.673V114.844C216.709 114.844 215.028 103.566 214.789 97.866C214.635 94.2152 214.678 89.233 214.727 86.1252C214.727 85.5638 214.746 85.0668 214.755 84.6465L214.549 84.668C214.549 84.668 214.516 85.8215 214.488 87.5671C214.439 90.6749 214.393 95.6572 214.549 99.3049C214.789 105.005 216.467 116.286 216.467 116.286V122.115C216.036 124.576 216.505 127.11 217.789 129.254L218.206 133.033C218.206 133.033 219.467 136.212 219.166 137.534C218.866 138.856 220.071 143.777 220.071 143.777Z" fill="black"/>
<path opacity="0.05" d="M241.431 157.452C240.842 156.598 240.449 155.625 240.28 154.602C239.541 155.27 240.391 157.866 241.201 158.897C242.038 159.977 248.278 160.636 249.484 158.654V157.513C247.849 159.117 242.222 158.473 241.431 157.452Z" fill="black"/>
<path opacity="0.05" d="M250.549 150.673C250.22 151.249 249.938 151.851 249.708 152.474V153.323C249.846 153.017 250.039 152.605 250.322 152.121C250.511 151.648 250.601 151.142 250.585 150.633C250.585 150.633 250.558 150.66 250.549 150.673Z" fill="black"/>
<path opacity="0.05" d="M241.799 151.622C242.027 151.16 242.225 150.683 242.391 150.196C242.391 150.196 241.369 150.435 239.749 148.514C238.571 147.118 238.504 144.48 238.673 142.756C238.366 143.777 237.89 148.036 239.51 149.956C240.569 151.211 241.369 151.542 241.799 151.622Z" fill="black"/>
<path opacity="0.05" d="M238.67 138.316C238.776 139.498 238.816 140.685 238.789 141.871C238.819 141.684 238.86 141.499 238.912 141.316C239.219 140.295 238.912 136.877 238.912 136.877C238.912 136.877 238.973 134.475 238.492 133.696C238.01 132.916 237.007 128.474 237.007 128.474C237.007 128.474 237.007 126.974 236.166 126.195C235.326 125.415 234.786 122.354 234.786 122.354C234.29 121.59 234.073 120.678 234.172 119.773C234.353 118.273 233.154 116.653 233.154 116.653L231.114 110.174L229.193 105.314L228.11 108.137C228.11 108.137 228.11 108.493 228.073 109.057L228.951 106.766L230.871 111.616L232.911 118.095C232.911 118.095 234.111 119.715 233.93 121.215C233.831 122.12 234.048 123.032 234.543 123.795C234.543 123.795 235.083 126.863 235.924 127.636C236.765 128.41 236.762 129.916 236.762 129.916C236.762 129.916 237.783 134.355 238.262 135.131C238.74 135.907 238.67 138.316 238.67 138.316Z" fill="black"/>
</g>
<path d="M243.708 27.9344L243.257 30.1249L243.284 31.1005L243.303 31.8184L240.799 32.0761L240.52 31.5576C240.002 30.6188 238.925 28.7106 238.578 28.4161C238.115 28.0295 237.29 21.9367 238.271 22.2987C238.876 22.5321 239.372 22.9814 239.664 23.5596C239.664 23.5596 244.594 24.1241 243.708 27.9344Z" fill="#FFCDD3"/>
<path opacity="0.1" d="M243.302 31.8156L240.799 32.0733L240.52 31.5548C240.856 31.1715 241.315 30.9167 241.819 30.8339C242.322 30.7511 242.839 30.8454 243.281 31.1008L243.302 31.8156Z" fill="black"/>
<path d="M243.934 33.0041L240.633 33.768L240.562 33.2772L240.375 31.9549C240.375 31.9549 241.682 30.2123 243.572 31.5192L243.737 32.1911L243.934 33.0041Z" fill="#3E9F94"/>
<path d="M190.461 28.1708L186.936 30.0607L186.629 29.398C186.294 28.6954 185.794 27.637 185.656 27.2505C185.448 26.6676 183.978 25.9313 183.978 25.9313C180.297 22.4063 184.684 19.3752 184.684 19.3752C187.009 14.6966 189.592 20.9644 189.592 20.9644C189.592 20.9644 189.954 24.2685 189.7 24.4894C189.445 24.7102 189.445 25.6153 189.445 25.6153C189.781 26.2637 190.065 26.9377 190.295 27.6309C190.402 27.9653 190.461 28.1708 190.461 28.1708Z" fill="#FFCDD3"/>
<path opacity="0.1" d="M190.461 28.1723L186.936 30.0621L186.629 29.3994C187.126 28.9822 188.89 27.5587 189.47 27.617C189.747 27.6515 190.026 27.6587 190.304 27.6385C190.402 27.9667 190.461 28.1723 190.461 28.1723Z" fill="black"/>
<path d="M190.82 29.2371L186.86 31.1883L186.78 30.3385L186.725 29.7494C186.725 29.7494 189.019 27.7829 189.697 27.8596C190.04 27.9093 190.388 27.9093 190.731 27.8596L190.777 28.5714L190.82 29.2371Z" fill="#3E9F94"/>
<path d="M234.108 42.4865C234.108 42.4865 216.842 44.4346 220.069 43.3854C222.315 42.6522 223.207 41.2379 223.395 39.6426C223.548 38.3142 223.204 36.8815 222.753 35.6543C222.348 34.5657 221.834 33.5204 221.219 32.5343C221.219 32.5343 234.411 25.2756 231.776 31.8747C231.37 32.8728 231.117 33.9269 231.028 35.0009C230.948 36.0681 231.064 37.1409 231.368 38.1669C231.866 39.8317 232.814 41.3266 234.108 42.4865Z" fill="#FFCDD3"/>
<path opacity="0.1" d="M231.767 31.8649C231.361 32.863 231.108 33.9171 231.019 34.9911C229.776 36.0372 228.414 35.9667 226.662 35.9667C225.318 35.9667 223.827 36.2919 222.754 35.6445C222.348 34.5559 221.834 33.5107 221.22 32.5245C221.22 32.5245 234.409 25.2659 231.767 31.8649Z" fill="black"/>
<path d="M226.429 36.4264C230.372 36.4264 233.568 33.2302 233.568 29.2874C233.568 25.3447 230.372 22.1484 226.429 22.1484C222.486 22.1484 219.29 25.3447 219.29 29.2874C219.29 33.2302 222.486 36.4264 226.429 36.4264Z" fill="#FFCDD3"/>
<path opacity="0.1" d="M234.108 42.4859C234.108 42.4859 216.842 44.434 220.069 43.3848C222.315 42.6516 223.207 41.2372 223.395 39.6419C224.254 38.7216 225.981 38.0374 227.076 37.6816C228.089 37.3411 229.182 37.3228 230.205 37.6294C230.608 37.7506 230.991 37.9283 231.343 38.1571C231.847 39.828 232.803 41.3266 234.108 42.4859Z" fill="black"/>
<path opacity="0.1" d="M243.934 33.0049L240.633 33.7688L240.562 33.2779C240.916 32.7924 241.41 32.4277 241.979 32.2333C242.547 32.039 243.161 32.0245 243.738 32.1919L243.934 33.0049Z" fill="black"/>
<path opacity="0.1" d="M190.821 29.2372L186.86 31.1883L186.78 30.3385C188.063 29.6488 189.396 29.057 190.769 28.5684L190.821 29.2372Z" fill="black"/>
<path opacity="0.1" d="M240.938 85.9908C234.247 87.0585 224.736 88.4206 223.227 87.9604C221.972 87.58 217.971 87.6199 214.489 87.7395C214.52 85.997 214.551 84.8404 214.551 84.8404L240.468 82.1406C240.468 82.1406 240.444 83.3371 240.938 85.9908Z" fill="black"/>
<path d="M247.606 84.4195C247.606 84.4195 225.588 88.1991 223.226 87.4874C220.863 86.7756 208.73 87.5457 208.73 87.5457C203.269 91.2057 205.548 85.8062 205.548 85.8062C205.548 85.8062 205.07 82.9868 205.729 80.7073C206.172 79.0338 206.475 77.3262 206.634 75.6023C206.634 75.6023 206.515 72.0006 207.174 71.16C207.834 70.3194 208.616 64.3217 208.616 64.3217C208.616 64.3217 209.214 60.2414 209.156 59.3425C209.098 58.4436 209.334 55.9218 209.334 55.9218L210.116 51.7219C205.616 51.1236 191.936 42.7237 191.936 42.7237C191.277 39.9043 186.178 33.3053 186.178 33.3053C186.103 32.7504 185.962 32.2065 185.757 31.6854C185.398 30.7252 190.798 28.8047 190.798 28.8047C190.798 28.8047 194.817 33.7133 195.657 35.0448C196.498 36.3763 199.376 38.8244 199.376 38.8244C199.823 38.7784 200.275 38.8373 200.695 38.9962L200.766 39.0177C201.73 39.3963 202.634 39.913 203.45 40.5517C204.803 40.5196 206.115 41.0146 207.11 41.9322C207.11 41.9322 209.564 41.5702 209.991 41.9905C210.417 42.4108 212.509 41.9905 212.509 41.9905C212.509 41.9905 214.608 37.5513 215.988 38.8398C217.369 40.1283 223.226 40.0669 223.226 40.0669C224.005 39.03 225.904 38.2875 227.091 37.9194C228.104 37.5803 229.197 37.5621 230.22 37.8672C230.662 37.999 231.077 38.2066 231.448 38.4808L235.009 41.9598C235.009 41.9598 236.028 40.6376 235.908 40.34C235.789 40.0424 237.108 39.8 237.108 39.8C237.108 39.8 238.847 39.2601 239.507 39.0791C240.166 38.8981 240.771 39.6129 240.826 39.6773C240.805 39.6006 240.354 38.1434 240.519 37.0389C240.685 35.9345 239.798 34.8914 239.798 34.8914C241.897 29.7312 246.637 34.0508 246.637 34.0508C246.637 34.0508 247.177 36.8702 246.698 37.9501C246.219 39.03 247.177 41.3094 247.057 41.9107C246.937 42.512 247.299 43.5306 247.299 44.6718C247.299 45.8131 246.686 47.9698 246.339 48.9301C245.992 49.8903 243.099 52.0501 243.099 52.0501C243.099 52.0501 242.918 55.4708 241.657 57.4496C240.397 59.4284 241.188 66.1962 241.188 66.1962C241.188 66.1962 242.388 71.476 243.888 73.1572C245.388 74.8384 247.606 84.4195 247.606 84.4195Z" fill="#272727"/>
<path opacity="0.1" d="M215.51 44.9415C215.51 44.9415 214.851 42.9627 214.249 42.794C213.652 42.5744 213.071 42.3141 212.51 42.0147L212.896 41.2754C212.896 41.2754 215.148 41.889 215.51 42.5547C215.872 43.2204 215.51 44.9415 215.51 44.9415Z" fill="black"/>
<path opacity="0.1" d="M203.45 40.5638C203.33 41.1774 197.989 41.702 197.989 41.702L200.689 38.9961L200.757 39.0206C201.725 39.4013 202.632 39.9211 203.45 40.5638Z" fill="black"/>
<path d="M188.001 32.8068C188.265 32.8068 188.48 32.5925 188.48 32.3282C188.48 32.0639 188.265 31.8496 188.001 31.8496C187.737 31.8496 187.522 32.0639 187.522 32.3282C187.522 32.5925 187.737 32.8068 188.001 32.8068Z" fill="#575988"/>
<path d="M188.614 33.7677C188.879 33.7677 189.093 33.5535 189.093 33.2891C189.093 33.0248 188.879 32.8105 188.614 32.8105C188.35 32.8105 188.136 33.0248 188.136 33.2891C188.136 33.5535 188.35 33.7677 188.614 33.7677Z" fill="#575988"/>
<path d="M189.215 34.6544C189.479 34.6544 189.694 34.4402 189.694 34.1759C189.694 33.9115 189.479 33.6973 189.215 33.6973C188.951 33.6973 188.736 33.9115 188.736 34.1759C188.736 34.4402 188.951 34.6544 189.215 34.6544Z" fill="#575988"/>
<path d="M189.845 35.6134C190.109 35.6134 190.323 35.3992 190.323 35.1348C190.323 34.8705 190.109 34.6562 189.845 34.6562C189.58 34.6562 189.366 34.8705 189.366 35.1348C189.366 35.3992 189.58 35.6134 189.845 35.6134Z" fill="#575988"/>
<path d="M246.397 35.4707C246.613 35.4707 246.787 35.2962 246.787 35.081C246.787 34.8658 246.613 34.6914 246.397 34.6914C246.182 34.6914 246.008 34.8658 246.008 35.081C246.008 35.2962 246.182 35.4707 246.397 35.4707Z" fill="#575988"/>
<path d="M246.458 36.3574C246.673 36.3574 246.848 36.1829 246.848 35.9677C246.848 35.7526 246.673 35.5781 246.458 35.5781C246.243 35.5781 246.068 35.7526 246.068 35.9677C246.068 36.1829 246.243 36.3574 246.458 36.3574Z" fill="#575988"/>
<path d="M246.511 37.2421C246.726 37.2421 246.9 37.0677 246.9 36.8525C246.9 36.6373 246.726 36.4629 246.511 36.4629C246.296 36.4629 246.121 36.6373 246.121 36.8525C246.121 37.0677 246.296 37.2421 246.511 37.2421Z" fill="#575988"/>
<path opacity="0.1" d="M215.531 61.2033C215.473 61.1328 228.999 78.2117 239.498 68.3423C239.507 68.3454 222.919 70.5942 215.531 61.2033Z" fill="black"/>
<path opacity="0.1" d="M207.771 70.0801C207.771 70.0801 215.864 70.301 216.71 72.6295V75.0531C216.48 75.181 216.221 75.2481 215.957 75.2481C215.694 75.2481 215.434 75.181 215.204 75.0531C214.388 74.6114 209.495 72.1264 207.771 73.3228V70.0801Z" fill="black"/>
<path d="M207.921 70.0801C207.921 70.0801 215.661 70.2918 216.471 72.5129V74.82C216.251 74.9425 216.002 75.0067 215.75 75.0067C215.498 75.0067 215.25 74.9425 215.029 74.82C214.25 74.4027 209.571 72.0313 207.921 73.1725V70.0801Z" fill="#3F3D56"/>
<path opacity="0.1" d="M212.188 52.5059C213.014 54.4197 214.068 56.2274 215.326 57.89C216.694 59.7277 218.352 61.3307 220.235 62.636C220.235 62.636 212.322 53.6164 212.188 52.5059Z" fill="black"/>
<path opacity="0.1" d="M209.54 43.1035C209.54 43.1035 210.89 48.9325 214.369 50.9113L209.54 43.1035Z" fill="black"/>
<path opacity="0.1" d="M207.469 43.6932C207.435 43.5858 206.27 48.2951 211.954 50.912C211.954 50.912 209.54 50.0928 207.469 43.6932Z" fill="black"/>
<path opacity="0.1" d="M242.809 39.7832C242.72 39.7832 245.613 41.6239 246.401 42.4829C246.401 42.4829 244.517 39.6605 242.809 39.7832Z" fill="black"/>
<path d="M224.499 35.756C224.5 35.9118 224.533 36.0656 224.597 36.2078C224.66 36.35 224.753 36.4774 224.868 36.5821C224.983 36.6868 225.119 36.7664 225.267 36.8159C225.414 36.8654 225.571 36.8837 225.726 36.8697C227.901 37.0047 230.168 37.0998 232.169 36.2561C232.544 36.1222 232.881 35.899 233.15 35.6057C233.506 35.167 233.577 34.5718 233.721 34.0257C234.003 32.9581 234.604 32.0101 235.037 30.9947C235.769 29.279 236.014 27.395 235.746 25.5492C235.689 24.9834 235.502 24.4384 235.2 23.9569C234.623 23.1317 233.571 22.7973 232.807 22.1407C232.043 21.4842 231.552 20.481 230.659 19.9932C229.855 19.5453 228.871 19.6005 227.966 19.7539C226.185 20.0562 224.48 20.6967 222.94 21.6407C222.422 21.9474 221.854 22.3248 221.259 22.2113C220.738 22.1131 220.357 21.6744 220.032 21.2633C219.614 22.2451 219.438 23.3132 219.52 24.3772C219.542 24.5334 219.537 24.6923 219.504 24.8466C219.429 25.0332 219.315 25.2016 219.17 25.3405C218.633 25.9541 218.299 26.9512 218.829 27.5832C219.059 27.8562 219.415 28.0065 219.639 28.2857C220.041 28.7858 219.906 29.5129 219.897 30.151C219.875 30.3738 219.931 30.5974 220.056 30.783C220.173 30.8912 220.315 30.9675 220.469 31.0046C220.623 31.0417 220.784 31.0383 220.937 30.9947C221.241 30.9031 221.56 30.8729 221.876 30.9057C222.208 31.0139 222.496 31.2297 222.692 31.5193C223.683 32.8109 224.075 34.216 224.499 35.756Z" fill="#2D293D"/>
<g opacity="0.1">
<path opacity="0.1" d="M233.406 35.0607C233.136 35.354 232.799 35.5772 232.424 35.7111C230.411 36.5486 228.147 36.4535 225.981 36.3247C225.749 36.327 225.519 36.2756 225.31 36.1744C224.978 35.9811 224.852 35.5761 224.751 35.208C224.328 33.674 223.938 32.2659 222.932 30.9866C222.738 30.6915 222.451 30.47 222.116 30.3576C221.8 30.3279 221.482 30.358 221.177 30.4466C221.025 30.4906 220.864 30.4945 220.709 30.458C220.555 30.4214 220.413 30.3457 220.297 30.238C220.171 30.0524 220.115 29.8288 220.137 29.606C220.137 28.9617 220.281 28.2408 219.879 27.7407C219.655 27.4615 219.3 27.3112 219.07 27.0351C218.919 26.8315 218.827 26.5911 218.803 26.3394C218.779 26.0876 218.823 25.834 218.931 25.6055C218.548 26.219 218.385 26.9891 218.83 27.5168C219.06 27.7898 219.416 27.9401 219.64 28.2193C220.042 28.7225 219.907 29.4465 219.898 30.0846C219.874 30.3071 219.93 30.5308 220.054 30.7166C220.171 30.8253 220.313 30.9019 220.468 30.939C220.623 30.9762 220.785 30.9724 220.938 30.9283C221.242 30.8367 221.561 30.8065 221.877 30.8393C222.209 30.9475 222.496 31.1633 222.693 31.4529C223.696 32.7322 224.089 34.1373 224.512 35.6774C224.562 36.0563 224.751 36.4032 225.043 36.6499C225.253 36.7512 225.484 36.8017 225.718 36.7971C227.893 36.9321 230.16 37.0303 232.16 36.1836C232.536 36.0505 232.873 35.8272 233.142 35.5332C233.277 35.3604 233.381 35.1651 233.449 34.9564C233.452 34.9963 233.43 35.03 233.406 35.0607Z" fill="black"/>
<path opacity="0.1" d="M219.52 24.6578C219.617 24.5532 219.691 24.43 219.738 24.2958C219.766 24.1406 219.766 23.9817 219.738 23.8264C219.678 22.9518 219.792 22.0739 220.072 21.2433L220.032 21.1973C219.613 22.1776 219.437 23.245 219.52 24.3081C219.529 24.4245 219.529 24.5415 219.52 24.6578Z" fill="black"/>
</g>
<path opacity="0.1" d="M223.226 40.0842C223.226 40.0842 232.144 41.2684 232.945 39.9277L223.226 40.0842Z" fill="black"/>
<path opacity="0.1" d="M240.562 36.3906C240.562 36.3906 245.52 36.3906 246.609 38.2559L240.562 36.3906Z" fill="black"/>
<path d="M268.3 202.103C266.83 203.417 264.919 204.131 262.947 204.103C262.444 204.103 261.747 204.198 261.744 204.701C261.756 204.849 261.807 204.991 261.891 205.112C262.514 206.15 263.497 206.922 264.652 207.281C265.726 207.607 266.874 207.551 267.993 207.493L271.261 207.324C271.874 207.291 272.488 207.26 273.101 207.183C273.715 207.107 274.384 206.981 275.025 206.877C276.601 206.653 278.194 206.579 279.783 206.656C280.207 206.671 280.704 206.656 280.955 206.349C281.207 206.042 281.078 205.456 280.983 204.996C280.787 204.048 280.983 203.054 280.802 202.103C280.495 200.434 279.05 199.155 277.467 198.55C275.995 197.992 273.387 197.351 271.994 198.283C270.524 199.262 269.626 200.897 268.3 202.103Z" fill="#3F3D56"/>
<path d="M271.546 146.186C271.834 147.558 273.163 148.607 273.2 150.006C273.233 151.129 272.433 152.071 271.856 153.031C271.312 154.026 270.854 155.064 270.484 156.136C269.399 158.926 268.051 161.607 266.459 164.143C265.692 165.37 264.833 166.68 265.008 168.107C265.13 168.774 265.366 169.415 265.705 170.003L268.006 174.574C268.51 175.486 268.904 176.455 269.181 177.461C269.38 178.329 269.398 179.228 269.515 180.111C269.877 182.915 271.193 185.738 270.414 188.456C270.346 188.689 270.107 188.971 269.92 188.809C270.681 190.229 271.291 191.659 271.233 193.269C271.202 194.113 270.945 194.994 271.254 195.779C271.386 196.107 271.617 196.414 271.613 196.767C271.613 197 271.506 197.218 271.482 197.445C271.417 198.092 272.012 198.632 272.629 198.838C273.246 199.043 273.917 199.028 274.54 199.215C275.737 199.574 276.593 200.605 277.608 201.32C278.65 202.037 279.878 202.437 281.142 202.47C281.323 202.489 281.505 202.453 281.664 202.366C281.754 202.287 281.826 202.19 281.876 202.081C281.926 201.972 281.952 201.854 281.952 201.734C282.008 201.161 281.922 200.583 281.701 200.051C281.481 199.519 281.133 199.05 280.688 198.684C280.493 198.562 280.332 198.394 280.219 198.193C280.162 198.016 280.147 197.828 280.176 197.644C280.361 195.13 280.316 192.604 280.041 190.097C279.917 189.303 279.877 188.498 279.921 187.695C279.986 187.026 280.188 186.364 280.115 185.698C280.041 185.032 279.7 184.425 279.501 183.784C279.145 182.642 279.243 181.415 279.194 180.222C279.133 178.148 278.657 176.111 278.185 174.086C277.998 173.291 277.792 172.46 277.231 171.871C276.752 171.371 275.979 170.892 276.16 170.226C276.26 169.981 276.41 169.759 276.599 169.573C276.821 169.294 276.984 168.973 277.078 168.629C277.172 168.285 277.195 167.926 277.145 167.573C277.347 167.624 277.56 167.604 277.749 167.516C277.937 167.427 278.089 167.276 278.179 167.088C281.915 165.324 284.928 161.796 286.272 157.884C286.351 157.594 286.473 157.317 286.634 157.062C286.981 156.577 287.582 156.369 288.116 156.102C289.791 155.258 290.947 153.678 292.009 152.132C292.622 151.236 293.236 150.31 293.512 149.254C293.657 148.572 293.726 147.875 293.718 147.177L293.813 143.573C293.834 143.335 293.811 143.096 293.745 142.867C293.654 142.653 293.522 142.459 293.356 142.296C292.335 141.217 290.995 140.495 289.533 140.235C288.551 140.06 287.548 140.094 286.554 140.011C284.627 139.851 282.725 139.253 280.799 139.397C277.771 139.621 275.074 141.72 273.647 144.401C273.147 145.346 272.62 146.168 271.546 146.186Z" fill="#464353"/>
<path d="M254.734 122.75C254.774 123.306 254.699 123.865 254.513 124.391C254.276 124.894 253.684 125.287 253.166 125.081C253.322 124.729 252.908 124.327 252.522 124.37C252.331 124.413 252.155 124.503 252.007 124.63C251.859 124.757 251.744 124.918 251.672 125.1C251.416 125.615 251.33 126.198 251.426 126.766C251.549 127.471 251.957 128.149 251.85 128.858C251.764 129.447 251.331 130.033 251.561 130.579C251.711 130.829 251.898 131.053 252.117 131.245C252.42 131.618 252.568 132.094 252.531 132.573C252.494 133.053 252.274 133.5 251.917 133.822L257.722 133.938C257.51 134.908 257.946 135.899 258.443 136.761C259.835 139.131 261.757 141.146 264.058 142.649C266.36 144.152 268.978 145.101 271.708 145.422C271.561 145.508 271.434 145.626 271.338 145.767C271.241 145.908 271.177 146.069 271.151 146.237C271.124 146.406 271.135 146.579 271.183 146.743C271.231 146.907 271.315 147.058 271.429 147.186C271.902 147.655 272.702 147.597 273.294 147.293C273.886 146.989 274.35 146.486 274.89 146.096C275.843 145.421 277.006 145.108 278.169 145.213C278.896 145.283 279.602 145.52 280.332 145.556C282.48 145.67 284.32 144.124 286.388 143.492C287.894 143.029 289.603 143.029 290.867 142.087C291.413 141.682 291.861 141.016 291.702 140.359C291.57 139.982 291.361 139.636 291.088 139.344C290.361 138.402 289.932 137.27 289.41 136.199C288.377 134.08 286.954 132.173 285.216 130.579C283.904 129.432 282.514 128.379 281.056 127.425C280.704 127.165 280.328 126.938 279.933 126.747C279.424 126.523 278.859 126.416 278.399 126.134C277.718 125.704 277.326 124.946 276.801 124.336C275.65 122.992 273.883 122.375 272.466 121.32C271.515 120.611 270.674 119.679 269.539 119.338C268.987 119.17 268.401 119.157 267.849 118.992C266.594 118.611 265.68 117.498 264.45 117.047C263.477 116.691 262.403 116.783 261.382 116.657C260.23 116.515 259.13 116.096 258.176 115.436C257.868 115.185 257.524 114.985 257.154 114.841C255.599 114.368 255.473 117.264 255.313 118.268C255.108 119.759 254.734 121.24 254.734 122.75Z" fill="#00CEB5"/>
<path d="M256.249 132.463C256.509 135.291 254.374 138.031 254.997 140.801C255.129 141.39 255.383 141.952 255.476 142.55C255.736 144.191 254.755 145.747 253.819 147.121L245.781 158.917C245.458 159.435 245.073 159.911 244.634 160.334C243.1 161.7 240.793 161.562 238.774 161.967C237.356 162.258 236.017 162.85 234.847 163.703C234.794 163.744 234.76 163.803 234.75 163.869C234.741 163.935 234.758 164.002 234.798 164.056C235.131 164.51 235.573 164.873 236.082 165.112C236.592 165.352 237.153 165.46 237.715 165.427C237.927 165.703 237.715 166.114 237.424 166.314C236.995 166.621 236.399 166.691 236.313 167.424C236.284 167.679 236.336 167.937 236.461 168.161C236.786 168.655 237.289 169.005 237.866 169.136C240.648 169.989 243.655 168.492 245.738 166.458C247.821 164.424 249.315 161.856 251.358 159.788C252.49 158.641 253.776 157.662 254.942 156.552C257.267 154.334 259.077 151.643 260.82 148.946C261.344 148.133 261.875 147.299 262.093 146.357C262.311 145.415 262.21 144.461 262.458 143.55C262.783 142.357 263.658 141.402 264.385 140.402C265.811 138.439 266.765 136.037 266.575 133.616C266.385 131.196 264.888 128.809 262.605 127.987C261.897 127.705 261.118 127.658 260.381 127.852C259.445 128.14 258.755 128.913 258.117 129.655L256.583 131.416C256.21 131.806 255.917 132.266 255.721 132.769C255.622 133.023 255.598 133.3 255.653 133.566C255.707 133.833 255.837 134.078 256.028 134.273" fill="#FBBEBE"/>
<path d="M260.322 120.859C259.267 120.92 258.104 121.024 257.359 121.779C257.046 122.126 256.793 122.522 256.61 122.951C255.886 124.427 255.181 125.97 255.128 127.614C255.085 128.927 255.466 130.213 255.665 131.51C255.831 132.59 255.411 133.692 255.331 134.784C256.641 134.382 258.371 133.836 259.558 133.158C260.368 132.695 261.151 132.167 262.034 131.872C263.295 131.452 265.409 132.179 266.608 132.762C266.673 131.922 266.041 130.455 266.108 129.611C266.118 129.256 266.181 128.905 266.295 128.568C266.475 128.213 266.688 127.875 266.931 127.559C267.387 126.817 267.597 125.949 267.53 125.08C267.464 124.211 267.124 123.385 266.559 122.721C265.495 121.524 263.829 121.077 262.24 120.88C261.239 120.764 260.23 120.729 259.224 120.776" fill="#00C0A9"/>
<path d="M104.6 106L104.053 107.755L104.053 158.724L104.6 159.24L129.648 145.261L104.6 106Z" fill="#D2D2D2"/>
<path d="M105.059 106.086L80 145.329L105.059 159.308L105.059 106.086Z" fill="#BFBFBF"/>
<path d="M105.167 164.194L104.857 164.555L104.857 182.691L105.167 183.539L130.234 150.219L105.167 164.194Z" fill="#888888"/>
<path d="M105.059 183.278L105.059 163.929L80 149.957L105.059 183.278Z" fill="#7C7C7C"/>
<path d="M104.857 159.507L129.908 145.532L104.857 134.781L104.857 159.507Z" fill="#7E7E7E"/>
<path d="M80 145.528L105.059 159.507L105.059 134.781L80 145.528Z" fill="#919191"/>
<defs>
<linearGradient id="paint0_linear" x1="216.66" y1="167.563" x2="216.66" y2="17.6471" gradientUnits="userSpaceOnUse">
<stop stop-color="#808080" stop-opacity="0.25"/>
<stop offset="0.54" stop-color="#808080" stop-opacity="0.12"/>
<stop offset="1" stop-color="#808080" stop-opacity="0.1"/>
</linearGradient>
</defs>
</svg>
