<svg width="306" height="103" viewBox="0 0 306 103" fill="none" xmlns="http://www.w3.org/2000/svg">
<path d="M262 88C262 88.3109 261.784 88.932 260.582 89.8132C259.42 90.6644 257.613 91.5481 255.14 92.4249C250.213 94.1721 243.001 95.7713 233.988 97.1232C215.986 99.8236 191.064 101.5 163.5 101.5C135.936 101.5 111.014 99.8236 93.0118 97.1232C83.999 95.7713 76.7866 94.1721 71.8599 92.4249C69.3873 91.5481 67.5796 90.6644 66.4185 89.8132C65.2162 88.932 65 88.3109 65 88C65 87.6891 65.2162 87.068 66.4185 86.1868C67.5796 85.3356 69.3873 84.4519 71.8599 83.5751C76.7866 81.8279 83.999 80.2287 93.0118 78.8768C111.014 76.1764 135.936 74.5 163.5 74.5C191.064 74.5 215.986 76.1764 233.988 78.8768C243.001 80.2287 250.213 81.8279 255.14 83.5751C257.613 84.4519 259.42 85.3356 260.582 86.1868C261.784 87.068 262 87.6891 262 88Z" fill="#C4C4C4" stroke="black" stroke-width="3"/>
<path d="M259.293 82.6287L255.368 87.2194L249.943 90.9494L238.236 95.2532L228.814 97.2616L217.964 98.6962L202.545 101.565L187.412 103H158.574H144.868L131.163 103L119.171 101.565L103.752 98.6962L81.7662 93.2447L71.7726 88.9409L64.4137 82.6287L0 0L305.5 0L259.293 82.6287Z" fill="url(#paint0_linear)"/>
<defs>
<linearGradient id="paint0_linear" x1="152.5" y1="125.5" x2="152.5" y2="30.5" gradientUnits="userSpaceOnUse">
<stop offset="0.00178594" stop-color="#FFD700" stop-opacity="0.62"/>
<stop offset="1" stop-color="#FFD700" stop-opacity="0"/>
</linearGradient>
</defs>
</svg>
