<svg width="970" height="964" viewBox="0 0 970 964" fill="none" xmlns="http://www.w3.org/2000/svg">
<g filter="url(#filter0_d)">
<path d="M245.72 239.021L483.872 425.132L430.132 478.872L245.72 239.021Z" fill="url(#paint0_linear)"/>
<path d="M724.852 240.72L538.74 478.872L485 425.132L724.852 240.72Z" fill="url(#paint1_linear)"/>
<path d="M4 473.419L404 425V525L4 473.419Z" fill="url(#paint2_linear)"/>
<path d="M4 473.5L204 449L404 474L204 499L4 473.5Z" fill="url(#paint3_linear)"/>
<path d="M966 475.581L566 524V424L966 475.581Z" fill="url(#paint4_linear)"/>
<path d="M966 475.5L766 500L566 475L766 450L966 475.5Z" fill="url(#paint5_linear)"/>
<path d="M485.581 0L534 400H434L485.581 0Z" fill="url(#paint6_linear)"/>
<path d="M485.5 0L510 200L485 400L460 200L485.5 0Z" fill="url(#paint7_linear)"/>
<path d="M566 485.908V464.092C554.856 460.13 547.816 459.016 544.272 450.464V450.457C540.715 441.878 544.947 436.053 549.989 425.435L534.565 410.011C524.029 415.019 518.142 419.292 509.543 415.728H509.536C500.971 412.178 499.85 405.09 495.908 394H474.092C470.163 405.036 469.036 412.171 460.464 415.728H460.457C451.878 419.292 446.066 415.067 435.435 410.011L420.011 425.435C425.04 436.019 429.292 441.864 425.728 450.457C422.171 459.036 415.036 460.163 404 464.092V485.908C415.016 489.823 422.171 490.964 425.728 499.536C429.306 508.19 424.959 514.157 420.011 524.558L435.435 539.989C445.978 534.974 451.864 530.708 460.457 534.272H460.464C469.036 537.822 470.157 544.93 474.092 556H495.908C499.837 544.957 500.97 537.842 509.59 534.251H509.597C518.116 530.714 523.907 534.933 534.558 539.996L549.982 524.565C544.96 514.015 540.701 508.143 544.258 499.55C547.815 490.971 554.977 489.83 566 485.908V485.908ZM485 502C470.089 502 458 489.911 458 475C458 460.089 470.089 448 485 448C499.911 448 512 460.089 512 475C512 489.911 499.911 502 485 502Z" fill="url(#paint8_radial)"/>
<path d="M533.134 474.583C533.134 501.397 511.397 523.134 484.583 523.134C457.77 523.134 436.033 501.397 436.033 474.583C436.033 447.77 457.77 426.033 484.583 426.033C511.397 426.033 533.134 447.77 533.134 474.583Z" fill="#2D2D2D"/>
<path d="M458.073 495.706C458.073 493.028 458.1 490.384 458.073 487.721C458.049 487.243 458.124 486.766 458.292 486.318C458.461 485.871 458.719 485.462 459.052 485.119C471.609 471.445 484.154 457.758 496.685 444.058C497.019 443.656 497.441 443.336 497.917 443.122C498.394 442.909 498.914 442.807 499.436 442.826C504.345 442.864 509.258 442.849 514.166 442.826C515.337 442.826 516.378 443.006 516.898 444.219C517.419 445.431 516.952 446.376 516.099 447.306C498.307 466.714 480.53 486.121 462.767 505.527C461.849 506.533 460.885 507.169 459.527 506.648C458.168 506.128 458.05 504.949 458.061 503.691C458.092 501.032 458.073 498.369 458.073 495.706Z" fill="url(#paint9_linear)"/>
<path d="M504.592 506.839C502.113 506.839 499.619 506.813 497.158 506.839C496.679 506.858 496.201 506.766 495.763 506.571C495.324 506.376 494.937 506.083 494.629 505.715C490.868 501.579 487.077 497.466 483.312 493.334C482.206 492.117 482.218 490.908 483.339 489.668C485.836 486.921 488.346 484.183 490.868 481.454C492.097 480.126 493.547 480.115 494.794 481.454C501.27 488.509 507.743 495.57 514.211 502.638C514.578 502.989 514.828 503.445 514.925 503.943C515.023 504.441 514.963 504.957 514.754 505.42C514.345 506.407 513.499 506.824 512.436 506.82L504.592 506.839Z" fill="url(#paint10_linear)"/>
<path d="M458.072 459.278C458.072 454.778 458.072 450.28 458.072 445.783C458.072 443.641 458.837 442.853 460.945 442.845C464.618 442.83 468.29 442.83 471.961 442.845C474.038 442.845 474.868 443.702 474.872 445.776C474.872 450.459 474.872 455.142 474.872 459.821C474.883 460.275 474.801 460.727 474.632 461.148C474.463 461.57 474.21 461.953 473.889 462.274C470.106 466.329 466.35 470.41 462.621 474.517C461.768 475.462 460.804 475.967 459.587 475.539C458.37 475.11 458.034 474.008 458.057 472.761C458.091 468.273 458.072 463.793 458.072 459.278Z" fill="url(#paint11_linear)"/>
<path d="M723.152 708.852L485 522.74L538.74 469L723.152 708.852Z" fill="url(#paint12_linear)"/>
<path d="M245.021 708.152L431.132 470L484.872 523.74L245.021 708.152Z" fill="url(#paint13_linear)"/>
<path d="M482.419 956L434 556H534L482.419 956Z" fill="url(#paint14_linear)"/>
<path d="M482.5 956L458 756L483 556L508 756L482.5 956Z" fill="url(#paint15_linear)"/>
</g>
<defs>
<filter id="filter0_d" x="0" y="0" width="970" height="964" filterUnits="userSpaceOnUse" color-interpolation-filters="sRGB">
<feFlood flood-opacity="0" result="BackgroundImageFix"/>
<feColorMatrix in="SourceAlpha" type="matrix" values="0 0 0 0 0 0 0 0 0 0 0 0 0 0 0 0 0 0 127 0"/>
<feOffset dy="4"/>
<feGaussianBlur stdDeviation="2"/>
<feColorMatrix type="matrix" values="0 0 0 0 0 0 0 0 0 0 0 0 0 0 0 0 0 0 0.25 0"/>
<feBlend mode="normal" in2="BackgroundImageFix" result="effect1_dropShadow"/>
<feBlend mode="normal" in="SourceGraphic" in2="effect1_dropShadow" result="shape"/>
</filter>
<linearGradient id="paint0_linear" x1="244.87" y1="239.87" x2="457.002" y2="452.002" gradientUnits="userSpaceOnUse">
<stop stop-color="#00FFFF"/>
<stop offset="1" stop-color="#00FFFF" stop-opacity="0"/>
</linearGradient>
<linearGradient id="paint1_linear" x1="724.002" y1="239.87" x2="511.87" y2="452.002" gradientUnits="userSpaceOnUse">
<stop stop-color="#00FFFF"/>
<stop offset="1" stop-color="#00FFFF" stop-opacity="0"/>
</linearGradient>
<linearGradient id="paint2_linear" x1="14.4167" y1="1008.15" x2="414.417" y2="1008.15" gradientUnits="userSpaceOnUse">
<stop stop-color="#00FFFF"/>
<stop offset="0.9999" stop-color="#00FFFF" stop-opacity="0"/>
<stop offset="1" stop-color="#00FFFF" stop-opacity="0"/>
</linearGradient>
<linearGradient id="paint3_linear" x1="4" y1="474" x2="404" y2="474" gradientUnits="userSpaceOnUse">
<stop stop-color="#17FFFF"/>
<stop offset="1" stop-opacity="0.72"/>
</linearGradient>
<linearGradient id="paint4_linear" x1="955.583" y1="-59.1523" x2="555.583" y2="-59.1523" gradientUnits="userSpaceOnUse">
<stop stop-color="#00FFFF"/>
<stop offset="0.9999" stop-color="#00FFFF" stop-opacity="0"/>
<stop offset="1" stop-color="#00FFFF" stop-opacity="0"/>
</linearGradient>
<linearGradient id="paint5_linear" x1="966" y1="475" x2="566" y2="475" gradientUnits="userSpaceOnUse">
<stop stop-color="#17FFFF"/>
<stop offset="1" stop-opacity="0.72"/>
</linearGradient>
<linearGradient id="paint6_linear" x1="-49.1523" y1="10.4167" x2="-49.1523" y2="410.417" gradientUnits="userSpaceOnUse">
<stop stop-color="#00FFFF"/>
<stop offset="0.9999" stop-color="#00FFFF" stop-opacity="0"/>
<stop offset="1" stop-color="#00FFFF" stop-opacity="0"/>
</linearGradient>
<linearGradient id="paint7_linear" x1="485" y1="0" x2="485" y2="400" gradientUnits="userSpaceOnUse">
<stop stop-color="#17FFFF"/>
<stop offset="1" stop-opacity="0.72"/>
</linearGradient>
<radialGradient id="paint8_radial" cx="0" cy="0" r="1" gradientUnits="userSpaceOnUse" gradientTransform="translate(485 475) rotate(90) scale(81)">
<stop stop-color="#0D0D0D" stop-opacity="0"/>
<stop offset="1" stop-color="#00FFFF"/>
</radialGradient>
<linearGradient id="paint9_linear" x1="487.589" y1="442.824" x2="487.589" y2="506.834" gradientUnits="userSpaceOnUse">
<stop stop-color="#00FFFF"/>
<stop offset="1" stop-color="#77D9D9" stop-opacity="0"/>
</linearGradient>
<linearGradient id="paint10_linear" x1="498.73" y1="480.454" x2="498.73" y2="506.842" gradientUnits="userSpaceOnUse">
<stop stop-color="#00FFFF"/>
<stop offset="1" stop-color="#66E2E2" stop-opacity="0"/>
</linearGradient>
<linearGradient id="paint11_linear" x1="466.464" y1="442.833" x2="466.464" y2="475.693" gradientUnits="userSpaceOnUse">
<stop stop-color="#00FFFF"/>
<stop offset="1" stop-color="#ADF4F4" stop-opacity="0"/>
</linearGradient>
<linearGradient id="paint12_linear" x1="758.002" y1="741.742" x2="545.87" y2="529.61" gradientUnits="userSpaceOnUse">
<stop stop-color="#00FFFF"/>
<stop offset="1" stop-color="#00FFFF" stop-opacity="0"/>
</linearGradient>
<linearGradient id="paint13_linear" x1="218.742" y1="736.742" x2="430.874" y2="524.61" gradientUnits="userSpaceOnUse">
<stop stop-color="#00FFFF"/>
<stop offset="1" stop-color="#00FFFF" stop-opacity="0"/>
</linearGradient>
<linearGradient id="paint14_linear" x1="1017.15" y1="945.583" x2="1017.15" y2="545.583" gradientUnits="userSpaceOnUse">
<stop stop-color="#00FFFF"/>
<stop offset="0.9999" stop-color="#00FFFF" stop-opacity="0"/>
<stop offset="1" stop-color="#00FFFF" stop-opacity="0"/>
</linearGradient>
<linearGradient id="paint15_linear" x1="483" y1="956" x2="483" y2="556" gradientUnits="userSpaceOnUse">
<stop stop-color="#17FFFF"/>
<stop offset="1" stop-opacity="0.72"/>
</linearGradient>
</defs>
</svg>
