<svg width="1440" height="1024" viewBox="0 0 1440 1024" fill="none" xmlns="http://www.w3.org/2000/svg">
<g filter="url(#filter0_d)">
<path d="M480.72 276.021L718.872 462.132L665.132 515.872L480.72 276.021Z" fill="url(#paint0_linear)"/>
<path d="M959.852 277.72L773.74 515.872L720 462.132L959.852 277.72Z" fill="url(#paint1_linear)"/>
<path d="M239 510.419L639 462V562L239 510.419Z" fill="url(#paint2_linear)"/>
<path d="M239 510.5L439 486L639 511L439 536L239 510.5Z" fill="url(#paint3_linear)"/>
<path d="M1201 512.581L801 561V461L1201 512.581Z" fill="url(#paint4_linear)"/>
<path d="M1201 512.5L1001 537L801 512L1001 487L1201 512.5Z" fill="url(#paint5_linear)"/>
<path d="M720.581 37L769 437H669L720.581 37Z" fill="url(#paint6_linear)"/>
<path d="M720.5 37L745 237L720 437L695 237L720.5 37Z" fill="url(#paint7_linear)"/>
<path d="M801 522.908V501.092C789.856 497.13 782.816 496.016 779.272 487.464V487.457C775.715 478.878 779.947 473.053 784.989 462.435L769.565 447.011C759.029 452.019 753.142 456.292 744.543 452.728H744.536C735.971 449.178 734.85 442.09 730.908 431H709.092C705.163 442.036 704.036 449.171 695.464 452.728H695.457C686.878 456.292 681.066 452.067 670.435 447.011L655.011 462.435C660.04 473.019 664.292 478.864 660.728 487.457C657.171 496.036 650.036 497.163 639 501.092V522.908C650.016 526.823 657.171 527.964 660.728 536.536C664.306 545.19 659.959 551.157 655.011 561.558L670.435 576.989C680.978 571.974 686.864 567.708 695.457 571.272H695.464C704.036 574.822 705.157 581.93 709.092 593H730.908C734.837 581.957 735.97 574.842 744.59 571.251H744.597C753.116 567.714 758.907 571.933 769.558 576.996L784.982 561.565C779.96 551.015 775.701 545.143 779.258 536.55C782.815 527.971 789.977 526.83 801 522.908V522.908ZM720 539C705.089 539 693 526.911 693 512C693 497.089 705.089 485 720 485C734.911 485 747 497.089 747 512C747 526.911 734.911 539 720 539Z" fill="url(#paint8_radial)"/>
<path d="M768.134 511.583C768.134 538.397 746.397 560.134 719.583 560.134C692.77 560.134 671.033 538.397 671.033 511.583C671.033 484.77 692.77 463.033 719.583 463.033C746.397 463.033 768.134 484.77 768.134 511.583Z" fill="#2D2D2D"/>
<path d="M693.073 532.706C693.073 530.028 693.1 527.384 693.073 524.721C693.049 524.243 693.124 523.766 693.292 523.318C693.461 522.871 693.719 522.462 694.052 522.119C706.609 508.445 719.154 494.758 731.685 481.058C732.019 480.656 732.441 480.336 732.917 480.122C733.394 479.909 733.914 479.807 734.436 479.826C739.345 479.864 744.258 479.849 749.166 479.826C750.337 479.826 751.378 480.006 751.898 481.219C752.419 482.431 751.952 483.376 751.099 484.306C733.307 503.714 715.53 523.121 697.767 542.527C696.849 543.533 695.885 544.169 694.527 543.648C693.168 543.128 693.05 541.949 693.061 540.691C693.092 538.032 693.073 535.369 693.073 532.706Z" fill="url(#paint9_linear)"/>
<path d="M739.592 543.839C737.113 543.839 734.619 543.813 732.158 543.839C731.679 543.858 731.201 543.766 730.763 543.571C730.324 543.376 729.937 543.083 729.629 542.715C725.868 538.579 722.077 534.466 718.312 530.334C717.206 529.117 717.218 527.908 718.339 526.668C720.836 523.921 723.346 521.183 725.868 518.454C727.097 517.126 728.547 517.115 729.794 518.454C736.27 525.509 742.743 532.57 749.211 539.638C749.578 539.989 749.828 540.445 749.925 540.943C750.023 541.441 749.963 541.957 749.754 542.42C749.345 543.407 748.499 543.824 747.436 543.82L739.592 543.839Z" fill="url(#paint10_linear)"/>
<path d="M693.072 496.278C693.072 491.778 693.072 487.28 693.072 482.783C693.072 480.641 693.837 479.853 695.945 479.845C699.618 479.83 703.29 479.83 706.961 479.845C709.038 479.845 709.868 480.702 709.872 482.776C709.872 487.459 709.872 492.142 709.872 496.821C709.883 497.275 709.801 497.727 709.632 498.148C709.463 498.57 709.21 498.953 708.889 499.274C705.106 503.329 701.35 507.41 697.621 511.517C696.768 512.462 695.804 512.967 694.587 512.539C693.37 512.11 693.034 511.008 693.057 509.761C693.091 505.273 693.072 500.793 693.072 496.278Z" fill="url(#paint11_linear)"/>
<path d="M958.152 745.852L720 559.74L773.74 506L958.152 745.852Z" fill="url(#paint12_linear)"/>
<path d="M480.021 745.152L666.132 507L719.872 560.74L480.021 745.152Z" fill="url(#paint13_linear)"/>
<path d="M717.419 993L669 593H769L717.419 993Z" fill="url(#paint14_linear)"/>
<path d="M717.5 993L693 793L718 593L743 793L717.5 993Z" fill="url(#paint15_linear)"/>
</g>
<defs>
<filter id="filter0_d" x="235" y="37" width="970" height="964" filterUnits="userSpaceOnUse" color-interpolation-filters="sRGB">
<feFlood flood-opacity="0" result="BackgroundImageFix"/>
<feColorMatrix in="SourceAlpha" type="matrix" values="0 0 0 0 0 0 0 0 0 0 0 0 0 0 0 0 0 0 127 0"/>
<feOffset dy="4"/>
<feGaussianBlur stdDeviation="2"/>
<feColorMatrix type="matrix" values="0 0 0 0 0 0 0 0 0 0 0 0 0 0 0 0 0 0 0.25 0"/>
<feBlend mode="normal" in2="BackgroundImageFix" result="effect1_dropShadow"/>
<feBlend mode="normal" in="SourceGraphic" in2="effect1_dropShadow" result="shape"/>
</filter>
<linearGradient id="paint0_linear" x1="479.87" y1="276.87" x2="692.002" y2="489.002" gradientUnits="userSpaceOnUse">
<stop stop-color="#00FFFF"/>
<stop offset="1" stop-color="#00FFFF" stop-opacity="0"/>
</linearGradient>
<linearGradient id="paint1_linear" x1="959.002" y1="276.87" x2="746.87" y2="489.002" gradientUnits="userSpaceOnUse">
<stop stop-color="#00FFFF"/>
<stop offset="1" stop-color="#00FFFF" stop-opacity="0"/>
</linearGradient>
<linearGradient id="paint2_linear" x1="249.417" y1="1045.15" x2="649.417" y2="1045.15" gradientUnits="userSpaceOnUse">
<stop stop-color="#00FFFF"/>
<stop offset="0.9999" stop-color="#00FFFF" stop-opacity="0"/>
<stop offset="1" stop-color="#00FFFF" stop-opacity="0"/>
</linearGradient>
<linearGradient id="paint3_linear" x1="239" y1="511" x2="639" y2="511" gradientUnits="userSpaceOnUse">
<stop stop-color="#17FFFF"/>
<stop offset="1" stop-opacity="0.72"/>
</linearGradient>
<linearGradient id="paint4_linear" x1="1190.58" y1="-22.1523" x2="790.583" y2="-22.1523" gradientUnits="userSpaceOnUse">
<stop stop-color="#00FFFF"/>
<stop offset="0.9999" stop-color="#00FFFF" stop-opacity="0"/>
<stop offset="1" stop-color="#00FFFF" stop-opacity="0"/>
</linearGradient>
<linearGradient id="paint5_linear" x1="1201" y1="512" x2="801" y2="512" gradientUnits="userSpaceOnUse">
<stop stop-color="#17FFFF"/>
<stop offset="1" stop-opacity="0.72"/>
</linearGradient>
<linearGradient id="paint6_linear" x1="185.848" y1="47.4167" x2="185.848" y2="447.417" gradientUnits="userSpaceOnUse">
<stop stop-color="#00FFFF"/>
<stop offset="0.9999" stop-color="#00FFFF" stop-opacity="0"/>
<stop offset="1" stop-color="#00FFFF" stop-opacity="0"/>
</linearGradient>
<linearGradient id="paint7_linear" x1="720" y1="37" x2="720" y2="437" gradientUnits="userSpaceOnUse">
<stop stop-color="#17FFFF"/>
<stop offset="1" stop-opacity="0.72"/>
</linearGradient>
<radialGradient id="paint8_radial" cx="0" cy="0" r="1" gradientUnits="userSpaceOnUse" gradientTransform="translate(720 512) rotate(90) scale(81)">
<stop stop-color="#0D0D0D" stop-opacity="0"/>
<stop offset="1" stop-color="#00FFFF"/>
</radialGradient>
<linearGradient id="paint9_linear" x1="722.589" y1="479.824" x2="722.589" y2="543.834" gradientUnits="userSpaceOnUse">
<stop stop-color="#00FFFF"/>
<stop offset="1" stop-color="#77D9D9" stop-opacity="0"/>
</linearGradient>
<linearGradient id="paint10_linear" x1="733.73" y1="517.454" x2="733.73" y2="543.842" gradientUnits="userSpaceOnUse">
<stop stop-color="#00FFFF"/>
<stop offset="1" stop-color="#66E2E2" stop-opacity="0"/>
</linearGradient>
<linearGradient id="paint11_linear" x1="701.464" y1="479.833" x2="701.464" y2="512.693" gradientUnits="userSpaceOnUse">
<stop stop-color="#00FFFF"/>
<stop offset="1" stop-color="#ADF4F4" stop-opacity="0"/>
</linearGradient>
<linearGradient id="paint12_linear" x1="993.002" y1="778.742" x2="780.87" y2="566.61" gradientUnits="userSpaceOnUse">
<stop stop-color="#00FFFF"/>
<stop offset="1" stop-color="#00FFFF" stop-opacity="0"/>
</linearGradient>
<linearGradient id="paint13_linear" x1="453.742" y1="773.742" x2="665.874" y2="561.61" gradientUnits="userSpaceOnUse">
<stop stop-color="#00FFFF"/>
<stop offset="1" stop-color="#00FFFF" stop-opacity="0"/>
</linearGradient>
<linearGradient id="paint14_linear" x1="1252.15" y1="982.583" x2="1252.15" y2="582.583" gradientUnits="userSpaceOnUse">
<stop stop-color="#00FFFF"/>
<stop offset="0.9999" stop-color="#00FFFF" stop-opacity="0"/>
<stop offset="1" stop-color="#00FFFF" stop-opacity="0"/>
</linearGradient>
<linearGradient id="paint15_linear" x1="718" y1="993" x2="718" y2="593" gradientUnits="userSpaceOnUse">
<stop stop-color="#17FFFF"/>
<stop offset="1" stop-opacity="0.72"/>
</linearGradient>
</defs>
</svg>
